<svg viewBox="0 0 1254 1254" version="1.1" xmlns="http://www.w3.org/2000/svg" desc="Created with imagetracer.js version 1.2.6" ><path fill="rgb(57,26,10)" stroke="rgb(57,26,10)" stroke-width="1" opacity="1" d="M 184.5 590 L 185 593.5 L 184 593.5 L 184.5 590 Z " /><path fill="rgb(57,26,10)" stroke="rgb(57,26,10)" stroke-width="1" opacity="1" d="M 452.5 600 Q 472.05 599.95 482 609.5 Q 479.75 610.75 482.5 612 L 484 611.5 L 483.5 610 Q 497.25 620.75 504 638.5 L 509 658.5 L 509 684.5 L 506 699.5 L 500.5 712 L 499.5 710 L 497 711 L 497.5 716 L 499.5 713 L 500 714.5 L 486.5 733 L 471.5 743 L 460.5 746 L 448.5 746 Q 426.93 741.57 416 726.5 Q 407.49 715.51 403 700.5 L 400 686.5 L 399 670.5 L 400 669.5 L 400 660.5 L 401.5 654 L 402.5 658 L 403.5 656 Q 404.75 658.25 406 655.5 Q 406.5 651.5 403.5 651 L 402.5 653 L 402 649.5 L 406 637.5 L 410.5 630 L 410 631.5 Q 409.25 633.75 411.5 633 L 416 635 L 414 639.5 L 419 645.5 L 417 649.5 Q 418.17 652.75 422 652 L 421 649.5 L 421 637.5 L 422 635 L 416 634 L 413.5 626 L 412 626.5 Q 416.94 616.94 425.5 611 L 426.5 614 Q 431.25 613.75 433 610.5 L 431 607.5 L 438.5 603 L 452.5 600 Z M 453 601 L 456 604 L 458 603 L 460 607 L 465 603 L 453 601 Z M 479 608 L 477 610 L 479 610 Q 480 612 481 610 L 479 608 Z M 436 618 L 434 621 L 434 622 L 441 621 L 436 618 Z M 451 618 L 449 620 L 451 620 L 451 618 Z M 437 622 L 430 626 Q 424 630 422 638 Q 420 652 426 658 Q 430 664 439 666 Q 449 666 455 661 Q 460 656 462 649 Q 463 637 459 632 L 450 623 Q 445 621 437 622 Z M 494 622 L 492 626 L 496 627 L 494 622 Z M 464 637 Q 461 642 464 644 L 463 646 L 464 649 L 465 647 Q 466 640 464 637 Z M 504 642 L 504 648 L 505 648 L 504 642 Z M 458 659 L 456 661 Q 455 663 458 662 Q 461 661 458 659 Z M 508 661 L 507 677 L 508 677 L 508 661 Z M 402 664 L 401 667 L 402 667 L 402 664 Z M 432 664 L 432 668 L 437 667 L 432 664 Z M 402 683 L 401 686 L 402 686 L 402 683 Z M 405 698 L 404 701 L 405 701 L 405 698 Z M 446 743 L 446 744 L 449 745 L 453 745 L 446 743 Z M 462 743 L 462 744 L 464 744 L 462 743 Z " /><path fill="rgb(57,26,10)" stroke="rgb(57,26,10)" stroke-width="1" opacity="1" d="M 795.5 600 L 809 601.5 Q 804.4 600.9 803 603.5 Q 801.88 606.83 804.5 606 L 806.5 606 L 813.5 608 L 815.5 608 L 818 605.5 L 813 603.5 L 815.5 603 Q 828.12 608.38 836 618.5 L 832.5 616 L 831 617.5 L 832 623 L 838 624 L 836 620.5 L 840 623.5 L 848 640.5 L 847 640.5 L 846.5 639 L 845 640.5 L 845 651.5 L 844 652.5 L 846 653 L 846.5 649 L 848.5 653 Q 851.13 652.17 850 655.5 L 851 655.5 L 851.5 653 L 853 659.5 L 853 682.5 L 850 698.5 L 846 709.5 Q 839.26 725.76 826.5 736 Q 819.65 742.15 809.5 745 Q 802 747.5 790.5 746 L 779 741.5 L 780.5 741 L 782.5 742 L 781.5 740 Q 779.25 740.75 780 738.5 L 777.5 737 L 775 738.5 L 778 740.5 L 776.5 740 Q 765.08 735.42 759 725.5 Q 742.56 704.94 743 667.5 L 744 666.5 L 745 652.5 L 750 637.5 Q 757.25 619.75 771.5 609 L 780.5 604 L 780.5 606 Q 785.62 606.62 787 603.5 L 785 602.5 L 795.5 600 Z M 765 617 L 763 619 L 766 619 L 765 617 Z M 793 617 L 792 618 Q 789 617 790 620 L 790 622 L 780 622 L 774 625 L 767 633 L 764 643 L 765 651 L 768 657 Q 773 664 783 666 Q 792 666 797 662 Q 803 657 805 648 L 805 640 L 801 631 Q 798 625 792 623 L 792 622 L 796 624 L 798 621 Q 799 618 796 619 L 796 617 L 793 617 Z M 775 619 L 771 623 L 773 625 L 777 622 Q 779 623 778 620 L 777 620 L 775 619 Z M 800 626 L 799 628 L 802 630 L 800 626 Z M 765 633 L 764 635 L 763 634 L 761 634 L 761 638 L 764 639 L 765 636 L 765 633 Z M 806 636 L 806 640 L 805 652 L 806 652 L 806 650 L 811 650 L 812 648 L 811 636 L 807 638 L 806 636 Z M 751 638 L 750 643 L 751 643 Q 750 640 753 641 Q 754 637 751 638 Z M 764 649 L 764 653 L 762 653 L 763 657 Q 762 659 767 658 L 768 659 L 764 649 Z M 803 656 L 800 660 L 803 660 L 803 656 Z M 773 664 Q 771 668 775 667 L 778 668 L 779 667 L 773 664 Z M 793 665 L 791 666 L 790 668 Q 794 669 795 667 L 793 665 Z M 852 676 L 851 680 L 852 680 L 852 676 Z M 745 677 Q 744 687 747 693 L 748 688 Q 747 684 750 685 Q 751 681 748 680 Q 749 675 745 677 Z M 851 685 L 849 690 L 850 692 L 851 690 L 851 685 Z M 754 713 L 754 716 L 755 716 Q 756 712 754 713 Z M 832 726 L 831 730 L 834 728 Q 835 725 832 726 Z M 763 727 L 768 733 L 770 727 L 768 728 L 763 727 Z M 794 743 L 794 745 L 801 745 Q 799 742 794 743 Z " /><path fill="rgb(57,26,10)" stroke="rgb(57,26,10)" stroke-width="1" opacity="1" d="M 850.5 649 L 851 651.5 L 850 651.5 L 850.5 649 Z " /><path fill="rgb(57,26,10)" stroke="rgb(57,26,10)" stroke-width="1" opacity="1" d="M 568.5 726 Q 576.56 725.44 579 730.5 L 582 741.5 L 595.5 756 L 598 757.5 L 596.5 757 L 593.5 756 L 592 757.5 Q 595.08 759.25 593.5 761 Q 596.13 760.17 595 763.5 L 599 765.5 L 599.5 767 L 601.5 764 L 607 762.5 L 599 758.5 L 600.5 759 Q 613.19 766.31 634.5 765 L 647.5 762 L 647.5 763 L 646 763.5 L 650.5 765 L 655 762.5 L 654 759.5 L 655.5 758 Q 664.92 754.42 670 746.5 L 674.5 739 L 675 741 L 680 740 L 679 731.5 L 681.5 731 L 686.5 729 L 688.5 730 L 689.5 728 L 688 727.5 L 689.5 727 L 693 729.5 L 695 736.5 Q 691 757.5 676.5 768 L 658.5 779 L 645.5 783 L 626.5 785 L 625.5 784 L 617 783.5 L 621 782.5 L 620 781.5 L 621.5 779 L 612.5 777 L 609 778 L 608 780.5 L 613 782.5 L 610.5 783 Q 597.15 780.35 588 773.5 L 589.5 774 L 598.5 778 L 599 775.5 L 591.5 768 L 589.5 768 L 585 769 L 584.5 772 L 573 762.5 L 563 746.5 L 561 739.5 L 561 732.5 L 565.5 727 L 568.5 726 Z M 566 728 L 562 734 L 564 733 L 568 734 L 569 729 L 566 728 Z M 573 728 L 575 730 L 577 730 L 573 728 Z M 693 738 L 691 740 Q 692 743 688 741 L 691 747 L 693 742 L 693 738 Z M 580 739 Q 577 746 582 744 L 580 739 Z M 566 747 L 566 751 L 569 751 Q 570 746 568 747 L 566 747 Z M 667 751 L 661 757 L 667 759 L 668 756 Q 671 757 669 753 L 667 751 Z M 626 766 L 626 767 L 630 767 L 626 766 Z M 663 771 L 661 775 L 661 776 L 665 775 L 666 772 L 665 772 L 663 771 Z M 645 779 L 637 781 L 637 782 Q 643 783 647 781 L 645 779 Z " /><path fill="rgb(57,26,10)" stroke="rgb(57,26,10)" stroke-width="1" opacity="1" d="M 684.5 726 L 687 726.5 L 684.5 727 L 684.5 726 Z " /><path fill="rgb(57,26,10)" stroke="rgb(57,26,10)" stroke-width="1" opacity="1" d="M 680.5 727 L 682 727.5 L 678 730.5 L 676.5 734 L 676 731.5 L 680.5 727 Z " /><path fill="rgb(57,26,10)" stroke="rgb(57,26,10)" stroke-width="1" opacity="1" d="M 651.5 760 L 653 760.5 L 649.5 762 L 649.5 761 L 651.5 760 Z " /><path fill="rgb(57,26,10)" stroke="rgb(57,26,10)" stroke-width="1" opacity="1" d="M 601.5 1089 L 609 1089.5 L 601.5 1090 L 601.5 1089 Z " /><path fill="rgb(173,179,118)" stroke="rgb(173,179,118)" stroke-width="1" opacity="1" d="M 795.5 144 L 807 144.5 L 795.5 145 L 795.5 144 Z " /><path fill="rgb(173,179,118)" stroke="rgb(173,179,118)" stroke-width="1" opacity="1" d="M 953.5 212 L 954 215.5 L 953 215.5 L 953.5 212 Z " /><path fill="rgb(173,179,118)" stroke="rgb(173,179,118)" stroke-width="1" opacity="1" d="M 469.5 277 L 473 277.5 L 469.5 278 L 469.5 277 Z " /><path fill="rgb(173,179,118)" stroke="rgb(173,179,118)" stroke-width="1" opacity="1" d="M 494.5 277 L 498 277.5 L 494.5 278 L 494.5 277 Z " /><path fill="rgb(173,179,118)" stroke="rgb(173,179,118)" stroke-width="1" opacity="1" d="M 455.5 278 L 458 278.5 L 455.5 279 L 455.5 278 Z " /><path fill="rgb(173,179,118)" stroke="rgb(173,179,118)" stroke-width="1" opacity="1" d="M 183.5 591 L 184 593.5 L 183 593.5 L 183.5 591 Z " /><path fill="rgb(173,179,118)" stroke="rgb(173,179,118)" stroke-width="1" opacity="1" d="M 1070.5 592 L 1071 595.5 L 1070 595.5 L 1070.5 592 Z " /><path fill="rgb(173,179,118)" stroke="rgb(173,179,118)" stroke-width="1" opacity="1" d="M 1070.5 642 L 1071 645.5 L 1070 645.5 L 1070.5 642 Z " /><path fill="rgb(173,179,118)" stroke="rgb(173,179,118)" stroke-width="1" opacity="1" d="M 183.5 645 L 184 647.5 L 183 647.5 L 183.5 645 Z " /><path fill="rgb(173,179,118)" stroke="rgb(173,179,118)" stroke-width="1" opacity="1" d="M 603.5 1090 L 607 1090.5 L 603.5 1091 L 603.5 1090 Z " /><path fill="rgb(173,179,118)" stroke="rgb(173,179,118)" stroke-width="1" opacity="1" d="M 647.5 1090 L 651 1090.5 L 647.5 1091 L 647.5 1090 Z " /><path fill="rgb(188,173,161)" stroke="rgb(188,173,161)" stroke-width="1" opacity="1" d="M 792.5 144 L 795 144.5 L 792.5 145 L 792.5 144 Z " /><path fill="rgb(188,173,161)" stroke="rgb(188,173,161)" stroke-width="1" opacity="1" d="M 807.5 144 L 810 144.5 L 807.5 145 L 807.5 144 Z " /><path fill="rgb(188,173,161)" stroke="rgb(188,173,161)" stroke-width="1" opacity="1" d="M 498.5 277 L 501 277.5 L 498.5 278 L 498.5 277 Z " /><path fill="rgb(188,173,161)" stroke="rgb(188,173,161)" stroke-width="1" opacity="1" d="M 1071.5 608 L 1072 626.5 L 1071 626.5 L 1071.5 608 Z " /><path fill="rgb(188,173,161)" stroke="rgb(188,173,161)" stroke-width="1" opacity="1" d="M 182.5 612 L 183 629.5 L 182 629.5 L 182.5 612 Z " /><path fill="rgb(188,173,161)" stroke="rgb(188,173,161)" stroke-width="1" opacity="1" d="M 783.5 622 L 787 622.5 L 783.5 623 L 783.5 622 Z " /><path fill="rgb(188,173,161)" stroke="rgb(188,173,161)" stroke-width="1" opacity="1" d="M 765.5 641 L 766 645.5 L 765 645.5 L 765.5 641 Z " /><path fill="rgb(188,173,161)" stroke="rgb(188,173,161)" stroke-width="1" opacity="1" d="M 1070.5 646 L 1071 648.5 L 1070 648.5 L 1070.5 646 Z " /><path fill="rgb(188,173,161)" stroke="rgb(188,173,161)" stroke-width="1" opacity="1" d="M 1069.5 660 L 1070 662.5 L 1069 662.5 L 1069.5 660 Z " /><path fill="rgb(188,173,161)" stroke="rgb(188,173,161)" stroke-width="1" opacity="1" d="M 600.5 1090 L 603 1090.5 L 600.5 1091 L 600.5 1090 Z " /><path fill="rgb(165,43,31)" stroke="rgb(165,43,31)" stroke-width="1" opacity="1" d="M 607.5 167 L 617.5 168 L 629 175 L 634 183.5 L 639 198.5 L 645 230.5 L 646 251.5 L 647 252.5 L 647 308.5 L 646 309.5 L 646 327.5 L 645 328.5 L 645 339.5 L 644 340.5 L 644 350.5 L 643 351.5 L 641 376 L 638.5 377 L 626.5 377 L 624 376 L 623 369.5 L 623 346.5 L 622 345.5 L 622 332.5 L 620 322.5 L 620 313.5 L 612 272.5 L 603 247.5 Q 592.2 223.8 577 204.5 L 574 198.5 L 574 193.5 Q 576.86 181.86 585.5 176 L 595.5 170 L 607.5 167 Z " /><path fill="rgb(165,43,31)" stroke="rgb(165,43,31)" stroke-width="1" opacity="1" d="M 470.5 294 L 495 294.5 L 470.5 295 L 470.5 294 Z " /><path fill="rgb(165,43,31)" stroke="rgb(165,43,31)" stroke-width="1" opacity="1" d="M 458.5 295 L 465 295.5 L 458.5 296 L 458.5 295 Z " /><path fill="rgb(165,43,31)" stroke="rgb(165,43,31)" stroke-width="1" opacity="1" d="M 500.5 295 L 508 295.5 L 500.5 296 L 500.5 295 Z " /><path fill="rgb(165,43,31)" stroke="rgb(165,43,31)" stroke-width="1" opacity="1" d="M 449.5 296 L 454 296.5 L 449.5 297 L 449.5 296 Z " /><path fill="rgb(165,43,31)" stroke="rgb(165,43,31)" stroke-width="1" opacity="1" d="M 510.5 296 L 515 296.5 L 510.5 297 L 510.5 296 Z " /><path fill="rgb(165,43,31)" stroke="rgb(165,43,31)" stroke-width="1" opacity="1" d="M 442.5 297 L 447 297.5 L 442.5 298 L 442.5 297 Z " /><path fill="rgb(165,43,31)" stroke="rgb(165,43,31)" stroke-width="1" opacity="1" d="M 518.5 297 L 522 297.5 L 518.5 298 L 518.5 297 Z " /><path fill="rgb(165,43,31)" stroke="rgb(165,43,31)" stroke-width="1" opacity="1" d="M 437.5 298 L 440 298.5 L 437.5 299 L 437.5 298 Z " /><path fill="rgb(165,43,31)" stroke="rgb(165,43,31)" stroke-width="1" opacity="1" d="M 524.5 298 L 527 298.5 L 524.5 299 L 524.5 298 Z " /><path fill="rgb(165,43,31)" stroke="rgb(165,43,31)" stroke-width="1" opacity="1" d="M 432.5 299 L 435 299.5 L 432.5 300 L 432.5 299 Z " /><path fill="rgb(165,43,31)" stroke="rgb(165,43,31)" stroke-width="1" opacity="1" d="M 529.5 299 L 532 299.5 L 529.5 300 L 529.5 299 Z " /><path fill="rgb(165,43,31)" stroke="rgb(165,43,31)" stroke-width="1" opacity="1" d="M 427.5 300 L 430 300.5 L 427.5 301 L 427.5 300 Z " /><path fill="rgb(165,43,31)" stroke="rgb(165,43,31)" stroke-width="1" opacity="1" d="M 533.5 300 L 537 300.5 L 533.5 301 L 533.5 300 Z " /><path fill="rgb(165,43,31)" stroke="rgb(165,43,31)" stroke-width="1" opacity="1" d="M 422.5 301 L 426 301.5 L 422.5 302 L 422.5 301 Z " /><path fill="rgb(165,43,31)" stroke="rgb(165,43,31)" stroke-width="1" opacity="1" d="M 538.5 301 L 544 302.5 L 541.5 303 L 538.5 302 L 538.5 301 Z " /><path fill="rgb(165,43,31)" stroke="rgb(165,43,31)" stroke-width="1" opacity="1" d="M 418.5 302 L 421 302.5 L 418.5 303 L 418.5 302 Z " /><path fill="rgb(165,43,31)" stroke="rgb(165,43,31)" stroke-width="1" opacity="1" d="M 414.5 303 L 417 303.5 L 414.5 304 L 414.5 303 Z " /><path fill="rgb(165,43,31)" stroke="rgb(165,43,31)" stroke-width="1" opacity="1" d="M 545.5 303 L 550 304.5 L 548.5 305 L 545.5 304 L 545.5 303 Z " /><path fill="rgb(165,43,31)" stroke="rgb(165,43,31)" stroke-width="1" opacity="1" d="M 551.5 305 L 556 306.5 L 554.5 307 L 551.5 306 L 551.5 305 Z " /><path fill="rgb(165,43,31)" stroke="rgb(165,43,31)" stroke-width="1" opacity="1" d="M 404.5 306 L 407 306.5 L 399.5 309 L 399.5 308 L 404.5 306 Z " /><path fill="rgb(165,43,31)" stroke="rgb(165,43,31)" stroke-width="1" opacity="1" d="M 563.5 309 L 567 310.5 L 565.5 311 L 563.5 309 Z " /><path fill="rgb(165,43,31)" stroke="rgb(165,43,31)" stroke-width="1" opacity="1" d="M 857.5 309 L 860 309.5 L 857.5 310 L 857.5 309 Z " /><path fill="rgb(165,43,31)" stroke="rgb(165,43,31)" stroke-width="1" opacity="1" d="M 855.5 310 L 854.5 312 L 850.5 314 L 851.5 312 L 855.5 310 Z " /><path fill="rgb(165,43,31)" stroke="rgb(165,43,31)" stroke-width="1" opacity="1" d="M 568.5 311 L 574 313.5 L 572.5 314 L 568.5 312 L 568.5 311 Z " /><path fill="rgb(165,43,31)" stroke="rgb(165,43,31)" stroke-width="1" opacity="1" d="M 867.5 312 L 871 313.5 L 869.5 314 L 867.5 312 Z " /><path fill="rgb(165,43,31)" stroke="rgb(165,43,31)" stroke-width="1" opacity="1" d="M 384.5 313 L 386 313.5 L 382.5 315 L 382.5 314 L 384.5 313 Z " /><path fill="rgb(165,43,31)" stroke="rgb(165,43,31)" stroke-width="1" opacity="1" d="M 379.5 315 L 381 315.5 L 377.5 317 L 377.5 316 L 379.5 315 Z " /><path fill="rgb(165,43,31)" stroke="rgb(165,43,31)" stroke-width="1" opacity="1" d="M 577.5 315 L 581 316.5 L 579.5 317 L 577.5 315 Z " /><path fill="rgb(165,43,31)" stroke="rgb(165,43,31)" stroke-width="1" opacity="1" d="M 875.5 315 L 879 316.5 L 877.5 317 L 875.5 315 Z " /><path fill="rgb(165,43,31)" stroke="rgb(165,43,31)" stroke-width="1" opacity="1" d="M 586.5 319 L 592 322.5 L 590.5 322 Q 586.5 321.5 586.5 319 Z " /><path fill="rgb(165,43,31)" stroke="rgb(165,43,31)" stroke-width="1" opacity="1" d="M 884.5 319 L 890 321.5 L 888.5 322 L 884.5 320 L 884.5 319 Z " /><path fill="rgb(165,43,31)" stroke="rgb(165,43,31)" stroke-width="1" opacity="1" d="M 368.5 320 L 370 320.5 L 355.5 328 L 356.5 326 L 368.5 320 Z " /><path fill="rgb(165,43,31)" stroke="rgb(165,43,31)" stroke-width="1" opacity="1" d="M 835.5 320 L 837 320.5 L 829.5 324 L 829.5 323 L 835.5 320 Z " /><path fill="rgb(165,43,31)" stroke="rgb(165,43,31)" stroke-width="1" opacity="1" d="M 595.5 324 L 601 327.5 L 599.5 327 Q 595.5 326.5 595.5 324 Z " /><path fill="rgb(165,43,31)" stroke="rgb(165,43,31)" stroke-width="1" opacity="1" d="M 826.5 324 L 828 324.5 L 824.5 326 L 824.5 325 L 826.5 324 Z " /><path fill="rgb(165,43,31)" stroke="rgb(165,43,31)" stroke-width="1" opacity="1" d="M 897.5 325 L 903 328.5 L 901.5 328 Q 897.5 327.5 897.5 325 Z " /><path fill="rgb(165,43,31)" stroke="rgb(165,43,31)" stroke-width="1" opacity="1" d="M 815.5 328 L 817 328.5 L 806.5 332 L 806.5 331 L 815.5 328 Z " /><path fill="rgb(165,43,31)" stroke="rgb(165,43,31)" stroke-width="1" opacity="1" d="M 351.5 329 L 350.5 331 L 348.5 332 L 349.5 330 L 351.5 329 Z " /><path fill="rgb(165,43,31)" stroke="rgb(165,43,31)" stroke-width="1" opacity="1" d="M 675.5 330 L 681.5 330 L 691 333.5 L 688.5 334 Q 684.4 330.1 675.5 331 L 675.5 330 Z " /><path fill="rgb(165,43,31)" stroke="rgb(165,43,31)" stroke-width="1" opacity="1" d="M 906.5 330 L 910 332.5 L 908.5 332 L 906.5 330 Z " /><path fill="rgb(165,43,31)" stroke="rgb(165,43,31)" stroke-width="1" opacity="1" d="M 670.5 331 L 674 331.5 L 670.5 332 L 670.5 331 Z " /><path fill="rgb(165,43,31)" stroke="rgb(165,43,31)" stroke-width="1" opacity="1" d="M 664.5 333 L 666 333.5 L 663 335.5 L 662.5 338 L 662 335.5 L 664.5 333 Z " /><path fill="rgb(165,43,31)" stroke="rgb(165,43,31)" stroke-width="1" opacity="1" d="M 799.5 333 L 802 333.5 L 799.5 334 L 799.5 333 Z " /><path fill="rgb(165,43,31)" stroke="rgb(165,43,31)" stroke-width="1" opacity="1" d="M 911.5 333 L 918 337.5 L 916.5 337 Q 911.92 335.83 911.5 333 Z " /><path fill="rgb(165,43,31)" stroke="rgb(165,43,31)" stroke-width="1" opacity="1" d="M 795.5 334 L 798 334.5 L 795.5 335 L 795.5 334 Z " /><path fill="rgb(165,43,31)" stroke="rgb(165,43,31)" stroke-width="1" opacity="1" d="M 791.5 335 L 794 335.5 L 791.5 336 L 791.5 335 Z " /><path fill="rgb(165,43,31)" stroke="rgb(165,43,31)" stroke-width="1" opacity="1" d="M 604.5 336 L 605 343.5 L 604 343.5 L 604.5 336 Z " /><path fill="rgb(165,43,31)" stroke="rgb(165,43,31)" stroke-width="1" opacity="1" d="M 700.5 336 L 703 336.5 L 700.5 337 L 700.5 336 Z " /><path fill="rgb(165,43,31)" stroke="rgb(165,43,31)" stroke-width="1" opacity="1" d="M 786.5 336 L 789 336.5 L 786.5 337 L 786.5 336 Z " /><path fill="rgb(165,43,31)" stroke="rgb(165,43,31)" stroke-width="1" opacity="1" d="M 704.5 337 L 709 337.5 L 704.5 338 L 704.5 337 Z " /><path fill="rgb(165,43,31)" stroke="rgb(165,43,31)" stroke-width="1" opacity="1" d="M 780.5 337 L 784 337.5 L 780.5 338 L 780.5 337 Z " /><path fill="rgb(165,43,31)" stroke="rgb(165,43,31)" stroke-width="1" opacity="1" d="M 710.5 338 L 715 338.5 L 710.5 339 L 710.5 338 Z " /><path fill="rgb(165,43,31)" stroke="rgb(165,43,31)" stroke-width="1" opacity="1" d="M 774.5 338 L 778 338.5 L 774.5 339 L 774.5 338 Z " /><path fill="rgb(165,43,31)" stroke="rgb(165,43,31)" stroke-width="1" opacity="1" d="M 716.5 339 L 723 339.5 L 716.5 340 L 716.5 339 Z " /><path fill="rgb(165,43,31)" stroke="rgb(165,43,31)" stroke-width="1" opacity="1" d="M 766.5 339 L 772 339.5 L 766.5 340 L 766.5 339 Z " /><path fill="rgb(165,43,31)" stroke="rgb(165,43,31)" stroke-width="1" opacity="1" d="M 726.5 340 L 739 340.5 L 726.5 341 L 726.5 340 Z " /><path fill="rgb(165,43,31)" stroke="rgb(165,43,31)" stroke-width="1" opacity="1" d="M 752.5 340 L 763 340.5 L 752.5 341 L 752.5 340 Z " /><path fill="rgb(165,43,31)" stroke="rgb(165,43,31)" stroke-width="1" opacity="1" d="M 922.5 340 L 928 344.5 L 925.5 343 L 922.5 340 Z " /><path fill="rgb(165,43,31)" stroke="rgb(165,43,31)" stroke-width="1" opacity="1" d="M 661.5 342 L 662 347.5 L 661 347.5 L 661.5 342 Z " /><path fill="rgb(165,43,31)" stroke="rgb(165,43,31)" stroke-width="1" opacity="1" d="M 605.5 351 L 606 361.5 L 605 361.5 L 605.5 351 Z " /><path fill="rgb(165,43,31)" stroke="rgb(165,43,31)" stroke-width="1" opacity="1" d="M 660.5 353 L 661 357.5 L 660 357.5 L 660.5 353 Z " /><path fill="rgb(165,43,31)" stroke="rgb(165,43,31)" stroke-width="1" opacity="1" d="M 659.5 361 L 660 366.5 L 659 366.5 L 659.5 361 Z " /><path fill="rgb(165,43,31)" stroke="rgb(165,43,31)" stroke-width="1" opacity="1" d="M 597.5 367 L 600 367.5 L 597.5 368 L 597.5 367 Z " /><path fill="rgb(165,43,31)" stroke="rgb(165,43,31)" stroke-width="1" opacity="1" d="M 666.5 367 L 669 367.5 L 666.5 368 L 666.5 367 Z " /><path fill="rgb(165,43,31)" stroke="rgb(165,43,31)" stroke-width="1" opacity="1" d="M 663.5 368 L 665 368.5 L 662.5 370 L 663.5 368 Z " /><path fill="rgb(165,43,31)" stroke="rgb(165,43,31)" stroke-width="1" opacity="1" d="M 670.5 368 L 675 371.5 L 671.5 369 L 670.5 368 Z " /><path fill="rgb(165,43,31)" stroke="rgb(165,43,31)" stroke-width="1" opacity="1" d="M 675.5 373 L 676 377.5 L 675 377.5 L 675.5 373 Z " /><path fill="rgb(165,43,31)" stroke="rgb(165,43,31)" stroke-width="1" opacity="1" d="M 591.5 380 L 597 384.5 L 595.5 384 L 591.5 380 Z " /><path fill="rgb(165,43,31)" stroke="rgb(165,43,31)" stroke-width="1" opacity="1" d="M 600.5 386 L 603 387.5 L 601.5 388 L 600.5 386 Z " /><path fill="rgb(165,43,31)" stroke="rgb(165,43,31)" stroke-width="1" opacity="1" d="M 665.5 386 L 664.5 388 L 663 387.5 L 665.5 386 Z " /><path fill="rgb(165,43,31)" stroke="rgb(165,43,31)" stroke-width="1" opacity="1" d="M 609.5 390 L 612 390.5 L 609.5 391 L 609.5 390 Z " /><path fill="rgb(165,43,31)" stroke="rgb(165,43,31)" stroke-width="1" opacity="1" d="M 613.5 391 L 616 391.5 L 613.5 392 L 613.5 391 Z " /><path fill="rgb(165,43,31)" stroke="rgb(165,43,31)" stroke-width="1" opacity="1" d="M 617.5 392 L 621 392.5 L 617.5 393 L 617.5 392 Z " /><path fill="rgb(165,43,31)" stroke="rgb(165,43,31)" stroke-width="1" opacity="1" d="M 646.5 392 L 649 392.5 L 646.5 393 L 646.5 392 Z " /><path fill="rgb(165,43,31)" stroke="rgb(165,43,31)" stroke-width="1" opacity="1" d="M 623.5 393 L 643 393.5 L 623.5 394 L 623.5 393 Z " /><path fill="rgb(165,43,31)" stroke="rgb(165,43,31)" stroke-width="1" opacity="1" d="M 256.5 422 L 256 423.5 L 254.5 426 L 255 424.5 L 256.5 422 Z " /><path fill="rgb(165,43,31)" stroke="rgb(165,43,31)" stroke-width="1" opacity="1" d="M 1007.5 436 L 1010 439.5 L 1008 438.5 L 1007.5 436 Z " /><path fill="rgb(165,43,31)" stroke="rgb(165,43,31)" stroke-width="1" opacity="1" d="M 245.5 441 L 245 442.5 L 243.5 445 L 244 443.5 L 245.5 441 Z " /><path fill="rgb(165,43,31)" stroke="rgb(165,43,31)" stroke-width="1" opacity="1" d="M 235.5 460 L 236 461.5 L 234.5 464 L 234 462.5 L 235.5 460 Z " /><path fill="rgb(165,43,31)" stroke="rgb(165,43,31)" stroke-width="1" opacity="1" d="M 1024.5 470 L 1026 473.5 L 1025 473.5 L 1024.5 470 Z " /><path fill="rgb(165,43,31)" stroke="rgb(165,43,31)" stroke-width="1" opacity="1" d="M 228.5 476 L 229 477.5 L 227.5 480 L 227 478.5 L 228.5 476 Z " /><path fill="rgb(165,43,31)" stroke="rgb(165,43,31)" stroke-width="1" opacity="1" d="M 1028.5 480 L 1030 483.5 L 1029 483.5 L 1028.5 480 Z " /><path fill="rgb(165,43,31)" stroke="rgb(165,43,31)" stroke-width="1" opacity="1" d="M 1037.5 505 L 1038 507.5 L 1037 507.5 L 1037.5 505 Z " /><path fill="rgb(165,43,31)" stroke="rgb(165,43,31)" stroke-width="1" opacity="1" d="M 1039.5 512 L 1040 514.5 L 1039 514.5 L 1039.5 512 Z " /><path fill="rgb(165,43,31)" stroke="rgb(165,43,31)" stroke-width="1" opacity="1" d="M 1041.5 519 L 1042 521.5 L 1041 521.5 L 1041.5 519 Z " /><path fill="rgb(165,43,31)" stroke="rgb(165,43,31)" stroke-width="1" opacity="1" d="M 212.5 523 L 213 525.5 L 212 525.5 L 212.5 523 Z " /><path fill="rgb(165,43,31)" stroke="rgb(165,43,31)" stroke-width="1" opacity="1" d="M 1042.5 523 L 1043 525.5 L 1042 525.5 L 1042.5 523 Z " /><path fill="rgb(165,43,31)" stroke="rgb(165,43,31)" stroke-width="1" opacity="1" d="M 211.5 527 L 212 529.5 L 211 529.5 L 211.5 527 Z " /><path fill="rgb(165,43,31)" stroke="rgb(165,43,31)" stroke-width="1" opacity="1" d="M 1043.5 527 L 1044 529.5 L 1043 529.5 L 1043.5 527 Z " /><path fill="rgb(165,43,31)" stroke="rgb(165,43,31)" stroke-width="1" opacity="1" d="M 210.5 531 L 211 533.5 L 210 533.5 L 210.5 531 Z " /><path fill="rgb(165,43,31)" stroke="rgb(165,43,31)" stroke-width="1" opacity="1" d="M 1044.5 531 L 1045 533.5 L 1044 533.5 L 1044.5 531 Z " /><path fill="rgb(165,43,31)" stroke="rgb(165,43,31)" stroke-width="1" opacity="1" d="M 209.5 535 L 210 537.5 L 209 537.5 L 209.5 535 Z " /><path fill="rgb(165,43,31)" stroke="rgb(165,43,31)" stroke-width="1" opacity="1" d="M 1045.5 536 L 1046 538.5 L 1045 538.5 L 1045.5 536 Z " /><path fill="rgb(165,43,31)" stroke="rgb(165,43,31)" stroke-width="1" opacity="1" d="M 208.5 540 L 209 542.5 L 208 542.5 L 208.5 540 Z " /><path fill="rgb(165,43,31)" stroke="rgb(165,43,31)" stroke-width="1" opacity="1" d="M 1046.5 540 L 1047 542.5 L 1046 542.5 L 1046.5 540 Z " /><path fill="rgb(165,43,31)" stroke="rgb(165,43,31)" stroke-width="1" opacity="1" d="M 207.5 544 L 208 546.5 L 207 546.5 L 207.5 544 Z " /><path fill="rgb(165,43,31)" stroke="rgb(165,43,31)" stroke-width="1" opacity="1" d="M 1047.5 545 L 1048 548.5 L 1047 548.5 L 1047.5 545 Z " /><path fill="rgb(165,43,31)" stroke="rgb(165,43,31)" stroke-width="1" opacity="1" d="M 206.5 549 L 207 552.5 L 206 552.5 L 206.5 549 Z " /><path fill="rgb(165,43,31)" stroke="rgb(165,43,31)" stroke-width="1" opacity="1" d="M 1048.5 551 L 1049 553.5 L 1048 553.5 L 1048.5 551 Z " /><path fill="rgb(165,43,31)" stroke="rgb(165,43,31)" stroke-width="1" opacity="1" d="M 205.5 555 L 206 558.5 L 205 558.5 L 205.5 555 Z " /><path fill="rgb(165,43,31)" stroke="rgb(165,43,31)" stroke-width="1" opacity="1" d="M 1049.5 557 L 1050 560.5 L 1049 560.5 L 1049.5 557 Z " /><path fill="rgb(165,43,31)" stroke="rgb(165,43,31)" stroke-width="1" opacity="1" d="M 204.5 561 L 205 563.5 L 204 563.5 L 204.5 561 Z " /><path fill="rgb(165,43,31)" stroke="rgb(165,43,31)" stroke-width="1" opacity="1" d="M 1050.5 563 L 1051 567.5 L 1050 567.5 L 1050.5 563 Z " /><path fill="rgb(165,43,31)" stroke="rgb(165,43,31)" stroke-width="1" opacity="1" d="M 203.5 567 L 204 571.5 L 203 571.5 L 203.5 567 Z " /><path fill="rgb(165,43,31)" stroke="rgb(165,43,31)" stroke-width="1" opacity="1" d="M 1051.5 570 L 1052 575.5 L 1051 575.5 L 1051.5 570 Z " /><path fill="rgb(165,43,31)" stroke="rgb(165,43,31)" stroke-width="1" opacity="1" d="M 202.5 575 L 203 580.5 L 202 580.5 L 202.5 575 Z " /><path fill="rgb(165,43,31)" stroke="rgb(165,43,31)" stroke-width="1" opacity="1" d="M 1052.5 580 L 1053 586.5 L 1052 586.5 L 1052.5 580 Z " /><path fill="rgb(165,43,31)" stroke="rgb(165,43,31)" stroke-width="1" opacity="1" d="M 201.5 584 L 202 590.5 L 201 590.5 L 201.5 584 Z " /><path fill="rgb(165,43,31)" stroke="rgb(165,43,31)" stroke-width="1" opacity="1" d="M 1053.5 593 L 1054 604.5 L 1053 604.5 L 1053.5 593 Z " /><path fill="rgb(165,43,31)" stroke="rgb(165,43,31)" stroke-width="1" opacity="1" d="M 200.5 597 L 201 643.5 L 200 643.5 L 200.5 597 Z " /><path fill="rgb(165,43,31)" stroke="rgb(165,43,31)" stroke-width="1" opacity="1" d="M 452.5 599 L 459 599.5 L 452.5 600 L 452.5 599 Z " /><path fill="rgb(165,43,31)" stroke="rgb(165,43,31)" stroke-width="1" opacity="1" d="M 795.5 599 L 803 599.5 L 795.5 600 L 795.5 599 Z " /><path fill="rgb(165,43,31)" stroke="rgb(165,43,31)" stroke-width="1" opacity="1" d="M 499.5 628 L 503 634.5 L 502 634.5 L 499.5 628 Z " /><path fill="rgb(165,43,31)" stroke="rgb(165,43,31)" stroke-width="1" opacity="1" d="M 753.5 629 L 753 630.5 L 750.5 636 L 750 634.5 L 753.5 629 Z " /><path fill="rgb(165,43,31)" stroke="rgb(165,43,31)" stroke-width="1" opacity="1" d="M 1053.5 633 L 1054 645.5 L 1053 645.5 L 1053.5 633 Z " /><path fill="rgb(165,43,31)" stroke="rgb(165,43,31)" stroke-width="1" opacity="1" d="M 507.5 647 L 508 649.5 L 507 649.5 L 507.5 647 Z " /><path fill="rgb(165,43,31)" stroke="rgb(165,43,31)" stroke-width="1" opacity="1" d="M 745.5 648 L 746 650.5 L 745 650.5 L 745.5 648 Z " /><path fill="rgb(165,43,31)" stroke="rgb(165,43,31)" stroke-width="1" opacity="1" d="M 851.5 648 L 852 650.5 L 851 650.5 L 851.5 648 Z " /><path fill="rgb(165,43,31)" stroke="rgb(165,43,31)" stroke-width="1" opacity="1" d="M 201.5 650 L 202 656.5 L 201 656.5 L 201.5 650 Z " /><path fill="rgb(165,43,31)" stroke="rgb(165,43,31)" stroke-width="1" opacity="1" d="M 508.5 651 L 509 653.5 L 508 653.5 L 508.5 651 Z " /><path fill="rgb(165,43,31)" stroke="rgb(165,43,31)" stroke-width="1" opacity="1" d="M 744.5 652 L 745 654.5 L 744 654.5 L 744.5 652 Z " /><path fill="rgb(165,43,31)" stroke="rgb(165,43,31)" stroke-width="1" opacity="1" d="M 852.5 653 L 853 655.5 L 852 655.5 L 852.5 653 Z " /><path fill="rgb(165,43,31)" stroke="rgb(165,43,31)" stroke-width="1" opacity="1" d="M 1052.5 653 L 1053 660.5 L 1052 660.5 L 1052.5 653 Z " /><path fill="rgb(165,43,31)" stroke="rgb(165,43,31)" stroke-width="1" opacity="1" d="M 400.5 654 L 401 656.5 L 400 656.5 L 400.5 654 Z " /><path fill="rgb(165,43,31)" stroke="rgb(165,43,31)" stroke-width="1" opacity="1" d="M 509.5 657 L 510 662.5 L 509 662.5 L 509.5 657 Z " /><path fill="rgb(165,43,31)" stroke="rgb(165,43,31)" stroke-width="1" opacity="1" d="M 743.5 657 L 744 661.5 L 743 661.5 L 743.5 657 Z " /><path fill="rgb(165,43,31)" stroke="rgb(165,43,31)" stroke-width="1" opacity="1" d="M 853.5 659 L 854 664.5 L 853 664.5 L 853.5 659 Z " /><path fill="rgb(165,43,31)" stroke="rgb(165,43,31)" stroke-width="1" opacity="1" d="M 399.5 660 L 400 664.5 L 399 664.5 L 399.5 660 Z " /><path fill="rgb(165,43,31)" stroke="rgb(165,43,31)" stroke-width="1" opacity="1" d="M 202.5 661 L 203 665.5 L 202 665.5 L 202.5 661 Z " /><path fill="rgb(165,43,31)" stroke="rgb(165,43,31)" stroke-width="1" opacity="1" d="M 1051.5 664 L 1052 668.5 L 1051 668.5 L 1051.5 664 Z " /><path fill="rgb(165,43,31)" stroke="rgb(165,43,31)" stroke-width="1" opacity="1" d="M 742.5 667 L 743 680.5 L 742 680.5 L 742.5 667 Z " /><path fill="rgb(165,43,31)" stroke="rgb(165,43,31)" stroke-width="1" opacity="1" d="M 203.5 670 L 204 674.5 L 203 674.5 L 203.5 670 Z " /><path fill="rgb(165,43,31)" stroke="rgb(165,43,31)" stroke-width="1" opacity="1" d="M 1050.5 672 L 1051 676.5 L 1050 676.5 L 1050.5 672 Z " /><path fill="rgb(165,43,31)" stroke="rgb(165,43,31)" stroke-width="1" opacity="1" d="M 204.5 677 L 205 680.5 L 204 680.5 L 204.5 677 Z " /><path fill="rgb(165,43,31)" stroke="rgb(165,43,31)" stroke-width="1" opacity="1" d="M 853.5 677 L 854 682.5 L 853 682.5 L 853.5 677 Z " /><path fill="rgb(165,43,31)" stroke="rgb(165,43,31)" stroke-width="1" opacity="1" d="M 1049.5 679 L 1050 683.5 L 1049 683.5 L 1049.5 679 Z " /><path fill="rgb(165,43,31)" stroke="rgb(165,43,31)" stroke-width="1" opacity="1" d="M 509.5 680 L 510 685.5 L 509 685.5 L 509.5 680 Z " /><path fill="rgb(165,43,31)" stroke="rgb(165,43,31)" stroke-width="1" opacity="1" d="M 399.5 682 L 400 686.5 L 399 686.5 L 399.5 682 Z " /><path fill="rgb(165,43,31)" stroke="rgb(165,43,31)" stroke-width="1" opacity="1" d="M 205.5 684 L 206 687.5 L 205 687.5 L 205.5 684 Z " /><path fill="rgb(165,43,31)" stroke="rgb(165,43,31)" stroke-width="1" opacity="1" d="M 743.5 685 L 744 688.5 L 743 688.5 L 743.5 685 Z " /><path fill="rgb(165,43,31)" stroke="rgb(165,43,31)" stroke-width="1" opacity="1" d="M 852.5 687 L 853 689.5 L 852 689.5 L 852.5 687 Z " /><path fill="rgb(165,43,31)" stroke="rgb(165,43,31)" stroke-width="1" opacity="1" d="M 1048.5 687 L 1049 689.5 L 1048 689.5 L 1048.5 687 Z " /><path fill="rgb(165,43,31)" stroke="rgb(165,43,31)" stroke-width="1" opacity="1" d="M 508.5 688 L 509 691.5 L 508 691.5 L 508.5 688 Z " /><path fill="rgb(165,43,31)" stroke="rgb(165,43,31)" stroke-width="1" opacity="1" d="M 206.5 690 L 207 692.5 L 206 692.5 L 206.5 690 Z " /><path fill="rgb(165,43,31)" stroke="rgb(165,43,31)" stroke-width="1" opacity="1" d="M 400.5 690 L 401 692.5 L 400 692.5 L 400.5 690 Z " /><path fill="rgb(165,43,31)" stroke="rgb(165,43,31)" stroke-width="1" opacity="1" d="M 744.5 692 L 745 694.5 L 744 694.5 L 744.5 692 Z " /><path fill="rgb(165,43,31)" stroke="rgb(165,43,31)" stroke-width="1" opacity="1" d="M 1047.5 692 L 1048 695.5 L 1047 695.5 L 1047.5 692 Z " /><path fill="rgb(165,43,31)" stroke="rgb(165,43,31)" stroke-width="1" opacity="1" d="M 207.5 695 L 208 697.5 L 207 697.5 L 207.5 695 Z " /><path fill="rgb(165,43,31)" stroke="rgb(165,43,31)" stroke-width="1" opacity="1" d="M 745.5 696 L 746 698.5 L 745 698.5 L 745.5 696 Z " /><path fill="rgb(165,43,31)" stroke="rgb(165,43,31)" stroke-width="1" opacity="1" d="M 1046.5 698 L 1047 701.5 L 1046 701.5 L 1046.5 698 Z " /><path fill="rgb(165,43,31)" stroke="rgb(165,43,31)" stroke-width="1" opacity="1" d="M 208.5 700 L 209 702.5 L 208 702.5 L 208.5 700 Z " /><path fill="rgb(165,43,31)" stroke="rgb(165,43,31)" stroke-width="1" opacity="1" d="M 1045.5 703 L 1046 705.5 L 1045 705.5 L 1045.5 703 Z " /><path fill="rgb(165,43,31)" stroke="rgb(165,43,31)" stroke-width="1" opacity="1" d="M 209.5 705 L 210 707.5 L 209 707.5 L 209.5 705 Z " /><path fill="rgb(165,43,31)" stroke="rgb(165,43,31)" stroke-width="1" opacity="1" d="M 1044.5 708 L 1045 710.5 L 1044 710.5 L 1044.5 708 Z " /><path fill="rgb(165,43,31)" stroke="rgb(165,43,31)" stroke-width="1" opacity="1" d="M 502.5 709 L 503 710.5 L 501.5 713 L 501 711.5 L 502.5 709 Z " /><path fill="rgb(165,43,31)" stroke="rgb(165,43,31)" stroke-width="1" opacity="1" d="M 210.5 710 L 211 712.5 L 210 712.5 L 210.5 710 Z " /><path fill="rgb(165,43,31)" stroke="rgb(165,43,31)" stroke-width="1" opacity="1" d="M 1043.5 713 L 1044 715.5 L 1043 715.5 L 1043.5 713 Z " /><path fill="rgb(165,43,31)" stroke="rgb(165,43,31)" stroke-width="1" opacity="1" d="M 211.5 714 L 212 716.5 L 211 716.5 L 211.5 714 Z " /><path fill="rgb(165,43,31)" stroke="rgb(165,43,31)" stroke-width="1" opacity="1" d="M 499.5 716 L 499 717.5 L 497.5 720 L 498 718.5 L 499.5 716 Z " /><path fill="rgb(165,43,31)" stroke="rgb(165,43,31)" stroke-width="1" opacity="1" d="M 1042.5 717 L 1043 719.5 L 1042 719.5 L 1042.5 717 Z " /><path fill="rgb(165,43,31)" stroke="rgb(165,43,31)" stroke-width="1" opacity="1" d="M 567.5 725 L 574 725.5 L 567.5 726 L 567.5 725 Z " /><path fill="rgb(165,43,31)" stroke="rgb(165,43,31)" stroke-width="1" opacity="1" d="M 682.5 725 L 688 725.5 L 682.5 726 L 682.5 725 Z " /><path fill="rgb(165,43,31)" stroke="rgb(165,43,31)" stroke-width="1" opacity="1" d="M 689.5 726 L 694 729.5 L 690.5 727 L 689.5 726 Z " /><path fill="rgb(165,43,31)" stroke="rgb(165,43,31)" stroke-width="1" opacity="1" d="M 1039.5 730 L 1040 732.5 L 1039 732.5 L 1039.5 730 Z " /><path fill="rgb(165,43,31)" stroke="rgb(165,43,31)" stroke-width="1" opacity="1" d="M 695.5 733 L 696 737.5 L 695 737.5 L 695.5 733 Z " /><path fill="rgb(165,43,31)" stroke="rgb(165,43,31)" stroke-width="1" opacity="1" d="M 1038.5 734 L 1039 736.5 L 1038 736.5 L 1038.5 734 Z " /><path fill="rgb(165,43,31)" stroke="rgb(165,43,31)" stroke-width="1" opacity="1" d="M 694.5 739 L 695 741.5 L 694 741.5 L 694.5 739 Z " /><path fill="rgb(165,43,31)" stroke="rgb(165,43,31)" stroke-width="1" opacity="1" d="M 1036.5 741 L 1037 743.5 L 1036 743.5 L 1036.5 741 Z " /><path fill="rgb(165,43,31)" stroke="rgb(165,43,31)" stroke-width="1" opacity="1" d="M 780.5 743 L 784 744.5 L 782.5 745 L 780.5 743 Z " /><path fill="rgb(165,43,31)" stroke="rgb(165,43,31)" stroke-width="1" opacity="1" d="M 464.5 745 L 467 745.5 L 464.5 746 L 464.5 745 Z " /><path fill="rgb(165,43,31)" stroke="rgb(165,43,31)" stroke-width="1" opacity="1" d="M 446.5 746 L 450 746.5 L 446.5 747 L 446.5 746 Z " /><path fill="rgb(165,43,31)" stroke="rgb(165,43,31)" stroke-width="1" opacity="1" d="M 458.5 746 L 462 746.5 L 458.5 747 L 458.5 746 Z " /><path fill="rgb(165,43,31)" stroke="rgb(165,43,31)" stroke-width="1" opacity="1" d="M 789.5 746 L 794 746.5 L 789.5 747 L 789.5 746 Z " /><path fill="rgb(165,43,31)" stroke="rgb(165,43,31)" stroke-width="1" opacity="1" d="M 802.5 746 L 807 746.5 L 802.5 747 L 802.5 746 Z " /><path fill="rgb(165,43,31)" stroke="rgb(165,43,31)" stroke-width="1" opacity="1" d="M 1034.5 748 L 1035 750.5 L 1034 750.5 L 1034.5 748 Z " /><path fill="rgb(165,43,31)" stroke="rgb(165,43,31)" stroke-width="1" opacity="1" d="M 641.5 762 L 644 762.5 L 641.5 763 L 641.5 762 Z " /><path fill="rgb(165,43,31)" stroke="rgb(165,43,31)" stroke-width="1" opacity="1" d="M 616.5 763 L 621 763.5 L 616.5 764 L 616.5 763 Z " /><path fill="rgb(165,43,31)" stroke="rgb(165,43,31)" stroke-width="1" opacity="1" d="M 635.5 763 L 639 763.5 L 635.5 764 L 635.5 763 Z " /><path fill="rgb(165,43,31)" stroke="rgb(165,43,31)" stroke-width="1" opacity="1" d="M 587.5 774 L 591 776.5 L 589.5 776 L 587.5 774 Z " /><path fill="rgb(165,43,31)" stroke="rgb(165,43,31)" stroke-width="1" opacity="1" d="M 609.5 783 L 612 783.5 L 609.5 784 L 609.5 783 Z " /><path fill="rgb(165,43,31)" stroke="rgb(165,43,31)" stroke-width="1" opacity="1" d="M 615.5 784 L 619 784.5 L 615.5 785 L 615.5 784 Z " /><path fill="rgb(165,43,31)" stroke="rgb(165,43,31)" stroke-width="1" opacity="1" d="M 636.5 784 L 641 784.5 L 636.5 785 L 636.5 784 Z " /><path fill="rgb(165,43,31)" stroke="rgb(165,43,31)" stroke-width="1" opacity="1" d="M 625.5 785 L 630 785.5 L 625.5 786 L 625.5 785 Z " /><path fill="rgb(165,43,31)" stroke="rgb(165,43,31)" stroke-width="1" opacity="1" d="M 236.5 793 L 238 796.5 L 237 796.5 L 236.5 793 Z " /><path fill="rgb(165,43,31)" stroke="rgb(165,43,31)" stroke-width="1" opacity="1" d="M 1017.5 797 L 1018 798.5 L 1016.5 801 L 1016 799.5 L 1017.5 797 Z " /><path fill="rgb(165,43,31)" stroke="rgb(165,43,31)" stroke-width="1" opacity="1" d="M 1015.5 802 L 1016 803.5 L 1014.5 806 L 1014 804.5 L 1015.5 802 Z " /><path fill="rgb(165,43,31)" stroke="rgb(165,43,31)" stroke-width="1" opacity="1" d="M 241.5 805 L 243 808.5 L 242 808.5 L 241.5 805 Z " /><path fill="rgb(165,43,31)" stroke="rgb(165,43,31)" stroke-width="1" opacity="1" d="M 246.5 816 L 249 821.5 L 248 821.5 L 246.5 816 Z " /><path fill="rgb(165,43,31)" stroke="rgb(165,43,31)" stroke-width="1" opacity="1" d="M 1007.5 820 L 1008 821.5 L 1003.5 830 L 1003 828.5 L 1007.5 820 Z " /><path fill="rgb(165,43,31)" stroke="rgb(165,43,31)" stroke-width="1" opacity="1" d="M 997.5 841 L 997 842.5 L 995.5 845 L 996 843.5 L 997.5 841 Z " /><path fill="rgb(165,43,31)" stroke="rgb(165,43,31)" stroke-width="1" opacity="1" d="M 261.5 847 L 264 850.5 L 262 849.5 L 261.5 847 Z " /><path fill="rgb(165,43,31)" stroke="rgb(165,43,31)" stroke-width="1" opacity="1" d="M 991.5 852 L 991 853.5 L 988.5 858 L 989 856.5 L 991.5 852 Z " /><path fill="rgb(165,43,31)" stroke="rgb(165,43,31)" stroke-width="1" opacity="1" d="M 265.5 854 L 268 857.5 L 266 856.5 L 265.5 854 Z " /><path fill="rgb(165,43,31)" stroke="rgb(165,43,31)" stroke-width="1" opacity="1" d="M 268.5 859 L 272 864.5 L 270 863.5 L 268.5 859 Z " /><path fill="rgb(165,43,31)" stroke="rgb(165,43,31)" stroke-width="1" opacity="1" d="M 272.5 866 L 275 869.5 L 273 868.5 L 272.5 866 Z " /><path fill="rgb(165,43,31)" stroke="rgb(165,43,31)" stroke-width="1" opacity="1" d="M 983.5 866 L 983 867.5 L 981.5 870 L 982 868.5 L 983.5 866 Z " /><path fill="rgb(165,43,31)" stroke="rgb(165,43,31)" stroke-width="1" opacity="1" d="M 277.5 874 L 280 877.5 L 278 876.5 L 277.5 874 Z " /><path fill="rgb(165,43,31)" stroke="rgb(165,43,31)" stroke-width="1" opacity="1" d="M 975.5 879 L 975 880.5 L 971.5 886 L 972 884.5 L 975.5 879 Z " /><path fill="rgb(165,43,31)" stroke="rgb(165,43,31)" stroke-width="1" opacity="1" d="M 968.5 890 L 967 892.5 L 964.5 896 L 966 893.5 L 968.5 890 Z " /><path fill="rgb(165,43,31)" stroke="rgb(165,43,31)" stroke-width="1" opacity="1" d="M 415.5 1012 L 419 1014.5 L 417.5 1014 L 415.5 1012 Z " /><path fill="rgb(165,43,31)" stroke="rgb(165,43,31)" stroke-width="1" opacity="1" d="M 839.5 1013 L 838.5 1015 L 836.5 1016 L 837.5 1014 L 839.5 1013 Z " /><path fill="rgb(165,43,31)" stroke="rgb(165,43,31)" stroke-width="1" opacity="1" d="M 425.5 1018 L 429 1020.5 L 427.5 1020 L 425.5 1018 Z " /><path fill="rgb(165,43,31)" stroke="rgb(165,43,31)" stroke-width="1" opacity="1" d="M 432.5 1022 L 436 1024.5 L 434.5 1024 L 432.5 1022 Z " /><path fill="rgb(165,43,31)" stroke="rgb(165,43,31)" stroke-width="1" opacity="1" d="M 816.5 1026 L 815.5 1028 L 811.5 1030 L 812.5 1028 L 816.5 1026 Z " /><path fill="rgb(165,43,31)" stroke="rgb(165,43,31)" stroke-width="1" opacity="1" d="M 800.5 1034 L 802 1034.5 L 798.5 1036 L 798.5 1035 L 800.5 1034 Z " /><path fill="rgb(165,43,31)" stroke="rgb(165,43,31)" stroke-width="1" opacity="1" d="M 789.5 1039 L 791 1039.5 L 787.5 1041 L 787.5 1040 L 789.5 1039 Z " /><path fill="rgb(165,43,31)" stroke="rgb(165,43,31)" stroke-width="1" opacity="1" d="M 782.5 1042 L 784 1042.5 L 780.5 1044 L 780.5 1043 L 782.5 1042 Z " /><path fill="rgb(165,43,31)" stroke="rgb(165,43,31)" stroke-width="1" opacity="1" d="M 729.5 1060 L 732 1060.5 L 729.5 1061 L 729.5 1060 Z " /><path fill="rgb(165,43,31)" stroke="rgb(165,43,31)" stroke-width="1" opacity="1" d="M 527.5 1061 L 530 1061.5 L 527.5 1062 L 527.5 1061 Z " /><path fill="rgb(165,43,31)" stroke="rgb(165,43,31)" stroke-width="1" opacity="1" d="M 725.5 1061 L 728 1061.5 L 725.5 1062 L 725.5 1061 Z " /><path fill="rgb(165,43,31)" stroke="rgb(165,43,31)" stroke-width="1" opacity="1" d="M 531.5 1062 L 534 1062.5 L 531.5 1063 L 531.5 1062 Z " /><path fill="rgb(165,43,31)" stroke="rgb(165,43,31)" stroke-width="1" opacity="1" d="M 721.5 1062 L 724 1062.5 L 721.5 1063 L 721.5 1062 Z " /><path fill="rgb(165,43,31)" stroke="rgb(165,43,31)" stroke-width="1" opacity="1" d="M 535.5 1063 L 538 1063.5 L 535.5 1064 L 535.5 1063 Z " /><path fill="rgb(165,43,31)" stroke="rgb(165,43,31)" stroke-width="1" opacity="1" d="M 717.5 1063 L 720 1063.5 L 717.5 1064 L 717.5 1063 Z " /><path fill="rgb(165,43,31)" stroke="rgb(165,43,31)" stroke-width="1" opacity="1" d="M 539.5 1064 L 542 1064.5 L 539.5 1065 L 539.5 1064 Z " /><path fill="rgb(165,43,31)" stroke="rgb(165,43,31)" stroke-width="1" opacity="1" d="M 713.5 1064 L 716 1064.5 L 713.5 1065 L 713.5 1064 Z " /><path fill="rgb(165,43,31)" stroke="rgb(165,43,31)" stroke-width="1" opacity="1" d="M 544.5 1065 L 547 1065.5 L 544.5 1066 L 544.5 1065 Z " /><path fill="rgb(165,43,31)" stroke="rgb(165,43,31)" stroke-width="1" opacity="1" d="M 708.5 1065 L 711 1065.5 L 708.5 1066 L 708.5 1065 Z " /><path fill="rgb(165,43,31)" stroke="rgb(165,43,31)" stroke-width="1" opacity="1" d="M 548.5 1066 L 552 1066.5 L 548.5 1067 L 548.5 1066 Z " /><path fill="rgb(165,43,31)" stroke="rgb(165,43,31)" stroke-width="1" opacity="1" d="M 703.5 1066 L 706 1066.5 L 703.5 1067 L 703.5 1066 Z " /><path fill="rgb(165,43,31)" stroke="rgb(165,43,31)" stroke-width="1" opacity="1" d="M 553.5 1067 L 557 1067.5 L 553.5 1068 L 553.5 1067 Z " /><path fill="rgb(165,43,31)" stroke="rgb(165,43,31)" stroke-width="1" opacity="1" d="M 698.5 1067 L 701 1067.5 L 698.5 1068 L 698.5 1067 Z " /><path fill="rgb(165,43,31)" stroke="rgb(165,43,31)" stroke-width="1" opacity="1" d="M 559.5 1068 L 563 1068.5 L 559.5 1069 L 559.5 1068 Z " /><path fill="rgb(165,43,31)" stroke="rgb(165,43,31)" stroke-width="1" opacity="1" d="M 692.5 1068 L 696 1068.5 L 692.5 1069 L 692.5 1068 Z " /><path fill="rgb(165,43,31)" stroke="rgb(165,43,31)" stroke-width="1" opacity="1" d="M 565.5 1069 L 569 1069.5 L 565.5 1070 L 565.5 1069 Z " /><path fill="rgb(165,43,31)" stroke="rgb(165,43,31)" stroke-width="1" opacity="1" d="M 685.5 1069 L 689 1069.5 L 685.5 1070 L 685.5 1069 Z " /><path fill="rgb(165,43,31)" stroke="rgb(165,43,31)" stroke-width="1" opacity="1" d="M 572.5 1070 L 576 1070.5 L 572.5 1071 L 572.5 1070 Z " /><path fill="rgb(165,43,31)" stroke="rgb(165,43,31)" stroke-width="1" opacity="1" d="M 678.5 1070 L 683 1070.5 L 678.5 1071 L 678.5 1070 Z " /><path fill="rgb(165,43,31)" stroke="rgb(165,43,31)" stroke-width="1" opacity="1" d="M 579.5 1071 L 584 1071.5 L 579.5 1072 L 579.5 1071 Z " /><path fill="rgb(165,43,31)" stroke="rgb(165,43,31)" stroke-width="1" opacity="1" d="M 670.5 1071 L 675 1071.5 L 670.5 1072 L 670.5 1071 Z " /><path fill="rgb(165,43,31)" stroke="rgb(165,43,31)" stroke-width="1" opacity="1" d="M 588.5 1072 L 595 1072.5 L 588.5 1073 L 588.5 1072 Z " /><path fill="rgb(165,43,31)" stroke="rgb(165,43,31)" stroke-width="1" opacity="1" d="M 659.5 1072 L 666 1072.5 L 659.5 1073 L 659.5 1072 Z " /><path fill="rgb(165,43,31)" stroke="rgb(165,43,31)" stroke-width="1" opacity="1" d="M 601.5 1073 L 612 1073.5 L 601.5 1074 L 601.5 1073 Z " /><path fill="rgb(165,43,31)" stroke="rgb(165,43,31)" stroke-width="1" opacity="1" d="M 642.5 1073 L 653 1073.5 L 642.5 1074 L 642.5 1073 Z " /><path fill="rgb(92,52,23)" stroke="rgb(92,52,23)" stroke-width="1" opacity="1" d="M 788.5 145 L 816.5 145 L 823.5 147 L 827.5 146 L 853 151 Q 851.88 153.67 854.5 153 L 858.5 153 L 861.5 155 L 863.5 155 L 881.5 161 L 887.5 165 L 889 164.5 L 889.5 166 L 891.5 166 Q 926.36 181.14 951 206.5 L 950.5 208 L 952 208.5 L 951.5 210 L 953 210.5 L 953 217.5 Q 950.75 224.25 945.5 228 L 935 236.5 L 936 237.5 L 925 248.5 Q 911.3 266.8 894.5 282 L 881.5 293 L 879 293 L 877.5 296 Q 874.88 295.33 876 298 Q 937.4 321.35 978 366.5 Q 1022.92 415.08 1048 483.5 L 1057 511.5 L 1066 552.5 L 1068 573.5 L 1069 574.5 L 1069 583.5 L 1070 584.5 L 1070 599.5 L 1071 600.5 L 1071 636.5 L 1070 637.5 L 1070 654.5 L 1069 655.5 L 1068 673.5 L 1067 674.5 L 1064 699.5 L 1062 702.5 L 1063 705.5 L 1054 743.5 L 1041 784.5 L 1017 840.5 Q 1000.24 873.74 980 903.5 Q 957.44 936.44 929.5 964 Q 889.24 1004.24 838.5 1034 L 785.5 1060 L 744.5 1074 Q 743 1071.5 741.5 1075 L 739.5 1074 L 734.5 1077 L 689.5 1086 L 687.5 1085 L 685.5 1087 L 659.5 1089 L 658.5 1090 L 614.5 1091 Q 609.88 1088.13 601.5 1089 L 596.5 1090 L 595.5 1089 L 584.5 1089 L 583.5 1088 L 568.5 1087 L 558.5 1084 L 556.5 1085 L 553.5 1083 L 550.5 1084 L 520.5 1077 L 483.5 1065 Q 449.29 1052.21 419.5 1035 Q 359.04 999.46 313 949.5 L 304 939.5 L 304.5 938 L 299 933.5 L 291 923.5 L 291.5 922 L 288 919.5 Q 265.89 891.11 248 858.5 L 225 811.5 L 208 767.5 L 193 713.5 L 186 674.5 L 186 665.5 L 184 654.5 L 184 640.5 L 183 639.5 L 183 598.5 L 185 590.5 Q 182.75 589.25 184 584.5 L 185 583.5 L 185 575.5 L 186 574.5 L 188 554.5 L 196 518.5 L 208 481.5 L 218 457.5 Q 245.93 396.43 291.5 353 L 326.5 325 L 328 325.5 L 329.5 323 Q 348.43 310.43 370.5 301 L 414.5 286 L 443.5 280 L 460.5 279 L 461.5 278 L 502.5 278 L 503.5 279 L 512.5 279 L 513.5 280 L 525.5 281 L 547.5 286 L 573.5 295 L 601.5 308 L 601 306.5 L 598 286.5 L 591 263.5 Q 585.06 245.94 575 232.5 L 575 230 L 573 230 L 573 227 Q 570.33 228.13 571 225.5 L 564 216.5 L 564.5 215 Q 562.25 215.75 563 213.5 Q 558.56 209.44 558 201.5 Q 560.5 200 557 198.5 Q 556 192.5 559 190.5 L 558 187.5 Q 563.16 170.16 576.5 161 L 589.5 154 Q 591 156.5 592.5 153 L 604.5 150 L 614.5 150 L 624.5 152 L 632.5 156 L 643 165.5 L 649 175.5 L 648.5 177 Q 651.13 176.17 650 179.5 L 656 196.5 L 655 198.5 L 658 204.5 L 661 229 Q 663.67 230.13 663 227.5 Q 677.19 200.19 699.5 181 Q 715.5 167 736.5 158 L 738 158.5 Q 737.17 155.88 740.5 157 L 743 156.5 Q 742.17 153.88 745.5 155 L 756.5 151 Q 758 153.5 759.5 150 L 774.5 147 L 776.5 148 L 778.5 146 L 787.5 146 L 788.5 145 Z M 787 162 L 765 166 L 747 172 Q 727 180 712 193 Q 692 209 679 233 L 668 260 L 665 276 L 665 295 L 669 304 L 675 309 L 696 318 L 708 321 L 720 322 L 721 323 L 730 323 L 731 324 L 759 324 L 760 323 L 769 323 L 795 318 L 814 312 Q 852 298 880 273 L 935 215 L 925 205 L 899 188 L 879 178 L 858 170 L 839 165 L 820 163 L 819 162 L 787 162 Z M 608 167 L 596 170 L 586 176 Q 577 182 574 194 L 574 199 L 577 205 Q 592 224 603 248 L 612 273 L 620 314 L 620 323 L 622 333 L 622 346 L 623 347 L 623 370 L 624 376 L 627 377 L 639 377 L 641 376 L 643 352 L 644 351 L 644 341 L 645 340 L 645 329 L 646 328 L 646 310 L 647 309 L 647 253 L 646 252 L 645 231 L 639 199 L 634 184 L 629 177 Q 630 174 628 175 Q 626 171 625 174 Q 622 173 624 172 L 618 168 L 608 167 Z M 471 294 L 470 295 L 459 295 L 458 296 L 443 297 L 423 301 L 380 315 Q 332 335 299 370 Q 296 369 297 372 L 295 372 L 295 374 L 274 397 L 255 424 Q 239 449 227 479 L 217 507 L 209 536 L 203 568 L 202 584 L 201 585 L 201 597 L 200 598 L 200 644 L 201 645 L 201 657 L 202 658 L 202 666 L 203 667 L 205 688 L 215 733 L 232 785 Q 268 878 331 945 Q 387 1004 466 1040 Q 500 1055 540 1065 L 566 1070 L 588 1072 L 589 1073 L 601 1073 L 602 1074 L 653 1074 L 654 1073 L 666 1073 L 667 1072 L 683 1071 L 716 1065 L 764 1051 Q 844 1021 902 968 Q 935 938 962 901 Q 988 864 1008 822 L 1026 778 L 1039 737 L 1050 684 L 1052 662 L 1053 661 L 1053 647 L 1054 646 L 1054 594 L 1053 593 L 1052 571 L 1051 570 L 1051 564 L 1047 541 L 1038 506 Q 1015 435 972 385 Q 951 361 926 342 Q 897 321 860 309 L 829 324 L 803 333 L 774 339 L 753 340 L 752 341 L 716 339 L 695 335 L 682 330 L 676 330 L 665 333 L 662 336 L 659 371 L 666 368 Q 673 367 675 373 L 674 381 L 661 389 L 646 393 L 622 393 L 609 390 L 595 383 L 590 378 L 591 372 L 596 368 Q 602 367 605 370 L 606 371 L 606 352 L 605 351 L 604 330 L 579 315 L 541 301 L 508 295 L 471 294 Z " /><path fill="rgb(92,52,23)" stroke="rgb(92,52,23)" stroke-width="1" opacity="1" d="M 447.5 600 L 464.5 602 L 466.5 601 L 466.5 602 L 459.5 607 L 457.5 603 L 455.5 604 Q 453.86 600.14 447.5 601 L 447.5 600 Z " /><path fill="rgb(92,52,23)" stroke="rgb(92,52,23)" stroke-width="1" opacity="1" d="M 459.5 600 L 463 600.5 L 459.5 601 L 459.5 600 Z " /><path fill="rgb(92,52,23)" stroke="rgb(92,52,23)" stroke-width="1" opacity="1" d="M 791.5 600 L 795 600.5 L 791.5 601 L 791.5 600 Z " /><path fill="rgb(92,52,23)" stroke="rgb(92,52,23)" stroke-width="1" opacity="1" d="M 802.5 600 L 806 600.5 L 802.5 601 L 802.5 600 Z " /><path fill="rgb(92,52,23)" stroke="rgb(92,52,23)" stroke-width="1" opacity="1" d="M 809.5 601 L 811 601.5 L 810.5 603 L 813.5 602 L 813.5 604 L 816.5 603 L 816.5 605 L 818.5 604 L 815.5 608 L 812.5 607 L 806.5 606 L 804.5 606 Q 801.88 606.83 803 603.5 L 809.5 601 Z " /><path fill="rgb(92,52,23)" stroke="rgb(92,52,23)" stroke-width="1" opacity="1" d="M 784.5 602 L 787 603.5 Q 785.63 606.62 780.5 606 L 779.5 604 L 781 604.5 L 781.5 603 L 784 604 L 784.5 602 Z " /><path fill="rgb(92,52,23)" stroke="rgb(92,52,23)" stroke-width="1" opacity="1" d="M 431.5 606 Q 429.92 607.75 433 609.5 L 430.5 613 L 426.5 614 L 423.5 613 L 417 618.5 L 423.5 612 Q 424.75 614.25 426 611.5 L 428.5 608 L 430 608.5 L 431.5 606 Z " /><path fill="rgb(92,52,23)" stroke="rgb(92,52,23)" stroke-width="1" opacity="1" d="M 478.5 606 L 478.5 608 L 480.5 609 Q 481.75 606.75 483 609.5 L 484 611.5 L 482.5 612 L 478.5 610 L 477 609.5 L 478.5 606 Z " /><path fill="rgb(92,52,23)" stroke="rgb(92,52,23)" stroke-width="1" opacity="1" d="M 769.5 610 L 766 614.5 L 767 617.5 L 765.5 619 L 762.5 620 L 761 618.5 L 769.5 610 Z " /><path fill="rgb(92,52,23)" stroke="rgb(92,52,23)" stroke-width="1" opacity="1" d="M 830.5 612 L 835.5 619 L 838 620.5 L 838 622.5 Q 838.87 625.5 834.5 624 L 832 623 L 831 617.5 L 832 614.5 L 830.5 612 Z " /><path fill="rgb(92,52,23)" stroke="rgb(92,52,23)" stroke-width="1" opacity="1" d="M 792.5 617 L 796 617 L 796 619 Q 798.67 617.88 798 620.5 L 796 623.5 L 796.5 625 L 794 624.5 L 794.5 623 L 792.5 624 L 792.5 622 L 789.5 623 L 790 619.5 Q 789.25 617.25 791.5 618 L 792.5 617 Z " /><path fill="rgb(92,52,23)" stroke="rgb(92,52,23)" stroke-width="1" opacity="1" d="M 435.5 618 L 441 620.5 L 436 621.5 L 436.5 623 L 433 621.5 L 435.5 618 Z " /><path fill="rgb(92,52,23)" stroke="rgb(92,52,23)" stroke-width="1" opacity="1" d="M 450.5 618 L 451 620 Q 448.33 618.88 449 621.5 L 448 621.5 L 450.5 618 Z " /><path fill="rgb(92,52,23)" stroke="rgb(92,52,23)" stroke-width="1" opacity="1" d="M 774.5 619 L 776.5 620 L 778 619.5 Q 779.13 622.83 776.5 622 L 775.5 625 L 773.5 624 L 774 625.5 L 769.5 630 L 772 624.5 L 771 622.5 L 774.5 619 Z " /><path fill="rgb(92,52,23)" stroke="rgb(92,52,23)" stroke-width="1" opacity="1" d="M 492.5 621 L 495 621.5 L 495 623.5 L 495.5 625 L 497 624.5 L 496 626.5 L 499 627.5 L 497.5 630 L 495.5 627 L 492 625.5 L 493 622.5 L 492.5 621 Z " /><path fill="rgb(92,52,23)" stroke="rgb(92,52,23)" stroke-width="1" opacity="1" d="M 412.5 625 Q 416.03 628.18 416 634 L 422 635 L 423 637.5 L 421 637.5 L 421.5 650 L 423 649.5 L 422 652 Q 418.17 652.75 417 649.5 L 419 644.5 L 414 638.5 L 416 635 L 410 633 L 409 630.5 L 412 628.5 L 411.5 627 L 413 626.5 L 412.5 625 Z " /><path fill="rgb(92,52,23)" stroke="rgb(92,52,23)" stroke-width="1" opacity="1" d="M 798.5 625 L 803 630.5 L 800 630.5 Q 802.5 629 799 627.5 L 798.5 625 Z " /><path fill="rgb(92,52,23)" stroke="rgb(92,52,23)" stroke-width="1" opacity="1" d="M 765.5 632 L 765 633.5 L 766 638.5 L 765 638.5 L 764.5 636 L 763.5 639 L 761 638 L 761 634 L 762.5 634 L 764 634.5 L 765.5 632 Z " /><path fill="rgb(92,52,23)" stroke="rgb(92,52,23)" stroke-width="1" opacity="1" d="M 751.5 634 L 753 636.5 L 752 636.5 L 751.5 634 Z " /><path fill="rgb(92,52,23)" stroke="rgb(92,52,23)" stroke-width="1" opacity="1" d="M 805.5 636 L 806.5 638 L 810.5 636 L 812 647.5 L 811 650 L 806 650 L 806 651.5 L 805 651.5 L 804 647.5 L 806 647.5 L 805.5 639 L 804.5 641 L 804 639.5 L 805.5 636 Z " /><path fill="rgb(92,52,23)" stroke="rgb(92,52,23)" stroke-width="1" opacity="1" d="M 463.5 637 Q 466.31 639.69 465 646.5 L 463.5 649 L 463 645.5 L 464 643.5 Q 461.42 641.92 463.5 637 Z " /><path fill="rgb(92,52,23)" stroke="rgb(92,52,23)" stroke-width="1" opacity="1" d="M 749.5 638 L 750.5 640 L 751 638 Q 754.33 636.88 753 641 Q 750.33 639.88 751 642.5 L 749 643.5 L 750 640.5 L 749.5 638 Z " /><path fill="rgb(92,52,23)" stroke="rgb(92,52,23)" stroke-width="1" opacity="1" d="M 847.5 638 L 847 639.5 L 847.5 641 L 849 640.5 L 848 642.5 L 850 643 L 849 647 Q 851.67 645.88 851 648.5 L 850 651.5 L 852 651.5 L 850.5 656 L 850 653 L 847 651.5 L 846.5 649 L 846 653 L 844 652.5 L 845 651.5 L 845 640.5 L 847.5 638 Z " /><path fill="rgb(92,52,23)" stroke="rgb(92,52,23)" stroke-width="1" opacity="1" d="M 503.5 642 L 504.5 644 L 506 643.5 L 504.5 648 Q 502 646 503.5 642 Z " /><path fill="rgb(92,52,23)" stroke="rgb(92,52,23)" stroke-width="1" opacity="1" d="M 764.5 642 L 765 644.5 L 764 644.5 L 764.5 642 Z " /><path fill="rgb(92,52,23)" stroke="rgb(92,52,23)" stroke-width="1" opacity="1" d="M 461.5 646 L 462 648.5 L 461 648.5 L 461.5 646 Z " /><path fill="rgb(92,52,23)" stroke="rgb(92,52,23)" stroke-width="1" opacity="1" d="M 765.5 648 L 766 650.5 L 765 652.5 L 767 652.5 L 766 654.5 L 768 654.5 L 767 656.5 L 770 657.5 L 768 657.5 L 767.5 659 L 763 658 L 762 652.5 L 763.5 649 L 764.5 651 L 765.5 648 Z " /><path fill="rgb(92,52,23)" stroke="rgb(92,52,23)" stroke-width="1" opacity="1" d="M 403.5 651 Q 406.5 651.5 406 655.5 L 403 656.5 L 402.5 658 L 401 652.5 L 403 652.5 L 403.5 651 Z " /><path fill="rgb(92,52,23)" stroke="rgb(92,52,23)" stroke-width="1" opacity="1" d="M 508.5 654 L 509 657.5 L 508 657.5 L 508.5 654 Z " /><path fill="rgb(92,52,23)" stroke="rgb(92,52,23)" stroke-width="1" opacity="1" d="M 744.5 655 L 745 657.5 L 744 657.5 L 744.5 655 Z " /><path fill="rgb(92,52,23)" stroke="rgb(92,52,23)" stroke-width="1" opacity="1" d="M 801.5 655 Q 804 656.19 803 660 L 799.5 661 L 798.5 660 L 796 661.5 Q 798.5 656.67 801 658.5 L 802 656.5 L 801.5 655 Z " /><path fill="rgb(92,52,23)" stroke="rgb(92,52,23)" stroke-width="1" opacity="1" d="M 852.5 656 L 853 658.5 L 852 658.5 L 852.5 656 Z " /><path fill="rgb(92,52,23)" stroke="rgb(92,52,23)" stroke-width="1" opacity="1" d="M 400.5 657 L 401 659.5 L 400 659.5 L 400.5 657 Z " /><path fill="rgb(92,52,23)" stroke="rgb(92,52,23)" stroke-width="1" opacity="1" d="M 456.5 658 L 459 658.5 L 457.5 662 Q 455.25 662.75 456 660.5 L 454 660.5 L 456.5 658 Z " /><path fill="rgb(92,52,23)" stroke="rgb(92,52,23)" stroke-width="1" opacity="1" d="M 507.5 661 L 508 676.5 L 507 676.5 L 507.5 661 Z " /><path fill="rgb(92,52,23)" stroke="rgb(92,52,23)" stroke-width="1" opacity="1" d="M 743.5 662 L 744 666.5 L 743 666.5 L 743.5 662 Z " /><path fill="rgb(92,52,23)" stroke="rgb(92,52,23)" stroke-width="1" opacity="1" d="M 509.5 663 L 510 679.5 L 509 679.5 L 509.5 663 Z " /><path fill="rgb(92,52,23)" stroke="rgb(92,52,23)" stroke-width="1" opacity="1" d="M 401.5 664 L 402 666.5 L 401 666.5 L 401.5 664 Z " /><path fill="rgb(92,52,23)" stroke="rgb(92,52,23)" stroke-width="1" opacity="1" d="M 431.5 664 L 434.5 665 L 436 664.5 L 435.5 666 L 438 667.5 L 436.5 667 L 432 668 L 431.5 664 Z " /><path fill="rgb(92,52,23)" stroke="rgb(92,52,23)" stroke-width="1" opacity="1" d="M 773 664 L 779 666.5 L 777.5 668 L 774.5 667 Q 771.5 667.75 773 664 Z " /><path fill="rgb(92,52,23)" stroke="rgb(92,52,23)" stroke-width="1" opacity="1" d="M 790.5 664 L 795 666.5 Q 794 669 789.5 668 L 790.5 666 L 792 665.5 L 790.5 664 Z " /><path fill="rgb(92,52,23)" stroke="rgb(92,52,23)" stroke-width="1" opacity="1" d="M 399.5 665 L 400 669.5 L 399 669.5 L 399.5 665 Z " /><path fill="rgb(92,52,23)" stroke="rgb(92,52,23)" stroke-width="1" opacity="1" d="M 438.5 665 L 444 665.5 L 438.5 666 L 438.5 665 Z " /><path fill="rgb(92,52,23)" stroke="rgb(92,52,23)" stroke-width="1" opacity="1" d="M 782.5 665 L 788 665.5 L 782.5 666 L 782.5 665 Z " /><path fill="rgb(92,52,23)" stroke="rgb(92,52,23)" stroke-width="1" opacity="1" d="M 853.5 665 L 854 676.5 L 853 676.5 L 853.5 665 Z " /><path fill="rgb(92,52,23)" stroke="rgb(92,52,23)" stroke-width="1" opacity="1" d="M 851.5 676 L 852 679.5 L 851 679.5 L 851.5 676 Z " /><path fill="rgb(92,52,23)" stroke="rgb(92,52,23)" stroke-width="1" opacity="1" d="M 399.5 677 L 400 681.5 L 399 681.5 L 399.5 677 Z " /><path fill="rgb(92,52,23)" stroke="rgb(92,52,23)" stroke-width="1" opacity="1" d="M 745 677 Q 749.13 675.33 748 679.5 Q 751 680.75 750 685 Q 747 683.75 748 687.5 L 746.5 693 L 745.5 688 L 744.5 692 L 744 688.5 L 745 687.5 L 745 677 Z " /><path fill="rgb(92,52,23)" stroke="rgb(92,52,23)" stroke-width="1" opacity="1" d="M 743.5 679 L 744 684.5 L 743 684.5 L 743.5 679 Z " /><path fill="rgb(92,52,23)" stroke="rgb(92,52,23)" stroke-width="1" opacity="1" d="M 401.5 683 L 402 685.5 L 401 685.5 L 401.5 683 Z " /><path fill="rgb(92,52,23)" stroke="rgb(92,52,23)" stroke-width="1" opacity="1" d="M 852.5 683 L 853 686.5 L 852 686.5 L 852.5 683 Z " /><path fill="rgb(92,52,23)" stroke="rgb(92,52,23)" stroke-width="1" opacity="1" d="M 508.5 685 L 509 687.5 L 508 687.5 L 508.5 685 Z " /><path fill="rgb(92,52,23)" stroke="rgb(92,52,23)" stroke-width="1" opacity="1" d="M 850.5 685 L 852 692.5 L 851 692.5 L 850.5 690 L 849.5 692 L 849 689.5 L 850.5 685 Z " /><path fill="rgb(92,52,23)" stroke="rgb(92,52,23)" stroke-width="1" opacity="1" d="M 400.5 687 L 401 689.5 L 400 689.5 L 400.5 687 Z " /><path fill="rgb(92,52,23)" stroke="rgb(92,52,23)" stroke-width="1" opacity="1" d="M 507.5 691 L 508 693.5 L 507 693.5 L 507.5 691 Z " /><path fill="rgb(92,52,23)" stroke="rgb(92,52,23)" stroke-width="1" opacity="1" d="M 404.5 698 L 406 702.5 L 405 702.5 L 404.5 701 L 403 701.5 L 404.5 698 Z " /><path fill="rgb(92,52,23)" stroke="rgb(92,52,23)" stroke-width="1" opacity="1" d="M 500.5 708 L 502 710.5 L 500 710.5 L 501 713.5 L 498 714.5 L 497.5 716 L 497 711 L 500 709.5 L 500.5 708 Z " /><path fill="rgb(92,52,23)" stroke="rgb(92,52,23)" stroke-width="1" opacity="1" d="M 753.5 713 Q 756.13 712.17 755 715.5 L 757 718.5 L 754 718.5 L 755 716.5 L 753 716.5 L 754 714.5 L 752 714.5 L 753.5 713 Z " /><path fill="rgb(92,52,23)" stroke="rgb(92,52,23)" stroke-width="1" opacity="1" d="M 836.5 723 L 836.5 726 Q 835.25 723.75 834 726.5 L 832 729.5 L 833 730.5 L 829.5 734 Q 825.75 731.75 831 729.5 L 832 726 L 836.5 723 Z " /><path fill="rgb(92,52,23)" stroke="rgb(92,52,23)" stroke-width="1" opacity="1" d="M 681.5 726 L 686.5 727 L 688.5 726 L 688.5 728 L 690.5 727 L 691.5 731 Q 690 727.5 688.5 730 L 684.5 729 L 680.5 732 L 679 731.5 L 680 740 L 675 741 L 674.5 739 L 672.5 742 L 673 740.5 L 675.5 732 L 676.5 734 L 678 730.5 L 676 730.5 L 679.5 727 L 680.5 728 L 682 727.5 L 681.5 726 Z " /><path fill="rgb(92,52,23)" stroke="rgb(92,52,23)" stroke-width="1" opacity="1" d="M 489.5 727 L 492 727.5 L 488 730.5 L 489.5 727 Z " /><path fill="rgb(92,52,23)" stroke="rgb(92,52,23)" stroke-width="1" opacity="1" d="M 564.5 727 L 569 728.5 L 568 734 L 563.5 733 L 562 733.5 L 561 731.5 L 563 731.5 L 562 729.5 L 564.5 727 Z " /><path fill="rgb(92,52,23)" stroke="rgb(92,52,23)" stroke-width="1" opacity="1" d="M 762.5 727 L 767.5 728 L 770 727 L 768 732.5 L 768.5 736 L 761 728.5 L 762.5 727 Z " /><path fill="rgb(92,52,23)" stroke="rgb(92,52,23)" stroke-width="1" opacity="1" d="M 572.5 728 L 576.5 729 Q 577.75 726.75 579 729.5 L 576.5 730 Q 571.7 730.05 572.5 728 Z " /><path fill="rgb(92,52,23)" stroke="rgb(92,52,23)" stroke-width="1" opacity="1" d="M 560.5 734 L 561 737.5 L 560 737.5 L 560.5 734 Z " /><path fill="rgb(92,52,23)" stroke="rgb(92,52,23)" stroke-width="1" opacity="1" d="M 580.5 734 L 581 736.5 L 580 736.5 L 580.5 734 Z " /><path fill="rgb(92,52,23)" stroke="rgb(92,52,23)" stroke-width="1" opacity="1" d="M 480.5 735 L 481 737.5 L 479.5 739 Q 476 737 480.5 735 Z " /><path fill="rgb(92,52,23)" stroke="rgb(92,52,23)" stroke-width="1" opacity="1" d="M 777.5 737 L 780 738.5 Q 779.25 740.75 781.5 740 L 782.5 742 L 779.5 743 L 776 740.5 L 776.5 739 L 774.5 740 L 775.5 738 L 777.5 737 Z " /><path fill="rgb(92,52,23)" stroke="rgb(92,52,23)" stroke-width="1" opacity="1" d="M 581.5 738 L 584 742.5 L 582 742.5 L 583 744.5 L 581.5 744 Q 576.92 745.35 579 739.5 L 581 739.5 L 581.5 738 Z " /><path fill="rgb(92,52,23)" stroke="rgb(92,52,23)" stroke-width="1" opacity="1" d="M 692.5 738 L 694 742.5 L 692 742.5 L 693 745.5 L 691 745.5 L 689.5 749 L 689 747.5 L 689 745.5 L 688 741 Q 691.75 742.5 691 739.5 L 692.5 738 Z " /><path fill="rgb(92,52,23)" stroke="rgb(92,52,23)" stroke-width="1" opacity="1" d="M 817.5 739 L 820 740.5 L 818 741.5 L 818.5 740 L 815 741.5 L 817 742.5 L 815.5 743 L 813 741.5 L 817.5 739 Z " /><path fill="rgb(92,52,23)" stroke="rgb(92,52,23)" stroke-width="1" opacity="1" d="M 464.5 742 L 463.5 744 L 461 743.5 L 464.5 742 Z " /><path fill="rgb(92,52,23)" stroke="rgb(92,52,23)" stroke-width="1" opacity="1" d="M 445.5 743 L 453 744.5 L 444.5 746 L 444.5 745 L 448 744.5 Q 444.67 744.58 445.5 743 Z " /><path fill="rgb(92,52,23)" stroke="rgb(92,52,23)" stroke-width="1" opacity="1" d="M 794 743 Q 798.74 742.06 801 744.5 L 794 745 L 794 743 Z " /><path fill="rgb(92,52,23)" stroke="rgb(92,52,23)" stroke-width="1" opacity="1" d="M 461.5 745 L 464 745.5 L 461.5 746 L 461.5 745 Z " /><path fill="rgb(92,52,23)" stroke="rgb(92,52,23)" stroke-width="1" opacity="1" d="M 787.5 745 L 790 745.5 L 787.5 746 L 787.5 745 Z " /><path fill="rgb(92,52,23)" stroke="rgb(92,52,23)" stroke-width="1" opacity="1" d="M 806.5 745 L 809 745.5 L 806.5 746 L 806.5 745 Z " /><path fill="rgb(92,52,23)" stroke="rgb(92,52,23)" stroke-width="1" opacity="1" d="M 450.5 746 L 458 746.5 L 450.5 747 L 450.5 746 Z " /><path fill="rgb(92,52,23)" stroke="rgb(92,52,23)" stroke-width="1" opacity="1" d="M 794.5 746 L 802 746.5 L 794.5 747 L 794.5 746 Z " /><path fill="rgb(92,52,23)" stroke="rgb(92,52,23)" stroke-width="1" opacity="1" d="M 565.5 747 L 567.5 747 Q 570.5 746.12 569 750.5 L 567.5 752 L 565 751.5 L 566 749.5 L 564 749.5 L 565.5 747 Z " /><path fill="rgb(92,52,23)" stroke="rgb(92,52,23)" stroke-width="1" opacity="1" d="M 666.5 751 L 669 752.5 Q 670.5 756.87 667.5 756 L 666.5 759 L 661 756.5 L 662.5 753 L 663.5 754 L 666.5 751 Z " /><path fill="rgb(92,52,23)" stroke="rgb(92,52,23)" stroke-width="1" opacity="1" d="M 594.5 754 L 595.5 757 L 597.5 758 L 599 757.5 L 599.5 759 L 601 758.5 L 600.5 760 L 602.5 759 L 602.5 761 L 606.5 762 L 608.5 761 L 608.5 762 L 600 765.5 L 599.5 767 L 597.5 764 Q 596.25 766.25 595 763.5 Q 596.13 760.17 593.5 761 Q 595.08 759.25 592 757.5 L 593.5 756 L 595 755.5 L 594.5 754 Z " /><path fill="rgb(92,52,23)" stroke="rgb(92,52,23)" stroke-width="1" opacity="1" d="M 569.5 755 L 576 762.5 L 571 760.5 L 571 758.5 L 569.5 756 L 568 756.5 L 569.5 755 Z " /><path fill="rgb(92,52,23)" stroke="rgb(92,52,23)" stroke-width="1" opacity="1" d="M 685.5 756 Q 688.5 757.5 685.5 759 L 683 758.5 L 685.5 756 Z " /><path fill="rgb(92,52,23)" stroke="rgb(92,52,23)" stroke-width="1" opacity="1" d="M 654.5 758 L 654.5 763 L 650.5 765 L 644 762.5 L 645.5 762 L 647.5 763 L 647.5 761 L 650.5 762 L 650.5 760 L 652.5 761 L 652.5 759 L 654.5 758 Z " /><path fill="rgb(92,52,23)" stroke="rgb(92,52,23)" stroke-width="1" opacity="1" d="M 620.5 764 L 627 764.5 L 620.5 765 L 620.5 764 Z " /><path fill="rgb(92,52,23)" stroke="rgb(92,52,23)" stroke-width="1" opacity="1" d="M 629.5 764 L 635 764.5 L 629.5 765 L 629.5 764 Z " /><path fill="rgb(92,52,23)" stroke="rgb(92,52,23)" stroke-width="1" opacity="1" d="M 625.5 766 L 630 766.5 L 625.5 767 L 625.5 766 Z " /><path fill="rgb(92,52,23)" stroke="rgb(92,52,23)" stroke-width="1" opacity="1" d="M 675.5 766 L 676 768.5 L 673.5 771 L 673.5 769 L 672 768.5 L 675.5 766 Z " /><path fill="rgb(92,52,23)" stroke="rgb(92,52,23)" stroke-width="1" opacity="1" d="M 589.5 768 L 591.5 768 L 599 775.5 L 598.5 778 L 595.5 777 L 595.5 778 L 597 778.5 L 595.5 779 L 590 775.5 L 590.5 774 L 588.5 775 L 585 772.5 Q 583.25 767.25 588.5 769 L 589.5 768 Z " /><path fill="rgb(92,52,23)" stroke="rgb(92,52,23)" stroke-width="1" opacity="1" d="M 662.5 771 L 664.5 772 L 666 771.5 L 665 774.5 L 665.5 776 L 663.5 775 L 663.5 777 L 660 775.5 L 662.5 771 Z " /><path fill="rgb(92,52,23)" stroke="rgb(92,52,23)" stroke-width="1" opacity="1" d="M 612.5 777 L 622 779.5 Q 618.92 781.25 620.5 783 L 612.5 784 L 612.5 782 L 607.5 783 L 607.5 782 L 610 781.5 L 608 780.5 L 609 778 L 612.5 777 Z " /><path fill="rgb(92,52,23)" stroke="rgb(92,52,23)" stroke-width="1" opacity="1" d="M 598.5 779 L 602 780.5 L 600.5 781 L 598.5 779 Z " /><path fill="rgb(92,52,23)" stroke="rgb(92,52,23)" stroke-width="1" opacity="1" d="M 644.5 779 L 647 780.5 Q 643.25 782.75 636.5 782 L 636.5 781 L 644.5 779 Z " /><path fill="rgb(92,52,23)" stroke="rgb(92,52,23)" stroke-width="1" opacity="1" d="M 639.5 783 L 644 783.5 L 639.5 784 L 639.5 783 Z " /><path fill="rgb(92,52,23)" stroke="rgb(92,52,23)" stroke-width="1" opacity="1" d="M 619.5 784 L 626 784.5 L 619.5 785 L 619.5 784 Z " /><path fill="rgb(92,52,23)" stroke="rgb(92,52,23)" stroke-width="1" opacity="1" d="M 630.5 784 L 636 784.5 L 630.5 785 L 630.5 784 Z " /><path fill="rgb(140,158,58)" stroke="rgb(140,158,58)" stroke-width="1" opacity="1" d="M 784.5 145 L 788 145.5 L 784.5 146 L 784.5 145 Z " /><path fill="rgb(140,158,58)" stroke="rgb(140,158,58)" stroke-width="1" opacity="1" d="M 817.5 145 L 821 145.5 L 817.5 146 L 817.5 145 Z " /><path fill="rgb(140,158,58)" stroke="rgb(140,158,58)" stroke-width="1" opacity="1" d="M 615.5 150 L 618 150.5 L 615.5 151 L 615.5 150 Z " /><path fill="rgb(140,158,58)" stroke="rgb(140,158,58)" stroke-width="1" opacity="1" d="M 786.5 162 L 818.5 162 L 819.5 163 L 838.5 165 L 857.5 170 L 878.5 178 L 898.5 188 L 924.5 205 L 935 214.5 L 879.5 273 Q 851.65 297.65 813.5 312 L 794.5 318 L 768.5 323 L 759.5 323 L 758.5 324 L 730.5 324 L 729.5 323 L 720.5 323 L 719.5 322 L 707.5 321 L 695.5 318 L 674.5 309 L 669 303.5 L 665 294.5 L 665 275.5 L 668 259.5 L 679 232.5 Q 691.84 209.34 711.5 193 Q 726.6 180.1 746.5 172 L 764.5 166 L 786.5 162 Z M 675 306 Q 673 309 676 308 L 675 306 Z " /><path fill="rgb(140,158,58)" stroke="rgb(140,158,58)" stroke-width="1" opacity="1" d="M 659.5 213 L 660 215.5 L 659 215.5 L 659.5 213 Z " /><path fill="rgb(140,158,58)" stroke="rgb(140,158,58)" stroke-width="1" opacity="1" d="M 473.5 277 L 494 277.5 L 473.5 278 L 473.5 277 Z " /><path fill="rgb(140,158,58)" stroke="rgb(140,158,58)" stroke-width="1" opacity="1" d="M 458.5 278 L 461 278.5 L 458.5 279 L 458.5 278 Z " /><path fill="rgb(140,158,58)" stroke="rgb(140,158,58)" stroke-width="1" opacity="1" d="M 503.5 278 L 507 278.5 L 503.5 279 L 503.5 278 Z " /><path fill="rgb(140,158,58)" stroke="rgb(140,158,58)" stroke-width="1" opacity="1" d="M 448.5 279 L 451 279.5 L 448.5 280 L 448.5 279 Z " /><path fill="rgb(140,158,58)" stroke="rgb(140,158,58)" stroke-width="1" opacity="1" d="M 513.5 279 L 516 279.5 L 513.5 280 L 513.5 279 Z " /><path fill="rgb(140,158,58)" stroke="rgb(140,158,58)" stroke-width="1" opacity="1" d="M 1069.5 581 L 1070 583.5 L 1069 583.5 L 1069.5 581 Z " /><path fill="rgb(140,158,58)" stroke="rgb(140,158,58)" stroke-width="1" opacity="1" d="M 183.5 594 L 184 597.5 L 183 597.5 L 183.5 594 Z " /><path fill="rgb(140,158,58)" stroke="rgb(140,158,58)" stroke-width="1" opacity="1" d="M 1070.5 596 L 1071 599.5 L 1070 599.5 L 1070.5 596 Z " /><path fill="rgb(140,158,58)" stroke="rgb(140,158,58)" stroke-width="1" opacity="1" d="M 1070.5 637 L 1071 641.5 L 1070 641.5 L 1070.5 637 Z " /><path fill="rgb(140,158,58)" stroke="rgb(140,158,58)" stroke-width="1" opacity="1" d="M 183.5 640 L 184 644.5 L 183 644.5 L 183.5 640 Z " /><path fill="rgb(140,158,58)" stroke="rgb(140,158,58)" stroke-width="1" opacity="1" d="M 461.5 641 L 462 645.5 L 461 645.5 L 461.5 641 Z " /><path fill="rgb(140,158,58)" stroke="rgb(140,158,58)" stroke-width="1" opacity="1" d="M 1069.5 655 L 1070 658.5 L 1069 658.5 L 1069.5 655 Z " /><path fill="rgb(140,158,58)" stroke="rgb(140,158,58)" stroke-width="1" opacity="1" d="M 185.5 665 L 186 667.5 L 185 667.5 L 185.5 665 Z " /><path fill="rgb(140,158,58)" stroke="rgb(140,158,58)" stroke-width="1" opacity="1" d="M 669.5 1088 L 672 1088.5 L 669.5 1089 L 669.5 1088 Z " /><path fill="rgb(140,158,58)" stroke="rgb(140,158,58)" stroke-width="1" opacity="1" d="M 592.5 1089 L 596 1089.5 L 592.5 1090 L 592.5 1089 Z " /><path fill="rgb(140,158,58)" stroke="rgb(140,158,58)" stroke-width="1" opacity="1" d="M 659.5 1089 L 662 1089.5 L 659.5 1090 L 659.5 1089 Z " /><path fill="rgb(140,158,58)" stroke="rgb(140,158,58)" stroke-width="1" opacity="1" d="M 607.5 1090 L 614 1090.5 L 607.5 1091 L 607.5 1090 Z " /><path fill="rgb(140,158,58)" stroke="rgb(140,158,58)" stroke-width="1" opacity="1" d="M 641.5 1090 L 647 1090.5 L 641.5 1091 L 641.5 1090 Z " /><path fill="rgb(227,48,42)" stroke="rgb(227,48,42)" stroke-width="1" opacity="1" d="M 465.5 295 L 499.5 295 L 500.5 296 L 517.5 297 L 537.5 301 L 562.5 309 L 581.5 317 L 604 330.5 L 605 361.5 L 606 362.5 L 606 370 L 597.5 367 L 591 370.5 L 590 378.5 L 594.5 384 L 601.5 388 L 617.5 393 Q 622.25 391.75 623.5 394 L 642.5 394 L 659.5 390 L 674 381.5 Q 676.67 379.17 676 373.5 L 671.5 368 L 666.5 367 L 659 370 L 661 357.5 L 662 338.5 L 664.5 334 L 668.5 332 L 681.5 331 L 688.5 334 L 716.5 340 L 725.5 340 L 726.5 341 L 762.5 341 L 763.5 340 L 771.5 340 L 772.5 339 L 783.5 338 L 808.5 332 L 830.5 324 L 856.5 310 L 860.5 310 Q 922.1 331.4 962 374.5 Q 1008.2 422.8 1033 492.5 L 1041 518.5 L 1049 554.5 L 1051 575.5 L 1052 576.5 L 1052 586.5 L 1053 587.5 L 1054 632.5 L 1053 633.5 L 1053 652.5 L 1052 653.5 L 1052 663.5 L 1049 679.5 L 1049 686.5 L 1042 721.5 L 1034 751.5 L 1014 806.5 Q 994.81 851.31 969 889.5 Q 944.4 925.9 913.5 956 Q 855.22 1013.72 772.5 1047 L 736.5 1059 L 697.5 1068 L 670.5 1071 L 669.5 1072 L 659.5 1072 L 658.5 1073 L 612.5 1074 L 611.5 1073 L 595.5 1073 L 594.5 1072 L 576.5 1071 L 542.5 1065 L 515.5 1058 L 464.5 1039 Q 384.92 1002.08 329 941.5 Q 265.57 873.43 230 777.5 L 215 730.5 L 205 683.5 L 203 661.5 L 202 660.5 L 202 650.5 L 201 649.5 L 201 591.5 L 202 590.5 L 204 564.5 L 206 558.5 L 209 538.5 L 217 508.5 L 231 470.5 Q 257.19 409.69 301.5 367 Q 333.08 336.08 376.5 317 L 421.5 302 L 440.5 298 L 446.5 298 L 454.5 296 L 464.5 296 L 465.5 295 Z M 895 383 L 883 387 Q 875 391 873 401 L 874 415 L 884 436 L 903 462 L 937 503 Q 944 512 957 516 Q 965 517 970 514 L 976 508 L 979 502 L 981 493 L 980 473 L 974 451 Q 966 430 953 415 Q 941 400 924 390 L 908 384 L 895 383 Z M 453 599 L 439 602 Q 429 606 422 613 Q 411 623 405 638 L 399 661 L 399 687 Q 401 688 400 693 Q 404 713 415 727 Q 426 742 447 747 L 462 747 L 467 746 Q 478 742 486 735 Q 497 725 503 711 L 507 700 L 510 686 L 510 658 Q 508 656 509 652 Q 505 633 495 621 L 478 605 Q 468 599 453 599 Z M 796 599 L 783 602 L 768 611 Q 757 621 750 635 L 744 653 L 743 667 L 742 668 L 742 681 L 743 682 L 743 689 L 745 699 Q 750 719 763 732 Q 773 743 790 747 Q 802 749 811 746 L 826 738 Q 836 730 843 718 L 851 699 L 854 683 L 854 660 L 852 649 Q 847 631 837 619 Q 829 609 818 603 L 803 599 L 796 599 Z M 568 725 L 566 726 L 560 733 L 560 740 L 562 747 L 572 763 Q 582 774 597 780 L 610 784 L 625 785 L 626 786 L 641 785 L 654 782 L 675 771 Q 691 760 696 738 Q 697 732 694 730 L 688 725 Q 681 724 679 727 L 675 732 Q 674 741 669 747 L 659 756 L 645 762 L 635 764 L 615 763 Q 603 761 596 755 Q 583 747 580 731 Q 578 724 568 725 Z " /><path fill="rgb(245,245,245)" stroke="rgb(245,245,245)" stroke-width="1" opacity="1" d="M 0 0 L 1254 0 L 1254 1254 L 0 1254 L 0 0 Z M 789 144 L 756 150 L 737 157 Q 715 167 699 181 Q 676 200 663 227 L 655 190 L 651 178 L 643 165 L 633 155 L 625 151 L 614 149 L 596 151 L 577 160 L 562 176 L 557 188 Q 559 193 556 195 Q 556 205 560 212 Q 578 234 590 263 L 598 291 L 600 306 L 601 307 Q 576 294 548 285 L 520 279 L 503 278 L 502 277 L 464 277 L 463 278 L 444 279 L 415 285 L 386 294 Q 331 315 293 351 Q 244 397 215 463 L 200 503 L 191 536 L 187 556 L 185 577 L 184 578 L 183 601 L 183 603 L 182 605 L 183 652 L 184 653 L 184 663 L 185 664 L 186 681 L 189 694 L 189 699 L 197 734 L 213 784 Q 229 827 251 866 Q 278 912 313 951 Q 373 1016 460 1056 L 508 1074 L 551 1085 L 564 1086 L 578 1089 L 586 1089 L 587 1090 L 622 1091 L 623 1092 L 656 1091 L 657 1090 L 667 1090 L 668 1089 L 676 1089 L 677 1088 L 697 1086 L 745 1075 L 790 1059 Q 869 1025 926 969 Q 958 938 983 901 Q 1007 865 1026 824 L 1041 787 L 1051 757 L 1061 719 L 1068 680 L 1069 665 L 1070 664 L 1071 632 L 1072 631 L 1071 588 L 1070 587 L 1070 576 L 1069 575 L 1067 554 L 1057 509 L 1050 487 L 1036 453 L 1022 426 Q 1003 392 978 366 Q 958 343 933 326 L 909 311 L 878 297 L 894 284 Q 917 261 938 236 L 946 229 Q 951 225 954 218 Q 955 210 952 207 Q 920 175 874 157 L 860 152 L 834 146 L 815 145 L 814 144 L 789 144 Z " /><path fill="rgb(245,245,245)" stroke="rgb(245,245,245)" stroke-width="1" opacity="1" d="M 891.5 384 L 905.5 384 L 918.5 388 Q 935.18 395.82 947 408.5 Q 963.32 425.68 973 449.5 L 980 475.5 L 980 494.5 L 978 502.5 L 973 511 L 965.5 515 L 955.5 515 Q 942.25 509.25 934 498.5 L 887 439.5 L 877 421.5 L 874 412.5 L 873 404.5 L 875 395.5 L 881.5 388 L 891.5 384 Z " /><path fill="rgb(245,245,245)" stroke="rgb(245,245,245)" stroke-width="1" opacity="1" d="M 436.5 623 Q 452.25 621.25 457 630.5 L 461 639.5 L 461 647.5 Q 458.98 657.48 451.5 662 Q 447.46 664.96 440.5 665 L 433.5 663 L 427 657.5 Q 422.42 652.08 422 642.5 L 424 634.5 L 429.5 627 L 436.5 623 Z " /><path fill="rgb(245,245,245)" stroke="rgb(245,245,245)" stroke-width="1" opacity="1" d="M 779.5 623 L 790.5 623 L 800 630.5 L 804 639.5 L 804 647.5 Q 801.98 657.48 794.5 662 Q 790.46 664.96 783.5 665 L 776.5 663 L 770 657.5 Q 764.17 651.83 766 638.5 L 772.5 627 L 779.5 623 Z " /><path fill="rgb(209,175,163)" stroke="rgb(209,175,163)" stroke-width="1" opacity="1" d="M 788.5 144 L 792 144.5 L 788.5 145 L 788.5 144 Z " /><path fill="rgb(209,175,163)" stroke="rgb(209,175,163)" stroke-width="1" opacity="1" d="M 810.5 144 L 814 144.5 L 810.5 145 L 810.5 144 Z " /><path fill="rgb(209,175,163)" stroke="rgb(209,175,163)" stroke-width="1" opacity="1" d="M 778.5 145 L 781 145.5 L 778.5 146 L 778.5 145 Z " /><path fill="rgb(209,175,163)" stroke="rgb(209,175,163)" stroke-width="1" opacity="1" d="M 606.5 149 L 614 149.5 L 606.5 150 L 606.5 149 Z " /><path fill="rgb(209,175,163)" stroke="rgb(209,175,163)" stroke-width="1" opacity="1" d="M 556.5 194 L 557 198.5 L 556 198.5 L 556.5 194 Z " /><path fill="rgb(209,175,163)" stroke="rgb(209,175,163)" stroke-width="1" opacity="1" d="M 463.5 277 L 467 277.5 L 463.5 278 L 463.5 277 Z " /><path fill="rgb(209,175,163)" stroke="rgb(209,175,163)" stroke-width="1" opacity="1" d="M 895.5 383 L 902 383.5 L 895.5 384 L 895.5 383 Z " /><path fill="rgb(209,175,163)" stroke="rgb(209,175,163)" stroke-width="1" opacity="1" d="M 873.5 400 L 874 403.5 L 873 403.5 L 873.5 400 Z " /><path fill="rgb(209,175,163)" stroke="rgb(209,175,163)" stroke-width="1" opacity="1" d="M 873.5 406 L 874 408.5 L 873 408.5 L 873.5 406 Z " /><path fill="rgb(209,175,163)" stroke="rgb(209,175,163)" stroke-width="1" opacity="1" d="M 979.5 472 L 980 474.5 L 979 474.5 L 979.5 472 Z " /><path fill="rgb(209,175,163)" stroke="rgb(209,175,163)" stroke-width="1" opacity="1" d="M 980.5 479 L 981 491.5 L 980 491.5 L 980.5 479 Z " /><path fill="rgb(209,175,163)" stroke="rgb(209,175,163)" stroke-width="1" opacity="1" d="M 979.5 495 L 980 497.5 L 979 497.5 L 979.5 495 Z " /><path fill="rgb(209,175,163)" stroke="rgb(209,175,163)" stroke-width="1" opacity="1" d="M 950.5 512 L 953 513.5 L 951.5 514 L 950.5 512 Z " /><path fill="rgb(209,175,163)" stroke="rgb(209,175,163)" stroke-width="1" opacity="1" d="M 968.5 513 L 967.5 515 L 966 514.5 L 968.5 513 Z " /><path fill="rgb(209,175,163)" stroke="rgb(209,175,163)" stroke-width="1" opacity="1" d="M 957.5 515 L 965 515.5 L 957.5 516 L 957.5 515 Z " /><path fill="rgb(209,175,163)" stroke="rgb(209,175,163)" stroke-width="1" opacity="1" d="M 1069.5 575 L 1070 577.5 L 1069 577.5 L 1069.5 575 Z " /><path fill="rgb(209,175,163)" stroke="rgb(209,175,163)" stroke-width="1" opacity="1" d="M 183.5 586 L 184 588.5 L 183 588.5 L 183.5 586 Z " /><path fill="rgb(209,175,163)" stroke="rgb(209,175,163)" stroke-width="1" opacity="1" d="M 1070.5 587 L 1071 589.5 L 1070 589.5 L 1070.5 587 Z " /><path fill="rgb(209,175,163)" stroke="rgb(209,175,163)" stroke-width="1" opacity="1" d="M 1071.5 603 L 1072 607.5 L 1071 607.5 L 1071.5 603 Z " /><path fill="rgb(209,175,163)" stroke="rgb(209,175,163)" stroke-width="1" opacity="1" d="M 182.5 604 L 183 611.5 L 182 611.5 L 182.5 604 Z " /><path fill="rgb(209,175,163)" stroke="rgb(209,175,163)" stroke-width="1" opacity="1" d="M 440.5 622 L 443 622.5 L 440.5 623 L 440.5 622 Z " /><path fill="rgb(209,175,163)" stroke="rgb(209,175,163)" stroke-width="1" opacity="1" d="M 1071.5 627 L 1072 630.5 L 1071 630.5 L 1071.5 627 Z " /><path fill="rgb(209,175,163)" stroke="rgb(209,175,163)" stroke-width="1" opacity="1" d="M 182.5 630 L 183 635.5 L 182 635.5 L 182.5 630 Z " /><path fill="rgb(209,175,163)" stroke="rgb(209,175,163)" stroke-width="1" opacity="1" d="M 550.5 1084 L 553 1084.5 L 550.5 1085 L 550.5 1084 Z " /><path fill="rgb(209,175,163)" stroke="rgb(209,175,163)" stroke-width="1" opacity="1" d="M 597.5 1090 L 600 1090.5 L 597.5 1091 L 597.5 1090 Z " /><path fill="rgb(209,175,163)" stroke="rgb(209,175,163)" stroke-width="1" opacity="1" d="M 652.5 1090 L 656 1090.5 L 652.5 1091 L 652.5 1090 Z " /><path fill="rgb(209,175,163)" stroke="rgb(209,175,163)" stroke-width="1" opacity="1" d="M 622.5 1091 L 637 1091.5 L 622.5 1092 L 622.5 1091 Z " /></svg>