<svg viewBox="0 0 1254 1254" version="1.1" xmlns="http://www.w3.org/2000/svg" desc="Created with imagetracer.js version 1.2.6" ><path fill="rgb(104,61,22)" stroke="rgb(104,61,22)" stroke-width="1" opacity="1" d="M 620.5 157 Q 658.8 154.7 673 176.5 L 678 188.5 L 678 201.5 L 677 202.5 L 674 234.5 L 671 251.5 L 670 269.5 L 669 270.5 L 669 289.5 Q 672.16 301.84 679 310.5 L 727 369.5 L 747 396.5 Q 769.08 427.42 788 461.5 Q 812.86 506.14 832 556.5 L 849 606.5 L 856 634.5 L 858.5 638 Q 875.08 640.92 884 651.5 L 886.5 655 L 905.5 655 L 906.5 656 L 919.5 657 L 932.5 660 L 954.5 668 Q 986.8 683.2 1009 708.5 Q 1036.02 738.48 1049 782.5 L 1054 804.5 L 1055 816.5 L 1056 817.5 L 1056 826.5 L 1057 827.5 L 1057 863.5 L 1056 864.5 L 1056 873.5 L 1052 896.5 L 1041 929.5 Q 1024.73 966.73 997.5 993 Q 968.12 1022.12 925.5 1038 L 898.5 1046 L 875.5 1050 L 866.5 1050 L 865.5 1051 L 825.5 1051 L 791.5 1045 L 755.5 1032 Q 719.06 1014.44 693 986.5 Q 665.3 957.7 651 915.5 L 644 888.5 L 644 882.5 L 642 874.5 L 642 864.5 L 641 863.5 L 641 829.5 L 642 828.5 L 642 820.5 L 647 793.5 L 652 777.5 L 662 754.5 Q 677.12 725.62 699.5 704 L 720.5 687 L 738.5 677 L 753.5 672 L 757 669.5 Q 760.21 656.21 770.5 650 L 777 645.5 L 771 622.5 L 754 572.5 Q 737.84 529.66 718 490.5 Q 680.76 417.74 631.5 357 L 626 359.5 Q 571.4 429.4 531 513.5 L 501 586.5 L 487 629.5 L 483 648 L 484.5 648 L 494 657.5 Q 499.25 663.25 500 672 L 515.5 677 L 536.5 689 Q 555.34 702.16 570 719.5 L 589 746.5 L 599 766.5 L 606 785.5 L 613 817.5 L 615 852.5 L 614 853.5 L 614 867.5 L 613 868.5 L 611 889.5 L 607 905.5 L 596 935.5 Q 579.09 971.59 551.5 997 Q 524.09 1023.09 485.5 1038 L 463.5 1045 L 443.5 1049 L 424.5 1050 L 423.5 1051 L 397.5 1051 L 396.5 1050 L 377.5 1049 L 349.5 1043 L 315.5 1030 Q 275.63 1010.87 248 979.5 Q 223.28 952.72 209 915.5 L 200 881.5 L 200 875.5 L 198 867.5 L 198 856.5 L 197 855.5 L 197 837.5 L 198 836.5 L 199 813.5 L 202 796.5 Q 207.16 773.16 216 753.5 Q 231.78 718.78 258.5 695 Q 279.09 676.09 307.5 665 L 318.5 661 L 339.5 656 L 364.5 655 L 367.5 654 L 369.5 654 Q 371.75 654.75 371 652.5 Q 381.93 639.8 402 637 L 412 600.5 L 428 555.5 L 444 517.5 L 466 473.5 Q 488.35 431.85 515 394.5 L 585 304.5 L 591 290.5 L 592 277.5 L 591 276.5 L 591 267.5 L 590 266.5 L 590 256.5 L 589 255.5 L 589 247.5 L 587 238.5 L 587 230.5 L 586 229.5 L 585 215.5 L 582 200.5 L 582 188.5 Q 585.11 177.11 592.5 170 Q 603.03 160.03 620.5 157 Z M 630 171 L 629 172 L 617 173 L 608 177 Q 601 181 598 189 L 598 201 L 600 210 L 600 218 L 601 219 L 602 235 L 604 244 L 605 262 L 606 263 L 606 274 L 607 275 L 606 293 L 598 312 L 583 333 L 543 382 L 517 418 Q 494 452 474 490 L 442 560 L 420 624 L 415 646 L 411 650 Q 396 651 387 658 L 381 665 L 382 674 L 389 680 L 403 687 L 418 691 L 433 692 L 434 693 L 460 692 L 474 688 L 481 684 L 485 678 L 485 672 L 481 665 L 471 657 L 467 653 L 467 648 L 474 623 L 488 581 L 501 547 L 521 502 Q 561 420 614 352 Q 618 346 626 343 Q 635 341 640 345 L 649 355 L 678 395 Q 703 431 724 471 L 748 520 L 765 561 L 782 609 L 793 647 L 792 654 L 779 662 L 771 672 L 772 681 Q 776 686 783 688 L 803 693 L 826 693 L 827 692 L 834 692 L 844 690 Q 858 687 869 679 L 875 671 L 874 663 Q 865 652 848 650 L 843 643 L 841 632 L 831 598 L 818 561 Q 802 518 781 480 Q 763 445 741 414 L 709 371 Q 685 344 664 315 L 657 302 L 653 285 L 656 250 L 657 249 L 657 240 L 659 231 L 659 223 L 660 222 L 660 213 L 661 212 L 661 200 L 662 199 Q 663 189 660 185 Q 655 177 647 174 L 630 171 Z M 353 669 L 352 670 L 339 671 L 312 679 Q 289 688 272 703 Q 243 727 227 765 L 217 796 L 213 819 L 213 828 L 212 829 L 212 861 L 213 862 L 214 878 L 219 900 Q 231 939 256 967 Q 279 994 313 1012 L 334 1022 L 351 1028 L 371 1033 L 382 1034 L 383 1035 L 392 1035 L 393 1036 L 430 1036 L 431 1035 L 439 1035 L 455 1032 L 470 1028 Q 510 1015 539 989 Q 568 963 585 925 L 596 890 L 598 873 L 599 872 L 599 864 L 600 863 L 600 832 L 599 831 L 599 822 L 593 793 Q 580 752 554 724 Q 532 699 499 686 L 495 691 Q 487 699 476 703 L 465 706 L 449 707 L 448 708 L 425 707 L 424 706 L 413 705 L 398 701 L 380 692 L 369 682 L 366 676 L 366 671 L 365 669 L 353 669 Z M 892 669 L 885 684 Q 876 695 862 700 L 845 705 L 834 707 L 825 707 L 824 708 L 796 707 L 780 703 L 768 697 L 758 686 Q 745 689 736 695 L 714 711 Q 687 735 671 770 L 664 788 L 659 807 L 659 812 L 657 818 L 657 826 L 656 827 L 656 838 L 655 839 L 655 857 L 656 858 L 657 878 L 665 912 L 678 942 L 700 973 Q 726 1002 765 1020 L 800 1032 L 823 1036 L 836 1036 L 837 1037 L 857 1037 L 858 1036 L 871 1036 L 879 1034 L 885 1034 L 919 1025 Q 957 1011 984 986 Q 1010 962 1026 928 L 1035 904 L 1039 888 L 1041 869 L 1042 868 L 1042 855 L 1043 854 L 1041 816 L 1035 787 Q 1024 749 1002 723 Q 980 696 948 681 L 932 675 L 916 671 L 892 669 Z " /><path fill="rgb(198,178,164)" stroke="rgb(198,178,164)" stroke-width="1" opacity="1" d="M 623.5 156 L 628 156.5 L 623.5 157 L 623.5 156 Z " /><path fill="rgb(198,178,164)" stroke="rgb(198,178,164)" stroke-width="1" opacity="1" d="M 632.5 156 L 637 156.5 L 632.5 157 L 632.5 156 Z " /><path fill="rgb(198,178,164)" stroke="rgb(198,178,164)" stroke-width="1" opacity="1" d="M 678.5 188 L 679 190.5 L 678 190.5 L 678.5 188 Z " /><path fill="rgb(198,178,164)" stroke="rgb(198,178,164)" stroke-width="1" opacity="1" d="M 581.5 189 L 582 191.5 L 581 191.5 L 581.5 189 Z " /><path fill="rgb(198,178,164)" stroke="rgb(198,178,164)" stroke-width="1" opacity="1" d="M 678.5 197 L 679 199.5 L 678 199.5 L 678.5 197 Z " /><path fill="rgb(198,178,164)" stroke="rgb(198,178,164)" stroke-width="1" opacity="1" d="M 676.5 213 L 677 215.5 L 676 215.5 L 676.5 213 Z " /><path fill="rgb(198,178,164)" stroke="rgb(198,178,164)" stroke-width="1" opacity="1" d="M 584.5 218 L 585 220.5 L 584 220.5 L 584.5 218 Z " /><path fill="rgb(198,178,164)" stroke="rgb(198,178,164)" stroke-width="1" opacity="1" d="M 675.5 221 L 676 224.5 L 675 224.5 L 675.5 221 Z " /><path fill="rgb(198,178,164)" stroke="rgb(198,178,164)" stroke-width="1" opacity="1" d="M 674.5 230 L 675 232.5 L 674 232.5 L 674.5 230 Z " /><path fill="rgb(198,178,164)" stroke="rgb(198,178,164)" stroke-width="1" opacity="1" d="M 586.5 234 L 587 236.5 L 586 236.5 L 586.5 234 Z " /><path fill="rgb(198,178,164)" stroke="rgb(198,178,164)" stroke-width="1" opacity="1" d="M 673.5 238 L 674 240.5 L 673 240.5 L 673.5 238 Z " /><path fill="rgb(198,178,164)" stroke="rgb(198,178,164)" stroke-width="1" opacity="1" d="M 587.5 242 L 588 244.5 L 587 244.5 L 587.5 242 Z " /><path fill="rgb(198,178,164)" stroke="rgb(198,178,164)" stroke-width="1" opacity="1" d="M 672.5 246 L 673 248.5 L 672 248.5 L 672.5 246 Z " /><path fill="rgb(198,178,164)" stroke="rgb(198,178,164)" stroke-width="1" opacity="1" d="M 588.5 250 L 589 252.5 L 588 252.5 L 588.5 250 Z " /><path fill="rgb(198,178,164)" stroke="rgb(198,178,164)" stroke-width="1" opacity="1" d="M 671.5 254 L 672 256.5 L 671 256.5 L 671.5 254 Z " /><path fill="rgb(198,178,164)" stroke="rgb(198,178,164)" stroke-width="1" opacity="1" d="M 589.5 260 L 590 262.5 L 589 262.5 L 589.5 260 Z " /><path fill="rgb(198,178,164)" stroke="rgb(198,178,164)" stroke-width="1" opacity="1" d="M 670.5 263 L 671 265.5 L 670 265.5 L 670.5 263 Z " /><path fill="rgb(198,178,164)" stroke="rgb(198,178,164)" stroke-width="1" opacity="1" d="M 590.5 271 L 591 274.5 L 590 274.5 L 590.5 271 Z " /><path fill="rgb(198,178,164)" stroke="rgb(198,178,164)" stroke-width="1" opacity="1" d="M 669.5 274 L 670 278.5 L 669 278.5 L 669.5 274 Z " /><path fill="rgb(198,178,164)" stroke="rgb(198,178,164)" stroke-width="1" opacity="1" d="M 669.5 285 L 670 287.5 L 669 287.5 L 669.5 285 Z " /><path fill="rgb(198,178,164)" stroke="rgb(198,178,164)" stroke-width="1" opacity="1" d="M 348.5 654 L 353 654.5 L 348.5 655 L 348.5 654 Z " /><path fill="rgb(198,178,164)" stroke="rgb(198,178,164)" stroke-width="1" opacity="1" d="M 897.5 654 L 904 654.5 L 897.5 655 L 897.5 654 Z " /><path fill="rgb(198,178,164)" stroke="rgb(198,178,164)" stroke-width="1" opacity="1" d="M 341.5 655 L 344 655.5 L 341.5 656 L 341.5 655 Z " /><path fill="rgb(198,178,164)" stroke="rgb(198,178,164)" stroke-width="1" opacity="1" d="M 909.5 655 L 912 655.5 L 909.5 656 L 909.5 655 Z " /><path fill="rgb(198,178,164)" stroke="rgb(198,178,164)" stroke-width="1" opacity="1" d="M 506.5 741 L 516 741.5 L 506.5 742 L 506.5 741 Z " /><path fill="rgb(198,178,164)" stroke="rgb(198,178,164)" stroke-width="1" opacity="1" d="M 555.5 780 L 556 782.5 L 555 782.5 L 555.5 780 Z " /><path fill="rgb(198,178,164)" stroke="rgb(198,178,164)" stroke-width="1" opacity="1" d="M 555.5 791 L 556 793.5 L 555 793.5 L 555.5 791 Z " /><path fill="rgb(198,178,164)" stroke="rgb(198,178,164)" stroke-width="1" opacity="1" d="M 199.5 808 L 200 810.5 L 199 810.5 L 199.5 808 Z " /><path fill="rgb(198,178,164)" stroke="rgb(198,178,164)" stroke-width="1" opacity="1" d="M 612.5 812 L 613 814.5 L 612 814.5 L 612.5 812 Z " /><path fill="rgb(198,178,164)" stroke="rgb(198,178,164)" stroke-width="1" opacity="1" d="M 1055.5 812 L 1056 814.5 L 1055 814.5 L 1055.5 812 Z " /><path fill="rgb(198,178,164)" stroke="rgb(198,178,164)" stroke-width="1" opacity="1" d="M 198.5 816 L 199 818.5 L 198 818.5 L 198.5 816 Z " /><path fill="rgb(198,178,164)" stroke="rgb(198,178,164)" stroke-width="1" opacity="1" d="M 1056.5 820 L 1057 822.5 L 1056 822.5 L 1056.5 820 Z " /><path fill="rgb(198,178,164)" stroke="rgb(198,178,164)" stroke-width="1" opacity="1" d="M 641.5 822 L 642 824.5 L 641 824.5 L 641.5 822 Z " /><path fill="rgb(198,178,164)" stroke="rgb(198,178,164)" stroke-width="1" opacity="1" d="M 197.5 825 L 198 829.5 L 197 829.5 L 197.5 825 Z " /><path fill="rgb(198,178,164)" stroke="rgb(198,178,164)" stroke-width="1" opacity="1" d="M 614.5 828 L 615 832.5 L 614 832.5 L 614.5 828 Z " /><path fill="rgb(198,178,164)" stroke="rgb(198,178,164)" stroke-width="1" opacity="1" d="M 1057.5 832 L 1058 845.5 L 1057 845.5 L 1057.5 832 Z " /><path fill="rgb(198,178,164)" stroke="rgb(198,178,164)" stroke-width="1" opacity="1" d="M 640.5 834 L 641 838.5 L 640 838.5 L 640.5 834 Z " /><path fill="rgb(198,178,164)" stroke="rgb(198,178,164)" stroke-width="1" opacity="1" d="M 1057.5 848 L 1058 857.5 L 1057 857.5 L 1057.5 848 Z " /><path fill="rgb(198,178,164)" stroke="rgb(198,178,164)" stroke-width="1" opacity="1" d="M 640.5 853 L 641 862.5 L 640 862.5 L 640.5 853 Z " /><path fill="rgb(198,178,164)" stroke="rgb(198,178,164)" stroke-width="1" opacity="1" d="M 614.5 861 L 615 864.5 L 614 864.5 L 614.5 861 Z " /><path fill="rgb(198,178,164)" stroke="rgb(198,178,164)" stroke-width="1" opacity="1" d="M 197.5 862 L 198 864.5 L 197 864.5 L 197.5 862 Z " /><path fill="rgb(198,178,164)" stroke="rgb(198,178,164)" stroke-width="1" opacity="1" d="M 1056.5 868 L 1057 870.5 L 1056 870.5 L 1056.5 868 Z " /><path fill="rgb(198,178,164)" stroke="rgb(198,178,164)" stroke-width="1" opacity="1" d="M 641.5 869 L 642 872.5 L 641 872.5 L 641.5 869 Z " /><path fill="rgb(198,178,164)" stroke="rgb(198,178,164)" stroke-width="1" opacity="1" d="M 613.5 872 L 614 874.5 L 613 874.5 L 613.5 872 Z " /><path fill="rgb(198,178,164)" stroke="rgb(198,178,164)" stroke-width="1" opacity="1" d="M 379.5 1049 L 382 1049.5 L 379.5 1050 L 379.5 1049 Z " /><path fill="rgb(198,178,164)" stroke="rgb(198,178,164)" stroke-width="1" opacity="1" d="M 438.5 1049 L 441 1049.5 L 438.5 1050 L 438.5 1049 Z " /><path fill="rgb(198,178,164)" stroke="rgb(198,178,164)" stroke-width="1" opacity="1" d="M 388.5 1050 L 393 1050.5 L 388.5 1051 L 388.5 1050 Z " /><path fill="rgb(198,178,164)" stroke="rgb(198,178,164)" stroke-width="1" opacity="1" d="M 429.5 1050 L 432 1050.5 L 429.5 1051 L 429.5 1050 Z " /><path fill="rgb(198,178,164)" stroke="rgb(198,178,164)" stroke-width="1" opacity="1" d="M 819.5 1050 L 822 1050.5 L 819.5 1051 L 819.5 1050 Z " /><path fill="rgb(198,178,164)" stroke="rgb(198,178,164)" stroke-width="1" opacity="1" d="M 870.5 1050 L 873 1050.5 L 870.5 1051 L 870.5 1050 Z " /><path fill="rgb(198,178,164)" stroke="rgb(198,178,164)" stroke-width="1" opacity="1" d="M 402.5 1051 L 418 1051.5 L 402.5 1052 L 402.5 1051 Z " /><path fill="rgb(198,178,164)" stroke="rgb(198,178,164)" stroke-width="1" opacity="1" d="M 830.5 1051 L 836 1051.5 L 830.5 1052 L 830.5 1051 Z " /><path fill="rgb(198,178,164)" stroke="rgb(198,178,164)" stroke-width="1" opacity="1" d="M 857.5 1051 L 861 1051.5 L 857.5 1052 L 857.5 1051 Z " /><path fill="rgb(136,179,89)" stroke="rgb(136,179,89)" stroke-width="1" opacity="1" d="M 629.5 171 L 646.5 174 Q 655.25 177.25 660 184.5 Q 663.29 189.21 662 198.5 L 661 199.5 L 661 211.5 L 660 212.5 L 660 221.5 L 659 222.5 L 659 230.5 L 657 239.5 L 657 248.5 L 656 249.5 L 653 284.5 L 657 301.5 L 664 314.5 Q 685.05 343.95 709 370.5 L 741 413.5 Q 762.74 444.76 781 479.5 Q 801.65 517.85 818 560.5 L 831 597.5 L 841 631.5 L 843 642.5 L 847.5 650 Q 864.93 652.07 874 662.5 L 875 670.5 L 868.5 679 Q 858.4 686.9 843.5 690 L 833.5 692 L 826.5 692 L 825.5 693 L 802.5 693 L 782.5 688 Q 775.75 685.75 772 680.5 L 771 671.5 L 778.5 662 L 792 653.5 L 793 646.5 L 782 608.5 L 765 560.5 L 748 519.5 L 724 470.5 Q 702.76 430.74 678 394.5 L 649 354.5 L 639.5 345 Q 635.17 341.33 625.5 343 Q 618.08 345.58 614 351.5 Q 560.58 419.58 521 501.5 L 501 546.5 L 488 580.5 L 474 622.5 L 467 647.5 L 467 652.5 L 470.5 657 L 481 664.5 L 485 671.5 L 485 677.5 L 480.5 684 L 473.5 688 L 459.5 692 L 433.5 693 L 432.5 692 L 417.5 691 L 402.5 687 L 388.5 680 L 382 673.5 L 381 664.5 L 386.5 658 Q 395.73 651.23 410.5 650 L 415 645.5 L 420 623.5 L 442 559.5 L 474 489.5 Q 493.77 451.77 517 417.5 L 543 381.5 L 583 332.5 L 598 311.5 L 606 292.5 L 607 274.5 L 606 273.5 L 606 262.5 L 605 261.5 L 604 243.5 L 602 234.5 L 601 218.5 L 600 217.5 L 600 209.5 L 598 200.5 L 598 188.5 Q 601 181 607.5 177 L 616.5 173 L 628.5 172 L 629.5 171 Z " /><path fill="rgb(136,179,89)" stroke="rgb(136,179,89)" stroke-width="1" opacity="1" d="M 358.5 654 L 365 654.5 L 358.5 655 L 358.5 654 Z " /><path fill="rgb(136,179,89)" stroke="rgb(136,179,89)" stroke-width="1" opacity="1" d="M 197.5 834 L 198 836.5 L 197 836.5 L 197.5 834 Z " /><path fill="rgb(136,179,89)" stroke="rgb(136,179,89)" stroke-width="1" opacity="1" d="M 614.5 839 L 615 842.5 L 614 842.5 L 614.5 839 Z " /><path fill="rgb(231,60,61)" stroke="rgb(231,60,61)" stroke-width="1" opacity="1" d="M 352.5 669 L 364.5 669 L 366 670.5 L 366 675.5 L 369 681.5 L 379.5 692 L 397.5 701 L 412.5 705 L 423.5 706 L 424.5 707 L 447.5 708 L 448.5 707 L 464.5 706 L 475.5 703 Q 487.48 698.98 495 690.5 L 498.5 686 Q 532.27 698.73 554 723.5 Q 579.95 751.55 593 792.5 L 599 821.5 L 599 830.5 L 600 831.5 L 600 862.5 L 599 863.5 L 599 871.5 L 598 872.5 L 596 889.5 L 585 924.5 Q 568.06 963.06 538.5 989 Q 510.28 1014.78 469.5 1028 L 454.5 1032 L 438.5 1035 L 430.5 1035 L 429.5 1036 L 392.5 1036 L 391.5 1035 L 382.5 1035 L 381.5 1034 L 370.5 1033 L 350.5 1028 L 333.5 1022 L 312.5 1012 Q 279.41 994.09 256 966.5 Q 231.39 939.11 219 899.5 L 214 877.5 L 213 861.5 L 212 860.5 L 212 828.5 L 213 827.5 L 213 818.5 L 217 795.5 L 227 764.5 Q 242.76 727.26 271.5 703 Q 288.91 688.41 311.5 679 L 338.5 671 L 351.5 670 L 352.5 669 Z M 506 741 L 495 745 L 485 756 L 482 768 Q 483 789 495 800 L 510 811 L 517 814 L 527 816 Q 540 816 547 810 Q 553 804 556 795 Q 558 783 555 776 L 547 761 Q 539 749 525 743 L 517 741 L 506 741 Z " /><path fill="rgb(231,60,61)" stroke="rgb(231,60,61)" stroke-width="1" opacity="1" d="M 891.5 669 L 915.5 671 L 931.5 675 L 947.5 681 Q 980.42 696.08 1002 722.5 Q 1023.91 749.09 1035 786.5 L 1041 815.5 L 1043 853.5 L 1042 854.5 L 1042 867.5 L 1041 868.5 L 1039 887.5 L 1035 903.5 L 1026 927.5 Q 1009.99 961.99 983.5 986 Q 956.75 1011.25 918.5 1025 L 884.5 1034 L 878.5 1034 L 870.5 1036 L 857.5 1036 L 856.5 1037 L 836.5 1037 L 835.5 1036 L 822.5 1036 L 799.5 1032 L 764.5 1020 Q 726.11 1002.39 700 972.5 L 678 941.5 L 665 911.5 L 657 877.5 L 656 857.5 L 655 856.5 L 655 838.5 L 656 837.5 L 656 826.5 L 657 825.5 L 657 817.5 L 659 811.5 L 659 806.5 L 664 787.5 L 671 769.5 Q 686.78 734.78 713.5 711 L 735.5 695 Q 744.91 688.91 757.5 686 L 767.5 697 L 779.5 703 L 795.5 707 L 823.5 708 L 824.5 707 L 833.5 707 L 844.5 705 L 861.5 700 Q 876.05 694.55 885 683.5 L 891.5 669 Z M 942 732 Q 932 734 926 739 L 920 746 L 916 758 L 918 774 L 926 789 Q 937 803 957 809 Q 972 811 980 805 Q 988 799 991 789 Q 993 776 990 769 L 982 753 Q 970 734 942 732 Z " /><path fill="rgb(166,137,113)" stroke="rgb(166,137,113)" stroke-width="1" opacity="1" d="M 628.5 156 L 632 156.5 L 628.5 157 L 628.5 156 Z " /><path fill="rgb(166,137,113)" stroke="rgb(166,137,113)" stroke-width="1" opacity="1" d="M 678.5 191 L 679 196.5 L 678 196.5 L 678.5 191 Z " /><path fill="rgb(166,137,113)" stroke="rgb(166,137,113)" stroke-width="1" opacity="1" d="M 581.5 192 L 582 195.5 L 581 195.5 L 581.5 192 Z " /><path fill="rgb(166,137,113)" stroke="rgb(166,137,113)" stroke-width="1" opacity="1" d="M 677.5 202 L 678 204.5 L 677 204.5 L 677.5 202 Z " /><path fill="rgb(166,137,113)" stroke="rgb(166,137,113)" stroke-width="1" opacity="1" d="M 583.5 208 L 584 210.5 L 583 210.5 L 583.5 208 Z " /><path fill="rgb(166,137,113)" stroke="rgb(166,137,113)" stroke-width="1" opacity="1" d="M 676.5 210 L 677 212.5 L 676 212.5 L 676.5 210 Z " /><path fill="rgb(166,137,113)" stroke="rgb(166,137,113)" stroke-width="1" opacity="1" d="M 674.5 227 L 675 229.5 L 674 229.5 L 674.5 227 Z " /><path fill="rgb(166,137,113)" stroke="rgb(166,137,113)" stroke-width="1" opacity="1" d="M 586.5 231 L 587 233.5 L 586 233.5 L 586.5 231 Z " /><path fill="rgb(166,137,113)" stroke="rgb(166,137,113)" stroke-width="1" opacity="1" d="M 589.5 257 L 590 259.5 L 589 259.5 L 589.5 257 Z " /><path fill="rgb(166,137,113)" stroke="rgb(166,137,113)" stroke-width="1" opacity="1" d="M 669.5 270 L 670 273.5 L 669 273.5 L 669.5 270 Z " /><path fill="rgb(166,137,113)" stroke="rgb(166,137,113)" stroke-width="1" opacity="1" d="M 591.5 278 L 592 284.5 L 591 284.5 L 591.5 278 Z " /><path fill="rgb(166,137,113)" stroke="rgb(166,137,113)" stroke-width="1" opacity="1" d="M 884.5 652 L 886.5 654 L 897 654.5 L 886.5 655 L 884.5 652 Z " /><path fill="rgb(166,137,113)" stroke="rgb(166,137,113)" stroke-width="1" opacity="1" d="M 353.5 654 L 358 654.5 L 353.5 655 L 353.5 654 Z " /><path fill="rgb(166,137,113)" stroke="rgb(166,137,113)" stroke-width="1" opacity="1" d="M 941.5 732 L 949 732.5 L 941.5 733 L 941.5 732 Z " /><path fill="rgb(166,137,113)" stroke="rgb(166,137,113)" stroke-width="1" opacity="1" d="M 916.5 757 L 917 763.5 L 916 763.5 L 916.5 757 Z " /><path fill="rgb(166,137,113)" stroke="rgb(166,137,113)" stroke-width="1" opacity="1" d="M 482.5 767 L 483 771.5 L 482 771.5 L 482.5 767 Z " /><path fill="rgb(166,137,113)" stroke="rgb(166,137,113)" stroke-width="1" opacity="1" d="M 526.5 815 L 532 815.5 L 526.5 816 L 526.5 815 Z " /><path fill="rgb(166,137,113)" stroke="rgb(166,137,113)" stroke-width="1" opacity="1" d="M 1056.5 823 L 1057 825.5 L 1056 825.5 L 1056.5 823 Z " /><path fill="rgb(166,137,113)" stroke="rgb(166,137,113)" stroke-width="1" opacity="1" d="M 641.5 825 L 642 827.5 L 641 827.5 L 641.5 825 Z " /><path fill="rgb(166,137,113)" stroke="rgb(166,137,113)" stroke-width="1" opacity="1" d="M 197.5 830 L 198 833.5 L 197 833.5 L 197.5 830 Z " /><path fill="rgb(166,137,113)" stroke="rgb(166,137,113)" stroke-width="1" opacity="1" d="M 614.5 833 L 615 838.5 L 614 838.5 L 614.5 833 Z " /><path fill="rgb(166,137,113)" stroke="rgb(166,137,113)" stroke-width="1" opacity="1" d="M 640.5 842 L 641 852.5 L 640 852.5 L 640.5 842 Z " /><path fill="rgb(166,137,113)" stroke="rgb(166,137,113)" stroke-width="1" opacity="1" d="M 614.5 854 L 615 860.5 L 614 860.5 L 614.5 854 Z " /><path fill="rgb(166,137,113)" stroke="rgb(166,137,113)" stroke-width="1" opacity="1" d="M 197.5 858 L 198 861.5 L 197 861.5 L 197.5 858 Z " /><path fill="rgb(166,137,113)" stroke="rgb(166,137,113)" stroke-width="1" opacity="1" d="M 1056.5 865 L 1057 867.5 L 1056 867.5 L 1056.5 865 Z " /><path fill="rgb(166,137,113)" stroke="rgb(166,137,113)" stroke-width="1" opacity="1" d="M 641.5 866 L 642 868.5 L 641 868.5 L 641.5 866 Z " /><path fill="rgb(166,137,113)" stroke="rgb(166,137,113)" stroke-width="1" opacity="1" d="M 613.5 869 L 614 871.5 L 613 871.5 L 613.5 869 Z " /><path fill="rgb(166,137,113)" stroke="rgb(166,137,113)" stroke-width="1" opacity="1" d="M 426.5 1050 L 429 1050.5 L 426.5 1051 L 426.5 1050 Z " /><path fill="rgb(166,137,113)" stroke="rgb(166,137,113)" stroke-width="1" opacity="1" d="M 867.5 1050 L 870 1050.5 L 867.5 1051 L 867.5 1050 Z " /><path fill="rgb(166,137,113)" stroke="rgb(166,137,113)" stroke-width="1" opacity="1" d="M 836.5 1051 L 857 1051.5 L 836.5 1052 L 836.5 1051 Z " /><path fill="rgb(245,245,245)" stroke="rgb(245,245,245)" stroke-width="1" opacity="1" d="M 0 0 L 1254 0 L 1254 1254 L 0 1254 L 0 0 Z M 624 156 L 610 159 L 598 165 Q 585 173 581 190 L 581 198 L 583 206 L 585 228 L 586 229 L 586 237 L 589 254 L 589 263 L 590 264 L 590 275 L 591 276 L 590 292 L 583 307 L 512 398 Q 485 436 462 480 Q 424 549 402 635 L 400 637 L 388 640 L 375 648 L 371 653 L 370 654 L 349 654 Q 347 657 342 655 L 311 663 Q 280 675 258 695 Q 234 716 219 746 L 211 764 L 204 786 L 199 809 L 198 825 L 197 826 L 197 865 L 198 866 L 198 873 L 201 886 L 201 891 L 208 915 Q 223 954 249 982 Q 280 1015 325 1035 L 363 1047 L 380 1050 L 388 1050 L 389 1051 L 402 1051 L 403 1052 L 418 1052 L 419 1051 L 432 1051 L 433 1050 L 448 1049 L 467 1045 L 485 1039 Q 524 1024 553 997 Q 581 971 598 933 L 606 912 L 611 893 L 613 876 L 614 875 L 614 866 L 615 865 L 615 829 L 614 828 L 612 807 L 608 790 Q 595 748 570 719 Q 554 700 534 686 L 513 675 L 502 672 L 495 658 L 483 647 L 509 568 L 531 516 L 551 476 Q 584 414 626 361 Q 627 357 632 358 Q 653 383 671 412 Q 694 445 713 483 Q 735 524 752 570 L 763 600 L 776 646 L 770 650 Q 760 657 756 670 L 742 675 L 723 685 L 698 705 Q 672 729 657 764 L 646 795 L 643 809 L 642 822 L 641 823 L 641 834 L 640 835 L 640 863 L 641 864 L 641 873 L 642 874 L 645 897 L 652 921 Q 667 960 693 988 Q 720 1016 759 1034 L 797 1047 L 820 1051 L 830 1051 L 831 1052 L 873 1051 L 874 1050 L 893 1048 L 913 1043 Q 956 1029 988 1003 Q 1019 976 1038 938 Q 1046 920 1052 900 L 1056 879 L 1057 859 L 1058 858 L 1057 821 L 1056 820 L 1056 813 L 1053 796 L 1049 781 Q 1036 736 1008 707 Q 986 682 954 667 L 932 659 L 918 656 L 905 655 L 904 654 L 887 654 L 883 650 Q 874 640 859 637 L 857 636 L 848 601 L 830 550 L 806 495 L 792 468 Q 767 422 737 382 L 682 314 L 672 297 L 669 285 L 671 258 L 674 241 L 674 234 L 675 233 L 675 226 L 676 225 L 677 208 L 679 200 L 679 189 L 673 176 Q 665 164 651 159 L 637 156 L 624 156 Z " /><path fill="rgb(245,245,245)" stroke="rgb(245,245,245)" stroke-width="1" opacity="1" d="M 939.5 733 L 950.5 733 L 960.5 736 Q 971.59 740.91 979 749.5 Q 991 761.5 991 785.5 Q 988.62 797.62 980.5 804 L 968.5 809 L 959.5 809 Q 940.33 805.17 930 792.5 L 919 774.5 L 917 766.5 L 917 755.5 Q 919.19 743.69 927.5 738 L 939.5 733 Z " /><path fill="rgb(245,245,245)" stroke="rgb(245,245,245)" stroke-width="1" opacity="1" d="M 503.5 742 L 518.5 742 L 527.5 745 Q 537.97 750.03 545 758.5 L 554 774.5 L 556 783.5 L 556 790.5 Q 553.75 804.25 544.5 811 Q 537.21 816.71 522.5 815 Q 503.25 810.25 493 796.5 L 485 782.5 L 483 774.5 L 483 763.5 Q 485.28 753.78 491.5 748 L 503.5 742 Z " /></svg>