<svg viewBox="0 0 1254 1254" version="1.1" xmlns="http://www.w3.org/2000/svg" desc="Created with imagetracer.js version 1.2.6" ><path fill="rgb(100,57,24)" stroke="rgb(100,57,24)" stroke-width="1" opacity="1" d="M 623.5 183 L 634.5 184 Q 643.44 187.56 649 194.5 L 677 237.5 L 698.5 260 L 728.5 282 L 801.5 321 L 851.5 353 Q 904.23 390.77 948 437.5 Q 979.02 471.48 1005 510.5 Q 1031.14 550.36 1050 597.5 L 1062 631.5 L 1073 675.5 L 1076 700.5 L 1077 701.5 L 1078 720.5 L 1079 721.5 L 1080 765.5 L 1079 766.5 L 1079 783.5 L 1078 784.5 L 1078 791.5 L 1077 792.5 L 1076 806.5 L 1073 818.5 L 1073 823.5 L 1064 855.5 L 1055 878.5 Q 1029.68 933.68 986.5 971 Q 961.66 993.16 931.5 1010 L 882.5 1033 L 832.5 1049 L 771.5 1062 L 742.5 1065 L 741.5 1066 L 733.5 1066 L 732.5 1067 L 698.5 1069 L 697.5 1070 L 685.5 1070 L 684.5 1071 L 663.5 1071 L 662.5 1072 L 592.5 1072 L 591.5 1071 L 568.5 1071 L 567.5 1070 L 552.5 1070 L 551.5 1069 L 541.5 1069 L 540.5 1068 L 529.5 1068 L 528.5 1067 L 502.5 1065 L 483.5 1061 L 477.5 1061 L 437.5 1053 L 385.5 1038 L 347.5 1023 L 310.5 1003 Q 273.99 981.01 246 950.5 Q 227 929.5 212 904.5 L 198 876.5 L 188 849.5 L 180 817.5 L 180 812.5 L 177 799.5 L 175 767.5 L 174 766.5 L 174 737.5 L 175 736.5 L 175 721.5 L 176 720.5 L 176 709.5 L 178 702.5 L 178 694.5 L 185 658.5 L 197 617.5 L 215 573.5 Q 235.35 530.35 262 493.5 Q 295.14 448.14 335.5 410 Q 368.82 378.82 406.5 352 L 465.5 315 L 526.5 282 Q 550.32 267.32 569 247.5 Q 588.2 226.2 602 199.5 L 612.5 188 L 623.5 183 Z M 613 189 L 611 191 L 614 191 Q 615 188 613 189 Z M 625 201 L 623 202 L 615 211 Q 602 235 585 256 Q 564 279 537 296 L 462 337 L 410 371 Q 375 396 345 425 L 327 444 L 323 446 L 323 448 L 296 478 L 268 515 L 248 547 L 229 584 L 219 607 L 205 649 L 195 695 L 194 710 L 193 711 L 193 721 L 192 722 L 192 733 L 191 734 L 191 773 L 192 774 L 193 793 L 198 822 L 204 844 Q 221 897 254 934 L 281 960 L 317 987 Q 356 1012 406 1027 L 452 1039 L 502 1048 L 518 1049 L 526 1051 L 536 1051 L 537 1052 L 548 1052 L 549 1053 L 584 1054 L 585 1055 L 620 1055 L 622 1056 L 624 1056 L 672 1055 L 673 1054 L 691 1054 L 692 1053 L 706 1053 L 707 1052 L 729 1051 L 730 1050 L 737 1050 L 738 1049 L 745 1049 L 746 1048 L 753 1048 L 754 1047 L 772 1045 L 817 1036 Q 852 1028 883 1015 L 923 996 L 947 981 L 948 978 L 956 974 L 978 956 Q 1014 923 1037 877 Q 1048 853 1055 825 L 1060 799 L 1060 791 L 1062 782 L 1062 764 L 1063 763 L 1062 721 L 1061 720 L 1060 703 L 1056 684 L 1056 679 L 1045 635 L 1032 599 Q 1016 558 993 524 Q 964 479 928 442 L 888 403 L 861 381 L 825 355 L 785 331 L 724 299 Q 703 288 687 273 L 665 251 L 636 207 L 630 201 L 625 201 Z M 451 325 L 450 327 L 452 326 L 451 325 Z M 514 1064 L 514 1065 L 518 1065 L 514 1064 Z M 545 1067 L 545 1068 L 551 1068 L 545 1067 Z M 706 1067 L 706 1068 L 708 1068 L 706 1067 Z M 557 1068 L 557 1069 L 560 1069 L 557 1068 Z M 576 1069 L 576 1070 L 582 1070 L 576 1069 Z M 672 1069 L 672 1070 L 674 1070 L 672 1069 Z M 676 1069 L 676 1070 L 678 1070 L 676 1069 Z M 606 1070 L 606 1071 L 608 1071 L 606 1070 Z M 652 1070 L 652 1071 L 658 1071 L 652 1070 Z " /><path fill="rgb(100,57,24)" stroke="rgb(100,57,24)" stroke-width="1" opacity="1" d="M 449.5 618 Q 461.94 616.56 469.5 620 Q 479.92 624.58 487 632.5 Q 501.46 647.54 500 678.5 L 497 692.5 L 492 703.5 L 479.5 718 Q 470.45 726.95 451.5 726 Q 435.75 722.75 427 712.5 L 420 703.5 L 414 688.5 L 412 677.5 L 412 666.5 L 414 655.5 L 418 644.5 Q 423.03 634.03 431.5 627 L 449.5 618 Z M 464 636 L 457 639 Q 451 642 450 650 Q 449 658 453 663 Q 457 667 464 669 Q 472 670 476 666 L 480 662 L 483 652 L 480 644 Q 476 635 464 636 Z " /><path fill="rgb(100,57,24)" stroke="rgb(100,57,24)" stroke-width="1" opacity="1" d="M 791.5 618 L 804.5 618 L 811.5 620 Q 822.81 625.19 830 634.5 Q 842.89 649.61 842 678.5 Q 839.5 680 841 685.5 L 835 701.5 L 822.5 717 Q 816.72 722.73 807.5 725 L 793.5 726 Q 776 722.5 767 710.5 Q 759.48 701.52 756 688.5 L 754 677.5 L 754 665.5 L 756 654.5 L 763 638.5 L 775.5 625 Q 781.95 619.95 791.5 618 Z M 805 636 L 799 639 L 792 648 Q 790 657 794 662 Q 797 668 806 669 L 811 669 L 818 666 L 824 656 Q 825 647 821 643 Q 816 636 805 636 Z " /><path fill="rgb(100,57,24)" stroke="rgb(100,57,24)" stroke-width="1" opacity="1" d="M 570.5 696 Q 578.47 695.03 581 699.5 Q 584.87 716.13 596.5 725 Q 608.5 736 632.5 735 L 650.5 730 L 665 717.5 Q 670.45 711.45 672 701.5 L 676.5 697 L 684.5 696 L 690 700.5 L 691 708.5 Q 685.25 728.75 670.5 740 Q 661.5 748 648.5 752 L 632.5 755 L 622.5 755 L 621.5 754 L 609.5 753 L 595.5 748 Q 583.4 741.6 575 731.5 L 565 714.5 L 563 708.5 L 563 702.5 L 566.5 698 L 570.5 696 Z " /><path fill="rgb(141,120,103)" stroke="rgb(141,120,103)" stroke-width="1" opacity="1" d="M 177.5 698 L 178 700.5 L 177 700.5 L 177.5 698 Z " /><path fill="rgb(141,120,103)" stroke="rgb(141,120,103)" stroke-width="1" opacity="1" d="M 392.5 712 L 395 712.5 L 392.5 713 L 392.5 712 Z " /><path fill="rgb(141,120,103)" stroke="rgb(141,120,103)" stroke-width="1" opacity="1" d="M 859.5 712 L 862 712.5 L 859.5 713 L 859.5 712 Z " /><path fill="rgb(141,120,103)" stroke="rgb(141,120,103)" stroke-width="1" opacity="1" d="M 1078.5 715 L 1079 717.5 L 1078 717.5 L 1078.5 715 Z " /><path fill="rgb(141,120,103)" stroke="rgb(141,120,103)" stroke-width="1" opacity="1" d="M 1079.5 727 L 1080 730.5 L 1079 730.5 L 1079.5 727 Z " /><path fill="rgb(141,120,103)" stroke="rgb(141,120,103)" stroke-width="1" opacity="1" d="M 174.5 728 L 175 732.5 L 174 732.5 L 174.5 728 Z " /><path fill="rgb(141,120,103)" stroke="rgb(141,120,103)" stroke-width="1" opacity="1" d="M 431.5 741 L 432 746.5 L 431 746.5 L 431.5 741 Z " /><path fill="rgb(141,120,103)" stroke="rgb(141,120,103)" stroke-width="1" opacity="1" d="M 1079.5 770 L 1080 775.5 L 1079 775.5 L 1079.5 770 Z " /><path fill="rgb(141,120,103)" stroke="rgb(141,120,103)" stroke-width="1" opacity="1" d="M 174.5 771 L 175 774.5 L 174 774.5 L 174.5 771 Z " /><path fill="rgb(141,120,103)" stroke="rgb(141,120,103)" stroke-width="1" opacity="1" d="M 381.5 776 L 391 776.5 L 381.5 777 L 381.5 776 Z " /><path fill="rgb(141,120,103)" stroke="rgb(141,120,103)" stroke-width="1" opacity="1" d="M 864.5 776 L 874 776.5 L 864.5 777 L 864.5 776 Z " /><path fill="rgb(141,120,103)" stroke="rgb(141,120,103)" stroke-width="1" opacity="1" d="M 175.5 783 L 176 785.5 L 175 785.5 L 175.5 783 Z " /><path fill="rgb(141,120,103)" stroke="rgb(141,120,103)" stroke-width="1" opacity="1" d="M 1078.5 784 L 1079 787.5 L 1078 787.5 L 1078.5 784 Z " /><path fill="rgb(141,120,103)" stroke="rgb(141,120,103)" stroke-width="1" opacity="1" d="M 176.5 793 L 177 795.5 L 176 795.5 L 176.5 793 Z " /><path fill="rgb(141,120,103)" stroke="rgb(141,120,103)" stroke-width="1" opacity="1" d="M 1077.5 793 L 1078 795.5 L 1077 795.5 L 1077.5 793 Z " /><path fill="rgb(141,120,103)" stroke="rgb(141,120,103)" stroke-width="1" opacity="1" d="M 591.5 902 L 661 902.5 L 591.5 903 L 591.5 902 Z " /><path fill="rgb(141,120,103)" stroke="rgb(141,120,103)" stroke-width="1" opacity="1" d="M 566.5 903 L 573 903.5 L 566.5 904 L 566.5 903 Z " /><path fill="rgb(141,120,103)" stroke="rgb(141,120,103)" stroke-width="1" opacity="1" d="M 681.5 903 L 690 903.5 L 681.5 904 L 681.5 903 Z " /><path fill="rgb(141,120,103)" stroke="rgb(141,120,103)" stroke-width="1" opacity="1" d="M 547.5 904 L 552 904.5 L 547.5 905 L 547.5 904 Z " /><path fill="rgb(141,120,103)" stroke="rgb(141,120,103)" stroke-width="1" opacity="1" d="M 700.5 904 L 706 904.5 L 700.5 905 L 700.5 904 Z " /><path fill="rgb(141,120,103)" stroke="rgb(141,120,103)" stroke-width="1" opacity="1" d="M 534.5 905 L 538 905.5 L 534.5 906 L 534.5 905 Z " /><path fill="rgb(141,120,103)" stroke="rgb(141,120,103)" stroke-width="1" opacity="1" d="M 715.5 905 L 720 905.5 L 715.5 906 L 715.5 905 Z " /><path fill="rgb(141,120,103)" stroke="rgb(141,120,103)" stroke-width="1" opacity="1" d="M 521.5 906 L 526 906.5 L 521.5 907 L 521.5 906 Z " /><path fill="rgb(141,120,103)" stroke="rgb(141,120,103)" stroke-width="1" opacity="1" d="M 728.5 906 L 732 906.5 L 728.5 907 L 728.5 906 Z " /><path fill="rgb(141,120,103)" stroke="rgb(141,120,103)" stroke-width="1" opacity="1" d="M 511.5 907 L 514 907.5 L 511.5 908 L 511.5 907 Z " /><path fill="rgb(141,120,103)" stroke="rgb(141,120,103)" stroke-width="1" opacity="1" d="M 738.5 907 L 742 907.5 L 738.5 908 L 738.5 907 Z " /><path fill="rgb(141,120,103)" stroke="rgb(141,120,103)" stroke-width="1" opacity="1" d="M 500.5 908 L 504 908.5 L 500.5 909 L 500.5 908 Z " /><path fill="rgb(141,120,103)" stroke="rgb(141,120,103)" stroke-width="1" opacity="1" d="M 750.5 908 L 753 908.5 L 750.5 909 L 750.5 908 Z " /><path fill="rgb(141,120,103)" stroke="rgb(141,120,103)" stroke-width="1" opacity="1" d="M 492.5 909 L 495 909.5 L 492.5 910 L 492.5 909 Z " /><path fill="rgb(141,120,103)" stroke="rgb(141,120,103)" stroke-width="1" opacity="1" d="M 758.5 909 L 761 909.5 L 758.5 910 L 758.5 909 Z " /><path fill="rgb(141,120,103)" stroke="rgb(141,120,103)" stroke-width="1" opacity="1" d="M 484.5 910 L 487 910.5 L 484.5 911 L 484.5 910 Z " /><path fill="rgb(141,120,103)" stroke="rgb(141,120,103)" stroke-width="1" opacity="1" d="M 767.5 910 L 770 910.5 L 767.5 911 L 767.5 910 Z " /><path fill="rgb(141,120,103)" stroke="rgb(141,120,103)" stroke-width="1" opacity="1" d="M 774.5 911 L 777 911.5 L 774.5 912 L 774.5 911 Z " /><path fill="rgb(141,120,103)" stroke="rgb(141,120,103)" stroke-width="1" opacity="1" d="M 782.5 912 L 785 912.5 L 782.5 913 L 782.5 912 Z " /><path fill="rgb(141,120,103)" stroke="rgb(141,120,103)" stroke-width="1" opacity="1" d="M 504.5 955 L 511.5 956 L 516 959.5 L 517 965.5 L 513.5 970 Q 510.57 972.57 504.5 972 L 498.5 970 L 496 967.5 L 495 961.5 L 498.5 957 L 504.5 955 Z " /><path fill="rgb(141,120,103)" stroke="rgb(141,120,103)" stroke-width="1" opacity="1" d="M 723.5 956 Q 733.79 954.57 738 958 L 740 963.5 L 738 969 Q 734.29 972.83 723.5 971 L 719 969 L 717 962.5 L 719 958 L 723.5 956 Z " /><path fill="rgb(141,120,103)" stroke="rgb(141,120,103)" stroke-width="1" opacity="1" d="M 423.5 978 L 431.5 979 L 436 983.5 L 437 987.5 L 433.5 992 Q 429.5 995 421.5 994 L 415 988.5 Q 414.17 982.67 417.5 981 L 423.5 978 Z " /><path fill="rgb(141,120,103)" stroke="rgb(141,120,103)" stroke-width="1" opacity="1" d="M 807.5 981 Q 817.93 979.57 821 985.5 L 822 989.5 L 817.5 995 Q 814 997.5 806.5 996 L 800 991.5 L 799 988.5 L 803.5 982 L 807.5 981 Z " /><path fill="rgb(141,120,103)" stroke="rgb(141,120,103)" stroke-width="1" opacity="1" d="M 566.5 999 L 569.5 1000 Q 575.08 999.92 577 1003.5 L 578 1009.5 L 574.5 1014 Q 571.21 1016.71 564.5 1016 L 557 1011.5 L 556 1006.5 L 560.5 1001 L 566.5 999 Z " /><path fill="rgb(141,120,103)" stroke="rgb(141,120,103)" stroke-width="1" opacity="1" d="M 716.5 1003 Q 725.67 1002.82 729 1008.5 Q 730.04 1015.04 726.5 1017 Q 723.02 1020.52 715.5 1020 L 711.5 1019 L 707 1014.5 Q 705.5 1006.5 710.5 1005 L 716.5 1003 Z " /><path fill="rgb(141,120,103)" stroke="rgb(141,120,103)" stroke-width="1" opacity="1" d="M 521.5 1049 L 524 1049.5 L 521.5 1050 L 521.5 1049 Z " /><path fill="rgb(141,120,103)" stroke="rgb(141,120,103)" stroke-width="1" opacity="1" d="M 730.5 1049 L 734 1049.5 L 730.5 1050 L 730.5 1049 Z " /><path fill="rgb(141,120,103)" stroke="rgb(141,120,103)" stroke-width="1" opacity="1" d="M 530.5 1050 L 533 1050.5 L 530.5 1051 L 530.5 1050 Z " /><path fill="rgb(141,120,103)" stroke="rgb(141,120,103)" stroke-width="1" opacity="1" d="M 721.5 1050 L 724 1050.5 L 721.5 1051 L 721.5 1050 Z " /><path fill="rgb(141,120,103)" stroke="rgb(141,120,103)" stroke-width="1" opacity="1" d="M 710.5 1051 L 713 1051.5 L 710.5 1052 L 710.5 1051 Z " /><path fill="rgb(141,120,103)" stroke="rgb(141,120,103)" stroke-width="1" opacity="1" d="M 554.5 1052 L 559 1052.5 L 554.5 1053 L 554.5 1052 Z " /><path fill="rgb(141,120,103)" stroke="rgb(141,120,103)" stroke-width="1" opacity="1" d="M 696.5 1052 L 700 1052.5 L 696.5 1053 L 696.5 1052 Z " /><path fill="rgb(141,120,103)" stroke="rgb(141,120,103)" stroke-width="1" opacity="1" d="M 570.5 1053 L 579 1053.5 L 570.5 1054 L 570.5 1053 Z " /><path fill="rgb(141,120,103)" stroke="rgb(141,120,103)" stroke-width="1" opacity="1" d="M 676.5 1053 L 684 1053.5 L 676.5 1054 L 676.5 1053 Z " /><path fill="rgb(141,120,103)" stroke="rgb(141,120,103)" stroke-width="1" opacity="1" d="M 595.5 1054 L 613 1054.5 L 595.5 1055 L 595.5 1054 Z " /><path fill="rgb(141,120,103)" stroke="rgb(141,120,103)" stroke-width="1" opacity="1" d="M 647.5 1054 L 658 1054.5 L 647.5 1055 L 647.5 1054 Z " /><path fill="rgb(141,120,103)" stroke="rgb(141,120,103)" stroke-width="1" opacity="1" d="M 751.5 1064 L 754 1064.5 L 751.5 1065 L 751.5 1064 Z " /><path fill="rgb(141,120,103)" stroke="rgb(141,120,103)" stroke-width="1" opacity="1" d="M 515.5 1066 L 518 1066.5 L 515.5 1067 L 515.5 1066 Z " /><path fill="rgb(141,120,103)" stroke="rgb(141,120,103)" stroke-width="1" opacity="1" d="M 523.5 1067 L 526 1067.5 L 523.5 1068 L 523.5 1067 Z " /><path fill="rgb(141,120,103)" stroke="rgb(141,120,103)" stroke-width="1" opacity="1" d="M 726.5 1067 L 730 1067.5 L 726.5 1068 L 726.5 1067 Z " /><path fill="rgb(141,120,103)" stroke="rgb(141,120,103)" stroke-width="1" opacity="1" d="M 533.5 1068 L 538 1068.5 L 533.5 1069 L 533.5 1068 Z " /><path fill="rgb(141,120,103)" stroke="rgb(141,120,103)" stroke-width="1" opacity="1" d="M 715.5 1068 L 719 1068.5 L 715.5 1069 L 715.5 1068 Z " /><path fill="rgb(141,120,103)" stroke="rgb(141,120,103)" stroke-width="1" opacity="1" d="M 548.5 1069 L 551 1069.5 L 548.5 1070 L 548.5 1069 Z " /><path fill="rgb(141,120,103)" stroke="rgb(141,120,103)" stroke-width="1" opacity="1" d="M 701.5 1069 L 706 1069.5 L 701.5 1070 L 701.5 1069 Z " /><path fill="rgb(141,120,103)" stroke="rgb(141,120,103)" stroke-width="1" opacity="1" d="M 559.5 1070 L 563 1070.5 L 559.5 1071 L 559.5 1070 Z " /><path fill="rgb(141,120,103)" stroke="rgb(141,120,103)" stroke-width="1" opacity="1" d="M 687.5 1070 L 693 1070.5 L 687.5 1071 L 687.5 1070 Z " /><path fill="rgb(141,120,103)" stroke="rgb(141,120,103)" stroke-width="1" opacity="1" d="M 577.5 1071 L 585 1071.5 L 577.5 1072 L 577.5 1071 Z " /><path fill="rgb(141,120,103)" stroke="rgb(141,120,103)" stroke-width="1" opacity="1" d="M 671.5 1071 L 677 1071.5 L 671.5 1072 L 671.5 1071 Z " /><path fill="rgb(141,120,103)" stroke="rgb(141,120,103)" stroke-width="1" opacity="1" d="M 612.5 1072 L 644 1072.5 L 612.5 1073 L 612.5 1072 Z " /><path fill="rgb(154,78,27)" stroke="rgb(154,78,27)" stroke-width="1" opacity="1" d="M 613.5 187 Q 616.25 188.25 614 189.5 Q 614.83 192.13 611.5 191 L 609 192.5 L 614 188.5 L 613.5 187 Z " /><path fill="rgb(154,78,27)" stroke="rgb(154,78,27)" stroke-width="1" opacity="1" d="M 624.5 201 L 629.5 201 L 636 206.5 L 665 250.5 L 686.5 273 Q 703.41 287.59 723.5 299 L 784.5 331 L 824.5 355 L 860.5 381 L 887.5 403 L 928 441.5 Q 964.39 478.61 993 523.5 Q 1015.5 558 1032 598.5 L 1045 634.5 L 1056 678.5 L 1056 683.5 L 1060 702.5 L 1061 719.5 L 1062 720.5 L 1063 762.5 L 1062 763.5 L 1062 781.5 L 1060 790.5 L 1060 798.5 L 1055 824.5 Q 1048.08 852.58 1037 876.5 Q 1014.28 923.28 977.5 956 L 955.5 974 L 948 978 L 946.5 981 L 947 979.5 Q 942.82 969.18 934.5 963 L 916.5 950 L 880.5 934 L 850.5 925 L 808.5 916 L 803.5 916 L 784.5 912 L 770.5 911 L 769.5 910 L 753.5 909 L 752.5 908 L 742.5 908 L 741.5 907 L 720.5 906 L 719.5 905 L 706.5 905 L 705.5 904 L 661.5 903 L 660.5 902 L 591.5 902 L 590.5 903 L 547.5 904 L 546.5 905 L 534.5 905 L 533.5 906 L 500.5 908 L 499.5 909 L 492.5 909 L 491.5 910 L 484.5 910 L 463.5 914 L 457.5 914 L 415.5 922 L 382.5 931 L 355.5 941 Q 329.71 951.71 312 970.5 L 307 977.5 L 307 979.5 L 307.5 981 L 280.5 960 L 254 933.5 Q 221 896.5 204 843.5 L 198 821.5 L 193 792.5 L 192 773.5 L 191 772.5 L 191 733.5 L 192 732.5 L 192 721.5 L 193 720.5 L 193 710.5 L 194 709.5 L 195 694.5 L 205 648.5 L 219 606.5 L 229 583.5 L 248 546.5 L 268 514.5 L 296 477.5 L 323 447.5 L 323 446 L 327 443.5 L 344.5 425 Q 375.07 396.07 409.5 371 L 461.5 337 L 536.5 296 Q 564.05 279.05 585 255.5 Q 602.45 235.45 615 210.5 L 622.5 202 L 624.5 201 Z M 789 376 L 787 377 L 783 382 Q 782 391 786 396 L 800 414 Q 825 440 856 462 Q 872 475 894 483 Q 903 485 907 481 L 909 478 L 910 473 Q 907 459 899 451 L 883 433 Q 857 406 824 386 L 805 377 L 789 376 Z M 450 618 L 432 627 Q 423 634 418 645 L 414 656 L 412 667 L 412 678 L 414 689 L 420 704 L 427 713 Q 436 723 452 726 Q 470 727 480 718 L 492 704 L 497 693 L 500 679 Q 501 648 487 633 Q 480 625 470 620 Q 462 617 450 618 Z M 792 618 Q 782 620 776 625 L 763 639 L 756 655 L 754 666 L 754 678 L 756 689 Q 759 702 767 711 Q 776 722 794 726 L 808 725 Q 817 723 823 717 L 835 702 L 841 686 Q 840 680 842 679 Q 843 650 830 635 Q 823 625 812 620 L 805 618 L 792 618 Z M 571 696 L 567 698 L 563 703 L 563 709 L 565 715 L 575 732 Q 583 742 596 748 L 610 753 L 622 754 L 623 755 L 633 755 L 649 752 Q 662 748 671 740 Q 685 729 691 709 L 690 701 L 685 696 L 677 697 L 672 702 Q 670 711 665 718 L 651 730 L 633 735 Q 609 736 597 725 Q 585 716 581 700 Q 578 695 571 696 Z M 378 712 L 363 716 L 354 721 Q 344 727 340 740 Q 339 753 345 760 Q 351 768 362 772 L 382 777 L 391 777 L 402 775 Q 412 773 419 767 Q 429 761 432 747 Q 432 735 427 730 Q 413 710 378 712 Z M 860 712 L 843 717 L 835 722 Q 826 728 823 739 Q 821 753 828 760 Q 835 769 847 773 L 865 777 Q 888 777 902 767 Q 913 761 915 746 L 914 738 L 910 730 Q 901 719 887 714 L 877 712 L 860 712 Z " /><path fill="rgb(154,78,27)" stroke="rgb(154,78,27)" stroke-width="1" opacity="1" d="M 736.5 288 L 739.5 289 L 741 288.5 L 740.5 291 L 736.5 289 L 736.5 288 Z " /><path fill="rgb(154,78,27)" stroke="rgb(154,78,27)" stroke-width="1" opacity="1" d="M 498.5 297 Q 501.5 298.5 498.5 300 L 496.5 301 L 496.5 298 L 498.5 299 L 498.5 297 Z " /><path fill="rgb(154,78,27)" stroke="rgb(154,78,27)" stroke-width="1" opacity="1" d="M 453.5 322 Q 456.5 323.5 453.5 325 L 448.5 328 L 448.5 325 L 450.5 325 L 452 324.5 L 451.5 323 L 453.5 324 L 453.5 322 Z " /><path fill="rgb(154,78,27)" stroke="rgb(154,78,27)" stroke-width="1" opacity="1" d="M 427.5 338 Q 430.5 339.5 427.5 341 L 425.5 342 L 424.5 340 L 426.5 340 L 428 339.5 L 427.5 338 Z " /><path fill="rgb(154,78,27)" stroke="rgb(154,78,27)" stroke-width="1" opacity="1" d="M 338.5 407 L 341 407.5 L 336 409.5 L 338.5 407 Z " /><path fill="rgb(154,78,27)" stroke="rgb(154,78,27)" stroke-width="1" opacity="1" d="M 1078.5 718 L 1079 720.5 L 1078 720.5 L 1078.5 718 Z " /><path fill="rgb(154,78,27)" stroke="rgb(154,78,27)" stroke-width="1" opacity="1" d="M 1079.5 731 L 1080 734.5 L 1079 734.5 L 1079.5 731 Z " /><path fill="rgb(154,78,27)" stroke="rgb(154,78,27)" stroke-width="1" opacity="1" d="M 174.5 733 L 175 736.5 L 174 736.5 L 174.5 733 Z " /><path fill="rgb(154,78,27)" stroke="rgb(154,78,27)" stroke-width="1" opacity="1" d="M 1079.5 766 L 1080 769.5 L 1079 769.5 L 1079.5 766 Z " /><path fill="rgb(154,78,27)" stroke="rgb(154,78,27)" stroke-width="1" opacity="1" d="M 174.5 767 L 175 770.5 L 174 770.5 L 174.5 767 Z " /><path fill="rgb(154,78,27)" stroke="rgb(154,78,27)" stroke-width="1" opacity="1" d="M 175.5 780 L 176 782.5 L 175 782.5 L 175.5 780 Z " /><path fill="rgb(154,78,27)" stroke="rgb(154,78,27)" stroke-width="1" opacity="1" d="M 769.5 1044 L 772 1044.5 L 769.5 1045 L 769.5 1044 Z " /><path fill="rgb(154,78,27)" stroke="rgb(154,78,27)" stroke-width="1" opacity="1" d="M 488.5 1045 L 491 1045.5 L 488.5 1046 L 488.5 1045 Z " /><path fill="rgb(154,78,27)" stroke="rgb(154,78,27)" stroke-width="1" opacity="1" d="M 763.5 1045 L 766 1045.5 L 763.5 1046 L 763.5 1045 Z " /><path fill="rgb(154,78,27)" stroke="rgb(154,78,27)" stroke-width="1" opacity="1" d="M 494.5 1046 L 497 1046.5 L 494.5 1047 L 494.5 1046 Z " /><path fill="rgb(154,78,27)" stroke="rgb(154,78,27)" stroke-width="1" opacity="1" d="M 756.5 1046 L 760 1046.5 L 756.5 1047 L 756.5 1046 Z " /><path fill="rgb(154,78,27)" stroke="rgb(154,78,27)" stroke-width="1" opacity="1" d="M 501.5 1047 L 504 1047.5 L 501.5 1048 L 501.5 1047 Z " /><path fill="rgb(154,78,27)" stroke="rgb(154,78,27)" stroke-width="1" opacity="1" d="M 749.5 1047 L 753 1047.5 L 749.5 1048 L 749.5 1047 Z " /><path fill="rgb(154,78,27)" stroke="rgb(154,78,27)" stroke-width="1" opacity="1" d="M 509.5 1048 L 513 1048.5 L 509.5 1049 L 509.5 1048 Z " /><path fill="rgb(154,78,27)" stroke="rgb(154,78,27)" stroke-width="1" opacity="1" d="M 741.5 1048 L 745 1048.5 L 741.5 1049 L 741.5 1048 Z " /><path fill="rgb(154,78,27)" stroke="rgb(154,78,27)" stroke-width="1" opacity="1" d="M 518.5 1049 L 521 1049.5 L 518.5 1050 L 518.5 1049 Z " /><path fill="rgb(154,78,27)" stroke="rgb(154,78,27)" stroke-width="1" opacity="1" d="M 734.5 1049 L 737 1049.5 L 734.5 1050 L 734.5 1049 Z " /><path fill="rgb(154,78,27)" stroke="rgb(154,78,27)" stroke-width="1" opacity="1" d="M 525.5 1050 L 530 1050.5 L 525.5 1051 L 525.5 1050 Z " /><path fill="rgb(154,78,27)" stroke="rgb(154,78,27)" stroke-width="1" opacity="1" d="M 724.5 1050 L 729 1050.5 L 724.5 1051 L 724.5 1050 Z " /><path fill="rgb(154,78,27)" stroke="rgb(154,78,27)" stroke-width="1" opacity="1" d="M 536.5 1051 L 542 1051.5 L 536.5 1052 L 536.5 1051 Z " /><path fill="rgb(154,78,27)" stroke="rgb(154,78,27)" stroke-width="1" opacity="1" d="M 713.5 1051 L 719 1051.5 L 713.5 1052 L 713.5 1051 Z " /><path fill="rgb(154,78,27)" stroke="rgb(154,78,27)" stroke-width="1" opacity="1" d="M 548.5 1052 L 554 1052.5 L 548.5 1053 L 548.5 1052 Z " /><path fill="rgb(154,78,27)" stroke="rgb(154,78,27)" stroke-width="1" opacity="1" d="M 700.5 1052 L 706 1052.5 L 700.5 1053 L 700.5 1052 Z " /><path fill="rgb(154,78,27)" stroke="rgb(154,78,27)" stroke-width="1" opacity="1" d="M 564.5 1053 L 570 1053.5 L 564.5 1054 L 564.5 1053 Z " /><path fill="rgb(154,78,27)" stroke="rgb(154,78,27)" stroke-width="1" opacity="1" d="M 684.5 1053 L 691 1053.5 L 684.5 1054 L 684.5 1053 Z " /><path fill="rgb(154,78,27)" stroke="rgb(154,78,27)" stroke-width="1" opacity="1" d="M 584.5 1054 L 595 1054.5 L 584.5 1055 L 584.5 1054 Z " /><path fill="rgb(154,78,27)" stroke="rgb(154,78,27)" stroke-width="1" opacity="1" d="M 658.5 1054 L 672 1054.5 L 658.5 1055 L 658.5 1054 Z " /><path fill="rgb(154,78,27)" stroke="rgb(154,78,27)" stroke-width="1" opacity="1" d="M 623.5 1055 L 639 1055.5 L 623.5 1056 L 623.5 1055 Z " /><path fill="rgb(154,78,27)" stroke="rgb(154,78,27)" stroke-width="1" opacity="1" d="M 513.5 1064 L 518 1064.5 L 513.5 1065 L 513.5 1064 Z " /><path fill="rgb(154,78,27)" stroke="rgb(154,78,27)" stroke-width="1" opacity="1" d="M 509.5 1065 L 512 1065.5 L 509.5 1066 L 509.5 1065 Z " /><path fill="rgb(154,78,27)" stroke="rgb(154,78,27)" stroke-width="1" opacity="1" d="M 733.5 1066 L 736 1066.5 L 733.5 1067 L 733.5 1066 Z " /><path fill="rgb(154,78,27)" stroke="rgb(154,78,27)" stroke-width="1" opacity="1" d="M 526.5 1067 L 529 1067.5 L 526.5 1068 L 526.5 1067 Z " /><path fill="rgb(154,78,27)" stroke="rgb(154,78,27)" stroke-width="1" opacity="1" d="M 544.5 1067 L 551 1067.5 L 544.5 1068 L 544.5 1067 Z " /><path fill="rgb(154,78,27)" stroke="rgb(154,78,27)" stroke-width="1" opacity="1" d="M 705.5 1067 L 708 1067.5 L 705.5 1068 L 705.5 1067 Z " /><path fill="rgb(154,78,27)" stroke="rgb(154,78,27)" stroke-width="1" opacity="1" d="M 722.5 1067 L 726 1067.5 L 722.5 1068 L 722.5 1067 Z " /><path fill="rgb(154,78,27)" stroke="rgb(154,78,27)" stroke-width="1" opacity="1" d="M 538.5 1068 L 541 1068.5 L 538.5 1069 L 538.5 1068 Z " /><path fill="rgb(154,78,27)" stroke="rgb(154,78,27)" stroke-width="1" opacity="1" d="M 556.5 1068 L 560 1068.5 L 556.5 1069 L 556.5 1068 Z " /><path fill="rgb(154,78,27)" stroke="rgb(154,78,27)" stroke-width="1" opacity="1" d="M 711.5 1068 L 715 1068.5 L 711.5 1069 L 711.5 1068 Z " /><path fill="rgb(154,78,27)" stroke="rgb(154,78,27)" stroke-width="1" opacity="1" d="M 575.5 1069 L 582 1069.5 L 575.5 1070 L 575.5 1069 Z " /><path fill="rgb(154,78,27)" stroke="rgb(154,78,27)" stroke-width="1" opacity="1" d="M 671.5 1069 L 674 1069.5 L 671.5 1070 L 671.5 1069 Z " /><path fill="rgb(154,78,27)" stroke="rgb(154,78,27)" stroke-width="1" opacity="1" d="M 675.5 1069 L 678 1069.5 L 675.5 1070 L 675.5 1069 Z " /><path fill="rgb(154,78,27)" stroke="rgb(154,78,27)" stroke-width="1" opacity="1" d="M 698.5 1069 L 701 1069.5 L 698.5 1070 L 698.5 1069 Z " /><path fill="rgb(154,78,27)" stroke="rgb(154,78,27)" stroke-width="1" opacity="1" d="M 563.5 1070 L 568 1070.5 L 563.5 1071 L 563.5 1070 Z " /><path fill="rgb(154,78,27)" stroke="rgb(154,78,27)" stroke-width="1" opacity="1" d="M 605.5 1070 L 608 1070.5 L 605.5 1071 L 605.5 1070 Z " /><path fill="rgb(154,78,27)" stroke="rgb(154,78,27)" stroke-width="1" opacity="1" d="M 651.5 1070 L 658 1070.5 L 651.5 1071 L 651.5 1070 Z " /><path fill="rgb(154,78,27)" stroke="rgb(154,78,27)" stroke-width="1" opacity="1" d="M 585.5 1071 L 592 1071.5 L 585.5 1072 L 585.5 1071 Z " /><path fill="rgb(154,78,27)" stroke="rgb(154,78,27)" stroke-width="1" opacity="1" d="M 663.5 1071 L 671 1071.5 L 663.5 1072 L 663.5 1071 Z " /><path fill="rgb(226,169,112)" stroke="rgb(226,169,112)" stroke-width="1" opacity="1" d="M 622.5 182 L 626 182.5 L 622.5 183 L 622.5 182 Z " /><path fill="rgb(226,169,112)" stroke="rgb(226,169,112)" stroke-width="1" opacity="1" d="M 797.5 376 L 800 376.5 L 797.5 377 L 797.5 376 Z " /><path fill="rgb(226,169,112)" stroke="rgb(226,169,112)" stroke-width="1" opacity="1" d="M 783.5 382 L 784 386.5 L 783 386.5 L 783.5 382 Z " /><path fill="rgb(226,169,112)" stroke="rgb(226,169,112)" stroke-width="1" opacity="1" d="M 908.5 468 L 909 470.5 L 908 470.5 L 908.5 468 Z " /><path fill="rgb(226,169,112)" stroke="rgb(226,169,112)" stroke-width="1" opacity="1" d="M 465.5 636 L 469 636.5 L 465.5 637 L 465.5 636 Z " /><path fill="rgb(226,169,112)" stroke="rgb(226,169,112)" stroke-width="1" opacity="1" d="M 806.5 636 L 809 636.5 L 806.5 637 L 806.5 636 Z " /><path fill="rgb(226,169,112)" stroke="rgb(226,169,112)" stroke-width="1" opacity="1" d="M 178.5 687 L 179 689.5 L 178 689.5 L 178.5 687 Z " /><path fill="rgb(226,169,112)" stroke="rgb(226,169,112)" stroke-width="1" opacity="1" d="M 1078.5 710 L 1079 712.5 L 1078 712.5 L 1078.5 710 Z " /><path fill="rgb(226,169,112)" stroke="rgb(226,169,112)" stroke-width="1" opacity="1" d="M 379.5 712 Q 412.06 710.94 426 728.5 Q 432.83 734.67 431 749.5 Q 427.58 760.08 419.5 766 Q 405.14 778.64 375.5 776 Q 363.27 773.73 354.5 768 L 346 760.5 Q 339.67 754.33 340 741.5 Q 342.65 728.15 352.5 722 L 363.5 716 L 379.5 712 Z " /><path fill="rgb(226,169,112)" stroke="rgb(226,169,112)" stroke-width="1" opacity="1" d="M 862.5 712 L 874.5 712 L 888.5 715 Q 900.35 719.15 908 727.5 L 914 738.5 L 914 749.5 Q 910.58 760.08 902.5 766 L 892.5 772 L 878.5 776 L 858.5 776 Q 839.2 772.8 829 760.5 L 823 749.5 L 823 739.5 L 825 733.5 L 833.5 723 L 845.5 716 L 862.5 712 Z " /><path fill="rgb(226,169,112)" stroke="rgb(226,169,112)" stroke-width="1" opacity="1" d="M 174.5 721 L 175 724.5 L 174 724.5 L 174.5 721 Z " /><path fill="rgb(226,169,112)" stroke="rgb(226,169,112)" stroke-width="1" opacity="1" d="M 1079.5 721 L 1080 723.5 L 1079 723.5 L 1079.5 721 Z " /><path fill="rgb(226,169,112)" stroke="rgb(226,169,112)" stroke-width="1" opacity="1" d="M 173.5 736 L 174 741.5 L 173 741.5 L 173.5 736 Z " /><path fill="rgb(226,169,112)" stroke="rgb(226,169,112)" stroke-width="1" opacity="1" d="M 1080.5 737 L 1081 741.5 L 1080 741.5 L 1080.5 737 Z " /><path fill="rgb(226,169,112)" stroke="rgb(226,169,112)" stroke-width="1" opacity="1" d="M 1080.5 758 L 1081 765.5 L 1080 765.5 L 1080.5 758 Z " /><path fill="rgb(226,169,112)" stroke="rgb(226,169,112)" stroke-width="1" opacity="1" d="M 173.5 763 L 174 768.5 L 173 768.5 L 173.5 763 Z " /><path fill="rgb(226,169,112)" stroke="rgb(226,169,112)" stroke-width="1" opacity="1" d="M 174.5 779 L 175 781.5 L 174 781.5 L 174.5 779 Z " /><path fill="rgb(226,169,112)" stroke="rgb(226,169,112)" stroke-width="1" opacity="1" d="M 1079.5 779 L 1080 781.5 L 1079 781.5 L 1079.5 779 Z " /><path fill="rgb(226,169,112)" stroke="rgb(226,169,112)" stroke-width="1" opacity="1" d="M 175.5 789 L 176 791.5 L 175 791.5 L 175.5 789 Z " /><path fill="rgb(226,169,112)" stroke="rgb(226,169,112)" stroke-width="1" opacity="1" d="M 1078.5 789 L 1079 791.5 L 1078 791.5 L 1078.5 789 Z " /><path fill="rgb(226,169,112)" stroke="rgb(226,169,112)" stroke-width="1" opacity="1" d="M 176.5 798 L 177 800.5 L 176 800.5 L 176.5 798 Z " /><path fill="rgb(226,169,112)" stroke="rgb(226,169,112)" stroke-width="1" opacity="1" d="M 574.5 903 L 576.5 904 L 577.5 903 L 679.5 903 L 680.5 904 L 713.5 905 L 714.5 906 L 727.5 906 L 728.5 907 L 766.5 910 L 767.5 911 L 812.5 917 L 845.5 925 L 849.5 925 L 882.5 935 L 906.5 945 L 929.5 959 L 944 973.5 L 947 980 Q 917.06 1000.17 880.5 1015 L 849.5 1026 L 808.5 1037 L 759.5 1046 L 738.5 1048 L 737.5 1049 L 729.5 1049 L 728.5 1050 L 720.5 1050 L 719.5 1051 L 706.5 1051 L 705.5 1052 L 695.5 1052 L 694.5 1053 L 673.5 1053 L 672.5 1054 L 614.5 1055 L 613.5 1054 L 582.5 1054 L 581.5 1053 L 559.5 1053 L 558.5 1052 L 547.5 1052 L 546.5 1051 L 534.5 1051 L 533.5 1050 L 525.5 1050 L 524.5 1049 L 516.5 1049 L 515.5 1048 L 507.5 1048 L 493.5 1045 L 487.5 1045 L 441.5 1036 L 395.5 1023 L 366.5 1012 Q 333.96 998.21 307 980 L 310 973.5 L 323.5 960 Q 338.92 947.92 358.5 940 L 386.5 930 L 408.5 924 L 447.5 916 L 478.5 912 L 479.5 911 L 503.5 909 L 504.5 908 L 514.5 908 L 515.5 907 L 525.5 907 L 526.5 906 L 552.5 905 L 553.5 904 L 573.5 904 L 574.5 903 Z M 504 955 L 499 957 Q 494 959 495 967 Q 498 971 505 972 Q 511 973 514 970 L 517 966 L 516 960 L 513 956 L 504 955 Z M 727 955 L 721 957 L 717 962 L 718 968 L 721 970 L 727 972 Q 733 973 737 970 L 740 965 L 739 960 Q 736 954 727 955 Z M 424 978 Q 418 979 415 984 L 416 991 L 422 994 L 431 994 L 436 991 L 437 989 L 436 983 Q 433 977 424 978 Z M 809 980 L 804 982 L 799 988 L 801 994 L 809 997 L 813 997 L 820 994 L 822 991 L 822 987 L 820 983 Q 816 980 809 980 Z M 565 999 L 558 1002 L 556 1006 L 557 1012 L 565 1016 L 574 1015 L 579 1009 L 578 1005 Q 574 999 565 999 Z M 716 1003 L 711 1005 L 707 1009 L 706 1013 L 708 1017 L 716 1020 Q 722 1021 726 1018 Q 731 1017 729 1009 Q 725 1003 716 1003 Z " /><path fill="rgb(226,169,112)" stroke="rgb(226,169,112)" stroke-width="1" opacity="1" d="M 781.5 1060 L 784 1060.5 L 781.5 1061 L 781.5 1060 Z " /><path fill="rgb(226,169,112)" stroke="rgb(226,169,112)" stroke-width="1" opacity="1" d="M 769.5 1062 L 772 1062.5 L 769.5 1063 L 769.5 1062 Z " /><path fill="rgb(226,169,112)" stroke="rgb(226,169,112)" stroke-width="1" opacity="1" d="M 510.5 1066 L 513 1066.5 L 510.5 1067 L 510.5 1066 Z " /><path fill="rgb(226,169,112)" stroke="rgb(226,169,112)" stroke-width="1" opacity="1" d="M 732.5 1067 L 735 1067.5 L 732.5 1068 L 732.5 1067 Z " /><path fill="rgb(226,169,112)" stroke="rgb(226,169,112)" stroke-width="1" opacity="1" d="M 722.5 1068 L 725 1068.5 L 722.5 1069 L 722.5 1068 Z " /><path fill="rgb(226,169,112)" stroke="rgb(226,169,112)" stroke-width="1" opacity="1" d="M 540.5 1069 L 544 1069.5 L 540.5 1070 L 540.5 1069 Z " /><path fill="rgb(226,169,112)" stroke="rgb(226,169,112)" stroke-width="1" opacity="1" d="M 711.5 1069 L 714 1069.5 L 711.5 1070 L 711.5 1069 Z " /><path fill="rgb(226,169,112)" stroke="rgb(226,169,112)" stroke-width="1" opacity="1" d="M 552.5 1070 L 556 1070.5 L 552.5 1071 L 552.5 1070 Z " /><path fill="rgb(226,169,112)" stroke="rgb(226,169,112)" stroke-width="1" opacity="1" d="M 697.5 1070 L 700 1070.5 L 697.5 1071 L 697.5 1070 Z " /><path fill="rgb(226,169,112)" stroke="rgb(226,169,112)" stroke-width="1" opacity="1" d="M 566.5 1071 L 573 1071.5 L 566.5 1072 L 566.5 1071 Z " /><path fill="rgb(226,169,112)" stroke="rgb(226,169,112)" stroke-width="1" opacity="1" d="M 681.5 1071 L 686 1071.5 L 681.5 1072 L 681.5 1071 Z " /><path fill="rgb(226,169,112)" stroke="rgb(226,169,112)" stroke-width="1" opacity="1" d="M 591.5 1072 L 597 1072.5 L 591.5 1073 L 591.5 1072 Z " /><path fill="rgb(226,169,112)" stroke="rgb(226,169,112)" stroke-width="1" opacity="1" d="M 659.5 1072 L 667 1072.5 L 659.5 1073 L 659.5 1072 Z " /><path fill="rgb(249,249,249)" stroke="rgb(249,249,249)" stroke-width="1" opacity="1" d="M 0 0 L 1254 0 L 1254 1254 L 0 1254 L 0 0 Z M 623 182 L 613 187 L 604 196 L 581 232 L 564 252 Q 561 251 562 254 Q 546 269 527 281 L 464 315 L 404 353 Q 369 378 338 407 Q 300 442 269 483 Q 237 525 213 576 L 200 607 L 190 637 L 183 664 L 177 695 L 175 721 L 174 722 L 174 736 L 173 737 L 173 769 L 174 770 L 174 782 L 175 783 L 176 801 L 182 831 L 188 853 L 198 879 L 213 908 Q 227 930 244 950 Q 270 978 303 999 L 346 1023 L 383 1038 L 426 1051 L 472 1061 L 496 1064 L 503 1066 L 510 1066 L 511 1067 L 529 1068 L 530 1069 L 566 1071 L 567 1072 L 591 1072 L 592 1073 L 667 1073 L 668 1072 L 686 1072 L 687 1071 L 725 1069 L 726 1068 L 735 1068 L 736 1067 L 743 1067 L 744 1066 L 784 1061 L 833 1050 L 880 1035 Q 907 1025 932 1011 Q 961 995 986 973 Q 1029 935 1055 881 L 1063 861 L 1072 831 L 1079 792 L 1080 767 L 1081 766 L 1080 722 L 1079 721 L 1079 711 L 1078 710 L 1077 696 L 1073 677 L 1073 672 L 1066 643 L 1058 617 L 1046 586 Q 1028 546 1006 511 Q 981 472 950 439 Q 905 391 852 352 L 802 320 L 726 279 L 699 259 L 678 238 L 650 195 Q 644 187 635 183 L 623 182 Z " /><path fill="rgb(249,249,249)" stroke="rgb(249,249,249)" stroke-width="1" opacity="1" d="M 791.5 376 L 796.5 376 L 807.5 379 L 830.5 391 Q 861.9 411.1 887 437.5 Q 898.1 448.4 906 462.5 L 909 471.5 L 909 475.5 L 907 480 L 897.5 483 Q 873.94 475.56 856.5 462 Q 824.93 439.57 799 411.5 L 788 397.5 L 784 389.5 L 784 381.5 L 786.5 378 L 791.5 376 Z " /><path fill="rgb(249,249,249)" stroke="rgb(249,249,249)" stroke-width="1" opacity="1" d="M 462.5 637 L 470.5 637 L 480 644.5 Q 482.86 648.14 482 655.5 Q 480.18 662.68 474.5 666 Q 470.83 669.33 462.5 668 Q 456.04 666.46 453 661.5 Q 450.04 657.46 450 650.5 Q 451.85 642.85 457.5 639 L 462.5 637 Z " /><path fill="rgb(249,249,249)" stroke="rgb(249,249,249)" stroke-width="1" opacity="1" d="M 803.5 637 Q 816.75 635.75 821 643.5 L 824 652.5 L 821 661.5 L 816.5 666 Q 812.14 669.14 803.5 668 L 795 661.5 L 793 658.5 L 792 649.5 Q 793.82 642.32 799.5 639 L 803.5 637 Z " /><path fill="rgb(160,140,129)" stroke="rgb(160,140,129)" stroke-width="1" opacity="1" d="M 626.5 182 L 631 182.5 L 626.5 183 L 626.5 182 Z " /><path fill="rgb(160,140,129)" stroke="rgb(160,140,129)" stroke-width="1" opacity="1" d="M 464.5 668 L 469 668.5 L 464.5 669 L 464.5 668 Z " /><path fill="rgb(160,140,129)" stroke="rgb(160,140,129)" stroke-width="1" opacity="1" d="M 805.5 668 L 810 668.5 L 805.5 669 L 805.5 668 Z " /><path fill="rgb(160,140,129)" stroke="rgb(160,140,129)" stroke-width="1" opacity="1" d="M 175.5 713 L 176 716.5 L 175 716.5 L 175.5 713 Z " /><path fill="rgb(160,140,129)" stroke="rgb(160,140,129)" stroke-width="1" opacity="1" d="M 1079.5 724 L 1080 726.5 L 1079 726.5 L 1079.5 724 Z " /><path fill="rgb(160,140,129)" stroke="rgb(160,140,129)" stroke-width="1" opacity="1" d="M 174.5 725 L 175 727.5 L 174 727.5 L 174.5 725 Z " /><path fill="rgb(160,140,129)" stroke="rgb(160,140,129)" stroke-width="1" opacity="1" d="M 173.5 742 L 174 762.5 L 173 762.5 L 173.5 742 Z " /><path fill="rgb(160,140,129)" stroke="rgb(160,140,129)" stroke-width="1" opacity="1" d="M 1080.5 742 L 1081 757.5 L 1080 757.5 L 1080.5 742 Z " /><path fill="rgb(160,140,129)" stroke="rgb(160,140,129)" stroke-width="1" opacity="1" d="M 174.5 775 L 175 778.5 L 174 778.5 L 174.5 775 Z " /><path fill="rgb(160,140,129)" stroke="rgb(160,140,129)" stroke-width="1" opacity="1" d="M 1079.5 776 L 1080 778.5 L 1079 778.5 L 1079.5 776 Z " /><path fill="rgb(160,140,129)" stroke="rgb(160,140,129)" stroke-width="1" opacity="1" d="M 175.5 786 L 176 788.5 L 175 788.5 L 175.5 786 Z " /><path fill="rgb(160,140,129)" stroke="rgb(160,140,129)" stroke-width="1" opacity="1" d="M 726.5 955 L 731 955.5 L 726.5 956 L 726.5 955 Z " /><path fill="rgb(160,140,129)" stroke="rgb(160,140,129)" stroke-width="1" opacity="1" d="M 726.5 971 L 732 971.5 L 726.5 972 L 726.5 971 Z " /><path fill="rgb(160,140,129)" stroke="rgb(160,140,129)" stroke-width="1" opacity="1" d="M 418.5 980 L 421 981.5 L 419.5 982 L 418.5 980 Z " /><path fill="rgb(160,140,129)" stroke="rgb(160,140,129)" stroke-width="1" opacity="1" d="M 808.5 980 L 812 980.5 L 808.5 981 L 808.5 980 Z " /><path fill="rgb(160,140,129)" stroke="rgb(160,140,129)" stroke-width="1" opacity="1" d="M 808.5 996 L 813 996.5 L 808.5 997 L 808.5 996 Z " /><path fill="rgb(160,140,129)" stroke="rgb(160,140,129)" stroke-width="1" opacity="1" d="M 544.5 1051 L 547 1051.5 L 544.5 1052 L 544.5 1051 Z " /><path fill="rgb(160,140,129)" stroke="rgb(160,140,129)" stroke-width="1" opacity="1" d="M 706.5 1051 L 710 1051.5 L 706.5 1052 L 706.5 1051 Z " /><path fill="rgb(160,140,129)" stroke="rgb(160,140,129)" stroke-width="1" opacity="1" d="M 579.5 1053 L 582 1053.5 L 579.5 1054 L 579.5 1053 Z " /><path fill="rgb(160,140,129)" stroke="rgb(160,140,129)" stroke-width="1" opacity="1" d="M 673.5 1053 L 676 1053.5 L 673.5 1054 L 673.5 1053 Z " /><path fill="rgb(160,140,129)" stroke="rgb(160,140,129)" stroke-width="1" opacity="1" d="M 504.5 1065 L 507 1065.5 L 504.5 1066 L 504.5 1065 Z " /><path fill="rgb(160,140,129)" stroke="rgb(160,140,129)" stroke-width="1" opacity="1" d="M 738.5 1066 L 741 1066.5 L 738.5 1067 L 738.5 1066 Z " /><path fill="rgb(160,140,129)" stroke="rgb(160,140,129)" stroke-width="1" opacity="1" d="M 719.5 1068 L 722 1068.5 L 719.5 1069 L 719.5 1068 Z " /><path fill="rgb(160,140,129)" stroke="rgb(160,140,129)" stroke-width="1" opacity="1" d="M 544.5 1069 L 548 1069.5 L 544.5 1070 L 544.5 1069 Z " /><path fill="rgb(160,140,129)" stroke="rgb(160,140,129)" stroke-width="1" opacity="1" d="M 706.5 1069 L 711 1069.5 L 706.5 1070 L 706.5 1069 Z " /><path fill="rgb(160,140,129)" stroke="rgb(160,140,129)" stroke-width="1" opacity="1" d="M 556.5 1070 L 559 1070.5 L 556.5 1071 L 556.5 1070 Z " /><path fill="rgb(160,140,129)" stroke="rgb(160,140,129)" stroke-width="1" opacity="1" d="M 693.5 1070 L 697 1070.5 L 693.5 1071 L 693.5 1070 Z " /><path fill="rgb(160,140,129)" stroke="rgb(160,140,129)" stroke-width="1" opacity="1" d="M 573.5 1071 L 577 1071.5 L 573.5 1072 L 573.5 1071 Z " /><path fill="rgb(160,140,129)" stroke="rgb(160,140,129)" stroke-width="1" opacity="1" d="M 677.5 1071 L 681 1071.5 L 677.5 1072 L 677.5 1071 Z " /><path fill="rgb(160,140,129)" stroke="rgb(160,140,129)" stroke-width="1" opacity="1" d="M 597.5 1072 L 612 1072.5 L 597.5 1073 L 597.5 1072 Z " /><path fill="rgb(160,140,129)" stroke="rgb(160,140,129)" stroke-width="1" opacity="1" d="M 644.5 1072 L 659 1072.5 L 644.5 1073 L 644.5 1072 Z " /></svg>