<svg viewBox="0 0 1254 1254" version="1.1" xmlns="http://www.w3.org/2000/svg" desc="Created with imagetracer.js version 1.2.6" ><path fill="rgb(224,192,159)" stroke="rgb(224,192,159)" stroke-width="1" opacity="1" d="M 629.5 142 L 635 142.5 L 629.5 143 L 629.5 142 Z " /><path fill="rgb(224,192,159)" stroke="rgb(224,192,159)" stroke-width="1" opacity="1" d="M 851.5 288 L 854 288.5 L 851.5 289 L 851.5 288 Z " /><path fill="rgb(224,192,159)" stroke="rgb(224,192,159)" stroke-width="1" opacity="1" d="M 827.5 308 L 828 310.5 L 827 310.5 L 827.5 308 Z " /><path fill="rgb(224,192,159)" stroke="rgb(224,192,159)" stroke-width="1" opacity="1" d="M 929.5 359 L 930 361.5 L 929 361.5 L 929.5 359 Z " /><path fill="rgb(224,192,159)" stroke="rgb(224,192,159)" stroke-width="1" opacity="1" d="M 930.5 363 L 931 371.5 L 930 371.5 L 930.5 363 Z " /><path fill="rgb(224,192,159)" stroke="rgb(224,192,159)" stroke-width="1" opacity="1" d="M 1103.5 489 L 1104 494.5 L 1103 494.5 L 1103.5 489 Z " /><path fill="rgb(224,192,159)" stroke="rgb(224,192,159)" stroke-width="1" opacity="1" d="M 1114.5 635 L 1115 640.5 L 1114 640.5 L 1114.5 635 Z " /><path fill="rgb(224,192,159)" stroke="rgb(224,192,159)" stroke-width="1" opacity="1" d="M 162.5 642 L 163 644.5 L 162 644.5 L 162.5 642 Z " /><path fill="rgb(224,192,159)" stroke="rgb(224,192,159)" stroke-width="1" opacity="1" d="M 1114.5 652 L 1115 656.5 L 1114 656.5 L 1114.5 652 Z " /><path fill="rgb(224,192,159)" stroke="rgb(224,192,159)" stroke-width="1" opacity="1" d="M 1113.5 671 L 1114 674.5 L 1113 674.5 L 1113.5 671 Z " /><path fill="rgb(224,192,159)" stroke="rgb(224,192,159)" stroke-width="1" opacity="1" d="M 1097.5 713 L 1098 716.5 L 1097 716.5 L 1097.5 713 Z " /><path fill="rgb(224,192,159)" stroke="rgb(224,192,159)" stroke-width="1" opacity="1" d="M 1095.5 734 L 1096 737.5 L 1095 737.5 L 1095.5 734 Z " /><path fill="rgb(224,192,159)" stroke="rgb(224,192,159)" stroke-width="1" opacity="1" d="M 175.5 745 L 178 745.5 L 175.5 746 L 175.5 745 Z " /><path fill="rgb(224,192,159)" stroke="rgb(224,192,159)" stroke-width="1" opacity="1" d="M 969.5 972 L 973 972.5 L 969.5 973 L 969.5 972 Z " /><path fill="rgb(224,192,159)" stroke="rgb(224,192,159)" stroke-width="1" opacity="1" d="M 566.5 1085 L 569 1085.5 L 566.5 1086 L 566.5 1085 Z " /><path fill="rgb(224,192,159)" stroke="rgb(224,192,159)" stroke-width="1" opacity="1" d="M 631.5 1087 L 636 1087.5 L 631.5 1088 L 631.5 1087 Z " /><path fill="rgb(111,71,36)" stroke="rgb(111,71,36)" stroke-width="1" opacity="1" d="M 621.5 143 L 640.5 144 L 649 148.5 Q 652.6 151.4 651 159.5 L 650.5 161 L 690.5 162 L 691.5 163 L 700.5 163 L 701.5 164 L 721.5 166 L 767.5 177 L 818.5 196 Q 910.01 237.49 973 307.5 Q 1029.36 367.9 1062 451 Q 1081.66 458.35 1094 474.5 L 1101 484.5 L 1103 489.5 L 1103 494.5 L 1098.5 502 Q 1091.47 505.63 1080 504 L 1094 539.5 L 1103 567.5 L 1108 588.5 L 1108 593.5 L 1111 605.5 L 1112 619.5 L 1113 620.5 L 1114 664.5 L 1113 665.5 L 1113 674.5 L 1111 680.5 L 1110 691.5 Q 1108.75 698.25 1104.5 702 L 1097 704 L 1095 738.5 L 1093 744.5 L 1093 751.5 L 1088 777.5 L 1069 835.5 L 1047 881.5 L 1036 900.5 L 1008 940.5 L 987.5 963 Q 981.17 970.17 969.5 972 L 963 970 L 963 971.5 L 949.5 985 L 922.5 1006 L 908.5 1013 L 901.5 1015 L 896.5 1015 L 894 1017.5 L 878.5 1034 Q 862.26 1048.76 841.5 1059 L 822.5 1066 L 807.5 1068 L 799.5 1066 L 795 1061.5 Q 795.83 1058.88 792.5 1060 L 779.5 1067 L 748.5 1080 L 745.5 1080 L 723.5 1088 L 696.5 1094 L 694.5 1094 L 670.5 1095 Q 669.25 1092.75 664.5 1094 L 656 1088.5 L 653.5 1084 L 636.5 1087 L 588.5 1087 L 585.5 1086 L 583.5 1086 L 566.5 1085 L 538.5 1080 L 492.5 1067 Q 451.89 1052.61 419.5 1030 Q 416.09 1035.09 406.5 1034 L 392.5 1030 L 371.5 1019 Q 346.77 1003.22 327 982.5 L 325 979.5 Q 308.35 964.15 295.5 945 L 293.5 948 Q 290.57 950.57 284.5 950 Q 276.24 946.76 271 940.5 Q 254.78 921.72 242 899.5 L 223 863.5 L 204 817.5 L 204 814.5 L 195 789.5 L 187 755.5 L 187 753.5 L 184.5 741 Q 182.89 745.89 175.5 745 Q 169.37 743.62 167 738.5 L 161 714.5 L 161 703.5 L 160 702.5 L 160 665.5 L 161 664.5 L 161 655.5 L 163 648.5 L 164 635.5 L 166 630.5 L 166 628.5 L 171 608 L 162.5 610 L 156.5 610 L 150 605.5 Q 147.14 601.86 148 594.5 Q 157.58 567.58 177.5 551 L 181 548.5 L 181 543.5 L 183 538.5 L 186 519.5 L 197 481.5 L 211 444.5 L 233 399.5 Q 273.25 326.75 332.5 273 Q 366.69 242.19 407.5 218 L 443.5 199 L 467.5 189 L 490.5 182 L 493 179.5 Q 499.94 166.44 511.5 158 L 522.5 151 L 534.5 150 L 541 155.5 L 543 162.5 L 542 163.5 L 542 170 L 565.5 158 L 580.5 152 L 606.5 145 L 620.5 144 L 621.5 143 Z M 627 161 L 626 162 L 618 162 L 616 162 L 611 164 L 598 166 L 576 174 Q 553 184 534 198 L 531 198 L 527 194 L 526 171 L 519 176 Q 510 185 504 197 L 502 199 L 487 202 L 459 213 L 418 234 Q 373 260 337 295 Q 280 348 243 421 Q 225 456 212 496 L 204 525 L 198 556 Q 199 558 197 557 Q 180 570 170 590 L 170 591 L 185 587 L 194 587 L 196 590 L 185 626 L 185 631 L 180 652 L 179 671 L 178 672 L 178 699 L 179 700 L 179 712 L 181 716 L 192 694 L 197 693 L 199 699 L 200 719 L 201 720 L 201 727 L 206 752 L 206 757 L 214 788 L 225 821 Q 237 852 252 880 Q 264 902 279 922 L 283 924 L 282 922 L 282 906 L 281 905 L 283 898 Q 284 895 288 896 Q 308 936 337 967 L 340 968 L 341 971 Q 365 997 400 1013 L 402 1013 L 390 994 L 389 985 L 394 985 Q 414 1005 440 1021 L 463 1034 L 485 1044 L 516 1055 L 548 1063 L 572 1066 L 573 1067 L 581 1067 L 582 1068 L 594 1068 L 595 1069 L 639 1068 L 662 1064 L 681 1057 Q 686 1056 687 1059 Q 688 1065 684 1067 L 678 1072 L 675 1076 L 690 1076 L 707 1072 L 712 1072 L 746 1061 L 796 1038 L 823 1022 L 826 1024 L 826 1029 L 815 1046 L 814 1048 L 827 1045 L 845 1036 L 871 1016 L 888 996 L 895 989 L 899 989 L 901 995 L 913 990 L 932 976 Q 953 957 969 932 Q 970 927 976 928 L 977 933 L 975 944 L 976 949 Q 995 930 1010 907 Q 1028 880 1042 850 L 1053 825 L 1064 794 L 1074 753 L 1075 742 L 1075 740 L 1077 731 L 1078 714 L 1079 713 L 1079 686 L 1078 685 L 1078 675 L 1077 674 L 1078 672 L 1077 663 Q 1078 660 1082 661 L 1094 678 L 1096 664 L 1096 635 L 1095 634 L 1095 624 L 1094 623 L 1093 608 L 1089 588 Q 1077 536 1054 495 L 1055 493 Q 1056 489 1062 490 L 1064 490 L 1073 488 L 1078 489 L 1080 488 L 1082 489 L 1082 488 Q 1068 472 1048 463 L 1045 460 L 1035 434 L 1010 388 Q 988 352 961 323 Q 911 265 841 228 Q 804 208 762 195 L 740 189 L 736 189 L 732 187 L 727 187 L 710 183 L 685 181 L 684 180 L 642 180 L 620 185 Q 613 186 612 183 Q 611 178 614 177 L 628 163 Q 629 160 627 161 Z " /><path fill="rgb(111,71,36)" stroke="rgb(111,71,36)" stroke-width="1" opacity="1" d="M 484.5 434 L 500.5 434 L 512.5 437 Q 528.63 443.38 538 456.5 L 546 471.5 L 550 487.5 L 550 491.5 L 547 509.5 L 542 520.5 L 526.5 538 L 512.5 546 L 501.5 549 Q 494.67 547.67 491.5 550 L 490.5 549 L 478.5 548 L 465.5 543 L 452 533 L 444 522.5 L 437 505.5 L 436 500.5 L 436 482.5 Q 440.2 461.2 453.5 449 Q 464.7 437.2 484.5 434 Z " /><path fill="rgb(111,71,36)" stroke="rgb(111,71,36)" stroke-width="1" opacity="1" d="M 753.5 434 L 769.5 434 L 781.5 437 Q 797.32 443.68 807 456.5 L 816 474.5 L 818 482.5 L 818 499.5 Q 813.41 525.41 795.5 538 L 781.5 546 L 770.5 549 L 760.5 550 L 759.5 549 L 747.5 548 L 738.5 545 Q 726.45 539.05 718 529.5 Q 710.06 520.44 706 507.5 L 704 497.5 L 704 486.5 L 705 484.5 L 705 482.5 Q 708.78 459.78 723.5 448 Q 734.56 437.06 753.5 434 Z " /><path fill="rgb(111,71,36)" stroke="rgb(111,71,36)" stroke-width="1" opacity="1" d="M 623.5 563 L 629.5 563 L 647.5 567 Q 661.81 573.19 671 584.5 Q 678.19 593.31 682 605.5 L 684 616.5 L 684 625.5 L 682 631.5 L 682 636.5 L 675 651.5 L 663.5 665 Q 653.97 672.97 640.5 677 L 621.5 678 L 619.5 678 Q 596.43 673.57 584 658.5 Q 574.79 648.21 571 632.5 L 571 630.5 L 570 616.5 L 573 602.5 L 578 591.5 L 591.5 576 L 606.5 567 L 623.5 563 Z " /><path fill="rgb(184,123,72)" stroke="rgb(184,123,72)" stroke-width="1" opacity="1" d="M 610.5 144 L 613 144.5 L 610.5 145 L 610.5 144 Z " /><path fill="rgb(184,123,72)" stroke="rgb(184,123,72)" stroke-width="1" opacity="1" d="M 528.5 149 L 531 149.5 L 528.5 150 L 528.5 149 Z " /><path fill="rgb(184,123,72)" stroke="rgb(184,123,72)" stroke-width="1" opacity="1" d="M 651.5 153 L 652 157.5 L 651 157.5 L 651.5 153 Z " /><path fill="rgb(184,123,72)" stroke="rgb(184,123,72)" stroke-width="1" opacity="1" d="M 542.5 159 L 543 161.5 L 542 161.5 L 542.5 159 Z " /><path fill="rgb(184,123,72)" stroke="rgb(184,123,72)" stroke-width="1" opacity="1" d="M 626.5 161 Q 628.75 160.25 628 162.5 L 614 176.5 Q 611.4 177.9 612 182.5 Q 613.25 186.25 619.5 185 L 641.5 180 L 683.5 180 L 684.5 181 L 709.5 183 L 726.5 187 L 731.5 187 L 735.5 189 L 739.5 189 L 761.5 195 Q 804.24 208.26 840.5 228 Q 910.57 265.43 961 322.5 Q 988.31 352.19 1010 387.5 L 1035 433.5 L 1045 459.5 L 1047.5 463 Q 1068.21 471.79 1082 487.5 L 1081.5 489 L 1079.5 488 L 1077.5 489 L 1072.5 488 L 1063.5 490 L 1061.5 490 Q 1056.37 489.37 1055 492.5 L 1054 494.5 Q 1076.71 535.79 1089 587.5 L 1093 607.5 L 1094 622.5 L 1095 623.5 L 1095 633.5 L 1096 634.5 L 1096 663.5 L 1093.5 678 L 1081.5 661 Q 1077.75 660.25 1077 662.5 L 1078 671.5 L 1077 673.5 L 1078 674.5 L 1078 684.5 L 1079 685.5 L 1079 712.5 L 1078 713.5 L 1077 730.5 L 1075 739.5 L 1075 741.5 L 1074 752.5 L 1064 793.5 L 1053 824.5 L 1042 849.5 Q 1027.8 879.8 1010 906.5 Q 994.98 929.98 975.5 949 L 975 943.5 L 977 932.5 L 976 928 Q 970.44 927 969 931.5 Q 953.44 956.94 931.5 976 L 912.5 990 L 901 995 L 898.5 989 L 894.5 989 L 888 995.5 L 870.5 1016 L 844.5 1036 L 826.5 1045 L 813.5 1048 L 815 1045.5 L 826 1028.5 L 826 1023.5 L 822.5 1022 L 795.5 1038 L 745.5 1061 L 711.5 1072 L 706.5 1072 L 689.5 1076 L 675 1076 L 677.5 1072 L 684 1066.5 Q 687.56 1064.56 687 1058.5 Q 685.75 1055.75 680.5 1057 L 661.5 1064 L 638.5 1068 L 594.5 1069 L 593.5 1068 L 581.5 1068 L 580.5 1067 L 572.5 1067 L 571.5 1066 L 547.5 1063 L 515.5 1055 L 484.5 1044 L 462.5 1034 L 439.5 1021 Q 414.25 1005.25 393.5 985 L 389 985 L 390 993.5 L 402 1012.5 L 399.5 1013 Q 365.5 996.5 341 970.5 L 339.5 968 L 337 966.5 Q 307.92 935.58 287.5 896 Q 283.75 895.25 283 897.5 L 281 904.5 L 282 905.5 L 282 921.5 L 283 924 L 279 921.5 Q 264 902 252 879.5 Q 236.87 851.63 225 820.5 L 214 787.5 L 206 756.5 L 206 751.5 L 201 726.5 L 201 719.5 L 200 718.5 L 199 698.5 L 196.5 693 L 192 694 L 180.5 716 L 179 711.5 L 179 699.5 L 178 698.5 L 178 671.5 L 179 670.5 L 180 651.5 L 185 630.5 L 185 625.5 L 196 589.5 L 193.5 587 L 184.5 587 L 169.5 591 L 170 589.5 Q 180.09 570.09 196.5 557 Q 198.75 557.75 198 555.5 L 204 524.5 L 212 495.5 Q 225.08 455.58 243 420.5 Q 280.47 348.47 336.5 295 Q 372.69 260.19 417.5 234 L 458.5 213 L 486.5 202 L 501.5 199 L 504 196.5 Q 509.58 184.58 518.5 176 L 526 171 L 527 193.5 L 530.5 198 L 533.5 198 Q 552.57 184.07 575.5 174 L 597.5 166 L 610.5 164 L 615.5 162 L 617.5 162 L 625.5 162 L 626.5 161 Z M 842 287 L 833 291 L 826 302 L 826 307 L 828 314 L 834 324 L 890 374 Q 898 383 912 386 Q 920 387 925 383 Q 930 380 931 373 L 931 363 L 929 355 Q 922 338 910 326 Q 895 308 875 296 L 860 289 L 851 287 L 842 287 Z M 485 434 Q 465 437 454 449 Q 440 461 436 483 L 436 501 L 437 506 L 444 523 L 452 533 L 466 543 L 479 548 L 491 549 L 492 550 Q 495 548 502 549 L 513 546 L 527 538 L 542 521 L 547 510 L 550 492 L 550 488 L 546 472 L 538 457 Q 529 443 513 437 L 501 434 L 485 434 Z M 754 434 Q 735 437 724 448 Q 709 460 705 483 L 705 485 L 704 487 L 704 498 L 706 508 Q 710 520 718 530 Q 726 539 739 545 L 748 548 L 760 549 L 761 550 L 771 549 L 782 546 L 796 538 Q 813 525 818 500 L 818 483 L 816 475 L 807 457 Q 797 444 782 437 L 770 434 L 754 434 Z M 624 563 L 607 567 L 592 576 L 578 592 L 573 603 L 570 617 L 571 631 L 571 633 Q 575 648 584 659 Q 596 674 620 678 L 622 678 L 641 677 Q 654 673 664 665 L 675 652 L 682 637 L 682 632 L 684 626 L 684 617 L 682 606 Q 678 593 671 585 Q 662 573 648 567 L 630 563 L 624 563 Z " /><path fill="rgb(184,123,72)" stroke="rgb(184,123,72)" stroke-width="1" opacity="1" d="M 675.5 161 L 683 161.5 L 675.5 162 L 675.5 161 Z " /><path fill="rgb(184,123,72)" stroke="rgb(184,123,72)" stroke-width="1" opacity="1" d="M 691.5 162 L 694 162.5 L 691.5 163 L 691.5 162 Z " /><path fill="rgb(184,123,72)" stroke="rgb(184,123,72)" stroke-width="1" opacity="1" d="M 542.5 163 L 543 169.5 L 542 169.5 L 542.5 163 Z " /><path fill="rgb(184,123,72)" stroke="rgb(184,123,72)" stroke-width="1" opacity="1" d="M 163.5 609 L 166 609.5 L 163.5 610 L 163.5 609 Z " /><path fill="rgb(184,123,72)" stroke="rgb(184,123,72)" stroke-width="1" opacity="1" d="M 1111.5 610 L 1112 612.5 L 1111 612.5 L 1111.5 610 Z " /><path fill="rgb(184,123,72)" stroke="rgb(184,123,72)" stroke-width="1" opacity="1" d="M 162.5 646 L 163 648.5 L 162 648.5 L 162.5 646 Z " /><path fill="rgb(184,123,72)" stroke="rgb(184,123,72)" stroke-width="1" opacity="1" d="M 160.5 661 L 161 664.5 L 160 664.5 L 160.5 661 Z " /><path fill="rgb(184,123,72)" stroke="rgb(184,123,72)" stroke-width="1" opacity="1" d="M 1111.5 680 L 1112 682.5 L 1111 682.5 L 1111.5 680 Z " /><path fill="rgb(184,123,72)" stroke="rgb(184,123,72)" stroke-width="1" opacity="1" d="M 160.5 703 L 161 708.5 L 160 708.5 L 160.5 703 Z " /><path fill="rgb(184,123,72)" stroke="rgb(184,123,72)" stroke-width="1" opacity="1" d="M 1096.5 718 L 1097 721.5 L 1096 721.5 L 1096.5 718 Z " /><path fill="rgb(184,123,72)" stroke="rgb(184,123,72)" stroke-width="1" opacity="1" d="M 162.5 720 L 163 722.5 L 162 722.5 L 162.5 720 Z " /><path fill="rgb(184,123,72)" stroke="rgb(184,123,72)" stroke-width="1" opacity="1" d="M 1095.5 728 L 1096 731.5 L 1095 731.5 L 1095.5 728 Z " /><path fill="rgb(184,123,72)" stroke="rgb(184,123,72)" stroke-width="1" opacity="1" d="M 1093.5 744 L 1094 747.5 L 1093 747.5 L 1093.5 744 Z " /><path fill="rgb(184,123,72)" stroke="rgb(184,123,72)" stroke-width="1" opacity="1" d="M 896.5 1015 L 899 1015.5 L 894.5 1018 L 896.5 1015 Z " /><path fill="rgb(184,123,72)" stroke="rgb(184,123,72)" stroke-width="1" opacity="1" d="M 403.5 1033 L 406 1033.5 L 403.5 1034 L 403.5 1033 Z " /><path fill="rgb(184,123,72)" stroke="rgb(184,123,72)" stroke-width="1" opacity="1" d="M 810.5 1067 L 814 1067.5 L 810.5 1068 L 810.5 1067 Z " /><path fill="rgb(184,123,72)" stroke="rgb(184,123,72)" stroke-width="1" opacity="1" d="M 556.5 1083 L 559 1083.5 L 556.5 1084 L 556.5 1083 Z " /><path fill="rgb(184,123,72)" stroke="rgb(184,123,72)" stroke-width="1" opacity="1" d="M 585.5 1086 L 588 1086.5 L 585.5 1087 L 585.5 1086 Z " /><path fill="rgb(184,123,72)" stroke="rgb(184,123,72)" stroke-width="1" opacity="1" d="M 597.5 1087 L 630 1087.5 L 597.5 1088 L 597.5 1087 Z " /><path fill="rgb(184,123,72)" stroke="rgb(184,123,72)" stroke-width="1" opacity="1" d="M 686.5 1094 L 690 1094.5 L 686.5 1095 L 686.5 1094 Z " /><path fill="rgb(201,185,171)" stroke="rgb(201,185,171)" stroke-width="1" opacity="1" d="M 622.5 142 L 629 142.5 L 622.5 143 L 622.5 142 Z " /><path fill="rgb(201,185,171)" stroke="rgb(201,185,171)" stroke-width="1" opacity="1" d="M 613.5 143 L 616 143.5 L 613.5 144 L 613.5 143 Z " /><path fill="rgb(201,185,171)" stroke="rgb(201,185,171)" stroke-width="1" opacity="1" d="M 651.5 160 L 674 160.5 L 651.5 161 L 651.5 160 Z " /><path fill="rgb(201,185,171)" stroke="rgb(201,185,171)" stroke-width="1" opacity="1" d="M 684.5 161 L 690 161.5 L 684.5 162 L 684.5 161 Z " /><path fill="rgb(201,185,171)" stroke="rgb(201,185,171)" stroke-width="1" opacity="1" d="M 695.5 162 L 698 162.5 L 695.5 163 L 695.5 162 Z " /><path fill="rgb(201,185,171)" stroke="rgb(201,185,171)" stroke-width="1" opacity="1" d="M 1082.5 504 L 1085 504.5 L 1082.5 505 L 1082.5 504 Z " /><path fill="rgb(201,185,171)" stroke="rgb(201,185,171)" stroke-width="1" opacity="1" d="M 1087.5 504 L 1093 504.5 L 1087.5 505 L 1087.5 504 Z " /><path fill="rgb(201,185,171)" stroke="rgb(201,185,171)" stroke-width="1" opacity="1" d="M 147.5 595 L 148 600.5 L 147 600.5 L 147.5 595 Z " /><path fill="rgb(201,185,171)" stroke="rgb(201,185,171)" stroke-width="1" opacity="1" d="M 1112.5 613 L 1113 616.5 L 1112 616.5 L 1112.5 613 Z " /><path fill="rgb(201,185,171)" stroke="rgb(201,185,171)" stroke-width="1" opacity="1" d="M 1114.5 641 L 1115 651.5 L 1114 651.5 L 1114.5 641 Z " /><path fill="rgb(201,185,171)" stroke="rgb(201,185,171)" stroke-width="1" opacity="1" d="M 161.5 649 L 162 652.5 L 161 652.5 L 161.5 649 Z " /><path fill="rgb(201,185,171)" stroke="rgb(201,185,171)" stroke-width="1" opacity="1" d="M 160.5 657 L 161 659.5 L 160 659.5 L 160.5 657 Z " /><path fill="rgb(201,185,171)" stroke="rgb(201,185,171)" stroke-width="1" opacity="1" d="M 1112.5 676 L 1113 679.5 L 1112 679.5 L 1112.5 676 Z " /><path fill="rgb(201,185,171)" stroke="rgb(201,185,171)" stroke-width="1" opacity="1" d="M 1111.5 684 L 1112 686.5 L 1111 686.5 L 1111.5 684 Z " /><path fill="rgb(201,185,171)" stroke="rgb(201,185,171)" stroke-width="1" opacity="1" d="M 160.5 709 L 161 712.5 L 160 712.5 L 160.5 709 Z " /><path fill="rgb(201,185,171)" stroke="rgb(201,185,171)" stroke-width="1" opacity="1" d="M 1096.5 723 L 1097 725.5 L 1096 725.5 L 1096.5 723 Z " /><path fill="rgb(201,185,171)" stroke="rgb(201,185,171)" stroke-width="1" opacity="1" d="M 1094.5 740 L 1095 742.5 L 1094 742.5 L 1094.5 740 Z " /><path fill="rgb(201,185,171)" stroke="rgb(201,185,171)" stroke-width="1" opacity="1" d="M 285.5 950 L 289 950.5 L 285.5 951 L 285.5 950 Z " /><path fill="rgb(201,185,171)" stroke="rgb(201,185,171)" stroke-width="1" opacity="1" d="M 410.5 1034 L 413 1034.5 L 410.5 1035 L 410.5 1034 Z " /><path fill="rgb(201,185,171)" stroke="rgb(201,185,171)" stroke-width="1" opacity="1" d="M 588.5 1087 L 594 1087.5 L 588.5 1088 L 588.5 1087 Z " /><path fill="rgb(201,185,171)" stroke="rgb(201,185,171)" stroke-width="1" opacity="1" d="M 698.5 1093 L 701 1093.5 L 698.5 1094 L 698.5 1093 Z " /><path fill="rgb(201,185,171)" stroke="rgb(201,185,171)" stroke-width="1" opacity="1" d="M 691.5 1094 L 694 1094.5 L 691.5 1095 L 691.5 1094 Z " /><path fill="rgb(201,185,171)" stroke="rgb(201,185,171)" stroke-width="1" opacity="1" d="M 671.5 1095 L 685 1095.5 L 671.5 1096 L 671.5 1095 Z " /><path fill="rgb(249,249,248)" stroke="rgb(249,249,248)" stroke-width="1" opacity="1" d="M 0 0 L 1254 0 L 1254 1254 L 0 1254 L 0 0 Z M 622 142 L 621 143 L 614 143 L 598 146 L 581 151 Q 560 158 544 169 L 542 156 L 535 149 L 526 149 L 511 158 Q 500 166 493 179 L 491 181 Q 467 187 447 197 L 412 215 Q 368 240 332 273 Q 274 325 235 395 L 213 439 L 197 480 L 186 517 L 180 549 L 178 550 Q 157 567 147 595 Q 146 603 150 607 L 158 611 Q 164 612 168 609 L 170 610 L 164 632 L 159 669 L 159 671 L 160 714 L 164 733 L 167 740 L 176 746 Q 183 747 185 742 L 189 769 L 198 802 L 207 828 L 220 859 Q 240 904 270 941 Q 275 948 285 951 L 290 951 L 297 947 Q 308 965 324 980 L 326 983 Q 347 1004 374 1021 L 393 1031 L 407 1035 Q 416 1036 420 1031 Q 448 1051 483 1064 L 519 1076 L 544 1082 L 553 1083 L 555 1083 L 567 1086 L 588 1087 L 589 1088 L 636 1088 Q 637 1085 644 1087 L 646 1087 L 654 1085 L 655 1089 L 663 1094 L 671 1096 L 695 1095 L 727 1088 L 759 1077 L 792 1061 L 794 1061 L 803 1068 L 817 1068 L 839 1061 Q 862 1050 880 1034 L 894 1019 L 897 1016 Q 911 1015 921 1008 Q 935 1000 947 988 Q 949 989 948 986 L 950 986 L 965 971 L 970 973 Q 981 971 988 964 Q 1015 937 1035 904 Q 1054 874 1068 840 L 1082 802 L 1090 773 L 1095 739 L 1096 738 L 1098 705 L 1105 703 Q 1110 699 1111 692 L 1112 681 L 1114 675 L 1114 658 L 1115 657 L 1114 623 L 1113 622 L 1112 606 L 1107 580 L 1097 546 L 1081 505 Q 1092 507 1099 503 Q 1103 500 1104 495 L 1104 490 L 1094 474 Q 1082 459 1065 451 L 1061 447 L 1059 440 L 1042 405 L 1021 369 Q 1000 336 974 308 Q 913 240 827 199 L 780 180 L 740 169 L 727 167 L 722 165 L 691 162 L 690 161 L 652 160 L 652 159 Q 653 152 650 149 L 641 143 L 622 142 Z " /><path fill="rgb(249,249,248)" stroke="rgb(249,249,248)" stroke-width="1" opacity="1" d="M 841.5 288 L 856.5 289 L 876.5 298 Q 895.46 310.04 910 326.5 Q 921.19 338.31 928 354.5 L 930 362.5 L 930 373.5 Q 928.46 379.96 923.5 383 L 917.5 385 L 911.5 385 Q 898.68 381.82 890.5 374 L 835 323.5 L 828 311.5 L 827 301.5 L 832.5 292 L 841.5 288 Z " /><path fill="rgb(214,168,124)" stroke="rgb(214,168,124)" stroke-width="1" opacity="1" d="M 635.5 143 L 638 143.5 L 635.5 144 L 635.5 143 Z " /><path fill="rgb(214,168,124)" stroke="rgb(214,168,124)" stroke-width="1" opacity="1" d="M 841.5 287 L 851 287.5 L 841.5 288 L 841.5 287 Z " /><path fill="rgb(214,168,124)" stroke="rgb(214,168,124)" stroke-width="1" opacity="1" d="M 826.5 301 L 827 306.5 L 826 306.5 L 826.5 301 Z " /><path fill="rgb(214,168,124)" stroke="rgb(214,168,124)" stroke-width="1" opacity="1" d="M 911.5 385 L 918 385.5 L 911.5 386 L 911.5 385 Z " /><path fill="rgb(214,168,124)" stroke="rgb(214,168,124)" stroke-width="1" opacity="1" d="M 1113.5 631 L 1114 633.5 L 1113 633.5 L 1113.5 631 Z " /><path fill="rgb(214,168,124)" stroke="rgb(214,168,124)" stroke-width="1" opacity="1" d="M 1113.5 666 L 1114 668.5 L 1113 668.5 L 1113.5 666 Z " /><path fill="rgb(214,168,124)" stroke="rgb(214,168,124)" stroke-width="1" opacity="1" d="M 159.5 672 L 160 698.5 L 159 698.5 L 159.5 672 Z " /><path fill="rgb(214,168,124)" stroke="rgb(214,168,124)" stroke-width="1" opacity="1" d="M 1097.5 705 L 1098 709.5 L 1097 709.5 L 1097.5 705 Z " /><path fill="rgb(214,168,124)" stroke="rgb(214,168,124)" stroke-width="1" opacity="1" d="M 570.5 1085 L 573 1085.5 L 570.5 1086 L 570.5 1085 Z " /><path fill="rgb(214,168,124)" stroke="rgb(214,168,124)" stroke-width="1" opacity="1" d="M 578.5 1086 L 582 1086.5 L 578.5 1087 L 578.5 1086 Z " /><path fill="rgb(214,168,124)" stroke="rgb(214,168,124)" stroke-width="1" opacity="1" d="M 639.5 1086 L 643 1086.5 L 639.5 1087 L 639.5 1086 Z " /><path fill="rgb(214,168,124)" stroke="rgb(214,168,124)" stroke-width="1" opacity="1" d="M 594.5 1087 L 597 1087.5 L 594.5 1088 L 594.5 1087 Z " /></svg>