<svg viewBox="0 0 1254 1254" version="1.1" xmlns="http://www.w3.org/2000/svg" desc="Created with imagetracer.js version 1.2.6" ><path fill="rgb(58,44,87)" stroke="rgb(58,44,87)" stroke-width="1" opacity="1" d="M 471.5 351 Q 489.48 350.52 497 360.5 L 500 365.5 L 502 378.5 L 499 395.5 L 491 411.5 L 482.5 422 Q 478.12 420.5 479 423.5 Q 481.5 425 478 426.5 L 475.5 430 L 465 436.5 Q 467.75 438.25 463.5 440 L 456.5 444 L 452.5 442 Q 447.75 441.75 446 438.5 L 441 429 L 434 433.5 Q 435.25 437.25 431.5 436 L 429.5 440 L 426.5 439 L 424.5 438 L 418 441 L 417.5 443 L 416 442.5 Q 416.75 444.75 414.5 444 L 412.5 445 L 408.5 444 L 394.5 451 L 389.5 452 L 384 442.5 L 384 426.5 Q 388.14 410.64 397 399.5 L 420.5 375 Q 433.38 364.38 449.5 357 L 471.5 351 Z " /><path fill="rgb(58,44,87)" stroke="rgb(58,44,87)" stroke-width="1" opacity="1" d="M 423.5 452 L 425.5 455 L 427.5 454 L 428 456 L 430 456.5 Q 427.74 458.94 423 458 Q 424.13 455.33 421.5 456 L 420.5 454 L 423.5 452 Z " /><path fill="rgb(58,44,87)" stroke="rgb(58,44,87)" stroke-width="1" opacity="1" d="M 715.5 508 L 725.5 508 L 738.5 512 Q 750.44 517.56 758 527.5 L 767 545.5 Q 769.3 552.2 768 562.5 Q 766.32 570.32 761.5 575 L 759 568 Q 753.75 569.83 744.5 569 L 728.5 563 L 712 547.5 L 705 534.5 L 704 518 L 700 519 L 699.5 517 L 697 518.5 L 699 515 L 707.5 510 L 715.5 508 Z " /><path fill="rgb(58,44,87)" stroke="rgb(58,44,87)" stroke-width="1" opacity="1" d="M 354.5 571 Q 362.47 570.03 365 574.5 L 368 582 L 366 582 Q 367.13 579.33 364.5 580 L 363 577 L 360 577 Q 361.25 574 357.5 575 L 355.5 575 L 353 575.5 L 353.5 577 L 350 576 L 352 580.5 L 351.5 582 L 353.5 581 L 353 582.5 Q 352.25 584.75 354.5 584 L 354 585.5 L 355 588.5 L 354 588.5 Q 354.83 585.88 351.5 587 L 349.5 585 L 343 584 Q 343.62 576.62 349.5 573 L 354.5 571 Z " /><path fill="rgb(58,44,87)" stroke="rgb(58,44,87)" stroke-width="1" opacity="1" d="M 356.5 589 L 358 591.5 L 357 591.5 L 356.5 589 Z " /><path fill="rgb(58,44,87)" stroke="rgb(58,44,87)" stroke-width="1" opacity="1" d="M 364.5 595 L 366.5 595 Q 369.5 594.12 368 598.5 L 366.5 601 Q 362.25 599.25 365 597.5 L 364.5 595 Z " /><path fill="rgb(58,44,87)" stroke="rgb(58,44,87)" stroke-width="1" opacity="1" d="M 345.5 598 L 347.5 598 L 350 599.5 L 348.5 604 L 345 599.5 L 345.5 598 Z " /><path fill="rgb(58,44,87)" stroke="rgb(58,44,87)" stroke-width="1" opacity="1" d="M 474.5 605 Q 484.47 604.53 488 610.5 L 490 614.5 L 485.5 611 Q 478.83 607.67 468 608.5 L 474.5 605 Z " /><path fill="rgb(58,44,87)" stroke="rgb(58,44,87)" stroke-width="1" opacity="1" d="M 405.5 643 Q 415.75 641.75 421.5 645 Q 436.13 650.37 445 661.5 L 458 683.5 L 462 697.5 L 463 711.5 L 461 718.5 L 461 720.5 L 461 724.5 L 457 734 L 435.5 732 L 421 723 Q 422.13 720.33 419.5 721 L 411 710.5 L 405 697.5 L 401 683.5 L 399 665.5 L 400 663.5 L 400 661.5 L 401 653.5 L 405.5 643 Z " /><path fill="rgb(58,44,87)" stroke="rgb(58,44,87)" stroke-width="1" opacity="1" d="M 903.5 683 L 911.5 683 L 917 688.5 L 915.5 691 L 913 690 L 912 699.5 L 906 717.5 Q 899.81 731.81 888.5 741 L 879.5 748 L 875.5 749 L 874 747.5 L 873 736.5 L 874 735.5 L 875 720.5 L 879 709.5 Q 884.16 697.16 893.5 689 L 903.5 683 Z " /><path fill="rgb(58,44,87)" stroke="rgb(58,44,87)" stroke-width="1" opacity="1" d="M 796.5 716 L 803.5 716 L 811.5 718 L 822 725.5 L 824 730.5 L 820 740.5 L 809.5 753 L 791.5 762 L 783.5 764 L 771.5 764 L 760.5 758 L 757.5 764 Q 754.88 761.63 756 755.5 L 760 741.5 L 769 729 L 784.5 719 L 796.5 716 Z " /><path fill="rgb(58,44,87)" stroke="rgb(58,44,87)" stroke-width="1" opacity="1" d="M 920.5 720 L 921 722.5 L 920 722.5 L 920.5 720 Z " /><path fill="rgb(58,44,87)" stroke="rgb(58,44,87)" stroke-width="1" opacity="1" d="M 919.5 724 L 920 726.5 L 918.5 729 L 918 727.5 L 919.5 724 Z " /><path fill="rgb(58,44,87)" stroke="rgb(58,44,87)" stroke-width="1" opacity="1" d="M 469.5 810 L 479.5 813 L 485 818.5 L 488 825.5 L 488 830.5 L 485.5 836 Q 485.69 831.31 482.5 830 Q 480.25 830.75 481 828.5 Q 479.75 825.75 474.5 827 L 470.5 824 L 467.5 826 L 464.5 824 L 462 825 L 461.5 828 L 459 827.5 L 460 825.5 L 458 821.5 Q 459.25 815.75 463.5 813 L 469.5 810 Z " /><path fill="rgb(58,44,87)" stroke="rgb(58,44,87)" stroke-width="1" opacity="1" d="M 587.5 813 L 600.5 813 L 616.5 817 Q 629.51 822.49 638 832.5 L 643 843.5 L 642 846.5 L 645 850.5 L 645 855.5 L 638 868.5 L 634.5 872 L 631.5 871 L 629 872 L 626.5 878 L 619.5 881 L 609.5 883 L 590.5 883 L 589.5 882 L 581.5 882 L 577 879.5 L 578 875 L 573.5 873 L 569.5 873 L 567 873.5 L 567.5 875 L 559 869.5 L 556 865.5 L 559 866.5 L 560 864.5 L 558 863.5 L 558 861.5 Q 559.13 858.17 556.5 859 L 554.5 859 Q 552.25 858.25 553 860.5 L 553.5 862 L 550 855 L 554 854.5 L 552 854 L 550 848 L 547 848 L 547 841.5 Q 551.4 829.9 560.5 823 L 571.5 817 L 587.5 813 Z M 590 880 L 590 882 L 593 882 L 590 880 Z " /><path fill="rgb(71,182,229)" stroke="rgb(71,182,229)" stroke-width="1" opacity="1" d="M 600.5 313 Q 608.99 313.01 613 317.5 Q 616 320.5 615 327.5 L 610.5 333 L 601.5 336 Q 600 333.5 594.5 335 L 589 330.5 L 587 325.5 Q 587.88 318.88 592.5 316 L 600.5 313 Z " /><path fill="rgb(71,182,229)" stroke="rgb(71,182,229)" stroke-width="1" opacity="1" d="M 506.5 394 Q 508.94 396.06 508 401.5 L 495 429.5 L 477.5 450 L 459.5 463 L 445.5 469 L 432.5 472 L 422.5 472 L 415.5 468 Q 414.25 470.25 409.5 469 L 408 466.5 Q 409.25 463.75 414.5 465 L 418.5 466 L 432.5 462 L 451.5 453 L 464.5 444 L 481.5 428 L 483 428 L 496 411.5 Q 498.89 400.39 506.5 394 Z " /><path fill="rgb(71,182,229)" stroke="rgb(71,182,229)" stroke-width="1" opacity="1" d="M 468.5 525 Q 479.3 523.2 482 529.5 L 483 537.5 L 477.5 544 L 470.5 545 L 466.5 544 L 463 540.5 L 462 531.5 L 465.5 527 L 468.5 525 Z " /><path fill="rgb(71,182,229)" stroke="rgb(71,182,229)" stroke-width="1" opacity="1" d="M 683 537 Q 687.13 535.33 686 539.5 Q 688.5 541 687 546.5 Q 686.25 548.75 682.5 548 L 681 544.5 L 683 537 Z " /><path fill="rgb(71,182,229)" stroke="rgb(71,182,229)" stroke-width="1" opacity="1" d="M 684.5 551 Q 689.9 549.12 689 552.5 L 695 563.5 L 708.5 578 Q 718.7 586.19 733 589 L 734 592.5 L 731.5 595 L 720.5 595 Q 701.44 590.56 691 577.5 L 683 562.5 L 682 553.5 L 684.5 551 Z " /><path fill="rgb(71,182,229)" stroke="rgb(71,182,229)" stroke-width="1" opacity="1" d="M 744.5 588 Q 748.25 586.75 747 590.5 Q 745.04 594.04 738.5 593 Q 735.5 591.5 738.5 590 L 744.5 588 Z " /><path fill="rgb(71,182,229)" stroke="rgb(71,182,229)" stroke-width="1" opacity="1" d="M 773.5 641 L 781.5 641 L 787 644 L 790 650.5 L 790 655.5 L 786.5 661 Q 782.96 664.46 776.5 665 Q 769.12 663.88 766 658.5 L 765 649.5 L 768 644 L 773.5 641 Z " /><path fill="rgb(71,182,229)" stroke="rgb(71,182,229)" stroke-width="1" opacity="1" d="M 366.5 681 L 368 682.5 L 368 695.5 L 370 697.5 L 374 712.5 L 383 727.5 L 399.5 745 L 418 756.5 L 417 762 L 409.5 762 L 396.5 758 Q 384.56 752.44 377 742.5 L 367 725.5 L 365 715.5 L 362 710.5 L 362 698.5 L 365 693 L 362 691.5 L 366.5 681 Z " /><path fill="rgb(71,182,229)" stroke="rgb(71,182,229)" stroke-width="1" opacity="1" d="M 548.5 692 Q 562.04 691.46 566 700.5 Q 568.86 704.14 568 711.5 L 562.5 720 Q 558.33 724.33 548.5 723 L 540 719 L 536 710.5 L 536 704.5 Q 537.82 697.32 543.5 694 L 548.5 692 Z " /><path fill="rgb(71,182,229)" stroke="rgb(71,182,229)" stroke-width="1" opacity="1" d="M 927 718 L 929 718.5 L 929 728.5 L 926 732.5 L 926 739.5 L 920 751.5 L 910.5 762 L 901.5 766 L 896.5 765 L 891.5 767 L 889 763.5 L 890.5 762 L 897.5 761 L 912 747.5 L 922 733.5 Q 923.1 723.48 927 718 Z " /><path fill="rgb(71,182,229)" stroke="rgb(71,182,229)" stroke-width="1" opacity="1" d="M 423 755 L 432.5 755 L 436 757.5 Q 432.57 762.07 425.5 763 L 423 762 L 423 755 Z " /><path fill="rgb(71,182,229)" stroke="rgb(71,182,229)" stroke-width="1" opacity="1" d="M 713.5 853 Q 722.17 851.83 725 856.5 Q 727.83 859.17 727 865.5 L 723.5 870 Q 720.17 873.17 712.5 872 L 707 867.5 L 706 859.5 L 713.5 853 Z " /><path fill="rgb(71,182,229)" stroke="rgb(71,182,229)" stroke-width="1" opacity="1" d="M 552 870 L 556 871.5 L 558.5 875 L 570.5 881 L 583.5 885 L 608.5 887 L 610.5 887 L 614 889.5 Q 615.88 894.9 612.5 894 L 602.5 897 L 589.5 897 L 579.5 895 L 572.5 892 L 559 881.5 L 552 872.5 L 552 870 Z " /><path fill="rgb(71,182,229)" stroke="rgb(71,182,229)" stroke-width="1" opacity="1" d="M 631.5 880 Q 635.25 878.75 634 882.5 L 622.5 891 L 618 891 Q 616.5 885.63 619.5 884 L 630 883 L 631.5 880 Z " /><path fill="rgb(128,174,172)" stroke="rgb(128,174,172)" stroke-width="1" opacity="1" d="M 598.5 335 L 601 335.5 L 598.5 336 L 598.5 335 Z " /><path fill="rgb(128,174,172)" stroke="rgb(128,174,172)" stroke-width="1" opacity="1" d="M 927.5 450 L 929 452.5 L 928 452.5 L 927.5 450 Z " /><path fill="rgb(128,174,172)" stroke="rgb(128,174,172)" stroke-width="1" opacity="1" d="M 415.5 465 L 419 465.5 L 415.5 466 L 415.5 465 Z " /><path fill="rgb(128,174,172)" stroke="rgb(128,174,172)" stroke-width="1" opacity="1" d="M 415 468 L 419 470.5 L 417.5 470 Q 413.75 471 415 468 Z " /><path fill="rgb(128,174,172)" stroke="rgb(128,174,172)" stroke-width="1" opacity="1" d="M 424.5 472 L 429 472.5 L 424.5 473 L 424.5 472 Z " /><path fill="rgb(128,174,172)" stroke="rgb(128,174,172)" stroke-width="1" opacity="1" d="M 471.5 524 L 476 524.5 L 471.5 525 L 471.5 524 Z " /><path fill="rgb(128,174,172)" stroke="rgb(128,174,172)" stroke-width="1" opacity="1" d="M 967.5 524 L 968 526.5 L 967 526.5 L 967.5 524 Z " /><path fill="rgb(128,174,172)" stroke="rgb(128,174,172)" stroke-width="1" opacity="1" d="M 969.5 539 L 970 552.5 L 969 552.5 L 969.5 539 Z " /><path fill="rgb(128,174,172)" stroke="rgb(128,174,172)" stroke-width="1" opacity="1" d="M 692.5 558 Q 695.13 557.17 694 560.5 L 693 560.5 L 692.5 558 Z " /><path fill="rgb(128,174,172)" stroke="rgb(128,174,172)" stroke-width="1" opacity="1" d="M 968.5 560 L 969 562.5 L 968 562.5 L 968.5 560 Z " /><path fill="rgb(128,174,172)" stroke="rgb(128,174,172)" stroke-width="1" opacity="1" d="M 684.5 565 L 688 571.5 L 686 570.5 L 684.5 565 Z " /><path fill="rgb(128,174,172)" stroke="rgb(128,174,172)" stroke-width="1" opacity="1" d="M 705.5 574 L 717 582.5 L 715.5 582 Q 708.02 579.3 705.5 574 Z " /><path fill="rgb(128,174,172)" stroke="rgb(128,174,172)" stroke-width="1" opacity="1" d="M 967.5 580 L 968 583.5 L 967 583.5 L 967.5 580 Z " /><path fill="rgb(128,174,172)" stroke="rgb(128,174,172)" stroke-width="1" opacity="1" d="M 702.5 587 L 706 589.5 L 704.5 589 L 702.5 587 Z " /><path fill="rgb(128,174,172)" stroke="rgb(128,174,172)" stroke-width="1" opacity="1" d="M 968.5 591 L 969 593.5 L 968 593.5 L 968.5 591 Z " /><path fill="rgb(128,174,172)" stroke="rgb(128,174,172)" stroke-width="1" opacity="1" d="M 723.5 595 L 730 595.5 L 723.5 596 L 723.5 595 Z " /><path fill="rgb(128,174,172)" stroke="rgb(128,174,172)" stroke-width="1" opacity="1" d="M 285.5 630 L 286 632.5 L 285 632.5 L 285.5 630 Z " /><path fill="rgb(128,174,172)" stroke="rgb(128,174,172)" stroke-width="1" opacity="1" d="M 286.5 643 L 287 648.5 L 286 648.5 L 286.5 643 Z " /><path fill="rgb(128,174,172)" stroke="rgb(128,174,172)" stroke-width="1" opacity="1" d="M 286.5 659 L 287 665.5 L 286 665.5 L 286.5 659 Z " /><path fill="rgb(128,174,172)" stroke="rgb(128,174,172)" stroke-width="1" opacity="1" d="M 285.5 676 L 286 680.5 L 285 680.5 L 285.5 676 Z " /><path fill="rgb(128,174,172)" stroke="rgb(128,174,172)" stroke-width="1" opacity="1" d="M 285.5 685 L 286 692.5 L 285 692.5 L 285.5 685 Z " /><path fill="rgb(128,174,172)" stroke="rgb(128,174,172)" stroke-width="1" opacity="1" d="M 433.5 755 L 437 756 L 435.5 759 L 434.5 756 L 433.5 755 Z " /><path fill="rgb(128,174,172)" stroke="rgb(128,174,172)" stroke-width="1" opacity="1" d="M 898.5 759 L 897.5 761 L 891.5 762 L 891.5 761 L 898.5 759 Z " /><path fill="rgb(128,174,172)" stroke="rgb(128,174,172)" stroke-width="1" opacity="1" d="M 896.5 765 L 899 765.5 L 896.5 766 L 896.5 765 Z " /><path fill="rgb(128,174,172)" stroke="rgb(128,174,172)" stroke-width="1" opacity="1" d="M 894.5 766 L 895 769 L 892 767.5 L 894.5 766 Z " /><path fill="rgb(128,174,172)" stroke="rgb(128,174,172)" stroke-width="1" opacity="1" d="M 601.5 886 L 609 886.5 L 601.5 887 L 601.5 886 Z " /><path fill="rgb(128,174,172)" stroke="rgb(128,174,172)" stroke-width="1" opacity="1" d="M 461.5 930 L 465 930.5 L 461.5 931 L 461.5 930 Z " /><path fill="rgb(128,174,172)" stroke="rgb(128,174,172)" stroke-width="1" opacity="1" d="M 474.5 931 L 478 931.5 L 474.5 932 L 474.5 931 Z " /><path fill="rgb(128,174,172)" stroke="rgb(128,174,172)" stroke-width="1" opacity="1" d="M 483.5 932 L 486 932.5 L 483.5 933 L 483.5 932 Z " /><path fill="rgb(128,174,172)" stroke="rgb(128,174,172)" stroke-width="1" opacity="1" d="M 503.5 939 L 506 940.5 L 504.5 941 L 503.5 939 Z " /><path fill="rgb(128,174,172)" stroke="rgb(128,174,172)" stroke-width="1" opacity="1" d="M 734.5 939 L 741 939.5 L 734.5 940 L 734.5 939 Z " /><path fill="rgb(128,174,172)" stroke="rgb(128,174,172)" stroke-width="1" opacity="1" d="M 743.5 939 L 749 939.5 L 743.5 940 L 743.5 939 Z " /><path fill="rgb(128,174,172)" stroke="rgb(128,174,172)" stroke-width="1" opacity="1" d="M 516.5 944 L 519 945.5 L 517.5 946 L 516.5 944 Z " /><path fill="rgb(128,174,172)" stroke="rgb(128,174,172)" stroke-width="1" opacity="1" d="M 690.5 948 L 693 948.5 L 690.5 949 L 690.5 948 Z " /><path fill="rgb(128,174,172)" stroke="rgb(128,174,172)" stroke-width="1" opacity="1" d="M 584.5 970 L 588 970.5 L 584.5 971 L 584.5 970 Z " /><path fill="rgb(94,58,31)" stroke="rgb(94,58,31)" stroke-width="1" opacity="1" d="M 612.5 254 L 631.5 254 L 648.5 258 L 665.5 266 L 691.5 283 L 730.5 291 L 750.5 297 L 773.5 306 L 803.5 321 L 815.5 329 Q 836.8 334.2 852.5 345 Q 871.5 357.5 886 374.5 L 908 404.5 Q 919.5 423 925 447.5 L 938 473.5 Q 951.68 485.82 960 503.5 L 968 528.5 L 969 556.5 L 968 557.5 L 966 576.5 L 968 586.5 L 968 598.5 L 977 615.5 L 984 638.5 Q 982.75 643.25 985 644.5 L 985 679.5 L 977 722.5 L 969 747.5 L 959 771.5 Q 944.32 802.32 919.5 823 L 904 835.5 L 886 865.5 Q 874.81 881.81 860.5 895 Q 833.27 920.77 793.5 934 L 767.5 939 L 731.5 939 L 713.5 944 L 708.5 944 L 697.5 947 L 677.5 950 L 655.5 961 L 633.5 968 L 615.5 970 L 614.5 971 L 592.5 971 L 591.5 970 L 572.5 968 L 552.5 962 L 536.5 955 L 517.5 944 L 486.5 932 L 453.5 929 L 435.5 924 Q 403.97 911.03 383 887.5 Q 361.37 863.63 353 826.5 L 328 789.5 L 316 775.5 Q 304.95 760.55 297 742.5 L 292 729.5 L 287 707.5 Q 288.5 702 286 700.5 L 286 672.5 L 287 671.5 Q 285.7 661.2 288 654.5 L 287 653.5 L 287 642.5 L 286 641.5 L 286 628.5 L 280 614.5 L 275 597.5 Q 276.5 592 274 590.5 L 274 567.5 L 277 552.5 L 284 534.5 Q 295.83 512.83 314 497.5 L 331 461.5 L 332 441.5 L 335 427.5 Q 340.3 409.3 349 394.5 Q 366.11 366.11 390.5 345 Q 415.77 322.27 449.5 308 L 477.5 300 L 506.5 299 L 508.5 300 L 511.5 299 L 514.5 299 L 546.5 288 L 572.5 268 L 585.5 261 L 596.5 257 L 612.5 254 Z M 614 274 L 597 278 L 585 284 L 554 308 L 543 310 L 517 320 L 505 320 L 504 319 L 490 319 L 489 320 L 475 321 L 449 330 Q 420 345 398 366 Q 377 386 362 413 Q 355 426 352 444 L 351 468 Q 340 486 332 508 Q 315 522 303 542 L 296 560 L 294 571 L 295 595 L 299 609 L 307 627 L 307 646 L 308 647 L 308 663 L 307 664 L 307 674 L 306 675 L 306 698 L 307 699 L 308 712 L 317 739 L 327 757 L 345 779 Q 356 799 370 816 L 374 824 L 375 831 L 380 846 L 386 858 L 402 879 L 424 896 L 442 905 L 456 909 L 468 910 L 469 911 L 490 911 L 522 925 L 530 927 L 538 933 L 558 943 L 573 948 L 590 951 L 616 951 L 617 950 L 629 949 L 650 942 L 670 931 L 704 926 L 734 918 L 739 919 L 767 919 L 768 918 L 780 917 L 797 912 Q 824 901 845 882 L 868 856 L 889 821 L 911 804 Q 924 792 934 776 L 946 751 L 954 729 L 961 703 L 963 685 L 964 684 L 964 675 L 965 674 L 965 650 Q 962 648 964 642 L 958 623 L 948 605 L 946 576 L 945 575 L 949 552 L 949 537 L 943 514 Q 934 496 920 484 L 906 455 Q 902 435 894 420 L 874 391 Q 858 372 838 359 L 827 353 L 806 346 L 770 326 L 725 310 L 684 302 L 659 285 L 639 276 L 629 274 L 614 274 Z " /><path fill="rgb(82,62,121)" stroke="rgb(82,62,121)" stroke-width="1" opacity="1" d="M 466.5 351 L 471 351.5 L 462.5 353 L 462.5 352 L 466.5 351 Z " /><path fill="rgb(82,62,121)" stroke="rgb(82,62,121)" stroke-width="1" opacity="1" d="M 479.5 351 L 483 351.5 L 479.5 352 L 479.5 351 Z " /><path fill="rgb(82,62,121)" stroke="rgb(82,62,121)" stroke-width="1" opacity="1" d="M 458.5 353 L 461 353.5 L 453.5 356 L 453.5 355 L 458.5 353 Z " /><path fill="rgb(82,62,121)" stroke="rgb(82,62,121)" stroke-width="1" opacity="1" d="M 487.5 353 L 492 355.5 L 490.5 355 Q 486.75 354.75 487.5 353 Z " /><path fill="rgb(82,62,121)" stroke="rgb(82,62,121)" stroke-width="1" opacity="1" d="M 493.5 356 L 501 365.5 L 502 374.5 L 501 374.5 L 500 365.5 L 493.5 356 Z " /><path fill="rgb(82,62,121)" stroke="rgb(82,62,121)" stroke-width="1" opacity="1" d="M 445.5 358 L 447 358.5 L 435.5 365 L 436.5 363 L 445.5 358 Z " /><path fill="rgb(82,62,121)" stroke="rgb(82,62,121)" stroke-width="1" opacity="1" d="M 501.5 379 L 502 385.5 L 500 395.5 L 491 413.5 L 473.5 433 L 461.5 443 L 451.5 449 Q 441.57 455.07 428.5 458 L 428.5 457 L 430 456.5 L 428 456 L 427.5 454 L 425.5 455 L 423.5 452 L 420 454.5 L 423 456 Q 421.69 459.33 426.5 458 L 426.5 459 L 404.5 460 L 393.5 456 L 386 449.5 L 385 446.5 L 386 446.5 L 389.5 452 L 394.5 451 L 402.5 446 L 411.5 444 L 413.5 445 L 416 444 L 416.5 442 L 418 442.5 Q 417.25 440.25 419.5 441 L 424.5 438 L 427.5 440 L 430 439.5 L 431.5 436 Q 435.25 437.25 434 433.5 L 441 429 L 442 432.5 L 448.5 441 L 453.5 443 Q 455 440.5 456.5 444 L 466 437.5 Q 463.25 435.75 467.5 434 L 470.5 434 L 478 427.5 L 480 424.5 L 479 422 L 483 421.5 L 482.5 420 L 483.5 421 L 487 417.5 L 499 395.5 L 501.5 379 Z " /><path fill="rgb(82,62,121)" stroke="rgb(82,62,121)" stroke-width="1" opacity="1" d="M 678.5 382 Q 690.86 381.14 695 388.5 Q 698.17 391.83 697 399.5 L 690.5 407 L 678.5 408 L 670 401.5 L 668 393.5 L 669 389.5 L 672.5 385 L 678.5 382 Z " /><path fill="rgb(82,62,121)" stroke="rgb(82,62,121)" stroke-width="1" opacity="1" d="M 749.5 397 L 750 403.5 L 749 403.5 L 749.5 397 Z " /><path fill="rgb(82,62,121)" stroke="rgb(82,62,121)" stroke-width="1" opacity="1" d="M 392.5 406 L 392 407.5 L 390.5 410 L 391 408.5 L 392.5 406 Z " /><path fill="rgb(82,62,121)" stroke="rgb(82,62,121)" stroke-width="1" opacity="1" d="M 363.5 411 L 363 412.5 L 361.5 416 L 361 414.5 L 363.5 411 Z " /><path fill="rgb(82,62,121)" stroke="rgb(82,62,121)" stroke-width="1" opacity="1" d="M 388.5 413 L 389 414.5 L 387.5 417 L 387 415.5 L 388.5 413 Z " /><path fill="rgb(82,62,121)" stroke="rgb(82,62,121)" stroke-width="1" opacity="1" d="M 385.5 420 L 386 422.5 L 385 422.5 L 385.5 420 Z " /><path fill="rgb(82,62,121)" stroke="rgb(82,62,121)" stroke-width="1" opacity="1" d="M 383.5 429 L 384 440.5 L 383 440.5 L 383.5 429 Z " /><path fill="rgb(82,62,121)" stroke="rgb(82,62,121)" stroke-width="1" opacity="1" d="M 351.5 453 L 352 466.5 L 351 466.5 L 351.5 453 Z " /><path fill="rgb(82,62,121)" stroke="rgb(82,62,121)" stroke-width="1" opacity="1" d="M 369.5 463 L 383.5 479 Q 398.63 488.87 424.5 488 Q 426.25 485.25 432.5 487 L 445.5 483 L 449.5 483 L 460.5 484 L 462 485.5 L 460 493 L 450.5 497 L 430.5 502 L 410.5 502 L 399.5 499 L 389.5 494 L 375 482.5 L 370 474.5 L 369.5 463 Z " /><path fill="rgb(82,62,121)" stroke="rgb(82,62,121)" stroke-width="1" opacity="1" d="M 343.5 482 L 343 483.5 L 342.5 485 L 342 483.5 L 343.5 482 Z " /><path fill="rgb(82,62,121)" stroke="rgb(82,62,121)" stroke-width="1" opacity="1" d="M 513.5 495 L 521.5 495 L 528 499.5 Q 531.52 502.98 531 510.5 L 528 518.5 L 525.5 521 Q 522 525 513.5 524 L 505 518.5 Q 501.5 514.5 503 505.5 L 509.5 497 L 513.5 495 Z " /><path fill="rgb(82,62,121)" stroke="rgb(82,62,121)" stroke-width="1" opacity="1" d="M 711.5 508 L 715 508.5 L 711.5 509 L 711.5 508 Z " /><path fill="rgb(82,62,121)" stroke="rgb(82,62,121)" stroke-width="1" opacity="1" d="M 726.5 508 L 729 508.5 L 726.5 509 L 726.5 508 Z " /><path fill="rgb(82,62,121)" stroke="rgb(82,62,121)" stroke-width="1" opacity="1" d="M 707.5 509 L 710 509.5 L 699 515 L 700 519 L 704 518 L 705 534.5 L 710 544.5 L 725.5 561 L 740.5 568 L 754.5 569 L 759 568 L 761.5 575 Q 769.86 567.36 768.5 550 L 769 562.5 Q 766.64 572.64 759.5 578 L 747.5 584 L 736.5 585 Q 734.75 582.25 728.5 584 L 719.5 581 Q 707.4 574.6 699 564.5 L 691 546.5 L 690 534.5 L 692 525.5 L 696 517.5 L 699.5 514 L 707.5 509 Z " /><path fill="rgb(82,62,121)" stroke="rgb(82,62,121)" stroke-width="1" opacity="1" d="M 730.5 509 L 733 509.5 L 730.5 510 L 730.5 509 Z " /><path fill="rgb(82,62,121)" stroke="rgb(82,62,121)" stroke-width="1" opacity="1" d="M 762.5 534 L 764 536.5 L 763 536.5 L 762.5 534 Z " /><path fill="rgb(82,62,121)" stroke="rgb(82,62,121)" stroke-width="1" opacity="1" d="M 892.5 537 L 899.5 539 L 904 543.5 L 909 553.5 L 909 566.5 L 906 573.5 L 902.5 577 L 893.5 578 L 885 571.5 L 881 561.5 L 881 549.5 Q 882.13 542.13 887.5 539 L 892.5 537 Z " /><path fill="rgb(82,62,121)" stroke="rgb(82,62,121)" stroke-width="1" opacity="1" d="M 765.5 540 L 767 544.5 L 766 544.5 L 765.5 540 Z " /><path fill="rgb(82,62,121)" stroke="rgb(82,62,121)" stroke-width="1" opacity="1" d="M 767.5 546 L 768 548.5 L 767 548.5 L 767.5 546 Z " /><path fill="rgb(82,62,121)" stroke="rgb(82,62,121)" stroke-width="1" opacity="1" d="M 296.5 559 L 297 561.5 L 296 561.5 L 296.5 559 Z " /><path fill="rgb(82,62,121)" stroke="rgb(82,62,121)" stroke-width="1" opacity="1" d="M 310.5 560 L 311 565.5 L 316.5 573 L 332.5 582 L 337 583 L 338 585.5 L 339 600.5 L 347.5 611 Q 352.31 609.33 351 613.5 L 352 614.5 L 352 622.5 L 355 638.5 L 360 653.5 L 356 660.5 L 352 673.5 Q 353.25 678.25 351 679.5 L 351 703.5 Q 357.67 741.33 382.5 761 L 392.5 768 L 408.5 775 L 428.5 778 L 445.5 774 Q 457.51 768.51 466 759.5 L 473.5 751 L 474 755.5 Q 468.12 769.12 459 779.5 L 479.5 801 Q 499.63 818.87 525.5 831 L 530.5 825 L 531 830.5 L 529 836.5 L 529 854.5 L 533 867.5 L 539.5 877 L 540.5 871 L 543 872.5 L 545.5 869 L 549.5 873 Q 551.25 870.25 553 874.5 L 556 878.5 L 555 882 L 557 882.5 L 555 883 L 552 888.5 L 553.5 889 L 555 888.5 L 554 890.5 L 561.5 895 L 563 894.5 L 562.5 896 L 564.5 895 L 564.5 897 Q 566.75 897.75 566 895.5 L 567 892 L 569.5 891 L 575 894.5 L 573.5 894 Q 570.17 892.88 571 895.5 L 573 895.5 L 575 899.5 L 574 902 L 585.5 905 L 595.5 905 L 596.5 906 L 598.5 906 L 606 905 L 607.5 902 Q 610.13 901.33 609 904 L 612 904 L 612.5 902 L 617.5 903 L 623 902 L 621 897.5 L 621.5 895 Q 626.9 896.87 626 893.5 Q 628.75 892.42 628 889 L 630 888.5 Q 627.75 887.25 630.5 886 L 635 882.5 Q 634.25 879.5 638 881 L 638 877 L 634 876 L 633.5 874 L 627 882 Q 620.4 881.71 617 885.5 L 616.5 887 L 614.5 887 Q 612.25 883.25 605.5 884 L 604.5 885 L 592.5 885 L 576.5 882 L 573.5 879 L 557 871.5 L 557 869.5 L 551.5 862 L 548.5 864 L 547 863.5 Q 547.67 866.12 545 865 L 544 861.5 L 546.5 855 L 548 855.5 L 546 850.5 L 546 841.5 Q 550.42 828.92 560.5 822 Q 570.24 814.24 586.5 813 L 586.5 814 Q 563.37 815.87 553 830.5 L 547 841.5 L 547 848 Q 550.75 846.5 550 849.5 Q 552.75 850.58 552 854 L 554 854.5 L 550 855 L 552.5 861 L 553 859 L 555.5 858 L 558 859 L 559 862.5 L 558.5 864 L 560 864.5 L 558 867.5 L 561.5 872 L 567.5 875 L 567.5 873 L 570.5 874 L 574.5 872 L 576 872.5 L 574 873.5 L 578 875 L 577 879.5 L 581.5 882 L 590 882 Q 588.88 879.33 591.5 880 L 592.5 882 L 590 882.5 L 609.5 883 L 622.5 880 L 628 876.5 L 629 872 L 631.5 871 L 634.5 872 L 644 858.5 L 645 850.5 L 642 844.5 L 643.5 842 L 646 849.5 L 646 855.5 L 645 857.5 L 646 862.5 L 643 864.5 L 644 861.5 L 643 861.5 L 640 866.5 L 641.5 867 Q 642.75 864.75 644 867.5 L 646 870.5 L 648 873.5 L 639 890 L 637 890.5 L 637.5 893 Q 647.58 889.08 653 880.5 L 660 868.5 Q 663.92 858.92 664.5 846 L 669 863 L 683.5 863 L 684.5 862 L 705 860 Q 703.65 868.43 709.5 871 Q 711.8 874.2 718.5 873 L 726 868.5 L 728 860.5 L 726 857.5 L 758.5 846 L 780.5 835 Q 814.52 815.52 841 788.5 L 852 776.5 L 852 772.5 L 851 771.5 L 851 758.5 L 854.5 756 L 866.5 771 Q 875.33 780.18 894.5 779 Q 913.9 773.9 924 759.5 L 932 746 L 934 746.5 L 928 760.5 L 909.5 784 Q 896.3 796.8 878.5 805 L 874 809.5 L 867 819.5 L 849 852.5 L 828.5 875 Q 813.75 887.25 794.5 895 L 777.5 900 L 752.5 902 L 751.5 901 L 728.5 900 L 702.5 907 L 665.5 913 L 638.5 927 L 625.5 932 L 611.5 935 L 594.5 935 L 593.5 934 L 580.5 933 L 562.5 927 L 532.5 909 L 522.5 906 L 492.5 892 L 488.5 892 L 487.5 893 L 465.5 893 L 458.5 891 L 456.5 891 Q 424.4 884.1 408 861.5 L 396 839.5 L 392 820.5 L 389 812.5 L 358 767.5 L 337 744.5 L 326 724.5 L 321 705.5 L 321 683.5 L 326 661.5 L 326 655.5 L 325 654.5 L 324 625.5 L 308 588.5 L 307 572.5 L 310.5 560 Z M 470 810 L 464 813 Q 459 816 458 822 L 459 825 L 461 824 L 460 826 L 462 828 L 462 825 L 465 824 L 468 826 L 471 824 L 475 827 Q 480 826 481 829 Q 480 831 483 830 Q 486 831 486 836 L 488 831 L 488 826 L 485 819 L 480 813 L 470 810 Z M 485 839 Q 482 841 485 842 Q 488 843 487 841 L 485 839 Z " /><path fill="rgb(82,62,121)" stroke="rgb(82,62,121)" stroke-width="1" opacity="1" d="M 295.5 563 L 296 567.5 L 295 567.5 L 295.5 563 Z " /><path fill="rgb(82,62,121)" stroke="rgb(82,62,121)" stroke-width="1" opacity="1" d="M 294.5 570 L 295 572.5 L 294 572.5 L 294.5 570 Z " /><path fill="rgb(82,62,121)" stroke="rgb(82,62,121)" stroke-width="1" opacity="1" d="M 353.5 570 Q 363.23 568.77 366 574.5 Q 371.85 581.15 370 595.5 Q 368.15 603.15 362.5 607 L 357.5 609 L 355.5 609 L 346.5 604 L 345 604.5 L 345.5 603 Q 343.25 603.75 344 601.5 L 340 588.5 L 341 584.5 Q 338.5 583 342 581.5 Q 343.63 574.63 349.5 572 L 353.5 570 Z M 355 571 L 350 573 Q 344 577 343 584 L 350 585 L 352 587 Q 355 588 354 586 L 355 584 L 352 582 L 352 581 L 350 576 L 356 575 L 358 575 Q 361 574 360 577 L 363 577 L 365 580 Q 367 579 366 582 L 368 582 L 365 575 Q 362 570 355 571 Z M 367 595 L 365 598 Q 362 599 367 601 L 368 599 Q 369 594 367 595 Z M 346 598 L 345 600 L 349 604 L 350 600 L 348 598 L 346 598 Z " /><path fill="rgb(82,62,121)" stroke="rgb(82,62,121)" stroke-width="1" opacity="1" d="M 294.5 580 L 295 587.5 L 294 587.5 L 294.5 580 Z " /><path fill="rgb(82,62,121)" stroke="rgb(82,62,121)" stroke-width="1" opacity="1" d="M 295.5 590 L 296 594.5 L 295 594.5 L 295.5 590 Z " /><path fill="rgb(82,62,121)" stroke="rgb(82,62,121)" stroke-width="1" opacity="1" d="M 297.5 600 L 298 602.5 L 297 602.5 L 297.5 600 Z " /><path fill="rgb(82,62,121)" stroke="rgb(82,62,121)" stroke-width="1" opacity="1" d="M 474.5 604 Q 485.4 603.6 489 610.5 Q 493.05 614.95 492 624.5 L 488.5 630 Q 484.05 634.05 474.5 633 L 467 627.5 Q 462.5 623 464 612.5 L 469.5 606 L 474.5 604 Z M 475 605 L 468 609 Q 479 608 486 611 L 489 614 L 488 611 Q 484 605 475 605 Z " /><path fill="rgb(82,62,121)" stroke="rgb(82,62,121)" stroke-width="1" opacity="1" d="M 301.5 612 L 303 615.5 L 302 615.5 L 301.5 612 Z " /><path fill="rgb(82,62,121)" stroke="rgb(82,62,121)" stroke-width="1" opacity="1" d="M 307.5 639 L 308 645.5 L 307 645.5 L 307.5 639 Z " /><path fill="rgb(82,62,121)" stroke="rgb(82,62,121)" stroke-width="1" opacity="1" d="M 405.5 642 L 413 642.5 L 405.5 643 L 404 644.5 L 404 648.5 L 401 653.5 L 399 662.5 L 400 664.5 L 399 667.5 L 400 668.5 L 401 683.5 L 405 697.5 L 411 710.5 L 419.5 721 L 422.5 723 Q 427.43 729.07 435.5 732 L 457 734 L 458.5 730 L 459 731.5 Q 454.75 740.25 447.5 746 L 433.5 751 L 421.5 751 L 402.5 743 L 388 728.5 L 377 706.5 L 374 691.5 L 374 675.5 L 378 661.5 L 383 653 L 395.5 645 L 405.5 642 Z " /><path fill="rgb(82,62,121)" stroke="rgb(82,62,121)" stroke-width="1" opacity="1" d="M 416.5 643 L 421.5 644 L 433 650.5 L 431.5 650 L 421.5 645 L 416.5 644 L 416.5 643 Z " /><path fill="rgb(82,62,121)" stroke="rgb(82,62,121)" stroke-width="1" opacity="1" d="M 308.5 650 L 309 661.5 L 308 661.5 L 308.5 650 Z " /><path fill="rgb(82,62,121)" stroke="rgb(82,62,121)" stroke-width="1" opacity="1" d="M 445.5 662 L 452 670.5 L 450 669.5 L 445.5 662 Z " /><path fill="rgb(82,62,121)" stroke="rgb(82,62,121)" stroke-width="1" opacity="1" d="M 307.5 663 L 308 669.5 L 307 669.5 L 307.5 663 Z " /><path fill="rgb(82,62,121)" stroke="rgb(82,62,121)" stroke-width="1" opacity="1" d="M 452.5 672 L 457 680.5 L 456 680.5 L 452.5 672 Z " /><path fill="rgb(82,62,121)" stroke="rgb(82,62,121)" stroke-width="1" opacity="1" d="M 306.5 674 L 307 697.5 L 306 697.5 L 306.5 674 Z " /><path fill="rgb(82,62,121)" stroke="rgb(82,62,121)" stroke-width="1" opacity="1" d="M 904.5 682 L 911.5 682 L 917 686.5 Q 925.72 694.28 924 712.5 L 923 713.5 L 922 724.5 L 918 734.5 Q 911.55 746.05 901.5 754 L 892.5 758 L 882.5 758 L 877 756 L 874 748.5 L 875.5 749 L 883.5 745 L 897 732.5 L 908 712.5 L 913 695.5 L 913 690 L 915.5 691 L 917 688.5 L 911.5 683 L 904.5 683 L 904.5 682 Z M 921 720 L 920 723 L 921 723 L 921 720 Z M 920 724 L 919 727 L 920 727 L 920 724 Z " /><path fill="rgb(82,62,121)" stroke="rgb(82,62,121)" stroke-width="1" opacity="1" d="M 901.5 683 L 903 683.5 Q 893.77 686.77 888.5 694 L 893.5 688 L 901.5 683 Z " /><path fill="rgb(82,62,121)" stroke="rgb(82,62,121)" stroke-width="1" opacity="1" d="M 460.5 690 L 461 692.5 L 460 692.5 L 460.5 690 Z " /><path fill="rgb(82,62,121)" stroke="rgb(82,62,121)" stroke-width="1" opacity="1" d="M 461.5 694 L 462 696.5 L 461 696.5 L 461.5 694 Z " /><path fill="rgb(82,62,121)" stroke="rgb(82,62,121)" stroke-width="1" opacity="1" d="M 307.5 700 L 308 705.5 L 307 705.5 L 307.5 700 Z " /><path fill="rgb(82,62,121)" stroke="rgb(82,62,121)" stroke-width="1" opacity="1" d="M 462.5 700 L 463 702.5 L 462 702.5 L 462.5 700 Z " /><path fill="rgb(82,62,121)" stroke="rgb(82,62,121)" stroke-width="1" opacity="1" d="M 882.5 702 L 882 703.5 L 879.5 709 L 879 707.5 L 882.5 702 Z " /><path fill="rgb(82,62,121)" stroke="rgb(82,62,121)" stroke-width="1" opacity="1" d="M 308.5 707 L 309 711.5 L 308 711.5 L 308.5 707 Z " /><path fill="rgb(82,62,121)" stroke="rgb(82,62,121)" stroke-width="1" opacity="1" d="M 878.5 710 L 879 711.5 L 877.5 714 L 877 712.5 L 878.5 710 Z " /><path fill="rgb(82,62,121)" stroke="rgb(82,62,121)" stroke-width="1" opacity="1" d="M 462.5 712 L 463 717.5 L 461 718.5 L 462.5 712 Z " /><path fill="rgb(82,62,121)" stroke="rgb(82,62,121)" stroke-width="1" opacity="1" d="M 309.5 713 L 310 715.5 L 309 715.5 L 309.5 713 Z " /><path fill="rgb(82,62,121)" stroke="rgb(82,62,121)" stroke-width="1" opacity="1" d="M 796.5 715 L 803.5 715 L 811 717.5 L 808.5 718 Q 804.5 715 796.5 716 L 792.5 717 L 792.5 716 L 796.5 715 Z " /><path fill="rgb(82,62,121)" stroke="rgb(82,62,121)" stroke-width="1" opacity="1" d="M 310.5 717 L 311 719.5 L 310 719.5 L 310.5 717 Z " /><path fill="rgb(82,62,121)" stroke="rgb(82,62,121)" stroke-width="1" opacity="1" d="M 788.5 717 L 791 717.5 L 788.5 718 L 788.5 717 Z " /><path fill="rgb(82,62,121)" stroke="rgb(82,62,121)" stroke-width="1" opacity="1" d="M 461.5 720 L 462 723.5 L 461 723.5 L 461.5 720 Z " /><path fill="rgb(82,62,121)" stroke="rgb(82,62,121)" stroke-width="1" opacity="1" d="M 780.5 720 L 782 720.5 L 769.5 729 L 769.5 728 L 780.5 720 Z " /><path fill="rgb(82,62,121)" stroke="rgb(82,62,121)" stroke-width="1" opacity="1" d="M 874.5 722 L 875 724.5 L 874 724.5 L 874.5 722 Z " /><path fill="rgb(82,62,121)" stroke="rgb(82,62,121)" stroke-width="1" opacity="1" d="M 460.5 725 L 461 727.5 L 459 728.5 L 460.5 725 Z " /><path fill="rgb(82,62,121)" stroke="rgb(82,62,121)" stroke-width="1" opacity="1" d="M 822.5 726 L 828 734.5 L 830 747.5 L 828 757.5 L 819 772 L 816.5 772 Q 810.28 779.28 800.5 783 L 789.5 786 L 787.5 786 L 773.5 784 L 763 777.5 L 756 766.5 L 755 755.5 L 757 746.5 L 759.5 742 L 760 743.5 Q 755.62 750.12 756 761.5 L 757.5 764 L 760.5 758 L 771.5 764 L 783.5 764 L 803.5 757 L 816 746.5 Q 821.95 739.45 824 728.5 L 822.5 726 Z " /><path fill="rgb(82,62,121)" stroke="rgb(82,62,121)" stroke-width="1" opacity="1" d="M 313.5 727 L 315 730.5 L 314 730.5 L 313.5 727 Z " /><path fill="rgb(82,62,121)" stroke="rgb(82,62,121)" stroke-width="1" opacity="1" d="M 873.5 728 L 874 735.5 L 873 735.5 L 873.5 728 Z " /><path fill="rgb(82,62,121)" stroke="rgb(82,62,121)" stroke-width="1" opacity="1" d="M 768.5 730 L 764 735.5 L 760.5 741 L 761 739.5 L 768.5 730 Z " /><path fill="rgb(82,62,121)" stroke="rgb(82,62,121)" stroke-width="1" opacity="1" d="M 318.5 740 L 323 747.5 L 321 746.5 L 318.5 740 Z " /><path fill="rgb(82,62,121)" stroke="rgb(82,62,121)" stroke-width="1" opacity="1" d="M 873.5 743 L 874 745.5 L 873 745.5 L 873.5 743 Z " /><path fill="rgb(82,62,121)" stroke="rgb(82,62,121)" stroke-width="1" opacity="1" d="M 945.5 749 L 946 750.5 L 944.5 753 L 944 751.5 L 945.5 749 Z " /><path fill="rgb(82,62,121)" stroke="rgb(82,62,121)" stroke-width="1" opacity="1" d="M 814.5 790 Q 817.13 789.17 816 792.5 Q 815.25 794.75 811.5 794 L 814.5 790 Z " /><path fill="rgb(82,62,121)" stroke="rgb(82,62,121)" stroke-width="1" opacity="1" d="M 590.5 812 Q 599.75 810.75 605 813.5 L 601.5 814 L 600.5 813 L 590.5 813 L 590.5 812 Z " /><path fill="rgb(82,62,121)" stroke="rgb(82,62,121)" stroke-width="1" opacity="1" d="M 611.5 815 L 616 816.5 L 613.5 817 L 611.5 815 Z " /><path fill="rgb(82,62,121)" stroke="rgb(82,62,121)" stroke-width="1" opacity="1" d="M 370.5 816 L 372 818.5 L 371 818.5 L 370.5 816 Z " /><path fill="rgb(82,62,121)" stroke="rgb(82,62,121)" stroke-width="1" opacity="1" d="M 617.5 817 L 624 820.5 L 622.5 820 L 617.5 818 L 617.5 817 Z " /><path fill="rgb(82,62,121)" stroke="rgb(82,62,121)" stroke-width="1" opacity="1" d="M 641.5 838 L 643 840.5 L 642 840.5 L 641.5 838 Z " /><path fill="rgb(82,62,121)" stroke="rgb(82,62,121)" stroke-width="1" opacity="1" d="M 876.5 841 L 876 842.5 L 874.5 845 L 875 843.5 L 876.5 841 Z " /><path fill="rgb(82,62,121)" stroke="rgb(82,62,121)" stroke-width="1" opacity="1" d="M 385.5 855 L 388 858.5 L 386 857.5 L 385.5 855 Z " /><path fill="rgb(82,62,121)" stroke="rgb(82,62,121)" stroke-width="1" opacity="1" d="M 542.5 859 L 543 863.5 L 542 863.5 L 542.5 859 Z " /><path fill="rgb(82,62,121)" stroke="rgb(82,62,121)" stroke-width="1" opacity="1" d="M 615 892 L 619 892.5 L 615 894 L 615 892 Z " /><path fill="rgb(82,62,121)" stroke="rgb(82,62,121)" stroke-width="1" opacity="1" d="M 604.5 897 L 609 897.5 L 607 898.5 L 609 899.5 L 605.5 901 L 605.5 899 L 598 898.5 L 604.5 897 Z " /><path fill="rgb(82,62,121)" stroke="rgb(82,62,121)" stroke-width="1" opacity="1" d="M 455.5 908 L 458 908.5 L 455.5 909 L 455.5 908 Z " /><path fill="rgb(82,62,121)" stroke="rgb(82,62,121)" stroke-width="1" opacity="1" d="M 802.5 908 L 804 908.5 L 800.5 910 L 800.5 909 L 802.5 908 Z " /><path fill="rgb(82,62,121)" stroke="rgb(82,62,121)" stroke-width="1" opacity="1" d="M 460.5 909 L 465 909.5 L 460.5 910 L 460.5 909 Z " /><path fill="rgb(82,62,121)" stroke="rgb(82,62,121)" stroke-width="1" opacity="1" d="M 468.5 910 L 477 910.5 L 468.5 911 L 468.5 910 Z " /><path fill="rgb(82,62,121)" stroke="rgb(82,62,121)" stroke-width="1" opacity="1" d="M 492.5 912 L 496 913.5 L 494.5 914 L 492.5 912 Z " /><path fill="rgb(82,62,121)" stroke="rgb(82,62,121)" stroke-width="1" opacity="1" d="M 777.5 916 L 780 916.5 L 777.5 917 L 777.5 916 Z " /><path fill="rgb(82,62,121)" stroke="rgb(82,62,121)" stroke-width="1" opacity="1" d="M 769.5 917 L 775 917.5 L 769.5 918 L 769.5 917 Z " /><path fill="rgb(82,62,121)" stroke="rgb(82,62,121)" stroke-width="1" opacity="1" d="M 742.5 918 L 759 918.5 L 742.5 919 L 742.5 918 Z " /><path fill="rgb(82,62,121)" stroke="rgb(82,62,121)" stroke-width="1" opacity="1" d="M 762.5 918 L 767 918.5 L 762.5 919 L 762.5 918 Z " /><path fill="rgb(82,62,121)" stroke="rgb(82,62,121)" stroke-width="1" opacity="1" d="M 714.5 922 L 717 922.5 L 714.5 923 L 714.5 922 Z " /><path fill="rgb(82,62,121)" stroke="rgb(82,62,121)" stroke-width="1" opacity="1" d="M 710.5 923 L 713 923.5 L 710.5 924 L 710.5 923 Z " /><path fill="rgb(82,62,121)" stroke="rgb(82,62,121)" stroke-width="1" opacity="1" d="M 705.5 924 L 708 924.5 L 705.5 925 L 705.5 924 Z " /><path fill="rgb(82,62,121)" stroke="rgb(82,62,121)" stroke-width="1" opacity="1" d="M 699.5 925 L 704 925.5 L 699.5 926 L 699.5 925 Z " /><path fill="rgb(82,62,121)" stroke="rgb(82,62,121)" stroke-width="1" opacity="1" d="M 694.5 926 L 698 926.5 L 694.5 927 L 694.5 926 Z " /><path fill="rgb(82,62,121)" stroke="rgb(82,62,121)" stroke-width="1" opacity="1" d="M 688.5 927 L 693 927.5 L 688.5 928 L 688.5 927 Z " /><path fill="rgb(82,62,121)" stroke="rgb(82,62,121)" stroke-width="1" opacity="1" d="M 682.5 928 L 686 928.5 L 682.5 929 L 682.5 928 Z " /><path fill="rgb(82,62,121)" stroke="rgb(82,62,121)" stroke-width="1" opacity="1" d="M 676.5 929 L 680 929.5 L 676.5 930 L 676.5 929 Z " /><path fill="rgb(82,62,121)" stroke="rgb(82,62,121)" stroke-width="1" opacity="1" d="M 669.5 930 L 674 930.5 L 668.5 932 L 669.5 930 Z " /><path fill="rgb(82,62,121)" stroke="rgb(82,62,121)" stroke-width="1" opacity="1" d="M 536.5 931 L 540 933.5 L 538.5 933 L 536.5 931 Z " /><path fill="rgb(82,62,121)" stroke="rgb(82,62,121)" stroke-width="1" opacity="1" d="M 656.5 937 L 655.5 939 L 652.5 940 L 652.5 939 L 656.5 937 Z " /><path fill="rgb(82,62,121)" stroke="rgb(82,62,121)" stroke-width="1" opacity="1" d="M 650.5 940 L 649.5 942 L 648 941.5 L 650.5 940 Z " /><path fill="rgb(82,62,121)" stroke="rgb(82,62,121)" stroke-width="1" opacity="1" d="M 569.5 946 L 573 947.5 L 571.5 947 Q 568.5 947.5 569.5 946 Z " /><path fill="rgb(82,62,121)" stroke="rgb(82,62,121)" stroke-width="1" opacity="1" d="M 630.5 947 L 633 947.5 L 630.5 948 L 630.5 947 Z " /><path fill="rgb(82,62,121)" stroke="rgb(82,62,121)" stroke-width="1" opacity="1" d="M 577.5 948 L 581 948.5 L 577.5 949 L 577.5 948 Z " /><path fill="rgb(82,62,121)" stroke="rgb(82,62,121)" stroke-width="1" opacity="1" d="M 625.5 948 L 629 948.5 L 625.5 949 L 625.5 948 Z " /><path fill="rgb(82,62,121)" stroke="rgb(82,62,121)" stroke-width="1" opacity="1" d="M 582.5 949 L 616 950.5 L 589.5 951 Q 588 948.5 582.5 950 L 582.5 949 Z " /><path fill="rgb(82,62,121)" stroke="rgb(82,62,121)" stroke-width="1" opacity="1" d="M 618.5 949 L 624 949.5 L 618.5 950 L 618.5 949 Z " /><path fill="rgb(111,86,151)" stroke="rgb(111,86,151)" stroke-width="1" opacity="1" d="M 609.5 254 L 612 254.5 L 609.5 255 L 609.5 254 Z " /><path fill="rgb(111,86,151)" stroke="rgb(111,86,151)" stroke-width="1" opacity="1" d="M 613.5 274 L 628.5 274 L 644.5 278 L 658.5 285 L 683.5 302 L 720.5 309 L 752.5 319 L 785.5 334 L 807 346.5 L 805.5 347 L 791.5 339 L 791.5 341 L 789 340 Q 790.13 343.5 782.5 342 L 782.5 340 L 780.5 339 L 776.5 340 L 775 339.5 L 774 343 L 770 342 Q 768.87 339.33 771.5 340 L 771 338.5 Q 769.5 334.13 772.5 335 L 776 336 Q 776.75 332.58 774 331.5 L 776 330.5 L 757.5 322 L 720.5 310 L 682.5 303 L 667.5 293 L 667.5 295 L 665 296.5 L 664.5 298 L 661 297.5 L 662 301.5 L 659.5 302 Q 657.25 301.25 658 303.5 L 660.5 309 L 663.5 310 L 665 309.5 Q 662.75 310.75 665.5 312 L 666.5 310 L 667 311.5 L 666.5 313 L 673 312 Q 671.88 314.67 674.5 314 L 674.5 315 L 672 316.5 L 679.5 321 L 707.5 326 Q 718.85 331.15 733.5 333 L 753.5 340 L 758.5 343 L 761.5 343 L 764 341.5 L 764.5 343 L 765 341 L 767.5 340 Q 770.25 341.25 768 342.5 L 766 345.5 L 767.5 346 L 769.5 345 L 772 346 L 772.5 349 L 780 346 L 779 353 L 795 361 Q 793.75 358 797.5 359 L 805 362 L 804 364.5 L 824.5 373 Q 826.25 369.25 828 372.5 L 828.5 374 L 830.5 373 L 831.5 376 L 835.5 377 L 846.5 384 L 849 383.5 L 849.5 382 L 852.5 384 L 857 376.5 L 855 375.5 L 857 374.5 L 842.5 364 L 840.5 365 Q 838.75 361.25 837 364.5 L 839 365.5 L 837 366.5 L 836.5 365 L 835 365.5 L 833.5 363 Q 830.87 363.67 832 361 L 834 360.5 L 833.5 358 L 831.5 359 L 831.5 357 L 821.5 352 L 818.5 352 L 815.5 356 L 812.5 357 L 810.5 356 L 810.5 358 Q 807.88 357.33 809 360 L 806 360 Q 804.5 356.25 807.5 357 L 809 357.5 Q 810.13 354.17 807.5 355 L 806 355.5 L 805 353.5 L 806 351 L 808 351 Q 806.87 348.33 809.5 349 L 809.5 348 L 808 347.5 L 810.5 347 Q 849.47 360.53 873 389.5 Q 885.31 403.19 894 420.5 L 893 420.5 L 890.5 416 L 887.5 421 Q 883.12 422.5 884 419.5 L 882 415.5 L 885 410.5 L 884 408.5 L 884 406.5 L 880.5 401 L 878.5 401 L 875.5 404 L 872 404 Q 873.5 400.25 870.5 401 L 869 401.5 L 869 399.5 L 870 393 L 872 392.5 L 872 390.5 L 863.5 381 L 861.5 381 Q 858.88 380.17 860 383.5 Q 857 380.41 854 383.5 Q 858.25 384.75 857 391.5 L 856 392.5 L 860 396.5 L 866.5 404 L 868 403.5 L 868 405.5 L 878.5 422 L 880 421.5 Q 879.33 424.13 882 423 L 882 425.5 L 881 427.5 L 883 430.5 L 883 434.5 L 887 445.5 L 889 459.5 L 890.5 461 Q 892.75 460.25 892 462.5 L 894.5 467 L 896.5 467 L 899.5 468 L 901.5 468 L 905 468 L 905 464 Q 908 465.25 907 461.5 L 906.5 460 L 908 460.5 L 905 455.5 Q 904.42 445.58 900.5 439 L 899 439.5 L 900 436.5 L 899 436.5 Q 899.83 439.13 896.5 438 L 894 435.5 L 894.5 433 Q 896.75 433.75 896 431.5 L 897 431.5 L 897.5 433 L 898 430.5 L 895 424.5 L 896 424.5 Q 903 437.5 906 454.5 L 920 483.5 Q 934.49 495.51 943 513.5 L 949 536.5 L 949 551.5 L 945 574.5 L 947 585.5 L 948 605.5 Q 956.73 617.27 962 632.5 L 964 642.5 L 964 649.5 L 965 650.5 L 965 673.5 L 964 674.5 L 964 683.5 L 962 690.5 L 961 702.5 L 958 714.5 L 951 736.5 L 942 758.5 Q 929.93 787.43 907.5 806 Q 895.13 813.13 886 823.5 Q 869.18 860.18 840.5 885 Q 822.22 901.22 797.5 911 L 781.5 916 L 759.5 919 L 758.5 918 L 742.5 918 L 740.5 919 L 739.5 918 L 731.5 918 L 704.5 925 L 699.5 925 L 675.5 930 L 669.5 930 L 645.5 943 L 629.5 948 L 618.5 949 L 617.5 950 L 589.5 950 L 574.5 947 Q 573 949.5 571.5 946 L 561.5 944 L 551.5 940 L 530.5 927 L 517.5 923 L 490.5 911 L 477.5 911 L 476.5 910 L 458.5 909 L 437.5 903 Q 414.03 891.97 398 873.5 Q 387.73 861.77 381 846.5 L 372 817.5 Q 357.03 798.97 345 777.5 L 327 755.5 L 318 739.5 L 311 720.5 L 308 706.5 Q 309.5 701 307 699.5 L 307 670.5 L 309 661.5 L 309 650.5 L 308 649.5 L 308 639.5 L 307 638.5 L 307 624.5 L 300 609.5 L 296 596.5 L 294 573.5 L 298 554.5 L 304 540.5 Q 315 521.5 332 508.5 L 344 480.5 L 352 466.5 L 352 444.5 L 359 420.5 Q 373.11 389.11 396.5 367 Q 421.5 342.5 455.5 327 L 474.5 321 L 489.5 320 L 490.5 319 L 503.5 319 L 504.5 320 L 516.5 320 L 542.5 310 L 553.5 308 L 586.5 283 L 596.5 278 L 613.5 274 Z M 623 275 L 624 276 Q 625 278 626 276 L 623 275 Z M 608 276 L 602 278 L 602 279 L 615 277 L 608 276 Z M 628 276 L 628 277 L 633 277 L 628 276 Z M 634 277 L 634 278 Q 637 277 636 281 Q 635 284 631 283 L 631 288 L 633 288 L 632 285 L 635 286 L 636 285 Q 640 283 639 287 L 636 286 L 634 289 L 638 290 L 641 287 L 642 288 Q 646 286 643 285 L 644 282 L 648 283 L 651 283 L 642 278 L 634 277 Z M 598 279 L 598 280 L 600 280 L 598 279 Z M 591 282 L 590 284 L 592 283 L 591 282 Z M 653 284 L 652 287 L 654 287 L 653 289 L 656 292 L 656 290 L 658 290 L 661 289 L 653 284 Z M 651 294 L 647 296 L 650 296 L 651 297 L 651 294 Z M 538 313 L 538 314 L 540 314 L 538 313 Z M 599 313 L 594 315 Q 589 318 587 325 L 589 331 Q 592 335 599 336 L 604 336 L 610 334 L 615 328 L 614 319 Q 610 312 599 313 Z M 532 315 L 532 316 L 534 316 L 532 315 Z M 529 316 L 529 317 L 531 317 L 529 316 Z M 504 321 L 504 322 L 511 322 L 504 321 Z M 513 321 L 513 322 L 515 322 L 513 321 Z M 774 337 Q 771 339 774 340 Q 777 339 774 337 Z M 467 351 Q 451 354 440 361 L 420 375 L 397 399 Q 387 411 383 430 L 383 441 L 386 450 L 394 456 L 405 460 L 421 460 L 442 454 L 462 443 L 474 433 L 491 414 L 500 396 L 502 386 Q 504 369 498 361 Q 493 353 483 351 L 467 351 Z M 765 381 L 760 383 Q 752 387 751 398 L 749 398 L 750 404 L 751 401 L 753 413 L 763 429 Q 781 450 811 460 Q 825 462 833 457 Q 837 454 839 448 L 840 445 L 840 437 L 836 424 L 824 407 L 805 390 L 793 384 Q 782 379 765 381 Z M 679 382 L 673 385 L 669 390 L 668 394 L 670 402 L 679 408 L 691 407 L 697 400 Q 698 392 695 389 Q 691 381 679 382 Z M 507 394 L 504 395 L 496 412 L 491 419 Q 473 439 450 454 L 429 463 L 421 465 L 410 465 L 409 466 Q 406 465 407 468 L 412 470 L 414 469 L 425 473 L 447 469 Q 463 463 475 453 Q 487 442 496 429 L 508 402 Q 509 396 507 394 Z M 370 463 L 370 475 L 375 483 L 390 494 L 400 499 L 411 502 L 431 502 L 451 497 L 460 493 L 462 486 L 461 484 L 450 483 L 446 483 L 433 487 Q 426 485 425 488 Q 399 489 384 479 L 370 463 Z M 899 472 L 898 474 L 896 474 L 900 482 Q 899 484 903 483 Q 904 480 906 484 L 908 483 L 915 484 L 914 489 L 915 490 L 920 488 L 922 488 L 923 488 Q 918 485 917 478 L 914 476 Q 911 475 912 478 Q 910 476 909 479 L 905 477 Q 899 479 900 476 L 899 476 L 899 475 L 899 472 Z M 514 495 L 510 497 L 503 506 Q 502 515 505 519 L 514 524 Q 522 525 526 521 L 528 519 L 531 511 Q 532 503 528 500 L 522 495 L 514 495 Z M 931 496 L 930 498 L 932 499 L 931 496 Z M 926 497 L 928 500 L 930 500 Q 930 496 926 497 Z M 931 502 L 930 505 L 931 505 L 931 502 Z M 936 503 L 936 506 L 935 505 L 934 507 Q 933 509 929 508 L 928 513 L 932 515 L 931 519 L 933 524 L 934 524 L 933 521 L 937 515 L 939 515 L 939 514 L 941 514 L 936 503 Z M 719 506 L 719 507 L 725 507 L 719 506 Z M 712 508 L 700 514 L 696 518 L 692 526 L 690 535 L 691 547 L 699 565 Q 707 575 720 581 L 729 584 Q 735 582 737 585 L 748 584 L 760 578 Q 767 573 769 563 L 769 551 L 767 543 L 758 527 Q 748 515 733 509 Q 724 506 712 508 Z M 942 514 L 941 517 L 942 517 L 942 514 Z M 943 517 L 942 520 L 943 520 L 943 517 Z M 944 520 L 945 528 L 945 529 L 944 528 L 943 528 Q 944 530 941 529 L 939 533 Q 940 535 937 534 L 938 544 L 938 543 L 940 543 L 940 542 L 942 542 L 944 541 Q 946 542 945 539 L 947 539 L 947 532 L 944 520 Z M 472 524 L 467 526 L 462 532 L 463 541 L 470 545 Q 476 546 480 543 L 483 538 L 482 530 L 476 524 L 472 524 Z M 685 536 L 682 540 L 681 545 L 683 548 Q 686 549 687 547 Q 688 539 685 536 Z M 893 537 L 888 539 Q 882 542 881 550 L 881 562 L 885 572 L 894 578 L 903 577 L 906 574 L 909 567 L 909 554 L 904 544 L 900 539 L 893 537 Z M 685 551 L 682 554 Q 681 562 684 567 L 691 578 Q 702 592 724 596 Q 732 597 734 593 L 733 590 L 721 585 L 705 574 L 694 562 Q 695 557 692 558 L 690 553 Q 689 550 685 551 Z M 947 553 L 946 559 L 944 556 L 941 557 Q 939 560 938 558 L 936 558 L 936 563 L 934 563 L 934 566 L 933 566 L 934 563 L 934 561 L 930 569 L 930 572 L 930 573 Q 932 574 931 571 L 933 571 L 932 568 L 934 568 L 942 564 L 944 565 L 945 561 L 946 566 L 947 560 L 947 553 Z M 311 560 L 307 573 L 308 589 L 324 626 L 325 655 L 326 656 L 326 662 L 321 684 L 321 706 L 326 725 L 337 745 L 358 768 L 389 813 L 392 821 L 396 840 L 408 862 Q 424 884 457 891 L 459 891 L 466 893 L 488 893 L 489 892 L 493 892 L 523 906 L 533 909 L 563 927 L 581 933 L 594 934 L 595 935 L 612 935 L 626 932 L 639 927 L 666 913 L 703 907 L 729 900 L 752 901 L 753 902 L 778 900 L 795 895 Q 814 887 829 875 L 849 853 L 867 820 L 874 810 L 879 805 Q 896 797 910 784 L 928 761 L 934 747 L 932 746 L 924 760 Q 914 774 895 779 Q 875 780 867 771 L 855 756 L 851 759 L 851 772 L 852 773 L 852 777 L 841 789 Q 815 816 781 835 L 759 846 L 726 858 L 728 861 L 728 864 L 725 857 L 720 853 L 714 853 L 706 860 L 707 868 L 710 871 Q 704 868 705 860 L 685 862 L 684 863 L 669 863 L 665 846 Q 664 859 660 869 L 653 881 Q 648 889 638 893 L 637 891 L 639 890 L 648 874 L 646 871 L 644 868 Q 643 865 642 867 L 640 867 L 644 860 L 645 860 L 644 864 L 646 863 L 645 858 L 646 856 L 645 845 L 638 832 Q 630 823 619 817 L 601 812 L 591 812 L 589 812 L 572 816 L 561 822 Q 550 829 546 842 L 546 851 L 548 856 L 547 855 L 544 862 L 545 865 Q 548 866 547 864 L 549 864 L 552 862 L 557 870 L 557 872 L 574 879 L 577 882 L 593 885 L 605 885 L 606 884 Q 612 883 615 887 L 617 887 L 617 886 L 619 885 L 618 891 L 621 892 L 633 884 L 634 880 Q 630 879 629 883 L 623 883 L 627 882 L 634 874 L 634 876 L 638 877 L 638 881 Q 634 879 635 883 L 631 886 Q 628 887 630 889 L 628 889 Q 629 892 626 894 Q 627 897 622 895 L 621 898 L 623 902 L 618 903 L 613 902 L 612 904 L 609 904 Q 610 901 608 902 L 606 905 L 599 906 L 597 906 L 596 905 L 586 905 L 574 902 L 575 900 L 573 896 L 572 896 L 571 894 L 574 894 L 570 891 L 567 892 L 566 897 L 557 893 L 554 889 L 552 889 L 555 885 L 554 883 L 556 879 L 553 875 Q 552 872 551 874 L 546 869 L 543 873 L 541 871 L 540 877 L 533 868 L 529 855 L 529 837 L 531 831 L 531 825 L 526 831 Q 500 819 480 801 L 459 780 Q 468 769 474 756 L 474 751 L 466 760 Q 458 769 446 774 L 429 778 L 409 775 L 393 768 L 383 761 Q 358 741 351 704 L 351 680 Q 353 678 352 674 L 356 661 L 360 654 L 355 639 L 352 623 L 352 615 L 351 614 Q 352 609 348 611 L 339 601 L 338 586 L 337 583 L 333 582 L 317 573 L 311 566 L 311 560 Z M 945 568 L 944 571 L 945 571 L 945 568 Z M 354 570 L 350 572 Q 344 575 342 582 Q 338 583 341 585 L 340 589 L 344 603 L 356 609 L 358 609 L 363 607 Q 368 603 370 596 Q 372 581 366 575 Q 363 569 354 570 Z M 944 573 L 943 576 L 944 576 L 944 573 Z M 945 578 L 944 583 L 943 582 L 941 583 L 941 584 L 936 584 L 939 589 L 936 591 L 936 589 L 932 589 L 932 592 L 931 589 L 930 589 L 930 601 L 932 602 L 934 602 L 933 599 L 942 594 L 941 596 L 944 599 L 945 590 L 945 603 L 946 603 L 946 590 L 945 589 L 945 578 Z M 743 588 L 739 590 Q 735 589 737 593 L 740 594 Q 745 593 748 590 Q 747 587 743 588 Z M 475 604 L 470 606 L 464 613 Q 463 623 467 628 L 475 633 Q 484 634 489 630 L 492 625 Q 493 615 489 611 Q 485 604 475 604 Z M 932 604 L 930 608 L 933 608 L 934 609 Q 935 606 932 607 L 932 604 Z M 931 609 L 931 611 L 933 610 L 931 609 Z M 952 613 L 952 618 L 954 619 L 952 613 Z M 951 616 L 943 619 L 943 621 L 941 621 L 942 624 L 940 627 L 943 630 L 944 628 L 947 633 L 951 631 L 953 632 L 953 624 L 954 623 L 951 616 Z M 958 625 L 957 628 L 958 628 L 958 625 Z M 959 628 L 958 631 L 959 631 L 959 628 Z M 960 631 L 960 635 L 960 637 L 959 634 L 956 633 L 954 634 L 949 633 L 949 635 L 948 638 L 948 640 L 956 642 Q 958 643 957 640 L 960 640 L 961 638 Q 962 633 960 631 Z M 962 638 L 961 642 L 962 642 L 962 638 Z M 774 641 L 770 643 L 765 650 L 766 659 Q 769 663 776 665 Q 783 666 786 662 L 790 656 Q 791 649 788 646 Q 785 639 774 641 Z M 406 642 L 396 645 L 383 653 L 378 662 L 374 676 L 374 692 L 377 707 L 388 729 L 403 743 L 422 751 L 434 751 L 448 746 L 458 734 L 461 728 L 463 718 L 463 701 L 461 691 Q 456 673 445 661 Q 436 650 422 644 L 413 642 L 406 642 Z M 963 643 L 962 650 L 963 650 L 963 643 Z M 964 657 L 963 666 Q 963 661 961 660 Q 957 659 958 662 L 954 664 L 953 660 L 952 686 L 955 686 L 955 682 L 957 682 L 958 680 L 961 678 L 962 674 L 963 681 L 964 673 L 964 657 Z M 367 681 L 362 692 L 365 693 L 362 699 L 362 711 Q 366 713 365 721 Q 368 733 376 742 L 391 755 L 408 762 L 417 762 L 418 757 L 415 753 Q 404 750 398 743 L 383 728 L 373 711 L 371 701 L 368 695 L 368 683 L 367 681 Z M 905 682 L 894 688 L 881 704 L 876 716 L 873 729 L 873 746 L 877 756 L 883 758 L 893 758 L 902 754 Q 912 746 918 735 L 922 725 L 923 714 L 924 713 Q 926 694 917 687 L 912 682 L 905 682 Z M 549 692 L 541 696 L 536 704 L 536 712 L 539 718 L 548 723 Q 557 724 562 721 Q 566 718 568 712 L 568 705 L 564 698 L 556 692 L 549 692 Z M 960 696 L 958 702 L 956 702 Q 953 701 954 705 L 954 707 L 957 707 L 958 710 L 960 702 L 960 696 Z M 950 711 L 949 713 L 947 713 L 949 715 Q 951 716 950 714 Q 952 712 950 711 Z M 797 715 L 781 720 L 769 728 L 761 739 L 757 747 L 755 756 L 756 767 L 763 778 L 774 784 L 788 786 L 790 786 L 801 783 Q 810 779 817 772 L 819 772 L 828 758 L 830 748 L 828 735 L 822 725 Q 814 715 797 715 Z M 927 718 L 923 727 L 922 734 L 910 750 L 900 759 L 889 762 L 888 765 L 894 769 Q 897 770 895 766 L 899 766 L 901 766 L 904 766 L 910 763 Q 920 755 925 743 L 926 733 L 929 729 L 929 723 L 929 721 Q 930 717 927 718 Z M 423 755 L 423 762 L 426 763 L 436 759 L 437 756 L 435 755 L 423 755 Z M 815 790 L 812 794 Q 815 795 816 793 Q 817 789 815 790 Z M 543 859 L 542 864 L 543 864 L 543 859 Z M 552 869 L 552 873 L 559 882 Q 566 889 577 894 L 588 897 L 604 898 L 598 899 L 606 899 L 606 901 L 609 900 L 607 899 L 609 898 L 605 897 L 614 894 L 616 894 L 619 893 L 619 892 Q 613 894 614 890 L 611 886 L 591 886 L 580 884 L 559 875 L 556 872 L 552 869 Z " /><path fill="rgb(111,86,151)" stroke="rgb(111,86,151)" stroke-width="1" opacity="1" d="M 331.5 448 L 332 450.5 L 331 450.5 L 331.5 448 Z " /><path fill="rgb(111,86,151)" stroke="rgb(111,86,151)" stroke-width="1" opacity="1" d="M 968.5 534 L 969 536.5 L 968 536.5 L 968.5 534 Z " /><path fill="rgb(111,86,151)" stroke="rgb(111,86,151)" stroke-width="1" opacity="1" d="M 274.5 564 L 275 566.5 L 274 566.5 L 274.5 564 Z " /><path fill="rgb(111,86,151)" stroke="rgb(111,86,151)" stroke-width="1" opacity="1" d="M 967.5 565 L 968 568.5 L 967 568.5 L 967.5 565 Z " /><path fill="rgb(111,86,151)" stroke="rgb(111,86,151)" stroke-width="1" opacity="1" d="M 966.5 573 L 967 576.5 L 966 576.5 L 966.5 573 Z " /><path fill="rgb(111,86,151)" stroke="rgb(111,86,151)" stroke-width="1" opacity="1" d="M 273.5 574 L 274 582.5 L 273 582.5 L 273.5 574 Z " /><path fill="rgb(111,86,151)" stroke="rgb(111,86,151)" stroke-width="1" opacity="1" d="M 943.5 585 L 944 587.5 L 943 587.5 L 943.5 585 Z " /><path fill="rgb(111,86,151)" stroke="rgb(111,86,151)" stroke-width="1" opacity="1" d="M 935.5 592 L 936 595 Q 933.33 596.13 934 593.5 L 935.5 592 Z " /><path fill="rgb(111,86,151)" stroke="rgb(111,86,151)" stroke-width="1" opacity="1" d="M 968.5 594 L 969 598.5 L 968 598.5 L 968.5 594 Z " /><path fill="rgb(111,86,151)" stroke="rgb(111,86,151)" stroke-width="1" opacity="1" d="M 985.5 651 L 986 669.5 L 985 669.5 L 985.5 651 Z " /><path fill="rgb(111,86,151)" stroke="rgb(111,86,151)" stroke-width="1" opacity="1" d="M 287.5 654 L 288 657.5 L 287 657.5 L 287.5 654 Z " /><path fill="rgb(111,86,151)" stroke="rgb(111,86,151)" stroke-width="1" opacity="1" d="M 286.5 666 L 287 671.5 L 286 671.5 L 286.5 666 Z " /><path fill="rgb(111,86,151)" stroke="rgb(111,86,151)" stroke-width="1" opacity="1" d="M 285.5 681 L 286 684.5 L 285 684.5 L 285.5 681 Z " /><path fill="rgb(111,86,151)" stroke="rgb(111,86,151)" stroke-width="1" opacity="1" d="M 982.5 693 L 983 695.5 L 982 695.5 L 982.5 693 Z " /><path fill="rgb(111,86,151)" stroke="rgb(111,86,151)" stroke-width="1" opacity="1" d="M 353.5 828 L 354 830.5 L 353 830.5 L 353.5 828 Z " /><path fill="rgb(111,86,151)" stroke="rgb(111,86,151)" stroke-width="1" opacity="1" d="M 484.5 839 L 487 840.5 Q 487.83 843.13 484.5 842 Q 481.5 840.5 484.5 839 Z " /><path fill="rgb(111,86,151)" stroke="rgb(111,86,151)" stroke-width="1" opacity="1" d="M 726.5 866 L 726 867.5 L 723.5 871 L 720.5 872 L 720.5 871 L 725 868.5 L 726.5 866 Z " /><path fill="rgb(111,86,151)" stroke="rgb(111,86,151)" stroke-width="1" opacity="1" d="M 711.5 871 L 719 872.5 L 712.5 873 L 711.5 871 Z " /><path fill="rgb(111,86,151)" stroke="rgb(111,86,151)" stroke-width="1" opacity="1" d="M 447.5 927 L 450 927.5 L 447.5 928 L 447.5 927 Z " /><path fill="rgb(111,86,151)" stroke="rgb(111,86,151)" stroke-width="1" opacity="1" d="M 456.5 929 L 460 929.5 L 456.5 930 L 456.5 929 Z " /><path fill="rgb(111,86,151)" stroke="rgb(111,86,151)" stroke-width="1" opacity="1" d="M 465.5 930 L 470 930.5 L 465.5 931 L 465.5 930 Z " /><path fill="rgb(111,86,151)" stroke="rgb(111,86,151)" stroke-width="1" opacity="1" d="M 478.5 931 L 483 931.5 L 478.5 932 L 478.5 931 Z " /><path fill="rgb(111,86,151)" stroke="rgb(111,86,151)" stroke-width="1" opacity="1" d="M 781.5 936 L 784 936.5 L 781.5 937 L 781.5 936 Z " /><path fill="rgb(111,86,151)" stroke="rgb(111,86,151)" stroke-width="1" opacity="1" d="M 776.5 937 L 779 937.5 L 776.5 938 L 776.5 937 Z " /><path fill="rgb(111,86,151)" stroke="rgb(111,86,151)" stroke-width="1" opacity="1" d="M 768.5 938 L 772 938.5 L 768.5 939 L 768.5 938 Z " /><path fill="rgb(111,86,151)" stroke="rgb(111,86,151)" stroke-width="1" opacity="1" d="M 731.5 939 L 734 939.5 L 731.5 940 L 731.5 939 Z " /><path fill="rgb(111,86,151)" stroke="rgb(111,86,151)" stroke-width="1" opacity="1" d="M 749.5 939 L 763 939.5 L 749.5 940 L 749.5 939 Z " /><path fill="rgb(111,86,151)" stroke="rgb(111,86,151)" stroke-width="1" opacity="1" d="M 718.5 942 L 721 942.5 L 718.5 943 L 718.5 942 Z " /><path fill="rgb(111,86,151)" stroke="rgb(111,86,151)" stroke-width="1" opacity="1" d="M 708.5 944 L 712 944.5 L 708.5 945 L 708.5 944 Z " /><path fill="rgb(111,86,151)" stroke="rgb(111,86,151)" stroke-width="1" opacity="1" d="M 703.5 945 L 706 945.5 L 703.5 946 L 703.5 945 Z " /><path fill="rgb(111,86,151)" stroke="rgb(111,86,151)" stroke-width="1" opacity="1" d="M 698.5 946 L 701 946.5 L 698.5 947 L 698.5 946 Z " /><path fill="rgb(111,86,151)" stroke="rgb(111,86,151)" stroke-width="1" opacity="1" d="M 692.5 947 L 696 947.5 L 692.5 948 L 692.5 947 Z " /><path fill="rgb(111,86,151)" stroke="rgb(111,86,151)" stroke-width="1" opacity="1" d="M 687.5 948 L 690 948.5 L 687.5 949 L 687.5 948 Z " /><path fill="rgb(111,86,151)" stroke="rgb(111,86,151)" stroke-width="1" opacity="1" d="M 681.5 949 L 684 949.5 L 681.5 950 L 681.5 949 Z " /><path fill="rgb(111,86,151)" stroke="rgb(111,86,151)" stroke-width="1" opacity="1" d="M 575.5 968 L 578 968.5 L 575.5 969 L 575.5 968 Z " /><path fill="rgb(111,86,151)" stroke="rgb(111,86,151)" stroke-width="1" opacity="1" d="M 629.5 968 L 632 968.5 L 629.5 969 L 629.5 968 Z " /><path fill="rgb(111,86,151)" stroke="rgb(111,86,151)" stroke-width="1" opacity="1" d="M 580.5 969 L 584 969.5 L 580.5 970 L 580.5 969 Z " /><path fill="rgb(111,86,151)" stroke="rgb(111,86,151)" stroke-width="1" opacity="1" d="M 623.5 969 L 626 969.5 L 623.5 970 L 623.5 969 Z " /><path fill="rgb(111,86,151)" stroke="rgb(111,86,151)" stroke-width="1" opacity="1" d="M 588.5 970 L 592 970.5 L 588.5 971 L 588.5 970 Z " /><path fill="rgb(111,86,151)" stroke="rgb(111,86,151)" stroke-width="1" opacity="1" d="M 615.5 970 L 619 970.5 L 615.5 971 L 615.5 970 Z " /><path fill="rgb(188,234,244)" stroke="rgb(188,234,244)" stroke-width="1" opacity="1" d="M 636.5 222 L 638 222 L 638.5 224 L 644 224 L 644.5 226 L 649.5 226 L 651.5 228 Q 653.25 224.25 655 227.5 Q 653.65 232.08 659.5 230 L 665.5 234 L 667.5 234 Q 669.75 233.25 669 235.5 Q 670.25 238.25 671.5 236 L 677 236.5 L 676.5 238 L 679.5 237 L 682 238 L 682.5 236 L 684 242.5 L 684 254.5 L 685.5 256 L 689.5 256 L 693.5 257 Q 695 254.5 696.5 258 L 703.5 259 L 705.5 258 L 712 259 L 713 262.5 L 713 264.5 L 713.5 267 L 715.5 267 L 723.5 269 L 729 268 L 729.5 270 L 731.5 269 Q 733.58 272.86 739 272 L 739.5 274 L 741 272.5 L 741 261.5 L 742.5 260 L 743 262 L 745.5 261 L 748 262.5 L 746 263.5 L 748.5 264 L 750 263.5 L 749 266 L 752 266.5 L 751.5 268 L 756.5 270 L 760 269 Q 758.75 272 762.5 271 L 767 274.5 Q 765.88 271.17 768.5 272 L 769 274.5 L 770 287 L 787.5 287 L 790.5 288 L 796.5 288 L 798 288.5 L 798 295.5 L 799 298 L 804.5 300 L 806 299.5 Q 805.25 301.75 807.5 301 L 811.5 304 L 814.5 304 L 816.5 304 Q 822.14 303.36 823.5 307 L 825 306.5 L 825.5 310 Q 828.14 303.14 827.5 293 Q 828.58 295.75 832 295 L 832.5 297 L 834 296.5 L 835 299.5 L 834 301.5 L 835.5 301 L 837.5 300 L 837 301.5 L 840.5 307 L 843.5 308 L 845.5 308 L 851 310 L 851.5 308 L 852.5 310 L 854 309.5 L 855 315 L 852.5 316 L 839 316.5 Q 840 319 844.5 318 L 853.5 326 L 855 324.5 L 855 316 Q 857.38 317.75 863.5 317 L 867 319 Q 865.88 321.67 868.5 321 L 872 323 Q 870.25 327.5 875.5 326 L 876.5 329 L 879 327.5 L 880 331 Q 883 329.75 882 333.5 L 883 334.5 L 883 344 L 898 345.5 L 896.5 348 L 904.5 350 L 906 349.5 Q 909.72 351.78 909.5 358 L 910.5 355 L 912 373 L 927 374.5 L 926 375.5 L 929 378.5 L 928 380.5 L 931 384.5 L 930 386.5 L 932.5 387 Q 936.88 385.5 936 388.5 L 937.5 391 L 938.5 389 L 939 402 L 927 402.5 L 930 403.5 L 929.5 405 L 932 406.5 L 932 409 Q 934.67 407.87 934 410.5 L 938.5 423 L 940 418.5 L 940 416.5 L 940 403.5 L 942 403 L 942 405 Q 944.67 403.88 944 406.5 L 944 408.5 L 944.5 412 L 946.5 411 L 947.5 414 L 949 413.5 L 949.5 415 L 951.5 415 Q 954.5 414.12 953 418.5 Q 949.5 420 952 421.5 L 955 429 L 957 429.5 L 943 431.5 L 947 433.5 L 949 439.5 L 949 441.5 L 951 447.5 L 957 455.5 Q 954.25 457.25 958.5 459 Q 964.63 458.25 967 460 L 969.5 477 L 970.5 475 L 973 479.5 L 972.5 481 Q 974.75 480.25 974 482.5 L 976 487 L 988 488 L 989 490.5 L 987 490.5 L 996 508.5 L 993 510.5 L 996 512 L 994.5 516 Q 988.5 514.5 987 517.5 L 990 524.5 L 990 526.5 L 991 529.5 L 990 531.5 L 991 533.5 L 990 535.5 L 992 539.5 L 991 540.5 Q 994.08 542.25 992.5 544 Q 997 544.5 997 543.5 L 997 517.5 L 998.5 517 L 999 519.5 L 999 524.5 L 1003 534.5 L 1001 534.5 L 1003 538.5 Q 1000.25 539.58 1001 543 L 1003 543.5 L 997 545 L 996 549.5 L 996 551.5 L 997 555.5 L 997 573 Q 1002.37 571.5 1004 574.5 L 1003 576.5 L 1005 580.5 Q 1003.5 584.88 1006.5 584 L 1008 585.5 L 1009 592.5 L 1008 595.5 L 1009 598.5 L 1007.5 602 L 998 602.5 Q 1001.08 604.25 999.5 606 Q 1002.5 605.12 1001 609.5 L 1002 611.5 L 1001 613.5 L 1003.5 614 Q 1006.5 613.13 1005 617.5 L 1003 617.5 L 1003 624.5 Q 1005.75 625.58 1005 629 L 1007.5 630 L 1019 630 L 1020 633.5 L 1019 638 Q 1016.33 636.88 1017 639.5 L 1019.5 644 L 1021 644.5 L 1019 647.5 Q 1023 648.5 1022 654.5 L 1021 658 L 1009 659 L 1007 668.5 L 1007 681.5 L 1008 686 L 1016.5 687 L 1018 688.5 L 1014 694.5 L 1015 698.5 L 1014 701.5 L 1016 707.5 L 1014 712.5 L 1015 715 L 1003.5 716 L 1001 717.5 L 1001.5 719 L 1000 719.5 L 1001 721.5 L 1000 726.5 L 997 729.5 L 997 744 L 1010 745.5 L 1007 746 L 1007 750.5 Q 1002.11 752.67 1003 759 Q 1000.33 757.88 1001 760.5 L 1001.5 762 L 1000 761.5 L 1001 765 Q 998.33 763.88 999 766.5 L 999 768.5 L 997.5 772 L 996 745 Q 993.33 743.87 994 746.5 L 994 748.5 L 992 753.5 Q 994.5 755 991 756.5 L 991 760 Q 988.33 758.88 989 761.5 L 984.5 771 L 982 771.5 L 985.5 773 L 996 773.5 L 993 775 L 993 780 L 991.5 780 L 991.5 781 L 993 781.5 L 992 783.5 Q 994.25 784.75 991.5 786 Q 990.25 783.75 989 786.5 L 987 789.5 L 988 790.5 L 982 796.5 L 982.5 798 L 981 798 L 980.5 800 L 975.5 800 L 974.5 801 L 968 801 L 966.5 821 L 965 820.5 L 964 822.5 L 964.5 824 Q 963 821.5 961.5 825 Q 959.25 824.25 960 826.5 L 959.5 829 L 948.5 829 L 942 830.5 L 943 831.5 L 940 834.5 L 938.5 855 L 937.5 853 L 936 855.5 L 936.5 857 L 920 858 Q 921 861 918 860 L 918 862.5 L 912 869.5 L 911 885 L 907.5 886 L 905.5 886 Q 896 884 894 889.5 L 891 895 L 888 895 L 888 898 L 884 900 L 884 903.5 L 883 904.5 L 883 914 Q 877.38 915.92 867.5 915 L 866 916.5 Q 866.75 918.75 864.5 918 L 859.5 924 Q 856.87 923.33 858 926 L 855 926 L 855 935.5 L 854 938 L 849 941.5 L 848.5 943 L 830.5 943 L 827 944 L 825.5 952 L 823.5 951 L 818 954 L 817.5 956 L 816 955.5 L 815 959 L 810.5 958 Q 809 961.5 807.5 959 L 804 958 Q 805.5 961.75 802.5 961 L 799 963.5 L 798.5 965 L 798 953.5 L 796.5 951 L 795.5 953 Q 794 950.5 792.5 954 Q 786.25 952.25 784.5 955 L 782.5 955 L 780 955 Q 781.25 958 777.5 957 Q 775.49 959.8 771 959 L 770.5 957 Q 768.04 962.73 769 971 L 741.5 971 Q 740.38 970.87 741 965.5 Q 740.25 963.25 736.5 964 L 731.5 966 L 727.5 965 L 721.5 967 L 719.5 966 L 716.5 969 L 713 968.5 L 713.5 972 L 715.5 972 L 740 972.5 L 737 974.5 L 737.5 976 L 735.5 976 L 731.5 977 L 729.5 977 L 721.5 979 L 717.5 978 L 713 980 L 712 972 L 687 972.5 L 687.5 974 L 684 975 L 683 987 Q 679.58 986.25 678.5 989 L 677 988.5 Q 677.83 991.13 674.5 990 L 672.5 989 L 664.5 991 L 661.5 989 L 661 991 L 656 993 Q 654 989.87 655 983 L 651 984 L 650.5 986 L 648.5 986 L 645 985 Q 646.31 988.33 641.5 987 L 638.5 989 L 635.5 988 L 632.5 989 L 627 988 L 627 998.5 L 625.5 999 L 620.5 1000 L 614.5 998 L 613.5 999 L 599 1000 Q 600.13 992.42 598 989 L 586.5 986 L 584.5 987 L 582.5 987 Q 577.75 985.75 576.5 988 L 570 985 Q 571.5 991.88 568.5 995 Q 567.25 992.75 566 995.5 L 566.5 997 L 561.5 994 L 560 994.5 L 560.5 993 L 551 989.5 Q 552.25 985.75 548.5 987 L 548.5 988 L 550 988.5 L 548.5 989 L 543 988 L 542.5 991 L 541 984.5 L 542 982.5 L 541 976 L 537.5 977 L 535 976 L 535 974 Q 530.75 975 531.5 972 L 514.5 972 L 512 966 Q 508.58 966.75 507.5 964 L 493.5 961 L 487 957 L 486.5 955 L 484 956 L 482.5 967 L 482 963 L 474.5 964 L 472.5 963 L 469.5 964 L 459.5 958 L 457.5 959 L 456 957.5 L 455 947.5 L 453.5 946 Q 446.25 947.75 444.5 944 L 442.5 944 Q 435 945.5 431.5 943 L 429.5 943 Q 424.92 944.35 427 938.5 L 425.5 934 L 423.5 935 L 416.5 932 L 409 926 Q 410.35 922.33 404.5 924 L 398.5 920 L 397.5 930 L 392.5 924 Q 389.88 924.67 391 922 L 389 922 L 389 920 L 385.5 920 Q 384.25 917.75 383 920.5 L 384 922.5 L 383 922.5 Q 383.75 920.25 381.5 921 L 379 920.5 L 380.5 918 L 375 916.5 L 379.5 915 L 395 915 Q 396.13 912.33 393.5 913 L 381.5 905 L 375 898.5 Q 374.75 893.75 371.5 892 L 370 892.5 L 370 906.5 L 367.5 910 L 364.5 906 L 363 906.5 L 364 904.5 L 360 898.5 L 361 895 L 363 894.5 L 360.5 893 L 358.5 893 L 351 887.5 L 353.5 886 L 355.5 886 Q 362.25 887.75 364 884.5 L 363.5 883 L 362 883.5 L 363 880.5 L 359 877.5 L 359.5 876 L 351 871 L 352 868.5 L 349 863.5 L 350 861.5 L 347 860 L 347 858 L 342 858 L 341 860.5 L 340.5 878 L 339 873.5 Q 341.5 872 340 866.5 L 337 865 L 338 861.5 L 333 858.5 L 342 856.5 L 341 855.5 L 341 846 L 337 843.5 L 333 834 L 331 834 Q 332.13 831.33 329.5 832 L 329.5 830 L 314 829 L 314 821.5 L 313 820.5 L 313 805.5 L 311.5 804 L 310 804 L 309.5 801 L 300.5 801 L 293 799.5 L 293.5 798 Q 291.25 798.75 292 796.5 L 289 789.5 Q 291.75 787.75 287.5 786 L 286 785.5 L 286 778.5 L 285 775.5 Q 286.25 771.75 282.5 773 L 276 772 L 276 770 Q 273.33 771.13 274 768.5 L 274 766.5 L 272 763.5 L 272 761.5 L 274 756.5 L 271 754.5 L 272 750.5 L 271 750.5 L 270.5 752 L 269.5 749 L 268 749.5 L 267 747.5 L 267.5 746 L 265 745.5 L 280 743.5 Q 277.25 741.75 279 735.5 L 274 729.5 L 274 727.5 L 273 723.5 L 274 721.5 L 273 718.5 Q 275.25 717.25 272.5 716 L 258 714.5 L 262 714 Q 263.75 706.93 259.5 705 L 258 705.5 L 259.5 703 L 261 703.5 L 260 694 L 257 694 L 257 688 Q 260.45 686.3 267.5 687 L 269 685.5 L 268 679.5 L 270 672.5 L 268 668.5 L 269 666.5 L 266 662.5 L 268 662 L 266.5 659 L 257 658 L 257 633.5 L 256 632.5 L 257 630 L 265.5 630 L 268 627.5 L 262 620.5 L 264 617.5 L 264 613.5 Q 262.75 608.75 265 607.5 L 264 602 L 256 602 L 256 629.5 L 254.5 630 L 251 628.5 L 251.5 627 L 250 626.5 L 251 624.5 L 250 621.5 L 250 619.5 Q 248.5 612.5 251.5 613 L 251 611.5 L 250 604.5 L 248 602.5 L 256 602 L 256 573.5 Q 255.88 572.37 250.5 573 Q 247.75 571.75 250 570.5 L 248 567.5 L 251.5 561 L 253.5 562 L 254 551.5 L 254 549.5 Q 252.33 543.65 256 545 L 256 572.5 Q 256.12 573.63 261.5 573 L 263 569.5 L 262 564.5 L 263 561.5 L 263 557.5 L 267 546.5 L 265.5 545 Q 259.38 545.75 257 544 L 257 536.5 L 258.5 536 L 258 534.5 Q 257.25 532.25 259.5 533 L 259 531.5 L 264 518.5 L 263.5 517 L 282 515.5 L 280 515 Q 278.88 512.33 281.5 513 L 284 512 L 285 509.5 L 285 494.5 L 286 492.5 L 285 488 L 297 486.5 L 297 484.5 L 302 476.5 L 301 475.5 L 304.5 472 L 306 471.5 Q 303.5 470 307 468.5 L 308 464.5 L 307 461.5 L 305.5 459 Q 300.25 460.25 299 457.5 L 300 454 L 298 453.5 L 298 446.5 Q 299.39 440.39 304 437.5 Q 301.5 436 305 434.5 L 306 432.5 L 305.5 431 L 313 430 L 313 413.5 L 314 412.5 L 314 403.5 L 315.5 402 Q 324.43 403.14 328 400 Q 326.88 397.33 329.5 398 Q 332.25 396.6 331 392 Q 334.33 393.31 333 388.5 L 338 385 Q 336.88 382.33 339.5 383 L 341 381.5 L 341 373 L 331.5 373 L 331 370.5 L 334 366.5 L 333.5 365 L 335 365 L 335 363 Q 337.67 364.13 337 361.5 L 338.5 359 L 337 358.5 Q 340.92 355.92 340.5 349 L 341 365.5 L 342 372 L 345 370.5 L 347 367.5 L 348 361 L 352 360 L 353.5 357 L 358 354.5 L 361.5 349 L 369 345.5 L 366.5 344 L 353.5 344 L 351 342.5 L 353 342 L 355 337 Q 357.67 338.13 357 335.5 L 360 333.5 L 359.5 332 L 365 331 Q 363.75 328 367.5 329 L 369 328.5 Q 371.25 333.25 370 341.5 L 371.5 343 L 373 338 L 375 338 Q 373.5 334.25 376.5 335 L 382 331 L 383.5 328 L 385.5 328 L 391 325 Q 389.88 322.33 392.5 323 Q 393.58 320.25 397 321 L 398 316 Q 388.76 317.38 383 314.5 L 386 312.5 L 387.5 308 L 389 308.5 L 390.5 305 Q 392 307.5 393.5 304 L 395.5 306 L 398 306.5 L 398 315.5 L 399.5 315 L 404.5 315 L 405 313 L 406.5 313 L 412.5 308 L 415 309 L 415.5 307 L 417 307.5 Q 415.88 304.17 418.5 305 L 420 304.5 L 420.5 306 L 423.5 302 L 426 303 L 427 300.5 L 427.5 290 L 428.5 292 L 429 288 L 455 287 L 456.5 276 L 458.5 277 L 465 275.5 L 463 275 L 464.5 272 L 467.5 271 L 470.5 273 L 471.5 271 L 472.5 274 L 474.5 273 L 477.5 274 L 482 271.5 L 482.5 270 L 484 276.5 L 484 278.5 Q 483 283 485.5 284 L 486.5 282 L 488.5 283 L 491.5 281 L 495.5 281 L 501.5 278 L 509 276.5 L 508.5 275 L 511 276 L 511.5 278 L 514 264 L 517 263.5 L 516.5 260 L 520.5 262 L 526.5 259 L 541 259 L 542.5 266 L 544.5 263 L 549 262 Q 547.75 259 551.5 260 L 550.5 258 L 542 258 L 542 246.5 L 543 246.5 L 543.5 248 L 545.5 248 L 547.5 249 L 553 248 Q 551.8 244.33 557 246 L 559 242 L 563.5 242 L 563.5 241 L 561.5 240 L 560 240.5 L 563 238.5 L 562.5 240 L 565.5 238 Q 566.75 240.25 568 237.5 L 568.5 236 L 570 239.5 Q 568.35 249.15 571.5 254 L 574.5 248 L 577.5 247 L 579.5 247 L 588.5 245 L 599 239.5 L 599 231.5 L 600.5 230 L 605.5 231 L 608.5 230 L 627 230 L 628 224 Q 633.99 225.2 636.5 222 Z M 627 230 L 627 236 L 639 236 L 647 240 L 649 239 L 654 241 L 655 242 L 655 230 L 627 230 Z M 616 253 L 615 254 L 602 255 L 584 261 L 570 269 L 552 284 L 541 290 L 534 291 L 515 298 L 487 298 Q 485 301 479 299 L 473 301 L 468 301 L 447 308 Q 415 322 391 344 Q 365 366 347 397 Q 339 410 334 428 L 331 444 L 330 462 L 313 498 Q 295 513 283 535 L 277 550 L 273 569 L 273 590 Q 276 591 274 597 L 279 615 L 285 629 L 285 642 L 286 643 L 286 654 L 287 655 Q 285 661 286 672 L 285 673 L 285 700 L 286 701 L 286 709 L 289 723 L 300 752 L 315 776 L 329 793 L 352 827 Q 361 864 383 889 Q 402 910 431 923 L 454 930 L 487 933 L 520 946 Q 534 956 553 963 L 573 969 L 591 971 L 592 972 L 615 972 L 616 971 L 623 971 L 639 968 L 654 963 L 678 951 L 709 946 L 714 944 L 728 942 L 732 940 L 768 940 L 794 935 Q 833 922 860 897 Q 875 883 887 866 L 905 836 L 920 824 L 943 800 L 961 770 L 977 726 L 983 698 L 984 687 L 985 686 L 985 676 L 986 675 L 986 648 Q 983 646 985 640 Q 980 616 969 599 L 968 579 L 967 578 L 968 565 L 969 564 L 969 555 L 970 554 L 969 530 L 967 520 L 962 506 Q 953 487 939 474 L 927 450 Q 921 424 909 405 L 887 375 Q 872 357 853 344 L 832 333 L 811 325 L 781 308 L 738 292 L 692 282 L 664 264 L 645 256 L 636 254 L 628 254 L 627 253 L 616 253 Z M 835 303 Q 834 306 837 305 Q 838 302 835 303 Z M 314 431 L 315 443 L 315 433 L 316 432 L 314 431 Z M 996 573 L 994 575 L 995 586 L 996 586 L 996 573 Z M 258 650 L 258 652 L 260 651 L 258 650 Z M 287 764 L 285 767 L 285 773 L 291 773 Q 294 771 290 770 Q 291 766 289 767 L 287 764 Z M 363 897 L 361 899 L 363 899 L 363 897 Z M 823 942 L 823 943 L 826 943 L 823 942 Z " /><path fill="rgb(188,234,244)" stroke="rgb(188,234,244)" stroke-width="1" opacity="1" d="M 588.5 229 L 591 229.5 L 588.5 230 L 588.5 229 Z " /><path fill="rgb(188,234,244)" stroke="rgb(188,234,244)" stroke-width="1" opacity="1" d="M 713 254 Q 716.15 253.25 715.5 256 L 727.5 256 L 733 257.5 L 712.5 258 L 713 256.5 L 713 254 Z " /><path fill="rgb(188,234,244)" stroke="rgb(188,234,244)" stroke-width="1" opacity="1" d="M 798 284 L 804 285.5 Q 803.25 287.75 799.5 287 L 798 284 Z " /><path fill="rgb(188,234,244)" stroke="rgb(188,234,244)" stroke-width="1" opacity="1" d="M 766.5 381 L 769 381.5 L 766.5 382 L 766.5 381 Z " /><path fill="rgb(188,234,244)" stroke="rgb(188,234,244)" stroke-width="1" opacity="1" d="M 771.5 382 L 774 382.5 L 771.5 383 L 771.5 382 Z " /><path fill="rgb(188,234,244)" stroke="rgb(188,234,244)" stroke-width="1" opacity="1" d="M 751.5 402 L 752 404.5 L 751 404.5 L 751.5 402 Z " /><path fill="rgb(188,234,244)" stroke="rgb(188,234,244)" stroke-width="1" opacity="1" d="M 839.5 437 L 840 443.5 L 839 443.5 L 839.5 437 Z " /><path fill="rgb(188,234,244)" stroke="rgb(188,234,244)" stroke-width="1" opacity="1" d="M 838.5 447 L 838 448.5 L 837.5 450 L 837 448.5 L 838.5 447 Z " /><path fill="rgb(188,234,244)" stroke="rgb(188,234,244)" stroke-width="1" opacity="1" d="M 816.5 459 L 822 459.5 L 816.5 460 L 816.5 459 Z " /><path fill="rgb(188,234,244)" stroke="rgb(188,234,244)" stroke-width="1" opacity="1" d="M 284.5 478 L 285 487 L 280 486.5 L 284 485.5 L 282 485 L 284.5 478 Z " /><path fill="rgb(188,234,244)" stroke="rgb(188,234,244)" stroke-width="1" opacity="1" d="M 255.5 664 L 256 675.5 L 255 675.5 L 254 665.5 L 255.5 664 Z " /><path fill="rgb(188,234,244)" stroke="rgb(188,234,244)" stroke-width="1" opacity="1" d="M 255.5 681 L 256 685 Q 253 686.25 254 682.5 L 255.5 681 Z " /><path fill="rgb(188,234,244)" stroke="rgb(188,234,244)" stroke-width="1" opacity="1" d="M 492.5 972 L 512 972 L 512 979.5 L 511 979.5 L 509.5 976 L 506 976 Q 507.25 973 503.5 974 L 502.5 973 L 492.5 973 L 492.5 972 Z " /><path fill="rgb(188,234,244)" stroke="rgb(188,234,244)" stroke-width="1" opacity="1" d="M 632.5 1001 L 635 1001.5 L 632.5 1002 L 632.5 1001 Z " /><path fill="rgb(247,248,249)" stroke="rgb(247,248,249)" stroke-width="1" opacity="1" d="M 0 0 L 1254 0 L 1254 1254 L 0 1254 L 0 0 Z M 637 222 Q 634 225 628 224 L 627 230 L 655 230 L 655 228 Q 653 224 652 228 L 650 226 L 645 226 L 644 224 L 639 224 L 638 222 L 637 222 Z M 589 229 L 589 230 L 591 230 L 589 229 Z M 601 230 L 599 232 L 599 240 L 589 245 L 580 247 L 578 247 L 575 248 L 572 254 Q 568 249 570 240 L 569 236 L 568 238 Q 567 240 566 238 Q 563 237 564 240 L 562 241 L 564 241 L 564 242 L 559 242 L 557 246 L 553 246 L 554 249 L 553 248 L 548 249 L 546 248 L 544 248 L 543 247 L 542 247 L 542 258 L 551 258 L 552 260 Q 548 259 549 262 L 545 263 L 543 266 L 541 259 L 527 259 L 521 262 L 518 261 Q 515 262 517 264 L 514 264 L 512 278 L 511 276 L 506 278 L 502 278 L 496 281 L 492 281 L 489 283 L 487 282 L 486 284 Q 483 283 484 279 L 484 277 L 483 270 L 482 272 L 478 274 L 475 273 L 473 274 L 472 271 L 471 273 L 468 271 L 465 272 L 463 275 L 465 276 L 459 277 L 457 276 L 455 287 L 429 288 L 429 292 L 428 290 L 427 301 L 426 303 L 424 302 L 421 306 L 420 305 L 419 305 Q 416 304 417 308 L 416 307 L 415 309 L 413 308 L 407 313 L 405 313 L 405 315 L 400 315 L 397 321 Q 394 320 393 323 Q 390 322 391 325 L 386 328 L 384 328 L 382 331 L 377 335 Q 374 334 375 338 L 373 338 L 372 343 L 370 342 Q 371 333 369 329 L 368 329 Q 364 328 365 331 L 360 332 L 360 334 L 357 336 Q 358 338 355 337 L 353 342 L 351 343 L 354 344 L 367 344 L 369 346 L 362 349 L 358 355 L 354 357 L 352 360 L 348 361 L 347 368 L 345 371 L 342 372 L 341 366 L 341 349 L 339 357 L 338 359 L 340 358 L 337 362 Q 338 364 335 363 L 335 365 L 334 365 L 334 367 L 331 371 L 332 373 L 341 373 L 341 382 L 340 383 Q 337 382 338 385 L 333 389 Q 334 393 331 392 Q 332 397 330 398 Q 327 397 328 400 Q 324 403 316 402 L 314 404 L 314 413 L 313 414 L 313 430 L 306 431 L 306 433 L 305 435 L 305 437 Q 300 440 298 447 L 298 454 L 300 454 L 299 458 Q 300 460 306 459 L 307 462 L 308 465 L 307 469 Q 303 470 306 472 L 305 472 L 301 476 L 302 477 L 297 485 L 297 487 L 285 488 L 286 493 L 285 495 L 285 510 L 284 512 L 282 513 Q 279 512 280 515 L 282 516 L 264 517 L 264 519 L 259 532 L 260 533 Q 257 532 258 535 L 259 536 L 257 537 L 257 544 Q 259 546 266 545 L 267 547 L 263 558 L 263 562 L 262 565 L 263 570 L 263 572 Q 261 574 256 573 L 256 602 L 257 602 L 264 602 L 265 608 Q 263 609 264 614 L 264 618 L 262 621 L 268 628 L 266 630 L 257 630 L 256 633 L 257 634 L 257 658 L 267 659 L 268 662 L 266 663 L 269 667 L 268 669 L 270 673 L 268 680 L 269 686 L 268 687 Q 260 686 257 688 L 257 694 L 260 694 L 262 705 L 261 707 L 262 708 L 262 714 L 258 715 L 273 716 Q 275 717 273 719 L 274 722 L 273 724 L 274 728 L 274 730 L 279 736 Q 277 742 280 744 L 265 746 L 268 746 L 267 748 L 268 750 L 270 749 L 271 752 L 271 751 L 272 751 L 271 755 L 274 757 L 272 762 L 272 764 L 274 767 L 274 769 Q 273 771 276 770 L 276 772 L 285 773 Q 284 767 287 764 L 289 767 Q 291 766 290 770 Q 294 771 291 773 L 285 773 L 285 776 L 286 779 L 286 786 L 288 786 Q 292 788 289 790 L 292 797 Q 291 799 294 798 L 293 800 L 301 801 L 310 801 L 310 804 L 312 804 L 313 806 L 313 821 L 314 822 L 314 829 L 330 830 L 330 832 Q 332 831 331 834 L 333 834 L 337 844 L 341 846 L 341 856 L 342 857 L 333 859 L 337 860 L 338 863 L 340 867 Q 342 872 339 874 L 341 878 L 341 861 L 342 858 L 347 858 L 347 860 L 350 862 L 349 864 L 352 869 L 351 871 L 360 876 L 359 878 L 362 879 L 364 885 Q 362 888 356 886 L 354 886 L 351 888 L 359 893 L 361 893 L 363 894 L 363 895 Q 360 894 361 898 L 363 897 L 363 899 L 361 900 L 364 905 L 363 907 L 365 906 L 366 909 L 369 909 L 370 907 L 370 893 L 372 892 Q 375 894 375 899 L 382 905 L 394 913 Q 396 912 395 915 L 380 915 L 375 917 L 381 918 L 380 920 L 383 921 Q 384 917 386 920 L 389 920 L 389 922 L 391 922 Q 390 925 393 924 L 398 930 L 399 920 L 405 924 Q 410 922 409 926 L 417 932 L 424 935 L 426 934 L 427 939 Q 425 944 430 943 L 432 943 Q 435 946 443 944 L 445 944 Q 446 948 454 946 L 455 948 L 456 958 L 459 959 L 457 957 L 458 955 L 458 957 Q 462 962 470 964 L 473 963 L 475 964 L 482 963 L 483 967 L 484 956 L 487 955 L 487 957 L 494 961 L 508 964 Q 509 967 512 966 L 515 972 L 532 972 Q 531 975 535 974 L 535 976 L 538 977 L 541 976 L 542 983 L 541 985 L 543 991 L 543 988 L 549 987 Q 552 986 551 990 L 566 996 Q 567 992 569 995 Q 572 992 570 985 L 577 988 Q 578 986 583 987 L 585 987 L 587 986 L 598 989 Q 600 992 599 1000 L 614 999 L 615 998 L 621 1000 L 626 999 L 627 999 L 627 988 L 633 989 L 636 988 L 639 989 L 642 987 Q 646 988 645 985 L 649 986 L 651 986 L 651 984 L 655 983 L 655 991 L 656 992 Q 655 994 658 993 L 657 992 L 660 991 Q 662 992 661 990 L 663 990 L 665 989 L 667 990 Q 671 991 673 989 L 675 990 Q 678 991 677 989 Q 678 986 680 988 L 683 987 L 684 975 L 688 974 L 687 973 L 712 972 L 713 980 L 718 978 L 722 979 L 730 977 L 732 977 Q 737 976 740 973 L 716 972 L 714 972 L 713 969 L 717 969 L 720 966 L 722 967 L 728 965 L 732 966 L 737 964 Q 740 963 741 966 Q 740 971 742 971 L 769 971 Q 768 963 771 957 L 771 959 Q 775 960 778 957 Q 781 958 780 955 L 783 955 L 785 955 Q 786 952 793 954 Q 794 950 796 953 L 797 951 L 798 954 L 799 965 L 799 964 L 803 961 Q 806 962 804 958 L 808 959 Q 809 962 811 958 L 815 959 L 816 956 L 818 956 L 818 954 L 824 951 L 826 952 L 827 944 L 831 943 L 849 943 L 849 942 L 854 938 L 855 936 L 855 926 L 858 926 Q 857 923 860 924 L 865 918 Q 867 919 866 917 L 868 915 Q 877 916 883 914 L 883 905 L 884 904 L 884 900 L 888 898 L 888 895 L 891 895 L 894 890 Q 896 884 906 886 L 908 886 L 911 885 L 912 870 L 918 863 L 918 860 Q 921 861 920 858 L 937 857 L 936 856 L 938 853 L 939 855 L 940 835 L 943 832 L 942 831 L 949 829 L 960 829 L 960 827 Q 959 824 962 825 L 965 821 L 967 821 L 968 801 L 975 801 L 976 800 L 981 800 L 981 798 L 983 798 L 982 797 L 988 791 L 987 790 Q 986 787 989 788 L 993 782 L 992 781 L 992 780 L 993 780 L 993 775 L 996 774 L 986 773 L 982 772 L 985 771 L 989 762 Q 988 759 991 760 L 991 757 Q 994 755 992 754 L 994 749 L 994 747 Q 993 744 996 745 L 998 772 L 999 769 L 999 767 Q 998 764 1001 765 L 1000 763 L 1001 761 Q 1000 758 1003 759 Q 1002 753 1007 751 L 1007 746 L 1010 746 L 997 744 L 997 730 L 1000 727 L 1001 722 L 1000 720 L 1002 719 L 1001 718 L 1004 716 L 1015 715 L 1014 713 L 1016 708 L 1014 702 L 1015 699 L 1014 695 L 1018 689 L 1017 687 L 1008 686 L 1007 682 L 1007 669 L 1009 659 L 1021 658 L 1022 655 Q 1023 649 1019 648 L 1021 645 L 1020 644 L 1017 640 Q 1016 637 1019 638 L 1020 634 L 1019 630 L 1008 630 L 1005 629 Q 1006 626 1003 625 L 1003 618 L 1005 618 Q 1006 613 1004 614 L 1001 614 L 1002 611 L 1001 611 L 1001 610 Q 1002 605 1000 606 Q 1001 604 998 603 L 1008 602 L 1009 599 L 1008 596 L 1009 593 L 1008 586 L 1007 586 L 1007 584 Q 1003 585 1005 581 L 1003 577 L 1004 575 Q 1002 572 997 573 L 997 556 L 996 552 L 996 550 L 997 545 L 1003 544 L 1001 543 Q 1000 540 1003 539 L 1001 535 L 1003 535 L 999 525 L 999 520 L 999 517 L 997 518 L 997 544 Q 997 545 993 544 Q 994 542 991 541 L 992 540 L 990 536 L 991 534 L 990 532 L 991 530 L 990 527 L 990 525 L 987 518 Q 989 514 995 516 L 996 512 L 993 511 L 996 509 L 987 492 L 988 488 L 976 487 L 974 483 Q 975 480 973 481 L 973 480 L 971 475 L 970 477 L 967 460 Q 965 458 959 459 Q 954 457 957 456 L 951 448 L 949 442 L 949 440 L 947 434 L 943 432 L 957 430 L 955 429 L 952 422 Q 949 420 953 419 Q 954 414 952 415 L 950 415 L 949 414 L 948 414 L 947 411 L 945 412 L 944 409 L 944 407 Q 945 404 942 405 L 942 403 L 940 404 L 940 417 L 940 419 L 939 423 L 934 411 Q 935 408 932 409 L 932 407 L 927 403 L 939 402 L 939 389 L 938 391 L 936 389 Q 937 386 933 387 L 930 387 L 931 385 L 928 381 L 929 379 L 926 376 L 927 375 L 912 373 L 911 355 L 910 358 Q 910 352 906 350 L 905 350 L 897 348 L 898 346 L 883 344 L 883 335 L 882 334 L 882 331 Q 879 332 880 330 L 878 330 L 879 328 L 877 329 L 876 326 Q 870 328 872 323 L 869 321 Q 866 322 867 319 L 864 317 Q 857 318 855 316 L 855 325 L 854 326 L 845 318 Q 840 319 839 317 L 853 316 L 855 315 L 854 310 L 852 311 L 846 308 L 844 308 L 841 307 L 839 305 L 837 304 Q 838 306 835 305 Q 834 302 837 303 Q 838 300 836 301 L 834 302 L 835 300 L 834 297 L 833 297 L 832 295 Q 829 296 828 293 Q 828 303 826 310 L 825 307 L 824 307 Q 822 303 817 304 L 815 304 L 812 304 L 808 301 Q 805 302 806 300 L 805 300 L 799 298 L 798 296 L 798 289 L 797 288 L 791 288 L 788 287 L 770 287 L 769 275 L 769 272 Q 766 271 767 275 L 763 271 Q 759 272 760 269 L 757 270 L 752 268 L 752 266 Q 748 267 749 264 L 743 262 L 743 260 L 741 262 L 741 273 L 740 274 L 739 272 Q 734 273 732 269 L 730 270 L 729 268 L 724 269 L 716 267 L 714 267 L 713 265 L 713 263 L 712 259 L 706 258 L 704 259 L 697 258 Q 695 254 694 257 L 690 256 L 686 256 L 684 255 L 684 243 L 683 236 L 682 238 L 680 237 L 677 238 L 677 237 L 672 236 Q 670 238 669 236 Q 670 233 668 234 L 666 234 Q 662 229 655 230 L 655 242 L 650 240 L 648 240 Q 646 237 641 238 L 639 236 L 627 236 L 627 230 L 609 230 L 606 231 L 601 230 Z M 713 254 L 713 257 L 713 258 L 733 258 L 728 256 L 716 256 Q 716 253 713 254 Z M 798 284 L 800 287 Q 803 288 804 286 L 798 284 Z M 394 304 Q 392 307 391 305 L 389 309 L 388 308 L 386 313 L 383 315 L 388 316 L 398 316 L 398 306 Q 395 307 394 304 Z M 311 399 Q 310 402 313 401 Q 314 398 311 399 Z M 285 478 L 282 485 L 284 486 L 280 487 L 285 487 L 285 478 Z M 254 545 L 254 550 L 254 552 L 254 562 L 252 561 L 248 568 Q 247 570 250 569 L 249 572 Q 251 574 256 573 L 256 546 L 254 545 Z M 249 602 L 250 605 Q 249 610 252 613 L 250 613 L 251 620 L 251 619 L 252 619 L 250 622 L 251 625 L 250 627 L 252 627 L 251 629 L 256 630 L 256 603 L 256 602 L 249 602 Z M 256 664 L 254 666 L 255 676 L 256 676 L 256 664 Z M 256 681 L 254 683 Q 253 686 256 685 L 256 681 Z M 260 703 L 258 706 L 261 706 L 260 703 Z M 338 863 Q 336 866 339 865 L 338 863 Z M 424 944 L 426 947 Q 427 943 424 944 Z M 493 972 L 493 973 L 503 973 L 504 974 Q 507 973 506 976 L 510 976 L 511 980 L 512 980 L 512 972 L 493 972 Z M 633 1001 L 633 1002 L 635 1002 L 633 1001 Z " /><path fill="rgb(247,248,249)" stroke="rgb(247,248,249)" stroke-width="1" opacity="1" d="M 769.5 381 L 782.5 382 L 792.5 385 L 802.5 390 Q 816.57 398.93 827 411.5 L 836 425.5 Q 835.96 431.54 839 434.5 L 839 446.5 L 832.5 456 Q 825.6 461.1 811.5 459 Q 784.75 450.75 768 432.5 Q 759.42 424.08 754 412.5 L 751 397.5 Q 752.89 388.39 759.5 384 L 769.5 381 Z M 772 382 L 772 383 L 774 383 L 772 382 Z " /><path fill="rgb(247,248,249)" stroke="rgb(247,248,249)" stroke-width="1" opacity="1" d="M 314 431 L 316 431.5 L 315 432.5 L 314.5 443 L 314 431 Z " /><path fill="rgb(247,248,249)" stroke="rgb(247,248,249)" stroke-width="1" opacity="1" d="M 995.5 573 L 996 585.5 L 995 585.5 L 994 574.5 L 995.5 573 Z " /><path fill="rgb(247,248,249)" stroke="rgb(247,248,249)" stroke-width="1" opacity="1" d="M 258 650 L 260 650.5 L 258 651.5 L 258 650 Z " /><path fill="rgb(247,248,249)" stroke="rgb(247,248,249)" stroke-width="1" opacity="1" d="M 822.5 942 L 826 942.5 L 822.5 943 L 822.5 942 Z " /><path fill="rgb(144,169,172)" stroke="rgb(144,169,172)" stroke-width="1" opacity="1" d="M 615.5 253 L 627 253.5 L 615.5 254 L 615.5 253 Z " /><path fill="rgb(144,169,172)" stroke="rgb(144,169,172)" stroke-width="1" opacity="1" d="M 606.5 254 L 609 254.5 L 606.5 255 L 606.5 254 Z " /><path fill="rgb(144,169,172)" stroke="rgb(144,169,172)" stroke-width="1" opacity="1" d="M 633.5 254 L 636 254.5 L 633.5 255 L 633.5 254 Z " /><path fill="rgb(144,169,172)" stroke="rgb(144,169,172)" stroke-width="1" opacity="1" d="M 622.5 275 L 626 275.5 Q 624.75 278.25 623.5 276 L 622.5 275 Z " /><path fill="rgb(144,169,172)" stroke="rgb(144,169,172)" stroke-width="1" opacity="1" d="M 607.5 276 L 615 276.5 L 601.5 279 L 601.5 278 L 607.5 276 Z " /><path fill="rgb(144,169,172)" stroke="rgb(144,169,172)" stroke-width="1" opacity="1" d="M 627.5 276 L 641.5 278 L 656.5 285 L 664 290.5 L 662.5 290 L 660.5 289 L 657.5 290 L 656 289.5 L 654.5 293 Q 652.75 290.25 651 294.5 L 650.5 297 L 647 295.5 Q 652.5 295 654 290.5 L 653 288.5 L 653.5 287 L 652 286.5 L 653 284 L 644 282 L 643 284.5 L 643.5 288 L 640.5 287 L 637.5 290 L 635.5 291 L 635.5 289 Q 633.25 288.25 634 290.5 L 633 290.5 L 635 286.5 Q 633.5 283.5 632 286.5 L 632.5 288 L 631 288 L 631 283 Q 634.83 283.75 636 280.5 Q 637.25 276.75 633.5 278 Q 632.25 275.75 627.5 277 L 627.5 276 Z M 636 285 L 637 287 L 639 287 Q 640 284 636 285 Z " /><path fill="rgb(144,169,172)" stroke="rgb(144,169,172)" stroke-width="1" opacity="1" d="M 597.5 279 L 600 279.5 L 595.5 281 L 595.5 280 L 597.5 279 Z " /><path fill="rgb(144,169,172)" stroke="rgb(144,169,172)" stroke-width="1" opacity="1" d="M 590.5 282 L 592 282.5 L 591 283.5 L 592.5 286 L 589.5 284 L 587.5 285 L 587.5 284 L 590.5 282 Z " /><path fill="rgb(144,169,172)" stroke="rgb(144,169,172)" stroke-width="1" opacity="1" d="M 692.5 282 L 695 282.5 L 692.5 283 L 692.5 282 Z " /><path fill="rgb(144,169,172)" stroke="rgb(144,169,172)" stroke-width="1" opacity="1" d="M 697.5 283 L 700 283.5 L 697.5 284 L 697.5 283 Z " /><path fill="rgb(144,169,172)" stroke="rgb(144,169,172)" stroke-width="1" opacity="1" d="M 702.5 284 L 705 284.5 L 702.5 285 L 702.5 284 Z " /><path fill="rgb(144,169,172)" stroke="rgb(144,169,172)" stroke-width="1" opacity="1" d="M 585.5 285 L 584.5 287 L 581.5 289 L 583.5 286 L 585.5 285 Z " /><path fill="rgb(144,169,172)" stroke="rgb(144,169,172)" stroke-width="1" opacity="1" d="M 706.5 285 L 709 285.5 L 706.5 286 L 706.5 285 Z " /><path fill="rgb(144,169,172)" stroke="rgb(144,169,172)" stroke-width="1" opacity="1" d="M 542.5 288 L 544 288.5 L 541.5 290 L 542.5 288 Z " /><path fill="rgb(144,169,172)" stroke="rgb(144,169,172)" stroke-width="1" opacity="1" d="M 724.5 289 L 727 289.5 L 724.5 290 L 724.5 289 Z " /><path fill="rgb(144,169,172)" stroke="rgb(144,169,172)" stroke-width="1" opacity="1" d="M 666.5 292 L 682.5 303 L 720.5 310 L 740.5 316 L 757.5 322 L 777 331.5 L 775.5 331 L 774 331.5 L 777 336.5 L 776.5 340 L 780.5 339 L 783 340.5 L 782.5 342 Q 789.5 343.5 789 340.5 L 788.5 338 L 786 336.5 L 787.5 337 L 810 348.5 L 808 349 L 808 351 Q 805.33 349.88 806 352.5 L 806 354.5 L 806.5 356 L 809.5 354 L 809 355.5 Q 807.88 358.83 810.5 358 L 810.5 356 L 813.5 357 L 817 354.5 L 818.5 352 L 821.5 352 L 843.5 364 Q 859.51 374.99 872 389.5 L 874 392.5 L 871.5 393 Q 869.25 392.25 870 394.5 L 869 399.5 L 872 401 Q 870.25 405.5 875.5 404 L 879.5 400 L 882 402.5 L 886 408.5 L 884 408.5 L 885 410.5 L 882 415.5 L 884 421 Q 887.81 422 889 419.5 L 890 416.5 L 889.5 415 Q 895.61 421.89 898 432.5 L 897 432.5 L 896.5 431 L 896 433 L 894 433.5 L 894 435.5 L 896.5 438 Q 899.83 439.13 899 436.5 L 900 436.5 Q 903.93 444.57 905 455.5 L 909 462.5 L 908 462.5 L 907.5 461 L 907 464 Q 903.33 462.8 905 468 L 901.5 468 L 898.5 467 L 895.5 466 L 894 466.5 L 892 461 L 889 459.5 L 887 445.5 L 881 426.5 L 882 423 L 879.5 424 L 880 422.5 L 879.5 421 L 878 421.5 Q 869.43 404.57 856 392.5 Q 858.25 391.25 857 386.5 L 854.5 384 L 852 385.5 L 852.5 384 L 849.5 382 L 847.5 385 L 830 374.5 L 830.5 373 L 828.5 374 L 827.5 372 L 823.5 372 L 804 364.5 L 805 362 L 795 359 L 796 361.5 L 794.5 361 L 779 353 L 780 346 L 772.5 349 L 772 346 L 768.5 345 L 768.5 347 L 766 345.5 L 769 341.5 Q 767.75 338.75 766.5 341 Q 764.25 340.25 765 342.5 L 764 342.5 L 763.5 341 L 762.5 344 L 733.5 333 Q 718.85 331.15 707.5 326 L 679.5 321 L 672 316.5 L 675 314.5 L 673 314 Q 674.35 310.33 668.5 312 L 666.5 313 L 659 307.5 L 658 302 L 660.5 301 L 662 301.5 L 661 297.5 L 665 297.5 L 666.5 295 L 668 294.5 L 666.5 292 Z M 771 335 L 771 339 L 776 337 L 771 335 Z M 773 339 L 772 340 Q 769 339 770 342 L 774 343 L 775 340 L 773 339 Z M 806 357 L 806 360 Q 810 361 809 359 L 806 357 Z M 835 360 L 832 361 Q 831 364 834 363 L 835 366 L 839 363 L 835 360 Z M 840 363 L 841 365 L 842 365 L 840 363 Z M 837 365 L 837 367 L 839 366 L 837 365 Z M 858 376 L 854 383 L 858 382 L 860 384 Q 859 380 862 381 L 858 376 Z " /><path fill="rgb(144,169,172)" stroke="rgb(144,169,172)" stroke-width="1" opacity="1" d="M 486.5 298 L 512 298.5 L 486.5 299 L 486.5 298 Z " /><path fill="rgb(144,169,172)" stroke="rgb(144,169,172)" stroke-width="1" opacity="1" d="M 478.5 299 L 482 299.5 L 478.5 300 L 478.5 299 Z " /><path fill="rgb(144,169,172)" stroke="rgb(144,169,172)" stroke-width="1" opacity="1" d="M 760.5 300 L 764 301.5 L 762.5 302 L 760.5 300 Z " /><path fill="rgb(144,169,172)" stroke="rgb(144,169,172)" stroke-width="1" opacity="1" d="M 467.5 301 L 470 301.5 L 464.5 303 L 464.5 302 L 467.5 301 Z " /><path fill="rgb(144,169,172)" stroke="rgb(144,169,172)" stroke-width="1" opacity="1" d="M 460.5 303 L 463 303.5 L 460.5 304 L 460.5 303 Z " /><path fill="rgb(144,169,172)" stroke="rgb(144,169,172)" stroke-width="1" opacity="1" d="M 784.5 310 L 787 311.5 L 785.5 312 L 784.5 310 Z " /><path fill="rgb(144,169,172)" stroke="rgb(144,169,172)" stroke-width="1" opacity="1" d="M 540.5 312 L 542 312.5 L 537.5 314 L 537.5 313 L 540.5 312 Z " /><path fill="rgb(144,169,172)" stroke="rgb(144,169,172)" stroke-width="1" opacity="1" d="M 531.5 315 L 534 315.5 L 526.5 318 L 526.5 317 L 531.5 315 Z " /><path fill="rgb(144,169,172)" stroke="rgb(144,169,172)" stroke-width="1" opacity="1" d="M 801.5 319 L 805 321.5 L 803.5 321 L 801.5 319 Z " /><path fill="rgb(144,169,172)" stroke="rgb(144,169,172)" stroke-width="1" opacity="1" d="M 503.5 321 L 511 321.5 L 503.5 322 L 503.5 321 Z " /><path fill="rgb(144,169,172)" stroke="rgb(144,169,172)" stroke-width="1" opacity="1" d="M 512.5 321 L 515 321.5 L 512.5 322 L 512.5 321 Z " /><path fill="rgb(144,169,172)" stroke="rgb(144,169,172)" stroke-width="1" opacity="1" d="M 813.5 326 L 818 328.5 L 816.5 329 L 813.5 326 Z " /><path fill="rgb(144,169,172)" stroke="rgb(144,169,172)" stroke-width="1" opacity="1" d="M 458.5 327 L 460 327.5 L 456.5 329 L 456.5 328 L 458.5 327 Z " /><path fill="rgb(144,169,172)" stroke="rgb(144,169,172)" stroke-width="1" opacity="1" d="M 445.5 333 L 444.5 335 L 443 335.5 L 443.5 337 L 441.5 336 L 440 336.5 L 445.5 333 Z " /><path fill="rgb(144,169,172)" stroke="rgb(144,169,172)" stroke-width="1" opacity="1" d="M 830.5 333 L 834 334.5 L 832.5 335 L 830.5 333 Z " /><path fill="rgb(144,169,172)" stroke="rgb(144,169,172)" stroke-width="1" opacity="1" d="M 782.5 336 L 785 337.5 L 783.5 338 L 782.5 336 Z " /><path fill="rgb(144,169,172)" stroke="rgb(144,169,172)" stroke-width="1" opacity="1" d="M 780.5 381 L 783 381.5 L 780.5 382 L 780.5 381 Z " /><path fill="rgb(144,169,172)" stroke="rgb(144,169,172)" stroke-width="1" opacity="1" d="M 761.5 382 L 763 382.5 L 758.5 385 L 759.5 383 L 761.5 382 Z " /><path fill="rgb(144,169,172)" stroke="rgb(144,169,172)" stroke-width="1" opacity="1" d="M 802.5 389 L 807 392.5 L 804.5 391 L 802.5 389 Z " /><path fill="rgb(144,169,172)" stroke="rgb(144,169,172)" stroke-width="1" opacity="1" d="M 751.5 393 L 752 395.5 L 751 395.5 L 751.5 393 Z " /><path fill="rgb(144,169,172)" stroke="rgb(144,169,172)" stroke-width="1" opacity="1" d="M 750.5 398 L 751 400.5 L 750 400.5 L 750.5 398 Z " /><path fill="rgb(144,169,172)" stroke="rgb(144,169,172)" stroke-width="1" opacity="1" d="M 755.5 416 L 758 419.5 L 756 418.5 L 755.5 416 Z " /><path fill="rgb(144,169,172)" stroke="rgb(144,169,172)" stroke-width="1" opacity="1" d="M 834.5 422 L 836 424.5 L 835 424.5 L 834.5 422 Z " /><path fill="rgb(144,169,172)" stroke="rgb(144,169,172)" stroke-width="1" opacity="1" d="M 331.5 443 L 332 446.5 L 331 446.5 L 331.5 443 Z " /><path fill="rgb(144,169,172)" stroke="rgb(144,169,172)" stroke-width="1" opacity="1" d="M 792.5 451 L 798 454.5 L 796.5 454 Q 792.5 453.5 792.5 451 Z " /><path fill="rgb(144,169,172)" stroke="rgb(144,169,172)" stroke-width="1" opacity="1" d="M 330.5 453 L 331 456.5 L 330 456.5 L 330.5 453 Z " /><path fill="rgb(144,169,172)" stroke="rgb(144,169,172)" stroke-width="1" opacity="1" d="M 807.5 458 L 810 458.5 L 807.5 459 L 807.5 458 Z " /><path fill="rgb(144,169,172)" stroke="rgb(144,169,172)" stroke-width="1" opacity="1" d="M 811.5 459 L 816 459.5 L 811.5 460 L 811.5 459 Z " /><path fill="rgb(144,169,172)" stroke="rgb(144,169,172)" stroke-width="1" opacity="1" d="M 898.5 472 L 900 477 Q 905.53 476.17 908.5 479 Q 910.25 475.92 912 477.5 Q 911.25 475.25 913.5 476 L 917 477.5 Q 918.25 485.25 924 488.5 L 922.5 488 L 920.5 487 L 915 489.5 L 915.5 491 L 914 488.5 L 915 484 L 907.5 483 L 905.5 484 Q 904 480.5 902.5 483 Q 899.17 484.13 900 481.5 L 896 473.5 L 898 473.5 L 898.5 472 Z " /><path fill="rgb(144,169,172)" stroke="rgb(144,169,172)" stroke-width="1" opacity="1" d="M 928.5 494 Q 945.12 509.66 947 539 L 945 539 Q 946.13 541.67 943.5 541 L 941.5 542 L 940 541.5 L 939.5 543 L 938 542.5 L 937.5 544 L 937 534 Q 939.67 535.13 939 532.5 L 941 529 Q 943.67 530.13 943 527.5 L 944 523.5 L 939.5 513 L 938.5 515 L 937 514.5 L 934 518.5 L 935 520.5 L 933.5 524 L 929 516.5 L 932 517.5 Q 933.13 514.17 930.5 515 Q 928.75 511.92 927 513.5 L 929 508 Q 932.81 509 934 506.5 L 935 503.5 L 928.5 494 Z " /><path fill="rgb(144,169,172)" stroke="rgb(144,169,172)" stroke-width="1" opacity="1" d="M 925.5 497 L 927.5 497 L 932 501.5 L 930.5 505 L 930 502.5 Q 932.25 501.25 929.5 500 Q 924.83 500.5 925.5 497 Z " /><path fill="rgb(144,169,172)" stroke="rgb(144,169,172)" stroke-width="1" opacity="1" d="M 718.5 506 L 725 506.5 L 718.5 507 L 718.5 506 Z " /><path fill="rgb(144,169,172)" stroke="rgb(144,169,172)" stroke-width="1" opacity="1" d="M 946.5 553 L 947 559.5 L 945.5 566 L 944.5 561 L 943.5 565 L 941.5 564 L 933.5 568 L 932 567.5 L 933 570.5 L 931 570.5 Q 932.13 573.83 929.5 573 L 930 571.5 L 930 568.5 L 933.5 561 L 934 563 L 936 563 L 936 558 L 937.5 558 Q 939 560.5 940.5 557 L 943.5 556 L 945.5 559 L 946.5 553 Z M 934 563 L 933 566 L 934 566 L 934 563 Z " /><path fill="rgb(144,169,172)" stroke="rgb(144,169,172)" stroke-width="1" opacity="1" d="M 273.5 568 L 274 572.5 L 273 572.5 L 273.5 568 Z " /><path fill="rgb(144,169,172)" stroke="rgb(144,169,172)" stroke-width="1" opacity="1" d="M 944.5 568 L 945 570.5 L 944 570.5 L 944.5 568 Z " /><path fill="rgb(144,169,172)" stroke="rgb(144,169,172)" stroke-width="1" opacity="1" d="M 967.5 570 L 968 572.5 L 967 572.5 L 967.5 570 Z " /><path fill="rgb(144,169,172)" stroke="rgb(144,169,172)" stroke-width="1" opacity="1" d="M 943.5 573 L 944 575.5 L 943 575.5 L 943.5 573 Z " /><path fill="rgb(144,169,172)" stroke="rgb(144,169,172)" stroke-width="1" opacity="1" d="M 944.5 578 L 945 588.5 L 946 589.5 L 946 602.5 L 945 602.5 L 944.5 590 L 943.5 599 L 941 595.5 L 941.5 594 L 933 599 L 934 601.5 L 931.5 602 L 930 600.5 L 930 588.5 L 931 588.5 L 931.5 592 L 932 589 L 936 589 L 936 590.5 L 939 588.5 L 936 584 L 941 584 L 941 582.5 L 943 581.5 L 943.5 583 L 944.5 578 Z M 944 585 L 943 588 L 944 588 L 944 585 Z M 936 592 L 934 594 Q 933 596 936 595 L 936 592 Z " /><path fill="rgb(144,169,172)" stroke="rgb(144,169,172)" stroke-width="1" opacity="1" d="M 273.5 585 L 274 589.5 L 273 589.5 L 273.5 585 Z " /><path fill="rgb(144,169,172)" stroke="rgb(144,169,172)" stroke-width="1" opacity="1" d="M 274.5 593 L 275 596.5 L 274 596.5 L 274.5 593 Z " /><path fill="rgb(144,169,172)" stroke="rgb(144,169,172)" stroke-width="1" opacity="1" d="M 275.5 599 L 276 601.5 L 275 601.5 L 275.5 599 Z " /><path fill="rgb(144,169,172)" stroke="rgb(144,169,172)" stroke-width="1" opacity="1" d="M 931.5 604 L 932 607 Q 934.67 608.13 934 605.5 L 935 605.5 L 931.5 611 L 931 609 L 933 608.5 L 930 607.5 L 931.5 604 Z " /><path fill="rgb(144,169,172)" stroke="rgb(144,169,172)" stroke-width="1" opacity="1" d="M 950.5 612 L 956 621.5 L 954 621.5 L 952.5 632 L 950.5 631 L 948 632.5 L 953.5 634 L 955.5 633 L 959 634 L 956 624.5 L 958 625.5 L 961 633.5 L 962 641.5 L 961 641.5 L 960.5 638 L 960 640 L 957 640 Q 958.13 642.67 955.5 642 L 948 639.5 L 948 637.5 L 949 634.5 L 945.5 632 L 944.5 634 L 944 632.5 L 945 630.5 L 943.5 628 L 942.5 630 L 940 626.5 L 942 623.5 L 941 621 L 943 620.5 L 942.5 619 L 951 615.5 L 950.5 612 Z M 960 634 L 959 637 L 960 637 L 960 634 Z " /><path fill="rgb(144,169,172)" stroke="rgb(144,169,172)" stroke-width="1" opacity="1" d="M 285.5 633 L 286 641.5 L 285 641.5 L 285.5 633 Z " /><path fill="rgb(144,169,172)" stroke="rgb(144,169,172)" stroke-width="1" opacity="1" d="M 984.5 639 L 985 641.5 L 984 641.5 L 984.5 639 Z " /><path fill="rgb(144,169,172)" stroke="rgb(144,169,172)" stroke-width="1" opacity="1" d="M 962.5 643 L 963 649.5 L 962 649.5 L 962.5 643 Z " /><path fill="rgb(144,169,172)" stroke="rgb(144,169,172)" stroke-width="1" opacity="1" d="M 985.5 647 L 986 649.5 L 985 649.5 L 985.5 647 Z " /><path fill="rgb(144,169,172)" stroke="rgb(144,169,172)" stroke-width="1" opacity="1" d="M 286.5 649 L 287 653.5 L 286 653.5 L 286.5 649 Z " /><path fill="rgb(144,169,172)" stroke="rgb(144,169,172)" stroke-width="1" opacity="1" d="M 963.5 657 L 964 672.5 L 962.5 681 L 961.5 674 L 961 678 L 958 679.5 L 956.5 682 L 955 682 L 955 686 L 952 686 L 952.5 660 L 953.5 664 L 958 661.5 Q 957.17 658.88 960.5 660 Q 963.1 661.4 962.5 666 L 963.5 657 Z " /><path fill="rgb(144,169,172)" stroke="rgb(144,169,172)" stroke-width="1" opacity="1" d="M 285.5 672 L 286 675.5 L 285 675.5 L 285.5 672 Z " /><path fill="rgb(144,169,172)" stroke="rgb(144,169,172)" stroke-width="1" opacity="1" d="M 984.5 682 L 985 685.5 L 984 685.5 L 984.5 682 Z " /><path fill="rgb(144,169,172)" stroke="rgb(144,169,172)" stroke-width="1" opacity="1" d="M 983.5 689 L 984 691.5 L 983 691.5 L 983.5 689 Z " /><path fill="rgb(144,169,172)" stroke="rgb(144,169,172)" stroke-width="1" opacity="1" d="M 285.5 693 L 286 699.5 L 285 699.5 L 285.5 693 Z " /><path fill="rgb(144,169,172)" stroke="rgb(144,169,172)" stroke-width="1" opacity="1" d="M 959.5 696 L 960 701.5 L 957.5 710 L 957 707 L 954 706.5 L 954 704.5 Q 952.88 701.17 955.5 702 L 958 701.5 L 959.5 696 Z " /><path fill="rgb(144,169,172)" stroke="rgb(144,169,172)" stroke-width="1" opacity="1" d="M 286.5 704 L 287 708.5 L 286 708.5 L 286.5 704 Z " /><path fill="rgb(144,169,172)" stroke="rgb(144,169,172)" stroke-width="1" opacity="1" d="M 287.5 710 L 288 713.5 L 287 713.5 L 287.5 710 Z " /><path fill="rgb(144,169,172)" stroke="rgb(144,169,172)" stroke-width="1" opacity="1" d="M 949.5 711 Q 952.25 712.25 950 713.5 Q 950.75 715.75 948.5 715 L 947 712.5 L 949 712.5 L 949.5 711 Z " /><path fill="rgb(144,169,172)" stroke="rgb(144,169,172)" stroke-width="1" opacity="1" d="M 288.5 715 L 289 718.5 L 288 718.5 L 288.5 715 Z " /><path fill="rgb(144,169,172)" stroke="rgb(144,169,172)" stroke-width="1" opacity="1" d="M 289.5 720 L 290 722.5 L 289 722.5 L 289.5 720 Z " /><path fill="rgb(144,169,172)" stroke="rgb(144,169,172)" stroke-width="1" opacity="1" d="M 960.5 769 L 960 770.5 L 959.5 772 L 959 770.5 L 960.5 769 Z " /><path fill="rgb(144,169,172)" stroke="rgb(144,169,172)" stroke-width="1" opacity="1" d="M 806.5 929 L 808 929.5 L 804.5 931 L 804.5 930 L 806.5 929 Z " /><path fill="rgb(144,169,172)" stroke="rgb(144,169,172)" stroke-width="1" opacity="1" d="M 469.5 931 L 474 931.5 L 469.5 932 L 469.5 931 Z " /><path fill="rgb(144,169,172)" stroke="rgb(144,169,172)" stroke-width="1" opacity="1" d="M 764.5 939 L 768 939.5 L 764.5 940 L 764.5 939 Z " /><path fill="rgb(144,169,172)" stroke="rgb(144,169,172)" stroke-width="1" opacity="1" d="M 591.5 971 L 610 971.5 L 591.5 972 L 591.5 971 Z " /><path fill="rgb(144,169,172)" stroke="rgb(144,169,172)" stroke-width="1" opacity="1" d="M 612.5 971 L 615 971.5 L 612.5 972 L 612.5 971 Z " /></svg>