<svg viewBox="0 0 1254 1254" version="1.1" xmlns="http://www.w3.org/2000/svg" desc="Created with imagetracer.js version 1.2.6" ><path fill="rgb(192,168,146)" stroke="rgb(192,168,146)" stroke-width="1" opacity="1" d="M 754.5 191 L 759 191.5 L 754.5 192 L 754.5 191 Z " /><path fill="rgb(192,168,146)" stroke="rgb(192,168,146)" stroke-width="1" opacity="1" d="M 782.5 191 L 787 191.5 L 782.5 192 L 782.5 191 Z " /><path fill="rgb(192,168,146)" stroke="rgb(192,168,146)" stroke-width="1" opacity="1" d="M 744.5 192 L 747 192.5 L 744.5 193 L 744.5 192 Z " /><path fill="rgb(192,168,146)" stroke="rgb(192,168,146)" stroke-width="1" opacity="1" d="M 794.5 192 L 798 192.5 L 794.5 193 L 794.5 192 Z " /><path fill="rgb(192,168,146)" stroke="rgb(192,168,146)" stroke-width="1" opacity="1" d="M 838.5 214 L 839 226.5 L 838 226.5 L 838.5 214 Z " /><path fill="rgb(192,168,146)" stroke="rgb(192,168,146)" stroke-width="1" opacity="1" d="M 837.5 234 L 838 236.5 L 837 236.5 L 837.5 234 Z " /><path fill="rgb(192,168,146)" stroke="rgb(192,168,146)" stroke-width="1" opacity="1" d="M 611.5 264 L 627 264.5 L 611.5 265 L 611.5 264 Z " /><path fill="rgb(192,168,146)" stroke="rgb(192,168,146)" stroke-width="1" opacity="1" d="M 592.5 265 L 597 265.5 L 592.5 266 L 592.5 265 Z " /><path fill="rgb(192,168,146)" stroke="rgb(192,168,146)" stroke-width="1" opacity="1" d="M 581.5 266 L 585 266.5 L 581.5 267 L 581.5 266 Z " /><path fill="rgb(192,168,146)" stroke="rgb(192,168,146)" stroke-width="1" opacity="1" d="M 572.5 267 L 575 267.5 L 572.5 268 L 572.5 267 Z " /><path fill="rgb(192,168,146)" stroke="rgb(192,168,146)" stroke-width="1" opacity="1" d="M 557.5 269 L 560 269.5 L 557.5 270 L 557.5 269 Z " /><path fill="rgb(192,168,146)" stroke="rgb(192,168,146)" stroke-width="1" opacity="1" d="M 818.5 407 L 826 407.5 L 818.5 408 L 818.5 407 Z " /><path fill="rgb(192,168,146)" stroke="rgb(192,168,146)" stroke-width="1" opacity="1" d="M 798.5 423 L 799 426.5 L 798 426.5 L 798.5 423 Z " /><path fill="rgb(192,168,146)" stroke="rgb(192,168,146)" stroke-width="1" opacity="1" d="M 862.5 494 L 865 494.5 L 862.5 495 L 862.5 494 Z " /><path fill="rgb(192,168,146)" stroke="rgb(192,168,146)" stroke-width="1" opacity="1" d="M 243.5 589 L 244 591.5 L 243 591.5 L 243.5 589 Z " /><path fill="rgb(192,168,146)" stroke="rgb(192,168,146)" stroke-width="1" opacity="1" d="M 1009.5 598 L 1010 600.5 L 1009 600.5 L 1009.5 598 Z " /><path fill="rgb(192,168,146)" stroke="rgb(192,168,146)" stroke-width="1" opacity="1" d="M 241.5 606 L 242 608.5 L 241 608.5 L 241.5 606 Z " /><path fill="rgb(192,168,146)" stroke="rgb(192,168,146)" stroke-width="1" opacity="1" d="M 240.5 617 L 241 621.5 L 240 621.5 L 240.5 617 Z " /><path fill="rgb(192,168,146)" stroke="rgb(192,168,146)" stroke-width="1" opacity="1" d="M 1011.5 618 L 1012 624.5 L 1011 624.5 L 1011.5 618 Z " /><path fill="rgb(192,168,146)" stroke="rgb(192,168,146)" stroke-width="1" opacity="1" d="M 239.5 634 L 240 651.5 L 239 651.5 L 239.5 634 Z " /><path fill="rgb(192,168,146)" stroke="rgb(192,168,146)" stroke-width="1" opacity="1" d="M 240.5 667 L 241 672.5 L 240 672.5 L 240.5 667 Z " /><path fill="rgb(192,168,146)" stroke="rgb(192,168,146)" stroke-width="1" opacity="1" d="M 1011.5 669 L 1012 673.5 L 1011 673.5 L 1011.5 669 Z " /><path fill="rgb(192,168,146)" stroke="rgb(192,168,146)" stroke-width="1" opacity="1" d="M 241.5 682 L 242 685.5 L 241 685.5 L 241.5 682 Z " /><path fill="rgb(192,168,146)" stroke="rgb(192,168,146)" stroke-width="1" opacity="1" d="M 1010.5 682 L 1011 684.5 L 1010 684.5 L 1010.5 682 Z " /><path fill="rgb(192,168,146)" stroke="rgb(192,168,146)" stroke-width="1" opacity="1" d="M 242.5 691 L 243 693.5 L 242 693.5 L 242.5 691 Z " /><path fill="rgb(192,168,146)" stroke="rgb(192,168,146)" stroke-width="1" opacity="1" d="M 574.5 1022 L 577 1022.5 L 574.5 1023 L 574.5 1022 Z " /><path fill="rgb(192,168,146)" stroke="rgb(192,168,146)" stroke-width="1" opacity="1" d="M 583.5 1023 L 586 1023.5 L 583.5 1024 L 583.5 1023 Z " /><path fill="rgb(192,168,146)" stroke="rgb(192,168,146)" stroke-width="1" opacity="1" d="M 668.5 1023 L 671 1023.5 L 668.5 1024 L 668.5 1023 Z " /><path fill="rgb(192,168,146)" stroke="rgb(192,168,146)" stroke-width="1" opacity="1" d="M 593.5 1024 L 598 1024.5 L 593.5 1025 L 593.5 1024 Z " /><path fill="rgb(192,168,146)" stroke="rgb(192,168,146)" stroke-width="1" opacity="1" d="M 657.5 1024 L 660 1024.5 L 657.5 1025 L 657.5 1024 Z " /><path fill="rgb(192,168,146)" stroke="rgb(192,168,146)" stroke-width="1" opacity="1" d="M 606.5 1025 L 617 1025.5 L 606.5 1026 L 606.5 1025 Z " /><path fill="rgb(192,168,146)" stroke="rgb(192,168,146)" stroke-width="1" opacity="1" d="M 637.5 1025 L 645 1025.5 L 637.5 1026 L 637.5 1025 Z " /><path fill="rgb(171,143,119)" stroke="rgb(171,143,119)" stroke-width="1" opacity="1" d="M 779.5 191 L 782 191.5 L 779.5 192 L 779.5 191 Z " /><path fill="rgb(171,143,119)" stroke="rgb(171,143,119)" stroke-width="1" opacity="1" d="M 1011.5 625 L 1012 627.5 L 1011 627.5 L 1011.5 625 Z " /><path fill="rgb(171,143,119)" stroke="rgb(171,143,119)" stroke-width="1" opacity="1" d="M 617.5 1025 L 637 1025.5 L 617.5 1026 L 617.5 1025 Z " /><path fill="rgb(118,96,35)" stroke="rgb(118,96,35)" stroke-width="1" opacity="1" d="M 750.5 192 L 789.5 192 L 790.5 193 L 805.5 194 L 825.5 199 L 835 205.5 L 838 212.5 L 838 229.5 L 837 230.5 L 837 238.5 L 836 239.5 L 835 250.5 L 833 252.5 L 834 256 Q 831.33 254.87 832 257.5 L 833 260 Q 830.33 258.88 831 261.5 L 832 264 L 830 264.5 L 831 266.5 Q 827.5 268 830 269.5 L 818.5 298 L 817 297.5 L 817 300.5 L 812 310.5 L 822 316.5 L 822.5 318 L 824 317.5 L 824.5 319 Q 825.75 316.75 827 319.5 L 827.5 321 L 829 320.5 L 829.5 322 Q 831 319.5 832.5 323 L 841 328.5 L 841.5 330 L 843 329.5 L 843.5 331 Q 844.75 328.75 846 331.5 L 847.5 334 Q 849 331.5 850.5 335 L 867 347.5 L 867.5 349 L 868.5 348 L 872.5 352 L 885 362.5 L 887.5 366 L 891.5 368 L 907 383.5 L 912.5 391 L 917 394.5 L 916.5 396 L 923 401.5 L 928 407.5 Q 925.75 408.75 928.5 410 L 932 412.5 L 931.5 414 L 935 416.5 L 944 428.5 L 943.5 430 L 946 431.5 L 945.5 433 L 948 434.5 L 947.5 436 L 950 437.5 L 958 450.5 L 957.5 452 L 960 453.5 L 961 455.5 L 960 457.5 L 962 457.5 L 972 476.5 L 971.5 478 L 973 478.5 L 972.5 480 Q 974.75 479.25 974 481.5 L 981 496.5 L 980.5 498 Q 982.75 497.25 982 499.5 L 989 515.5 L 999 546.5 L 1007 583.5 L 1009 603.5 L 1010 604.5 L 1010 613.5 L 1011 614.5 L 1012 657.5 L 1011 658.5 L 1010 688.5 L 1009 689.5 L 1007 709.5 Q 1003.99 715.99 1004 725.5 L 994.5 760 L 993 759.5 L 994 762.5 L 992 762.5 L 993 765.5 L 991 765.5 L 992 768.5 L 982 795 L 980 795.5 L 981 797.5 L 962 835 L 960 835.5 Q 962.5 837 959 838.5 L 956.5 843 L 955 843.5 L 955.5 845 L 954 844.5 L 953 846.5 L 953 848.5 L 948 857 L 945 858.5 L 945.5 860 L 943 861.5 Q 945.25 862.75 942.5 864 L 941 864.5 Q 943.75 866.25 939.5 868 L 938 868.5 L 939 869.5 L 935 873.5 L 929.5 881 L 927 882.5 L 928 883.5 L 922 889.5 L 916.5 896 L 914 897.5 L 915 898.5 L 892.5 921 L 889 922.5 L 887 925.5 L 866.5 943 L 864 943 L 861.5 947 L 841.5 961 L 840 960.5 L 838.5 963 L 837 962.5 Q 837.75 964.75 835.5 964 Q 789.65 995.15 729.5 1012 L 704.5 1018 L 699.5 1018 L 681.5 1022 L 674.5 1022 L 673.5 1023 L 651.5 1024 L 650.5 1025 L 602.5 1025 L 601.5 1024 L 589.5 1024 L 588.5 1023 L 565.5 1021 L 524.5 1012 Q 482.6 1000.4 448 981.5 L 447.5 980 L 446 980.5 L 445.5 979 L 443.5 979 L 428 970.5 L 427.5 969 L 425.5 969 L 406 956.5 L 405.5 955 Q 404 957.5 402.5 954 L 388 943.5 L 387.5 942 L 386.5 943 L 382.5 939 L 378 935.5 L 377.5 934 L 376.5 935 L 373 931.5 L 371.5 929 L 369.5 929 L 364 923.5 L 361.5 920 L 360.5 921 L 338 898.5 L 333.5 892 L 329 888.5 L 316 872.5 Q 318.25 871.25 315.5 870 L 313 868.5 L 302 853.5 L 303 851.5 L 300 850.5 L 300.5 849 L 299 848.5 L 299.5 847 L 297 845.5 L 287 828.5 L 287.5 827 L 285 825.5 L 271 796.5 L 265 780.5 L 266 778.5 L 264 778.5 L 254 748.5 L 244 702.5 L 242 678.5 L 241 677.5 L 241 661.5 L 240 660.5 L 240 629.5 L 241 628.5 L 241 613.5 L 242 612.5 L 243 595.5 L 248 566.5 L 256 535.5 L 267 504 L 269 503.5 L 269 501.5 L 284 467.5 L 307.5 430 L 310 428.5 L 309.5 427 L 311 426.5 L 310 425.5 L 313 422.5 L 315.5 419 L 317 418.5 L 316 417.5 L 320 413.5 L 331.5 399 L 334 397.5 L 334 395.5 L 343 385.5 L 362.5 366 L 372.5 357 Q 374.25 359.75 376 355.5 L 379.5 351 Q 380.75 353.25 382 350.5 L 384.5 347 L 407.5 330 L 409 330.5 L 410.5 328 L 412 328.5 L 413.5 326 L 415 326.5 L 416.5 324 L 431.5 315 L 433 315.5 Q 432.25 313.25 434.5 314 L 453.5 303 L 455.5 304 L 455.5 302 L 457.5 303 L 458 301 Q 480.92 289.75 508.5 282 L 510 282.5 Q 509.17 279.87 512.5 281 L 556.5 270 L 577.5 268 L 578.5 267 L 588.5 267 L 589.5 266 L 602.5 266 L 603.5 265 L 630.5 265 L 634 262.5 L 633.5 261 L 635 260.5 Q 632.5 259 636 257.5 Q 646.4 239.4 662.5 227 Q 682.04 210.54 708.5 201 L 725.5 196 L 742.5 193 L 749.5 193 L 750.5 192 Z M 762 206 L 761 207 L 750 207 L 749 208 L 732 210 L 709 217 Q 689 225 674 237 Q 656 251 644 272 L 636 289 L 631 304 L 628 319 L 628 326 L 627 327 L 631 331 L 628 328 Q 625 329 626 326 L 616 320 L 603 323 L 605 323 L 606 326 Q 607 328 605 327 L 605 328 L 608 327 L 610 328 L 602 330 L 596 338 L 595 338 Q 596 332 601 330 L 599 327 L 598 327 L 598 326 L 597 325 L 590 331 L 592 328 Q 599 319 614 320 Q 614 308 618 299 Q 617 295 620 296 L 619 295 L 622 284 Q 624 282 622 281 L 589 282 L 588 283 L 580 283 L 579 284 L 559 286 L 520 295 L 490 305 Q 423 331 376 376 Q 324 422 292 488 L 277 524 L 267 557 L 260 592 L 259 607 L 258 608 L 258 618 L 257 619 L 257 673 L 258 674 L 258 684 L 260 693 L 260 700 L 267 735 L 280 776 Q 310 851 364 903 Q 392 930 427 952 Q 453 968 483 981 L 519 994 L 550 1002 L 572 1006 L 587 1007 L 588 1008 L 618 1009 L 619 1010 L 634 1010 L 635 1009 L 653 1009 L 654 1010 L 656 1010 L 654 1009 L 666 1008 L 667 1007 Q 673 1005 675 1008 L 675 1006 L 700 1003 L 729 996 L 759 986 L 783 976 Q 834 952 875 916 Q 931 866 965 794 L 980 754 L 988 723 L 992 701 L 993 685 L 994 684 L 995 655 L 996 654 L 996 643 L 997 642 L 997 636 L 996 641 L 995 620 L 994 619 L 994 610 L 995 609 L 995 605 L 994 608 L 992 594 L 991 593 Q 990 588 992 587 L 992 584 L 991 586 L 987 566 L 978 536 L 979 534 L 979 531 L 978 533 L 973 521 L 974 518 L 973 518 Q 960 485 943 457 Q 924 425 899 399 Q 859 355 805 325 L 800 326 Q 788 340 773 349 L 746 362 L 718 369 L 705 370 L 704 371 L 688 371 L 687 372 L 661 371 L 660 370 L 653 370 Q 653 380 646 384 Q 643 383 644 386 L 636 391 L 634 391 L 639 388 L 637 383 L 635 383 L 636 380 L 634 381 Q 631 380 632 384 L 621 388 L 607 388 L 594 383 L 598 372 L 597 362 L 596 362 L 595 359 L 597 359 L 595 347 L 594 354 L 592 356 L 591 355 L 590 355 Q 589 359 591 361 L 591 373 L 590 375 L 591 378 L 590 377 L 588 380 L 586 378 L 584 380 L 584 386 Q 592 392 606 393 L 606 394 Q 594 393 586 388 Q 577 383 574 373 Q 573 366 576 363 Q 581 356 589 354 L 588 352 L 589 344 L 591 344 L 593 343 L 594 345 L 595 339 L 596 349 Q 600 354 608 357 Q 617 359 622 355 Q 627 353 628 347 Q 629 341 626 339 L 628 339 L 633 338 L 634 336 L 636 337 L 641 331 Q 668 301 703 279 L 750 253 L 768 246 L 771 246 Q 775 247 774 253 L 771 256 L 728 277 L 700 295 Q 669 316 643 343 Q 644 345 642 344 L 636 351 L 641 353 L 650 355 L 668 356 L 669 357 L 698 357 L 732 351 Q 758 343 777 328 Q 796 312 807 289 L 819 256 L 822 242 L 823 225 L 824 224 L 823 215 L 819 212 L 801 208 L 782 207 L 781 206 L 762 206 Z M 628 266 L 628 267 L 631 267 L 628 266 Z M 634 338 L 633 341 L 634 341 L 634 338 Z M 635 341 L 634 344 L 635 344 L 635 341 Z M 630 343 L 629 370 L 630 375 L 632 375 Q 631 377 636 376 L 638 376 L 640 376 Q 638 371 637 374 L 636 372 Q 635 366 637 365 L 636 364 L 636 356 L 634 354 L 632 347 L 633 344 L 631 345 L 630 343 Z M 642 378 L 641 383 L 642 383 L 642 378 Z M 990 572 L 989 575 L 990 575 L 990 572 Z M 993 589 L 992 593 L 993 593 L 993 589 Z M 994 597 L 993 600 L 994 600 L 994 597 Z M 996 674 L 995 678 L 996 678 L 996 674 Z " /><path fill="rgb(118,96,35)" stroke="rgb(118,96,35)" stroke-width="1" opacity="1" d="M 612.5 328 L 618 329.5 L 616.5 330 L 612.5 329 L 612.5 328 Z " /><path fill="rgb(118,96,35)" stroke="rgb(118,96,35)" stroke-width="1" opacity="1" d="M 619.5 330 L 623 332.5 L 621.5 332 L 619.5 330 Z " /><path fill="rgb(118,96,35)" stroke="rgb(118,96,35)" stroke-width="1" opacity="1" d="M 587.5 337 L 588 346.5 L 587 346.5 L 587.5 337 Z " /><path fill="rgb(118,96,35)" stroke="rgb(118,96,35)" stroke-width="1" opacity="1" d="M 627.5 392 L 630 392.5 L 622.5 394 L 622.5 393 L 627.5 392 Z " /><path fill="rgb(118,96,35)" stroke="rgb(118,96,35)" stroke-width="1" opacity="1" d="M 608.5 394 L 621 394.5 L 608.5 395 L 608.5 394 Z " /><path fill="rgb(53,70,23)" stroke="rgb(53,70,23)" stroke-width="1" opacity="1" d="M 627.5 266 L 631 266.5 L 627.5 267 L 627.5 266 Z " /><path fill="rgb(53,70,23)" stroke="rgb(53,70,23)" stroke-width="1" opacity="1" d="M 454.5 303 L 456 303.5 L 453.5 305 L 454.5 303 Z " /><path fill="rgb(53,70,23)" stroke="rgb(53,70,23)" stroke-width="1" opacity="1" d="M 614.5 320 L 626 326 Q 624.87 328.67 627.5 328 Q 633.82 333.18 635 343.5 L 634 343.5 L 633 338 L 627.5 339 L 621.5 331 L 615.5 328 L 607.5 327 L 604.5 328 L 604.5 327 Q 606.75 327.75 606 325.5 L 605 323 L 603 322.5 L 614.5 320 Z " /><path fill="rgb(53,70,23)" stroke="rgb(53,70,23)" stroke-width="1" opacity="1" d="M 598.5 324 L 599 326.5 L 600.5 329 L 602.5 328 L 602.5 329 L 596 334.5 L 593.5 345 L 593 343 L 590.5 344 L 589 343.5 L 588.5 348 L 588 336.5 Q 590.11 328.61 596.5 325 L 598.5 324 Z " /><path fill="rgb(53,70,23)" stroke="rgb(53,70,23)" stroke-width="1" opacity="1" d="M 443.5 325 L 442.5 327 L 440.5 328 L 441.5 326 L 443.5 325 Z " /><path fill="rgb(53,70,23)" stroke="rgb(53,70,23)" stroke-width="1" opacity="1" d="M 629.5 343 L 630.5 345 L 633 344 L 632 346.5 L 634 353.5 L 636 355.5 L 636 363.5 L 637 364.5 Q 634.5 366 636 371.5 L 640.5 377 L 636.5 375 L 632 376 L 631.5 374 L 630 374.5 L 629 369.5 L 629.5 343 Z " /><path fill="rgb(53,70,23)" stroke="rgb(53,70,23)" stroke-width="1" opacity="1" d="M 594.5 347 L 597 358.5 L 595 358.5 L 595.5 362 L 597 361.5 L 598 371.5 L 594 383 L 606.5 388 L 620.5 388 L 632 384 Q 630.5 380.25 633.5 381 L 636 380 L 636.5 382 L 637.5 380 L 638 381.5 L 637 384.5 L 639 387.5 Q 627.78 395.78 606.5 394 L 591.5 390 L 584 386 L 584 379.5 L 585.5 378 L 588 379.5 L 591 375.5 L 590 373.5 L 591 372.5 L 591 360.5 Q 588.75 359.25 590 354.5 L 591 354.5 L 591.5 356 L 594 353.5 L 594.5 347 Z M 599 389 L 600 391 Q 601 388 599 389 Z " /><path fill="rgb(53,70,23)" stroke="rgb(53,70,23)" stroke-width="1" opacity="1" d="M 641.5 378 L 642 382.5 L 641 382.5 L 641.5 378 Z " /><path fill="rgb(53,70,23)" stroke="rgb(53,70,23)" stroke-width="1" opacity="1" d="M 959.5 455 L 961 457.5 L 960 457.5 L 959.5 455 Z " /><path fill="rgb(53,70,23)" stroke="rgb(53,70,23)" stroke-width="1" opacity="1" d="M 948.5 464 L 952 469.5 L 950 468.5 L 948.5 464 Z " /><path fill="rgb(53,70,23)" stroke="rgb(53,70,23)" stroke-width="1" opacity="1" d="M 958.5 483 L 961 487.5 L 960 487.5 L 958.5 483 Z " /><path fill="rgb(53,70,23)" stroke="rgb(53,70,23)" stroke-width="1" opacity="1" d="M 978.5 531 L 980 535.5 L 979 535.5 L 978.5 531 Z " /><path fill="rgb(53,70,23)" stroke="rgb(53,70,23)" stroke-width="1" opacity="1" d="M 989.5 572 L 990 574.5 L 989 574.5 L 989.5 572 Z " /><path fill="rgb(53,70,23)" stroke="rgb(53,70,23)" stroke-width="1" opacity="1" d="M 991.5 584 L 992 586.5 L 991 586.5 L 991.5 584 Z " /><path fill="rgb(53,70,23)" stroke="rgb(53,70,23)" stroke-width="1" opacity="1" d="M 992.5 589 L 993 592.5 L 992 592.5 L 992.5 589 Z " /><path fill="rgb(53,70,23)" stroke="rgb(53,70,23)" stroke-width="1" opacity="1" d="M 993.5 597 L 994 599.5 L 993 599.5 L 993.5 597 Z " /><path fill="rgb(53,70,23)" stroke="rgb(53,70,23)" stroke-width="1" opacity="1" d="M 994.5 605 L 995 608.5 L 994 608.5 L 994.5 605 Z " /><path fill="rgb(53,70,23)" stroke="rgb(53,70,23)" stroke-width="1" opacity="1" d="M 996.5 636 L 997 641.5 L 996 641.5 L 996.5 636 Z " /><path fill="rgb(53,70,23)" stroke="rgb(53,70,23)" stroke-width="1" opacity="1" d="M 995.5 674 L 996 677.5 L 995 677.5 L 995.5 674 Z " /><path fill="rgb(53,70,23)" stroke="rgb(53,70,23)" stroke-width="1" opacity="1" d="M 961.5 803 L 961 804.5 L 959.5 808 L 959 806.5 L 961.5 803 Z " /><path fill="rgb(53,70,23)" stroke="rgb(53,70,23)" stroke-width="1" opacity="1" d="M 296.5 813 L 298 815.5 L 296 814.5 L 296.5 813 Z " /><path fill="rgb(53,70,23)" stroke="rgb(53,70,23)" stroke-width="1" opacity="1" d="M 955.5 843 L 955 844.5 L 953.5 847 L 954 845.5 L 955.5 843 Z " /><path fill="rgb(53,70,23)" stroke="rgb(53,70,23)" stroke-width="1" opacity="1" d="M 300.5 849 L 304 853.5 L 302 852.5 L 300.5 849 Z " /><path fill="rgb(53,70,23)" stroke="rgb(53,70,23)" stroke-width="1" opacity="1" d="M 434.5 957 L 438 959.5 L 436.5 959 L 434.5 957 Z " /><path fill="rgb(53,70,23)" stroke="rgb(53,70,23)" stroke-width="1" opacity="1" d="M 454.5 968 L 465 973.5 L 463.5 974 L 455.5 970 L 454.5 968 Z " /><path fill="rgb(53,70,23)" stroke="rgb(53,70,23)" stroke-width="1" opacity="1" d="M 653.5 1009 L 656 1009.5 L 653.5 1010 L 653.5 1009 Z " /><path fill="rgb(249,149,31)" stroke="rgb(249,149,31)" stroke-width="1" opacity="1" d="M 602.5 281 L 621.5 281 L 623 282.5 L 616 303.5 L 614 320 Q 598.86 319.17 592 327.5 L 587 337.5 L 587 346.5 L 589 354 Q 580.5 355.75 576 362.5 Q 573.29 365.79 574 372.5 Q 577.05 382.95 585.5 388 L 602.5 394 L 620.5 395 L 635.5 391 L 644 385.5 Q 643.25 383.25 645.5 384 Q 652.75 380 653 370 L 659.5 370 L 660.5 371 L 686.5 372 L 687.5 371 L 703.5 371 L 704.5 370 L 717.5 369 L 745.5 362 L 772.5 349 Q 788.27 339.77 799.5 326 L 804.5 325 Q 858.9 354.6 899 398.5 Q 946.21 448.29 973 518.5 L 981 542.5 L 990 580.5 L 993 607.5 L 994 608.5 L 994 618.5 L 995 619.5 L 996 653.5 L 995 654.5 L 995 672.5 L 994 673.5 L 993 692.5 L 992 693.5 L 992 700.5 L 988 722.5 L 980 753.5 L 965 793.5 Q 931.44 866.44 874.5 916 Q 825.51 960.01 758.5 986 L 728.5 996 L 699.5 1003 L 675.5 1006 L 674.5 1007 L 666.5 1007 L 665.5 1008 L 618.5 1010 L 617.5 1009 L 587.5 1008 L 586.5 1007 L 571.5 1006 L 549.5 1002 L 518.5 994 L 482.5 981 Q 452.68 968.32 426.5 952 Q 392.39 930.11 364 902.5 Q 309.91 851.09 280 775.5 L 267 734.5 L 260 699.5 L 260 692.5 L 258 683.5 L 258 673.5 L 257 672.5 L 257 618.5 L 258 617.5 L 258 607.5 L 259 606.5 L 260 591.5 L 267 556.5 L 277 523.5 L 292 487.5 Q 324.3 422.3 375.5 376 Q 419.74 334.74 479.5 309 L 512.5 297 L 530.5 293 L 534.5 291 L 564.5 285 L 587.5 283 L 588.5 282 L 601.5 282 L 602.5 281 Z M 819 407 L 807 411 Q 800 415 798 424 L 798 431 L 800 438 Q 805 450 814 459 L 843 485 L 856 493 L 863 495 Q 872 496 877 493 Q 884 489 886 480 L 886 467 L 883 457 L 871 437 Q 860 423 846 414 L 831 408 L 819 407 Z " /><path fill="rgb(150,123,100)" stroke="rgb(150,123,100)" stroke-width="1" opacity="1" d="M 761.5 191 L 777 191.5 L 761.5 192 L 761.5 191 Z " /><path fill="rgb(150,123,100)" stroke="rgb(150,123,100)" stroke-width="1" opacity="1" d="M 790.5 192 L 793 192.5 L 790.5 193 L 790.5 192 Z " /><path fill="rgb(150,123,100)" stroke="rgb(150,123,100)" stroke-width="1" opacity="1" d="M 837.5 230 L 838 232.5 L 837 232.5 L 837.5 230 Z " /><path fill="rgb(150,123,100)" stroke="rgb(150,123,100)" stroke-width="1" opacity="1" d="M 599.5 265 L 603 265.5 L 599.5 266 L 599.5 265 Z " /><path fill="rgb(150,123,100)" stroke="rgb(150,123,100)" stroke-width="1" opacity="1" d="M 242.5 600 L 243 602.5 L 242 602.5 L 242.5 600 Z " /><path fill="rgb(150,123,100)" stroke="rgb(150,123,100)" stroke-width="1" opacity="1" d="M 241.5 610 L 242 612.5 L 241 612.5 L 241.5 610 Z " /><path fill="rgb(150,123,100)" stroke="rgb(150,123,100)" stroke-width="1" opacity="1" d="M 240.5 624 L 241 628.5 L 240 628.5 L 240.5 624 Z " /><path fill="rgb(150,123,100)" stroke="rgb(150,123,100)" stroke-width="1" opacity="1" d="M 1011.5 628 L 1012 630.5 L 1011 630.5 L 1011.5 628 Z " /><path fill="rgb(150,123,100)" stroke="rgb(150,123,100)" stroke-width="1" opacity="1" d="M 1011.5 658 L 1012 666.5 L 1011 666.5 L 1011.5 658 Z " /><path fill="rgb(150,123,100)" stroke="rgb(150,123,100)" stroke-width="1" opacity="1" d="M 240.5 661 L 241 665.5 L 240 665.5 L 240.5 661 Z " /><path fill="rgb(150,123,100)" stroke="rgb(150,123,100)" stroke-width="1" opacity="1" d="M 1010.5 678 L 1011 680.5 L 1010 680.5 L 1010.5 678 Z " /><path fill="rgb(150,123,100)" stroke="rgb(150,123,100)" stroke-width="1" opacity="1" d="M 243.5 695 L 244 697.5 L 243 697.5 L 243.5 695 Z " /><path fill="rgb(150,123,100)" stroke="rgb(150,123,100)" stroke-width="1" opacity="1" d="M 599.5 1024 L 602 1024.5 L 599.5 1025 L 599.5 1024 Z " /><path fill="rgb(150,123,100)" stroke="rgb(150,123,100)" stroke-width="1" opacity="1" d="M 651.5 1024 L 655 1024.5 L 651.5 1025 L 651.5 1024 Z " /><path fill="rgb(130,166,67)" stroke="rgb(130,166,67)" stroke-width="1" opacity="1" d="M 761.5 206 L 780.5 206 L 781.5 207 L 800.5 208 L 818.5 212 L 823 214.5 L 824 223.5 L 823 224.5 L 822 241.5 L 819 255.5 L 807 288.5 Q 795.66 312.16 776.5 328 Q 757.76 343.26 731.5 351 L 697.5 357 L 668.5 357 L 667.5 356 L 649.5 355 L 640.5 353 L 636 350.5 L 641.5 344 Q 643.75 344.75 643 342.5 Q 668.84 316.34 699.5 295 L 727.5 277 L 770.5 256 L 774 252.5 Q 774.75 246.75 770.5 246 L 767.5 246 L 749.5 253 L 702.5 279 Q 668.43 301.43 641 330.5 L 635.5 337 L 633 335.5 Q 631.61 329.39 627 326.5 L 631 303.5 L 636 288.5 L 644 271.5 Q 655.79 251.29 673.5 237 Q 688.92 224.92 708.5 217 L 731.5 210 L 748.5 208 L 749.5 207 L 760.5 207 L 761.5 206 Z " /><path fill="rgb(130,166,67)" stroke="rgb(130,166,67)" stroke-width="1" opacity="1" d="M 607.5 328 Q 619.16 327.84 624 334.5 Q 628 338.5 628 346.5 Q 626.62 352.62 621.5 355 Q 617.17 358.67 607.5 357 Q 600.08 354.42 596 348.5 L 595 338.5 L 601.5 330 L 607.5 328 Z " /><path fill="rgb(246,245,245)" stroke="rgb(246,245,245)" stroke-width="1" opacity="1" d="M 0 0 L 1254 0 L 1254 1254 L 0 1254 L 0 0 Z M 755 191 L 754 192 L 745 192 L 744 193 L 732 194 L 705 202 Q 679 212 661 228 Q 642 243 631 265 L 627 264 L 593 265 L 592 266 L 582 266 L 565 269 L 558 269 L 511 280 L 482 290 Q 411 318 361 367 Q 306 417 273 489 L 258 527 L 248 564 L 243 590 L 241 617 L 240 618 L 240 634 L 239 635 L 240 673 L 241 674 L 241 686 L 242 687 L 243 701 L 253 748 L 262 776 Q 276 814 296 846 Q 315 875 338 900 Q 389 955 461 989 L 489 1001 L 526 1013 L 568 1022 L 593 1024 L 594 1025 L 606 1025 L 607 1026 L 645 1026 L 646 1025 L 660 1025 L 661 1024 L 671 1024 L 672 1023 L 686 1022 L 725 1014 L 763 1002 Q 840 972 896 919 Q 948 871 980 802 L 997 756 L 1003 733 L 1008 708 L 1010 686 L 1011 685 L 1011 675 L 1012 674 L 1012 619 L 1010 608 L 1010 599 L 1002 556 L 990 517 Q 960 437 906 382 Q 865 339 812 310 L 823 291 L 830 273 L 836 250 L 837 238 L 838 237 L 838 228 L 839 227 L 839 215 L 837 208 L 834 203 L 822 197 L 798 192 L 788 192 L 787 191 L 755 191 Z " /><path fill="rgb(246,245,245)" stroke="rgb(246,245,245)" stroke-width="1" opacity="1" d="M 814.5 408 L 828.5 408 L 838.5 411 Q 857.01 419.49 869 434.5 Q 877.62 444.38 883 457.5 L 886 468.5 L 886 477.5 L 883 486.5 L 877.5 492 Q 873.17 495.17 865.5 495 L 856.5 493 L 845.5 487 L 820 464.5 L 803 443.5 L 798 427.5 Q 800.25 426.25 799 421.5 L 805.5 412 L 814.5 408 Z " /></svg>