<svg viewBox="0 0 1254 1254" version="1.1" xmlns="http://www.w3.org/2000/svg" desc="Created with imagetracer.js version 1.2.6" ><path fill="rgb(119,70,26)" stroke="rgb(119,70,26)" stroke-width="1" opacity="1" d="M 788.5 194 L 810.5 194 L 811.5 195 L 829.5 196 L 856.5 202 L 868.5 206 Q 909.44 221.06 939 247.5 Q 943.33 251.67 942 261.5 Q 923.91 299.91 893.5 326 Q 879.79 338.29 863 347.5 Q 887.76 358.24 908.5 373 Q 938.36 394.14 962 421.5 Q 1004.46 469.54 1028 536.5 L 1039 574.5 L 1045 606.5 L 1047 631.5 L 1048 632.5 L 1048 645.5 L 1049 646.5 L 1049 677.5 L 1048 678.5 L 1048 691.5 L 1047 692.5 L 1047 694.5 L 1044 725.5 L 1037 758.5 L 1026 793.5 L 1013 824.5 Q 982.49 887.49 934.5 933 Q 884.51 981.51 816.5 1012 L 782.5 1025 L 753.5 1033 L 730.5 1037 L 721.5 1037 L 720.5 1038 L 701.5 1038 L 700.5 1037 L 692.5 1037 L 682.5 1035 L 672.5 1032 Q 654.81 1025.19 641.5 1014 Q 623.67 1031.17 596.5 1039 L 575.5 1043 L 551.5 1043 L 550.5 1042 L 533.5 1041 Q 527.01 1037.99 517.5 1038 L 483.5 1029 Q 442.12 1015.88 406.5 997 Q 372.12 978.39 342.5 955 Q 320.29 937.21 301 916.5 Q 253.34 866.66 226 796.5 L 218 772.5 L 209 735.5 L 207 716.5 L 206 715.5 L 206 707.5 L 205 706.5 L 205 697.5 L 204 696.5 L 203 659.5 L 204 658.5 L 205 629.5 L 206 628.5 L 206 620.5 L 207 619.5 L 210 595.5 L 220 556.5 L 234 519.5 Q 265.29 450.79 316.5 402 Q 355.86 363.86 410.5 341 L 433.5 333 L 462.5 326 L 484.5 324 L 485.5 323 L 524.5 323 L 525.5 324 L 545.5 326 L 562.5 330 L 583.5 337 L 593.5 342 L 594 339.5 L 584 320.5 L 565 290.5 Q 561.5 284 563 272.5 Q 565.87 260.87 573.5 254 Q 580.37 247.37 590.5 244 L 595.5 243 L 611.5 243 Q 626.66 246.84 634 258.5 Q 643.4 270.91 648 287 Q 650.67 288.13 650 285.5 Q 662.11 257.11 683.5 238 Q 704.91 217.91 734.5 206 L 760.5 198 L 778.5 196 L 779.5 195 L 787.5 195 L 788.5 194 Z M 796 211 L 795 212 L 783 212 L 782 213 L 769 214 L 739 223 Q 716 232 700 247 Q 682 262 670 283 L 661 305 L 658 322 L 660 338 L 664 333 Q 689 304 725 286 L 760 272 L 780 267 L 798 265 L 799 264 Q 805 263 809 265 L 812 270 L 811 275 L 808 277 L 796 278 L 768 284 L 740 294 Q 710 307 688 327 L 670 346 L 668 349 L 677 349 L 678 348 L 707 348 L 708 349 L 733 351 L 734 352 L 759 353 L 760 354 L 780 354 L 781 353 L 797 352 L 804 350 L 809 350 L 830 344 Q 862 332 886 310 Q 909 288 924 258 L 905 243 L 865 223 L 833 214 L 819 213 L 818 212 L 807 212 L 806 211 L 796 211 Z M 488 340 L 487 341 L 466 343 L 448 347 L 413 359 Q 368 378 335 409 Q 283 455 252 522 L 235 567 L 228 594 L 224 617 L 224 623 L 223 624 L 223 631 L 222 632 L 221 664 L 220 665 Q 219 670 221 672 L 220 674 L 221 675 L 222 705 L 223 706 L 223 714 L 224 715 L 226 733 L 234 767 L 241 788 Q 265 852 308 899 Q 352 947 412 980 Q 446 999 487 1012 L 521 1021 L 544 1025 L 554 1025 L 555 1026 L 580 1025 L 600 1020 L 618 1011 L 635 997 L 641 995 L 651 998 Q 660 1008 674 1014 L 689 1019 L 701 1020 L 702 1021 L 729 1020 L 751 1016 L 782 1007 L 810 996 Q 869 970 914 929 Q 967 882 999 814 Q 1014 781 1023 743 L 1029 709 L 1030 689 L 1031 688 L 1031 671 L 1031 669 L 1031 659 L 1032 658 L 1031 655 L 1030 625 L 1029 624 L 1029 616 L 1025 597 L 1025 592 L 1019 566 L 1009 535 Q 987 475 948 432 Q 907 384 845 358 L 840 358 L 832 362 L 814 367 L 796 369 L 795 370 L 787 370 L 786 371 L 751 371 L 750 370 L 740 370 L 730 368 L 713 367 L 712 366 L 702 366 L 701 365 L 676 365 L 673 366 L 658 375 L 645 387 L 639 390 Q 632 391 629 388 Q 615 374 598 363 L 578 353 L 560 347 L 538 342 L 523 341 L 522 340 L 488 340 Z " /><path fill="rgb(119,70,26)" stroke="rgb(119,70,26)" stroke-width="1" opacity="1" d="M 453.5 671 L 461.5 671 L 472.5 674 Q 484.11 678.89 491 688.5 L 499 705.5 L 500 710.5 L 500 726.5 Q 496.03 747.03 481.5 757 L 469.5 763 L 464.5 764 L 447.5 764 Q 432.74 759.76 424 749.5 L 415 732.5 L 413 714.5 L 415 703.5 L 418 695.5 L 429.5 681 L 443.5 673 L 453.5 671 Z M 448 689 L 440 693 L 435 701 Q 434 708 437 712 Q 440 716 447 718 L 457 717 L 464 708 Q 465 700 462 696 Q 458 689 448 689 Z " /><path fill="rgb(119,70,26)" stroke="rgb(119,70,26)" stroke-width="1" opacity="1" d="M 743.5 671 L 752.5 671 L 761.5 673 Q 774.75 677.75 782 688.5 Q 792.43 701.07 791 725.5 Q 787.03 745.53 773.5 756 L 760.5 763 L 755.5 764 L 740.5 764 Q 722.4 759.6 713 746.5 L 706 732.5 L 704 722.5 L 704 713.5 L 706 702.5 L 710 693.5 L 721.5 680 L 731.5 674 L 743.5 671 Z M 738 689 L 733 691 Q 726 694 725 703 L 727 711 Q 730 716 738 718 Q 746 719 750 715 L 755 707 Q 756 698 752 695 Q 748 688 738 689 Z " /><path fill="rgb(119,70,26)" stroke="rgb(119,70,26)" stroke-width="1" opacity="1" d="M 562.5 734 Q 570.61 733.89 573 739.5 L 574 749.5 Q 577.11 757.89 583.5 763 L 595.5 769 L 610.5 769 Q 621.4 766.4 627 758.5 Q 632.52 752.02 633 740.5 L 637.5 735 L 644.5 734 L 649 737.5 Q 651.67 739.83 651 745.5 Q 647.36 767.36 632.5 778 Q 620.93 788.93 596.5 787 L 584.5 784 L 568 773.5 L 559 760.5 L 555 746.5 L 555 741.5 L 558.5 736 L 562.5 734 Z " /><path fill="rgb(144,169,91)" stroke="rgb(144,169,91)" stroke-width="1" opacity="1" d="M 811.5 194 L 815 194.5 L 811.5 195 L 811.5 194 Z " /><path fill="rgb(144,169,91)" stroke="rgb(144,169,91)" stroke-width="1" opacity="1" d="M 775.5 195 L 779 195.5 L 775.5 196 L 775.5 195 Z " /><path fill="rgb(144,169,91)" stroke="rgb(144,169,91)" stroke-width="1" opacity="1" d="M 822.5 195 L 825 195.5 L 822.5 196 L 822.5 195 Z " /><path fill="rgb(144,169,91)" stroke="rgb(144,169,91)" stroke-width="1" opacity="1" d="M 768.5 196 L 771 196.5 L 768.5 197 L 768.5 196 Z " /><path fill="rgb(144,169,91)" stroke="rgb(144,169,91)" stroke-width="1" opacity="1" d="M 795.5 211 L 805.5 211 L 806.5 212 L 817.5 212 L 818.5 213 L 832.5 214 L 864.5 223 L 904.5 243 L 924 257.5 Q 909.49 288.49 885.5 310 Q 862.26 331.76 829.5 344 L 808.5 350 L 803.5 350 L 796.5 352 L 780.5 353 L 779.5 354 L 759.5 354 L 758.5 353 L 733.5 352 L 732.5 351 L 707.5 349 L 706.5 348 L 677.5 348 L 676.5 349 L 667.5 349 L 670 345.5 L 687.5 327 Q 710.17 307.17 739.5 294 L 767.5 284 L 795.5 278 L 807.5 277 L 811 274.5 L 812 269.5 L 808.5 265 Q 805.33 262.67 798.5 264 L 797.5 265 L 779.5 267 L 759.5 272 L 724.5 286 Q 689.05 304.05 664 332.5 L 659.5 338 L 658 321.5 L 661 304.5 L 670 282.5 Q 681.7 261.7 699.5 247 Q 716.38 232.37 738.5 223 L 768.5 214 L 781.5 213 L 782.5 212 L 794.5 212 L 795.5 211 Z " /><path fill="rgb(144,169,91)" stroke="rgb(144,169,91)" stroke-width="1" opacity="1" d="M 598.5 242 L 608 242.5 L 598.5 243 L 598.5 242 Z " /><path fill="rgb(144,169,91)" stroke="rgb(144,169,91)" stroke-width="1" opacity="1" d="M 592.5 243 L 595 243.5 L 592.5 244 L 592.5 243 Z " /><path fill="rgb(144,169,91)" stroke="rgb(144,169,91)" stroke-width="1" opacity="1" d="M 942.5 255 L 943 260.5 L 942 260.5 L 942.5 255 Z " /><path fill="rgb(144,169,91)" stroke="rgb(144,169,91)" stroke-width="1" opacity="1" d="M 562.5 275 L 563 281.5 L 562 281.5 L 562.5 275 Z " /><path fill="rgb(144,169,91)" stroke="rgb(144,169,91)" stroke-width="1" opacity="1" d="M 492.5 322 L 514 322.5 L 492.5 323 L 492.5 322 Z " /><path fill="rgb(144,169,91)" stroke="rgb(144,169,91)" stroke-width="1" opacity="1" d="M 481.5 323 L 485 323.5 L 481.5 324 L 481.5 323 Z " /><path fill="rgb(144,169,91)" stroke="rgb(144,169,91)" stroke-width="1" opacity="1" d="M 525.5 323 L 529 323.5 L 525.5 324 L 525.5 323 Z " /><path fill="rgb(144,169,91)" stroke="rgb(144,169,91)" stroke-width="1" opacity="1" d="M 472.5 324 L 476 324.5 L 472.5 325 L 472.5 324 Z " /><path fill="rgb(144,169,91)" stroke="rgb(144,169,91)" stroke-width="1" opacity="1" d="M 533.5 324 L 537 324.5 L 533.5 325 L 533.5 324 Z " /><path fill="rgb(144,169,91)" stroke="rgb(144,169,91)" stroke-width="1" opacity="1" d="M 466.5 325 L 469 325.5 L 466.5 326 L 466.5 325 Z " /><path fill="rgb(144,169,91)" stroke="rgb(144,169,91)" stroke-width="1" opacity="1" d="M 540.5 325 L 543 325.5 L 540.5 326 L 540.5 325 Z " /><path fill="rgb(144,169,91)" stroke="rgb(144,169,91)" stroke-width="1" opacity="1" d="M 487.5 340 L 492 340.5 L 487.5 341 L 487.5 340 Z " /><path fill="rgb(144,169,91)" stroke="rgb(144,169,91)" stroke-width="1" opacity="1" d="M 516.5 340 L 522 340.5 L 516.5 341 L 516.5 340 Z " /><path fill="rgb(144,169,91)" stroke="rgb(144,169,91)" stroke-width="1" opacity="1" d="M 478.5 341 L 482 341.5 L 478.5 342 L 478.5 341 Z " /><path fill="rgb(144,169,91)" stroke="rgb(144,169,91)" stroke-width="1" opacity="1" d="M 528.5 341 L 532 341.5 L 528.5 342 L 528.5 341 Z " /><path fill="rgb(144,169,91)" stroke="rgb(144,169,91)" stroke-width="1" opacity="1" d="M 471.5 342 L 474 342.5 L 471.5 343 L 471.5 342 Z " /><path fill="rgb(144,169,91)" stroke="rgb(144,169,91)" stroke-width="1" opacity="1" d="M 675.5 365 L 683 365.5 L 675.5 366 L 675.5 365 Z " /><path fill="rgb(144,169,91)" stroke="rgb(144,169,91)" stroke-width="1" opacity="1" d="M 695.5 365 L 701 365.5 L 695.5 366 L 695.5 365 Z " /><path fill="rgb(144,169,91)" stroke="rgb(144,169,91)" stroke-width="1" opacity="1" d="M 707.5 366 L 712 366.5 L 707.5 367 L 707.5 366 Z " /><path fill="rgb(144,169,91)" stroke="rgb(144,169,91)" stroke-width="1" opacity="1" d="M 808.5 367 L 811 367.5 L 808.5 368 L 808.5 367 Z " /><path fill="rgb(144,169,91)" stroke="rgb(144,169,91)" stroke-width="1" opacity="1" d="M 726.5 368 L 730 368.5 L 726.5 369 L 726.5 368 Z " /><path fill="rgb(144,169,91)" stroke="rgb(144,169,91)" stroke-width="1" opacity="1" d="M 802.5 368 L 805 368.5 L 802.5 369 L 802.5 368 Z " /><path fill="rgb(144,169,91)" stroke="rgb(144,169,91)" stroke-width="1" opacity="1" d="M 734.5 369 L 739 369.5 L 734.5 370 L 734.5 369 Z " /><path fill="rgb(144,169,91)" stroke="rgb(144,169,91)" stroke-width="1" opacity="1" d="M 795.5 369 L 799 369.5 L 795.5 370 L 795.5 369 Z " /><path fill="rgb(144,169,91)" stroke="rgb(144,169,91)" stroke-width="1" opacity="1" d="M 742.5 370 L 750 370.5 L 742.5 371 L 742.5 370 Z " /><path fill="rgb(144,169,91)" stroke="rgb(144,169,91)" stroke-width="1" opacity="1" d="M 786.5 370 L 790 370.5 L 786.5 371 L 786.5 370 Z " /><path fill="rgb(144,169,91)" stroke="rgb(144,169,91)" stroke-width="1" opacity="1" d="M 758.5 371 L 779 371.5 L 758.5 372 L 758.5 371 Z " /><path fill="rgb(144,169,91)" stroke="rgb(144,169,91)" stroke-width="1" opacity="1" d="M 209.5 598 L 210 600.5 L 209 600.5 L 209.5 598 Z " /><path fill="rgb(144,169,91)" stroke="rgb(144,169,91)" stroke-width="1" opacity="1" d="M 226.5 603 L 227 605.5 L 226 605.5 L 226.5 603 Z " /><path fill="rgb(144,169,91)" stroke="rgb(144,169,91)" stroke-width="1" opacity="1" d="M 208.5 604 L 209 606.5 L 208 606.5 L 208.5 604 Z " /><path fill="rgb(144,169,91)" stroke="rgb(144,169,91)" stroke-width="1" opacity="1" d="M 225.5 609 L 226 611.5 L 225 611.5 L 225.5 609 Z " /><path fill="rgb(144,169,91)" stroke="rgb(144,169,91)" stroke-width="1" opacity="1" d="M 207.5 610 L 208 612.5 L 207 612.5 L 207.5 610 Z " /><path fill="rgb(144,169,91)" stroke="rgb(144,169,91)" stroke-width="1" opacity="1" d="M 1045.5 610 L 1046 612.5 L 1045 612.5 L 1045.5 610 Z " /><path fill="rgb(144,169,91)" stroke="rgb(144,169,91)" stroke-width="1" opacity="1" d="M 1028.5 615 L 1029 618.5 L 1028 618.5 L 1028.5 615 Z " /><path fill="rgb(144,169,91)" stroke="rgb(144,169,91)" stroke-width="1" opacity="1" d="M 224.5 616 L 225 618.5 L 224 618.5 L 224.5 616 Z " /><path fill="rgb(144,169,91)" stroke="rgb(144,169,91)" stroke-width="1" opacity="1" d="M 206.5 617 L 207 619.5 L 206 619.5 L 206.5 617 Z " /><path fill="rgb(144,169,91)" stroke="rgb(144,169,91)" stroke-width="1" opacity="1" d="M 223.5 623 L 224 626.5 L 223 626.5 L 223.5 623 Z " /><path fill="rgb(144,169,91)" stroke="rgb(144,169,91)" stroke-width="1" opacity="1" d="M 1029.5 624 L 1030 626.5 L 1029 626.5 L 1029.5 624 Z " /><path fill="rgb(144,169,91)" stroke="rgb(144,169,91)" stroke-width="1" opacity="1" d="M 205.5 625 L 206 628.5 L 205 628.5 L 205.5 625 Z " /><path fill="rgb(144,169,91)" stroke="rgb(144,169,91)" stroke-width="1" opacity="1" d="M 1047.5 629 L 1048 631.5 L 1047 631.5 L 1047.5 629 Z " /><path fill="rgb(144,169,91)" stroke="rgb(144,169,91)" stroke-width="1" opacity="1" d="M 222.5 631 L 223 634.5 L 222 634.5 L 222.5 631 Z " /><path fill="rgb(144,169,91)" stroke="rgb(144,169,91)" stroke-width="1" opacity="1" d="M 204.5 634 L 205 639.5 L 204 639.5 L 204.5 634 Z " /><path fill="rgb(144,169,91)" stroke="rgb(144,169,91)" stroke-width="1" opacity="1" d="M 1030.5 635 L 1031 641.5 L 1030 641.5 L 1030.5 635 Z " /><path fill="rgb(144,169,91)" stroke="rgb(144,169,91)" stroke-width="1" opacity="1" d="M 1048.5 641 L 1049 645.5 L 1048 645.5 L 1048.5 641 Z " /><path fill="rgb(144,169,91)" stroke="rgb(144,169,91)" stroke-width="1" opacity="1" d="M 221.5 643 L 222 649.5 L 221 649.5 L 221.5 643 Z " /><path fill="rgb(144,169,91)" stroke="rgb(144,169,91)" stroke-width="1" opacity="1" d="M 203.5 653 L 204 658.5 L 203 658.5 L 203.5 653 Z " /><path fill="rgb(144,169,91)" stroke="rgb(144,169,91)" stroke-width="1" opacity="1" d="M 1031.5 655 L 1032 657.5 L 1031 657.5 L 1031.5 655 Z " /><path fill="rgb(144,169,91)" stroke="rgb(144,169,91)" stroke-width="1" opacity="1" d="M 220.5 664 L 221 670.5 L 220 670.5 L 220.5 664 Z " /><path fill="rgb(144,169,91)" stroke="rgb(144,169,91)" stroke-width="1" opacity="1" d="M 449.5 671 L 453 671.5 L 449.5 672 L 449.5 671 Z " /><path fill="rgb(144,169,91)" stroke="rgb(144,169,91)" stroke-width="1" opacity="1" d="M 462.5 671 L 465 671.5 L 462.5 672 L 462.5 671 Z " /><path fill="rgb(144,169,91)" stroke="rgb(144,169,91)" stroke-width="1" opacity="1" d="M 739.5 671 L 743 671.5 L 739.5 672 L 739.5 671 Z " /><path fill="rgb(144,169,91)" stroke="rgb(144,169,91)" stroke-width="1" opacity="1" d="M 753.5 671 L 756 671.5 L 753.5 672 L 753.5 671 Z " /><path fill="rgb(144,169,91)" stroke="rgb(144,169,91)" stroke-width="1" opacity="1" d="M 1048.5 678 L 1049 683.5 L 1048 683.5 L 1048.5 678 Z " /><path fill="rgb(144,169,91)" stroke="rgb(144,169,91)" stroke-width="1" opacity="1" d="M 1030.5 682 L 1031 687.5 L 1030 687.5 L 1030.5 682 Z " /><path fill="rgb(144,169,91)" stroke="rgb(144,169,91)" stroke-width="1" opacity="1" d="M 221.5 688 L 222 693.5 L 221 693.5 L 221.5 688 Z " /><path fill="rgb(144,169,91)" stroke="rgb(144,169,91)" stroke-width="1" opacity="1" d="M 447.5 689 L 453 689.5 L 447.5 690 L 447.5 689 Z " /><path fill="rgb(144,169,91)" stroke="rgb(144,169,91)" stroke-width="1" opacity="1" d="M 204.5 697 L 205 702.5 L 204 702.5 L 204.5 697 Z " /><path fill="rgb(144,169,91)" stroke="rgb(144,169,91)" stroke-width="1" opacity="1" d="M 222.5 702 L 223 704.5 L 222 704.5 L 222.5 702 Z " /><path fill="rgb(144,169,91)" stroke="rgb(144,169,91)" stroke-width="1" opacity="1" d="M 725.5 702 L 726 704.5 L 725 704.5 L 725.5 702 Z " /><path fill="rgb(144,169,91)" stroke="rgb(144,169,91)" stroke-width="1" opacity="1" d="M 1046.5 703 L 1047 705.5 L 1046 705.5 L 1046.5 703 Z " /><path fill="rgb(144,169,91)" stroke="rgb(144,169,91)" stroke-width="1" opacity="1" d="M 1028.5 706 L 1029 708.5 L 1028 708.5 L 1028.5 706 Z " /><path fill="rgb(144,169,91)" stroke="rgb(144,169,91)" stroke-width="1" opacity="1" d="M 205.5 707 L 206 710.5 L 205 710.5 L 205.5 707 Z " /><path fill="rgb(144,169,91)" stroke="rgb(144,169,91)" stroke-width="1" opacity="1" d="M 499.5 707 L 500 709.5 L 499 709.5 L 499.5 707 Z " /><path fill="rgb(144,169,91)" stroke="rgb(144,169,91)" stroke-width="1" opacity="1" d="M 704.5 709 L 705 712.5 L 704 712.5 L 704.5 709 Z " /><path fill="rgb(144,169,91)" stroke="rgb(144,169,91)" stroke-width="1" opacity="1" d="M 790.5 709 L 791 711.5 L 790 711.5 L 790.5 709 Z " /><path fill="rgb(144,169,91)" stroke="rgb(144,169,91)" stroke-width="1" opacity="1" d="M 413.5 710 L 414 713.5 L 413 713.5 L 413.5 710 Z " /><path fill="rgb(144,169,91)" stroke="rgb(144,169,91)" stroke-width="1" opacity="1" d="M 223.5 711 L 224 713.5 L 223 713.5 L 223.5 711 Z " /><path fill="rgb(144,169,91)" stroke="rgb(144,169,91)" stroke-width="1" opacity="1" d="M 1045.5 711 L 1046 714.5 L 1045 714.5 L 1045.5 711 Z " /><path fill="rgb(144,169,91)" stroke="rgb(144,169,91)" stroke-width="1" opacity="1" d="M 1027.5 713 L 1028 715.5 L 1027 715.5 L 1027.5 713 Z " /><path fill="rgb(144,169,91)" stroke="rgb(144,169,91)" stroke-width="1" opacity="1" d="M 500.5 714 L 501 722.5 L 500 722.5 L 500.5 714 Z " /><path fill="rgb(144,169,91)" stroke="rgb(144,169,91)" stroke-width="1" opacity="1" d="M 206.5 716 L 207 718.5 L 206 718.5 L 206.5 716 Z " /><path fill="rgb(144,169,91)" stroke="rgb(144,169,91)" stroke-width="1" opacity="1" d="M 1044.5 719 L 1045 721.5 L 1044 721.5 L 1044.5 719 Z " /><path fill="rgb(144,169,91)" stroke="rgb(144,169,91)" stroke-width="1" opacity="1" d="M 1026.5 720 L 1027 722.5 L 1026 722.5 L 1026.5 720 Z " /><path fill="rgb(144,169,91)" stroke="rgb(144,169,91)" stroke-width="1" opacity="1" d="M 413.5 722 L 414 725.5 L 413 725.5 L 413.5 722 Z " /><path fill="rgb(144,169,91)" stroke="rgb(144,169,91)" stroke-width="1" opacity="1" d="M 704.5 723 L 705 726.5 L 704 726.5 L 704.5 723 Z " /><path fill="rgb(144,169,91)" stroke="rgb(144,169,91)" stroke-width="1" opacity="1" d="M 1024.5 731 L 1025 733.5 L 1024 733.5 L 1024.5 731 Z " /><path fill="rgb(144,169,91)" stroke="rgb(144,169,91)" stroke-width="1" opacity="1" d="M 560.5 734 L 562 734.5 L 559.5 736 L 560.5 734 Z " /><path fill="rgb(144,169,91)" stroke="rgb(144,169,91)" stroke-width="1" opacity="1" d="M 632.5 741 L 633 744.5 L 632 744.5 L 632.5 741 Z " /><path fill="rgb(144,169,91)" stroke="rgb(144,169,91)" stroke-width="1" opacity="1" d="M 573.5 742 L 574 744.5 L 573 744.5 L 573.5 742 Z " /><path fill="rgb(144,169,91)" stroke="rgb(144,169,91)" stroke-width="1" opacity="1" d="M 556.5 751 L 557 753.5 L 556 753.5 L 556.5 751 Z " /><path fill="rgb(144,169,91)" stroke="rgb(144,169,91)" stroke-width="1" opacity="1" d="M 465.5 763 L 468 763.5 L 465.5 764 L 465.5 763 Z " /><path fill="rgb(144,169,91)" stroke="rgb(144,169,91)" stroke-width="1" opacity="1" d="M 737.5 763 L 740 763.5 L 737.5 764 L 737.5 763 Z " /><path fill="rgb(144,169,91)" stroke="rgb(144,169,91)" stroke-width="1" opacity="1" d="M 756.5 763 L 759 763.5 L 756.5 764 L 756.5 763 Z " /><path fill="rgb(144,169,91)" stroke="rgb(144,169,91)" stroke-width="1" opacity="1" d="M 453.5 764 L 462 764.5 L 453.5 765 L 453.5 764 Z " /><path fill="rgb(144,169,91)" stroke="rgb(144,169,91)" stroke-width="1" opacity="1" d="M 743.5 764 L 752 764.5 L 743.5 765 L 743.5 764 Z " /><path fill="rgb(144,169,91)" stroke="rgb(144,169,91)" stroke-width="1" opacity="1" d="M 595.5 768 L 598 768.5 L 595.5 769 L 595.5 768 Z " /><path fill="rgb(144,169,91)" stroke="rgb(144,169,91)" stroke-width="1" opacity="1" d="M 608.5 768 L 611 768.5 L 608.5 769 L 608.5 768 Z " /><path fill="rgb(144,169,91)" stroke="rgb(144,169,91)" stroke-width="1" opacity="1" d="M 592.5 786 L 596 786.5 L 592.5 787 L 592.5 786 Z " /><path fill="rgb(144,169,91)" stroke="rgb(144,169,91)" stroke-width="1" opacity="1" d="M 602.5 787 L 607 787.5 L 602.5 788 L 602.5 787 Z " /><path fill="rgb(144,169,91)" stroke="rgb(144,169,91)" stroke-width="1" opacity="1" d="M 637.5 995 L 640 995.5 L 637.5 996 L 637.5 995 Z " /><path fill="rgb(144,169,91)" stroke="rgb(144,169,91)" stroke-width="1" opacity="1" d="M 733.5 1018 L 736 1018.5 L 733.5 1019 L 733.5 1018 Z " /><path fill="rgb(144,169,91)" stroke="rgb(144,169,91)" stroke-width="1" opacity="1" d="M 693.5 1019 L 696 1019.5 L 693.5 1020 L 693.5 1019 Z " /><path fill="rgb(144,169,91)" stroke="rgb(144,169,91)" stroke-width="1" opacity="1" d="M 726.5 1019 L 729 1019.5 L 726.5 1020 L 726.5 1019 Z " /><path fill="rgb(144,169,91)" stroke="rgb(144,169,91)" stroke-width="1" opacity="1" d="M 711.5 1020 L 719 1020.5 L 711.5 1021 L 711.5 1020 Z " /><path fill="rgb(144,169,91)" stroke="rgb(144,169,91)" stroke-width="1" opacity="1" d="M 543.5 1024 L 546 1024.5 L 543.5 1025 L 543.5 1024 Z " /><path fill="rgb(144,169,91)" stroke="rgb(144,169,91)" stroke-width="1" opacity="1" d="M 554.5 1025 L 562 1025.5 L 554.5 1026 L 554.5 1025 Z " /><path fill="rgb(144,169,91)" stroke="rgb(144,169,91)" stroke-width="1" opacity="1" d="M 566.5 1025 L 572 1025.5 L 566.5 1026 L 566.5 1025 Z " /><path fill="rgb(144,169,91)" stroke="rgb(144,169,91)" stroke-width="1" opacity="1" d="M 731.5 1036 L 734 1036.5 L 731.5 1037 L 731.5 1036 Z " /><path fill="rgb(144,169,91)" stroke="rgb(144,169,91)" stroke-width="1" opacity="1" d="M 696.5 1037 L 701 1037.5 L 696.5 1038 L 696.5 1037 Z " /><path fill="rgb(144,169,91)" stroke="rgb(144,169,91)" stroke-width="1" opacity="1" d="M 721.5 1037 L 726 1037.5 L 721.5 1038 L 721.5 1037 Z " /><path fill="rgb(144,169,91)" stroke="rgb(144,169,91)" stroke-width="1" opacity="1" d="M 525.5 1039 L 528 1039.5 L 525.5 1040 L 525.5 1039 Z " /><path fill="rgb(144,169,91)" stroke="rgb(144,169,91)" stroke-width="1" opacity="1" d="M 539.5 1041 L 542 1041.5 L 539.5 1042 L 539.5 1041 Z " /><path fill="rgb(144,169,91)" stroke="rgb(144,169,91)" stroke-width="1" opacity="1" d="M 582.5 1041 L 585 1041.5 L 582.5 1042 L 582.5 1041 Z " /><path fill="rgb(144,169,91)" stroke="rgb(144,169,91)" stroke-width="1" opacity="1" d="M 547.5 1042 L 551 1042.5 L 547.5 1043 L 547.5 1042 Z " /><path fill="rgb(144,169,91)" stroke="rgb(144,169,91)" stroke-width="1" opacity="1" d="M 576.5 1042 L 579 1042.5 L 576.5 1043 L 576.5 1042 Z " /><path fill="rgb(247,162,162)" stroke="rgb(247,162,162)" stroke-width="1" opacity="1" d="M 781.5 194 L 787 194.5 L 781.5 195 L 781.5 194 Z " /><path fill="rgb(247,162,162)" stroke="rgb(247,162,162)" stroke-width="1" opacity="1" d="M 815.5 194 L 819 194.5 L 815.5 195 L 815.5 194 Z " /><path fill="rgb(247,162,162)" stroke="rgb(247,162,162)" stroke-width="1" opacity="1" d="M 825.5 195 L 828 195.5 L 825.5 196 L 825.5 195 Z " /><path fill="rgb(247,162,162)" stroke="rgb(247,162,162)" stroke-width="1" opacity="1" d="M 487.5 322 L 492 322.5 L 487.5 323 L 487.5 322 Z " /><path fill="rgb(247,162,162)" stroke="rgb(247,162,162)" stroke-width="1" opacity="1" d="M 514.5 322 L 522 322.5 L 514.5 323 L 514.5 322 Z " /><path fill="rgb(247,162,162)" stroke="rgb(247,162,162)" stroke-width="1" opacity="1" d="M 476.5 323 L 481 323.5 L 476.5 324 L 476.5 323 Z " /><path fill="rgb(247,162,162)" stroke="rgb(247,162,162)" stroke-width="1" opacity="1" d="M 529.5 323 L 532 323.5 L 529.5 324 L 529.5 323 Z " /><path fill="rgb(247,162,162)" stroke="rgb(247,162,162)" stroke-width="1" opacity="1" d="M 469.5 324 L 472 324.5 L 469.5 325 L 469.5 324 Z " /><path fill="rgb(247,162,162)" stroke="rgb(247,162,162)" stroke-width="1" opacity="1" d="M 458.5 326 L 461 326.5 L 458.5 327 L 458.5 326 Z " /><path fill="rgb(247,162,162)" stroke="rgb(247,162,162)" stroke-width="1" opacity="1" d="M 552.5 327 L 555 327.5 L 552.5 328 L 552.5 327 Z " /><path fill="rgb(247,162,162)" stroke="rgb(247,162,162)" stroke-width="1" opacity="1" d="M 492.5 340 L 515.5 340 L 516.5 341 L 535.5 342 L 554.5 346 L 573.5 352 L 598.5 364 Q 615.14 373.86 627.5 388 L 636.5 391 L 643.5 388 Q 655.82 374.32 673.5 366 L 694.5 365 L 695.5 366 L 717.5 367 L 718.5 368 L 725.5 368 L 742.5 371 L 778.5 372 L 779.5 371 L 789.5 371 L 790.5 370 L 798.5 370 L 799.5 369 L 810.5 368 L 843.5 358 Q 902.94 382.56 943 426.5 Q 986.38 472.62 1010 538.5 L 1023 583.5 L 1023 588.5 L 1025 593.5 L 1025 598.5 L 1028 611.5 L 1028 618.5 L 1030 627.5 L 1030 641.5 L 1031 642.5 L 1031 681.5 L 1030 682.5 L 1029 705.5 L 1022 745.5 L 1009 788.5 L 1000 810.5 Q 970.17 875.17 921.5 921 Q 877.13 964.13 817.5 992 Q 792.61 1003.61 764.5 1012 L 732.5 1019 L 705.5 1021 L 702.5 1020 L 690.5 1019 L 679.5 1016 Q 661.62 1009.38 649.5 997 Q 645.5 994 637.5 995 L 621.5 1008 L 603.5 1018 L 583.5 1024 L 562.5 1026 L 561.5 1025 L 538.5 1024 L 501.5 1016 L 478.5 1009 L 475.5 1007 L 472.5 1007 L 440.5 994 Q 365.56 959.94 313 903.5 Q 266.9 855.1 241 786.5 L 232 757.5 L 224 718.5 L 223 702.5 L 222 701.5 L 222 688.5 L 221 687.5 L 221 650.5 L 222 649.5 L 222 635.5 L 223 634.5 L 224 619.5 L 229 590.5 Q 237.33 554.83 251 524.5 Q 280.83 459.83 329.5 414 Q 362.56 382.56 406.5 362 L 445.5 348 L 467.5 343 L 491.5 341 L 492.5 340 Z M 852 408 L 843 412 Q 836 416 834 425 L 835 436 L 841 447 L 874 476 L 887 485 L 896 488 Q 907 490 913 485 Q 919 481 921 472 L 921 463 L 919 456 L 908 439 Q 896 425 881 415 L 867 409 L 852 408 Z M 450 671 Q 439 673 432 679 Q 417 690 413 711 L 413 726 L 414 731 L 422 748 L 437 760 L 443 763 L 454 765 L 468 764 L 484 756 L 496 741 L 501 723 L 501 715 L 499 704 Q 495 693 489 686 Q 482 678 472 673 Q 463 669 450 671 Z M 740 671 Q 727 674 719 682 Q 707 692 704 710 Q 702 722 705 731 L 714 749 Q 724 761 744 765 L 759 764 L 765 762 L 777 754 L 785 744 L 791 727 L 791 710 L 790 705 Q 787 693 780 686 Q 773 677 763 673 Q 754 669 740 671 Z M 561 734 L 555 741 L 555 748 L 557 757 L 565 771 Q 573 780 586 785 L 593 787 L 600 787 L 603 788 Q 623 787 635 777 Q 647 767 651 748 Q 653 736 646 734 L 637 735 L 632 742 Q 632 751 628 757 L 620 765 L 608 769 L 599 769 L 587 765 L 578 757 L 574 748 Q 575 741 572 738 Q 570 732 561 734 Z " /><path fill="rgb(247,162,162)" stroke="rgb(247,162,162)" stroke-width="1" opacity="1" d="M 1047.5 626 L 1048 628.5 L 1047 628.5 L 1047.5 626 Z " /><path fill="rgb(247,162,162)" stroke="rgb(247,162,162)" stroke-width="1" opacity="1" d="M 203.5 645 L 204 652.5 L 203 652.5 L 203.5 645 Z " /><path fill="rgb(247,162,162)" stroke="rgb(247,162,162)" stroke-width="1" opacity="1" d="M 203.5 683 L 204 692.5 L 203 692.5 L 203.5 683 Z " /><path fill="rgb(247,162,162)" stroke="rgb(247,162,162)" stroke-width="1" opacity="1" d="M 1048.5 684 L 1049 686.5 L 1048 686.5 L 1048.5 684 Z " /><path fill="rgb(247,162,162)" stroke="rgb(247,162,162)" stroke-width="1" opacity="1" d="M 738.5 689 L 743 689.5 L 738.5 690 L 738.5 689 Z " /><path fill="rgb(247,162,162)" stroke="rgb(247,162,162)" stroke-width="1" opacity="1" d="M 435.5 701 L 436 705.5 L 435 705.5 L 435.5 701 Z " /><path fill="rgb(247,162,162)" stroke="rgb(247,162,162)" stroke-width="1" opacity="1" d="M 754.5 701 L 755 705.5 L 754 705.5 L 754.5 701 Z " /><path fill="rgb(247,162,162)" stroke="rgb(247,162,162)" stroke-width="1" opacity="1" d="M 205.5 711 L 206 714.5 L 205 714.5 L 205.5 711 Z " /><path fill="rgb(247,162,162)" stroke="rgb(247,162,162)" stroke-width="1" opacity="1" d="M 447.5 717 L 452 717.5 L 447.5 718 L 447.5 717 Z " /><path fill="rgb(247,162,162)" stroke="rgb(247,162,162)" stroke-width="1" opacity="1" d="M 738.5 717 L 742 717.5 L 738.5 718 L 738.5 717 Z " /><path fill="rgb(247,162,162)" stroke="rgb(247,162,162)" stroke-width="1" opacity="1" d="M 704.5 1038 L 717 1038.5 L 704.5 1039 L 704.5 1038 Z " /><path fill="rgb(247,162,162)" stroke="rgb(247,162,162)" stroke-width="1" opacity="1" d="M 536.5 1041 L 539 1041.5 L 536.5 1042 L 536.5 1041 Z " /><path fill="rgb(247,162,162)" stroke="rgb(247,162,162)" stroke-width="1" opacity="1" d="M 543.5 1042 L 547 1042.5 L 543.5 1043 L 543.5 1042 Z " /><path fill="rgb(247,162,162)" stroke="rgb(247,162,162)" stroke-width="1" opacity="1" d="M 556.5 1043 L 573 1043.5 L 556.5 1044 L 556.5 1043 Z " /><path fill="rgb(248,248,247)" stroke="rgb(248,248,247)" stroke-width="1" opacity="1" d="M 0 0 L 1254 0 L 1254 1254 L 0 1254 L 0 0 Z M 782 194 L 754 199 L 724 210 L 699 225 L 679 241 L 663 261 L 650 285 Q 651 287 648 286 L 645 277 L 634 258 L 622 246 L 609 242 L 592 243 L 578 250 Q 565 258 562 275 L 562 284 L 564 291 L 582 319 L 593 340 L 593 341 L 581 335 L 559 328 L 532 323 L 523 323 L 522 322 L 488 322 L 487 323 L 470 324 L 438 331 L 414 339 Q 356 362 316 402 Q 268 447 238 510 Q 225 537 216 568 L 207 610 L 205 633 L 204 634 L 204 645 L 203 646 L 203 693 L 204 694 L 204 704 L 205 705 L 205 715 L 211 749 L 225 796 Q 253 869 304 921 Q 357 976 432 1010 L 464 1023 L 495 1033 L 525 1040 L 543 1042 L 544 1043 L 556 1043 L 557 1044 L 581 1043 L 608 1036 Q 627 1028 642 1015 Q 654 1025 671 1032 L 689 1037 L 704 1038 L 705 1039 L 727 1038 L 728 1037 L 736 1037 L 752 1034 L 782 1026 L 823 1010 Q 888 980 937 932 Q 986 885 1016 820 L 1026 796 L 1039 754 L 1045 723 L 1047 700 L 1048 699 L 1048 688 L 1049 687 L 1049 640 L 1048 639 L 1048 627 L 1047 626 L 1046 609 L 1041 581 L 1031 544 L 1019 512 L 1004 481 Q 986 448 962 421 Q 940 395 913 375 L 883 356 L 864 348 Q 881 338 895 326 Q 925 300 943 262 L 943 254 L 939 246 L 903 221 Q 882 210 859 202 L 819 194 L 782 194 Z " /><path fill="rgb(248,248,247)" stroke="rgb(248,248,247)" stroke-width="1" opacity="1" d="M 851.5 408 L 866.5 409 L 880.5 415 Q 896.21 424.79 908 438.5 L 919 455.5 L 921 462.5 L 921 471.5 Q 919.25 480.75 912.5 485 Q 907 489.5 895.5 488 L 886.5 485 L 873.5 476 L 841 446.5 L 835 435.5 L 834 424.5 Q 836.15 416.15 842.5 412 L 851.5 408 Z " /><path fill="rgb(248,248,247)" stroke="rgb(248,248,247)" stroke-width="1" opacity="1" d="M 446.5 690 Q 458.19 689.31 462 696.5 L 464 705.5 Q 462.18 712.68 456.5 716 L 445.5 717 L 437 710.5 Q 434.5 707 436 699.5 L 440.5 693 L 446.5 690 Z " /><path fill="rgb(248,248,247)" stroke="rgb(248,248,247)" stroke-width="1" opacity="1" d="M 736.5 690 Q 748.02 688.98 752 695.5 Q 754.86 699.14 754 706.5 Q 752.75 712.25 748.5 715 Q 744.5 718 736.5 717 Q 730.37 715.62 728 710.5 Q 725.43 707.57 726 701.5 Q 727.54 695.04 732.5 692 L 736.5 690 Z " /></svg>