<svg viewBox="0 0 1254 1254" version="1.1" xmlns="http://www.w3.org/2000/svg" desc="Created with imagetracer.js version 1.2.6" ><path fill="rgb(95,58,25)" stroke="rgb(95,58,25)" stroke-width="1" opacity="1" d="M 769.5 124 L 796.5 124 L 797.5 125 L 816.5 127 L 837.5 133 L 850.5 139 L 853 141.5 L 855 145.5 L 855 159.5 L 850 184.5 Q 844.6 203.1 836 218.5 Q 823.39 240.89 804.5 257 L 781.5 273 L 761.5 282 L 731.5 290 L 717.5 291 L 716.5 292 L 702 292 Q 700.87 294.67 703.5 294 Q 729.25 306.75 748 326.5 Q 761.56 340.44 772 357.5 L 782 376.5 L 792 401.5 L 802 439.5 L 816 511.5 L 821 528.5 L 829 548.5 L 844 575.5 L 893 644.5 Q 909.18 670.32 921 700.5 L 930 727.5 L 938 764.5 L 938 771.5 L 940 780.5 L 940 791.5 L 941 792.5 L 941 830.5 L 940 831.5 L 940 840.5 L 939 841.5 L 939 849.5 L 938 850.5 L 936 869.5 L 930 895.5 L 924 911.5 L 924 914.5 L 913 941.5 Q 887.98 994.48 847.5 1032 Q 802.68 1074.68 738.5 1098 L 709.5 1107 L 681.5 1113 L 675.5 1113 L 660.5 1116 L 651.5 1116 L 650.5 1117 L 615.5 1118 L 614.5 1117 L 582.5 1116 L 542.5 1109 L 510.5 1100 L 477.5 1087 Q 414.1 1058.4 371 1009.5 Q 335.2 969.3 315 913.5 L 307 886.5 L 301 856.5 L 300 840.5 L 299 839.5 L 299 826.5 L 298 825.5 L 298 803.5 L 299 802.5 L 300 775.5 L 306 741.5 L 312 719.5 L 322 692.5 Q 333 667 347 644.5 L 396 574.5 L 408 552.5 L 416 533.5 L 424 506.5 L 430 476.5 L 430 470.5 L 433 459.5 L 435 442.5 L 442 413.5 L 450 389.5 Q 466.92 345.42 499.5 317 Q 516.3 302.3 537.5 292 L 564.5 282 L 584 278 L 581 253.5 L 571 215.5 L 563 194.5 L 562 185.5 L 568.5 175 L 583.5 166 L 600.5 163 L 609.5 165 L 615 168.5 L 618 173.5 Q 619.03 183.47 623 190.5 L 631.5 232 Q 647.1 191.6 676.5 165 Q 693.04 149.54 714.5 139 L 741.5 129 L 769.5 124 Z M 777 138 L 776 139 L 764 139 L 749 142 L 733 147 Q 709 156 692 171 Q 653 203 638 258 L 639 259 L 653 246 L 690 220 L 723 203 L 739 197 L 748 196 Q 752 197 751 205 L 748 208 L 737 211 L 718 219 L 691 234 Q 666 249 646 269 L 644 272 L 656 275 L 670 276 L 671 277 L 683 277 L 684 278 L 721 277 L 742 273 L 771 262 L 794 247 Q 817 227 830 198 Q 839 177 841 150 L 819 142 L 809 140 L 792 139 L 791 138 L 777 138 Z M 594 178 L 582 183 L 578 187 L 579 188 L 578 191 L 582 202 L 583 200 L 585 207 L 585 208 L 584 207 L 583 207 L 591 233 L 593 246 L 595 251 L 601 287 L 602 282 L 602 285 L 605 286 L 603 290 Q 606 291 605 297 L 605 299 L 601 300 L 609 302 Q 616 303 620 300 L 620 292 L 621 291 L 620 260 L 618 249 L 618 239 L 616 233 L 616 227 L 613 212 L 606 185 L 602 186 L 600 180 L 597 180 L 601 179 L 594 178 Z M 578 187 L 577 190 L 578 190 L 578 187 Z M 583 202 L 582 205 L 583 205 L 583 202 Z M 604 285 L 603 288 L 604 288 L 604 285 Z M 602 287 L 601 298 L 602 298 L 602 287 Z M 635 290 L 634 308 L 632 311 L 619 316 Q 601 318 592 312 L 587 306 Q 588 297 586 292 L 569 295 L 547 303 Q 527 312 512 325 Q 481 350 465 390 L 457 412 L 451 435 L 445 472 L 443 478 L 443 483 L 441 489 L 441 494 L 435 520 L 429 539 Q 419 565 405 587 L 359 652 L 339 688 L 329 712 L 322 734 L 315 765 L 313 790 L 312 791 L 312 837 L 313 838 L 313 847 L 318 876 L 323 895 Q 342 957 381 1001 Q 423 1048 485 1076 L 513 1087 L 544 1096 L 576 1102 L 594 1103 L 595 1104 L 612 1104 L 613 1105 L 649 1104 L 650 1103 L 659 1103 L 660 1102 L 681 1100 L 715 1092 L 739 1084 Q 798 1061 840 1021 Q 881 982 905 927 L 920 882 L 926 848 L 927 825 L 928 824 L 928 800 L 927 799 L 927 785 L 925 776 L 925 769 L 919 739 L 909 708 Q 900 683 887 662 L 873 640 L 831 582 L 816 554 L 804 521 L 799 501 L 786 432 L 778 404 Q 765 367 742 341 Q 722 318 693 304 L 668 295 L 635 290 Z " /><path fill="rgb(95,58,25)" stroke="rgb(95,58,25)" stroke-width="1" opacity="1" d="M 485.5 738 Q 495 736.5 500.5 739 L 513 747.5 L 521 761.5 L 523 777.5 L 519 792.5 L 509.5 805 L 497.5 811 L 484.5 811 Q 474.87 808.13 469 801.5 L 461 786.5 Q 458.4 778.6 460 766.5 Q 463.5 751 474.5 743 L 485.5 738 Z M 486 752 L 482 754 L 477 761 L 478 769 L 485 774 Q 491 775 495 773 L 500 766 Q 501 759 498 757 Q 495 751 486 752 Z " /><path fill="rgb(95,58,25)" stroke="rgb(95,58,25)" stroke-width="1" opacity="1" d="M 741.5 738 Q 751.62 736.37 757.5 739 Q 766.92 742.58 772 750.5 Q 777.05 756.95 779 766.5 L 779 782.5 Q 776.3 795.3 768.5 803 Q 763.46 808.96 754.5 811 L 741.5 811 Q 730.25 807.25 724 798.5 Q 718.95 792.05 717 782.5 L 717 766.5 Q 719.8 751.8 729.5 744 L 741.5 738 Z M 742 752 L 740 753 L 734 760 Q 733 767 736 771 L 741 774 Q 747 775 751 773 L 756 767 L 755 758 Q 753 750 742 752 Z " /><path fill="rgb(95,58,25)" stroke="rgb(95,58,25)" stroke-width="1" opacity="1" d="M 584.5 797 Q 590.63 796.25 593 798 L 598 811.5 L 602.5 816 L 609.5 820 L 617.5 822 L 619.5 822 Q 633.9 821.4 640 812.5 Q 644.17 808.17 645 800.5 L 648.5 797 Q 656.5 795.5 658 800.5 L 657 810.5 L 646.5 826 L 631.5 834 Q 624 836.5 612.5 835 Q 598.09 832.41 590 823.5 L 582 810.5 L 581 800.5 L 584.5 797 Z " /><path fill="rgb(124,154,74)" stroke="rgb(124,154,74)" stroke-width="1" opacity="1" d="M 765.5 124 L 769 124.5 L 765.5 125 L 765.5 124 Z " /><path fill="rgb(124,154,74)" stroke="rgb(124,154,74)" stroke-width="1" opacity="1" d="M 797.5 124 L 800 124.5 L 797.5 125 L 797.5 124 Z " /><path fill="rgb(124,154,74)" stroke="rgb(124,154,74)" stroke-width="1" opacity="1" d="M 805.5 125 L 808 125.5 L 805.5 126 L 805.5 125 Z " /><path fill="rgb(124,154,74)" stroke="rgb(124,154,74)" stroke-width="1" opacity="1" d="M 776.5 138 L 790.5 138 L 791.5 139 L 808.5 140 L 818.5 142 L 841 150 Q 839.25 176.93 830 197.5 Q 816.9 227.4 793.5 247 L 770.5 262 L 741.5 273 L 720.5 277 L 683.5 278 L 682.5 277 L 670.5 277 L 669.5 276 L 655.5 275 L 644 272 L 645.5 269 Q 665.87 249.37 690.5 234 L 717.5 219 L 736.5 211 L 747.5 208 L 751 204.5 Q 752.25 197.25 747.5 196 L 738.5 197 L 722.5 203 L 689.5 220 L 652.5 246 L 638.5 259 L 638 257.5 Q 653.25 202.75 691.5 171 Q 709.1 156.1 732.5 147 L 748.5 142 L 763.5 139 L 775.5 139 L 776.5 138 Z " /><path fill="rgb(124,154,74)" stroke="rgb(124,154,74)" stroke-width="1" opacity="1" d="M 855.5 147 L 856 152.5 L 855 152.5 L 855.5 147 Z " /><path fill="rgb(124,154,74)" stroke="rgb(124,154,74)" stroke-width="1" opacity="1" d="M 595.5 163 L 598 163.5 L 595.5 164 L 595.5 163 Z " /><path fill="rgb(124,154,74)" stroke="rgb(124,154,74)" stroke-width="1" opacity="1" d="M 593.5 178 L 601 178.5 L 597 179.5 L 600 180 L 601.5 186 L 605 184.5 L 604.5 183 L 606 184.5 L 610 198.5 L 618 238.5 L 618 248.5 L 620 259.5 L 621 290.5 L 620 291.5 L 620 300 Q 616.44 302.75 608.5 302 L 601 299.5 L 605 298.5 L 605 296.5 Q 605.8 291.2 603 289.5 L 603 287.5 L 601.5 282 L 601 286.5 L 602 287.5 L 602 297.5 L 601 297.5 L 601 287.5 L 600 286.5 L 597 260.5 L 591 232.5 L 583 206.5 L 584 202.5 L 583 202.5 L 582.5 205 L 577 187.5 Q 582.46 179.96 593.5 178 Z M 579 187 L 578 190 L 579 190 L 579 187 Z M 605 285 L 604 288 L 605 288 L 605 285 Z " /><path fill="rgb(124,154,74)" stroke="rgb(124,154,74)" stroke-width="1" opacity="1" d="M 635.5 290 L 638 290.5 L 635.5 291 L 635.5 290 Z " /><path fill="rgb(124,154,74)" stroke="rgb(124,154,74)" stroke-width="1" opacity="1" d="M 725.5 290 L 728 290.5 L 725.5 291 L 725.5 290 Z " /><path fill="rgb(124,154,74)" stroke="rgb(124,154,74)" stroke-width="1" opacity="1" d="M 644.5 291 L 648 291.5 L 644.5 292 L 644.5 291 Z " /><path fill="rgb(124,154,74)" stroke="rgb(124,154,74)" stroke-width="1" opacity="1" d="M 717.5 291 L 721 291.5 L 717.5 292 L 717.5 291 Z " /><path fill="rgb(124,154,74)" stroke="rgb(124,154,74)" stroke-width="1" opacity="1" d="M 580.5 292 L 583 292.5 L 580.5 293 L 580.5 292 Z " /><path fill="rgb(124,154,74)" stroke="rgb(124,154,74)" stroke-width="1" opacity="1" d="M 650.5 292 L 653 292.5 L 650.5 293 L 650.5 292 Z " /><path fill="rgb(124,154,74)" stroke="rgb(124,154,74)" stroke-width="1" opacity="1" d="M 702 292 L 710 292.5 L 702.5 294 L 702 292 Z " /><path fill="rgb(124,154,74)" stroke="rgb(124,154,74)" stroke-width="1" opacity="1" d="M 576.5 293 L 579 293.5 L 576.5 294 L 576.5 293 Z " /><path fill="rgb(124,154,74)" stroke="rgb(124,154,74)" stroke-width="1" opacity="1" d="M 656.5 293 L 659 293.5 L 656.5 294 L 656.5 293 Z " /><path fill="rgb(124,154,74)" stroke="rgb(124,154,74)" stroke-width="1" opacity="1" d="M 572.5 294 L 575 294.5 L 572.5 295 L 572.5 294 Z " /><path fill="rgb(124,154,74)" stroke="rgb(124,154,74)" stroke-width="1" opacity="1" d="M 665.5 295 L 668 295.5 L 665.5 296 L 665.5 295 Z " /><path fill="rgb(124,154,74)" stroke="rgb(124,154,74)" stroke-width="1" opacity="1" d="M 586.5 296 L 587 299.5 L 586 299.5 L 586.5 296 Z " /><path fill="rgb(124,154,74)" stroke="rgb(124,154,74)" stroke-width="1" opacity="1" d="M 634.5 300 L 635 306.5 L 634 306.5 L 634.5 300 Z " /><path fill="rgb(124,154,74)" stroke="rgb(124,154,74)" stroke-width="1" opacity="1" d="M 619.5 315 L 622 315.5 L 619.5 316 L 619.5 315 Z " /><path fill="rgb(124,154,74)" stroke="rgb(124,154,74)" stroke-width="1" opacity="1" d="M 605.5 316 L 615 316.5 L 605.5 317 L 605.5 316 Z " /><path fill="rgb(124,154,74)" stroke="rgb(124,154,74)" stroke-width="1" opacity="1" d="M 788.5 445 L 789 447.5 L 788 447.5 L 788.5 445 Z " /><path fill="rgb(124,154,74)" stroke="rgb(124,154,74)" stroke-width="1" opacity="1" d="M 446.5 460 L 447 462.5 L 446 462.5 L 446.5 460 Z " /><path fill="rgb(124,154,74)" stroke="rgb(124,154,74)" stroke-width="1" opacity="1" d="M 793.5 470 L 794 472.5 L 793 472.5 L 793.5 470 Z " /><path fill="rgb(124,154,74)" stroke="rgb(124,154,74)" stroke-width="1" opacity="1" d="M 794.5 475 L 795 477.5 L 794 477.5 L 794.5 475 Z " /><path fill="rgb(124,154,74)" stroke="rgb(124,154,74)" stroke-width="1" opacity="1" d="M 443.5 477 L 444 479.5 L 443 479.5 L 443.5 477 Z " /><path fill="rgb(124,154,74)" stroke="rgb(124,154,74)" stroke-width="1" opacity="1" d="M 441.5 488 L 442 490.5 L 441 490.5 L 441.5 488 Z " /><path fill="rgb(124,154,74)" stroke="rgb(124,154,74)" stroke-width="1" opacity="1" d="M 798.5 496 L 799 498.5 L 798 498.5 L 798.5 496 Z " /><path fill="rgb(124,154,74)" stroke="rgb(124,154,74)" stroke-width="1" opacity="1" d="M 352.5 663 L 352 664.5 L 350.5 667 L 351 665.5 L 352.5 663 Z " /><path fill="rgb(124,154,74)" stroke="rgb(124,154,74)" stroke-width="1" opacity="1" d="M 341.5 683 L 342 684.5 L 340 685.5 L 341.5 683 Z " /><path fill="rgb(124,154,74)" stroke="rgb(124,154,74)" stroke-width="1" opacity="1" d="M 487.5 737 L 495 737.5 L 487.5 738 L 487.5 737 Z " /><path fill="rgb(124,154,74)" stroke="rgb(124,154,74)" stroke-width="1" opacity="1" d="M 745.5 737 L 752 737.5 L 745.5 738 L 745.5 737 Z " /><path fill="rgb(124,154,74)" stroke="rgb(124,154,74)" stroke-width="1" opacity="1" d="M 918.5 738 L 919 740.5 L 918 740.5 L 918.5 738 Z " /><path fill="rgb(124,154,74)" stroke="rgb(124,154,74)" stroke-width="1" opacity="1" d="M 919.5 742 L 920 744.5 L 919 744.5 L 919.5 742 Z " /><path fill="rgb(124,154,74)" stroke="rgb(124,154,74)" stroke-width="1" opacity="1" d="M 920.5 747 L 921 749.5 L 920 749.5 L 920.5 747 Z " /><path fill="rgb(124,154,74)" stroke="rgb(124,154,74)" stroke-width="1" opacity="1" d="M 318.5 749 L 319 751.5 L 318 751.5 L 318.5 749 Z " /><path fill="rgb(124,154,74)" stroke="rgb(124,154,74)" stroke-width="1" opacity="1" d="M 921.5 752 L 922 754.5 L 921 754.5 L 921.5 752 Z " /><path fill="rgb(124,154,74)" stroke="rgb(124,154,74)" stroke-width="1" opacity="1" d="M 303.5 754 L 304 756.5 L 303 756.5 L 303.5 754 Z " /><path fill="rgb(124,154,74)" stroke="rgb(124,154,74)" stroke-width="1" opacity="1" d="M 317.5 754 L 318 756.5 L 317 756.5 L 317.5 754 Z " /><path fill="rgb(124,154,74)" stroke="rgb(124,154,74)" stroke-width="1" opacity="1" d="M 922.5 756 L 923 758.5 L 922 758.5 L 922.5 756 Z " /><path fill="rgb(124,154,74)" stroke="rgb(124,154,74)" stroke-width="1" opacity="1" d="M 316.5 759 L 317 762.5 L 316 762.5 L 316.5 759 Z " /><path fill="rgb(124,154,74)" stroke="rgb(124,154,74)" stroke-width="1" opacity="1" d="M 302.5 760 L 303 762.5 L 302 762.5 L 302.5 760 Z " /><path fill="rgb(124,154,74)" stroke="rgb(124,154,74)" stroke-width="1" opacity="1" d="M 499.5 760 L 500 765.5 L 499 765.5 L 499.5 760 Z " /><path fill="rgb(124,154,74)" stroke="rgb(124,154,74)" stroke-width="1" opacity="1" d="M 923.5 762 L 924 764.5 L 923 764.5 L 923.5 762 Z " /><path fill="rgb(124,154,74)" stroke="rgb(124,154,74)" stroke-width="1" opacity="1" d="M 717.5 763 L 718 765.5 L 717 765.5 L 717.5 763 Z " /><path fill="rgb(124,154,74)" stroke="rgb(124,154,74)" stroke-width="1" opacity="1" d="M 315.5 764 L 316 767.5 L 315 767.5 L 315.5 764 Z " /><path fill="rgb(124,154,74)" stroke="rgb(124,154,74)" stroke-width="1" opacity="1" d="M 522.5 767 L 523 772.5 L 522 772.5 L 522.5 767 Z " /><path fill="rgb(124,154,74)" stroke="rgb(124,154,74)" stroke-width="1" opacity="1" d="M 924.5 768 L 925 771.5 L 924 771.5 L 924.5 768 Z " /><path fill="rgb(124,154,74)" stroke="rgb(124,154,74)" stroke-width="1" opacity="1" d="M 716.5 769 L 717 778.5 L 716 778.5 L 716.5 769 Z " /><path fill="rgb(124,154,74)" stroke="rgb(124,154,74)" stroke-width="1" opacity="1" d="M 779.5 769 L 780 779.5 L 779 779.5 L 779.5 769 Z " /><path fill="rgb(124,154,74)" stroke="rgb(124,154,74)" stroke-width="1" opacity="1" d="M 938.5 769 L 939 771.5 L 938 771.5 L 938.5 769 Z " /><path fill="rgb(124,154,74)" stroke="rgb(124,154,74)" stroke-width="1" opacity="1" d="M 459.5 770 L 460 778.5 L 459 778.5 L 459.5 770 Z " /><path fill="rgb(124,154,74)" stroke="rgb(124,154,74)" stroke-width="1" opacity="1" d="M 314.5 771 L 315 775.5 L 314 775.5 L 314.5 771 Z " /><path fill="rgb(124,154,74)" stroke="rgb(124,154,74)" stroke-width="1" opacity="1" d="M 925.5 776 L 926 778.5 L 925 778.5 L 925.5 776 Z " /><path fill="rgb(124,154,74)" stroke="rgb(124,154,74)" stroke-width="1" opacity="1" d="M 939.5 776 L 940 779.5 L 939 779.5 L 939.5 776 Z " /><path fill="rgb(124,154,74)" stroke="rgb(124,154,74)" stroke-width="1" opacity="1" d="M 522.5 778 L 523 781.5 L 522 781.5 L 522.5 778 Z " /><path fill="rgb(124,154,74)" stroke="rgb(124,154,74)" stroke-width="1" opacity="1" d="M 313.5 780 L 314 783.5 L 313 783.5 L 313.5 780 Z " /><path fill="rgb(124,154,74)" stroke="rgb(124,154,74)" stroke-width="1" opacity="1" d="M 299.5 781 L 300 784.5 L 299 784.5 L 299.5 781 Z " /><path fill="rgb(124,154,74)" stroke="rgb(124,154,74)" stroke-width="1" opacity="1" d="M 926.5 784 L 927 789.5 L 926 789.5 L 926.5 784 Z " /><path fill="rgb(124,154,74)" stroke="rgb(124,154,74)" stroke-width="1" opacity="1" d="M 940.5 786 L 941 791.5 L 940 791.5 L 940.5 786 Z " /><path fill="rgb(124,154,74)" stroke="rgb(124,154,74)" stroke-width="1" opacity="1" d="M 312.5 790 L 313 798.5 L 312 798.5 L 312.5 790 Z " /><path fill="rgb(124,154,74)" stroke="rgb(124,154,74)" stroke-width="1" opacity="1" d="M 298.5 794 L 299 802.5 L 298 802.5 L 298.5 794 Z " /><path fill="rgb(124,154,74)" stroke="rgb(124,154,74)" stroke-width="1" opacity="1" d="M 585.5 796 L 590 796.5 L 585.5 797 L 585.5 796 Z " /><path fill="rgb(124,154,74)" stroke="rgb(124,154,74)" stroke-width="1" opacity="1" d="M 649.5 796 L 654 796.5 L 649.5 797 L 649.5 796 Z " /><path fill="rgb(124,154,74)" stroke="rgb(124,154,74)" stroke-width="1" opacity="1" d="M 927.5 799 L 928 823.5 L 927 823.5 L 927.5 799 Z " /><path fill="rgb(124,154,74)" stroke="rgb(124,154,74)" stroke-width="1" opacity="1" d="M 580.5 802 L 581 805.5 L 580 805.5 L 580.5 802 Z " /><path fill="rgb(124,154,74)" stroke="rgb(124,154,74)" stroke-width="1" opacity="1" d="M 658.5 802 L 659 804.5 L 658 804.5 L 658.5 802 Z " /><path fill="rgb(124,154,74)" stroke="rgb(124,154,74)" stroke-width="1" opacity="1" d="M 488.5 811 L 495 811.5 L 488.5 812 L 488.5 811 Z " /><path fill="rgb(124,154,74)" stroke="rgb(124,154,74)" stroke-width="1" opacity="1" d="M 745.5 811 L 752 811.5 L 745.5 812 L 745.5 811 Z " /><path fill="rgb(124,154,74)" stroke="rgb(124,154,74)" stroke-width="1" opacity="1" d="M 619.5 821 L 622 821.5 L 619.5 822 L 619.5 821 Z " /><path fill="rgb(124,154,74)" stroke="rgb(124,154,74)" stroke-width="1" opacity="1" d="M 298.5 826 L 299 831.5 L 298 831.5 L 298.5 826 Z " /><path fill="rgb(124,154,74)" stroke="rgb(124,154,74)" stroke-width="1" opacity="1" d="M 312.5 828 L 313 836.5 L 312 836.5 L 312.5 828 Z " /><path fill="rgb(124,154,74)" stroke="rgb(124,154,74)" stroke-width="1" opacity="1" d="M 926.5 831 L 927 837.5 L 926 837.5 L 926.5 831 Z " /><path fill="rgb(124,154,74)" stroke="rgb(124,154,74)" stroke-width="1" opacity="1" d="M 940.5 831 L 941 834.5 L 940 834.5 L 940.5 831 Z " /><path fill="rgb(124,154,74)" stroke="rgb(124,154,74)" stroke-width="1" opacity="1" d="M 609.5 834 L 612 834.5 L 609.5 835 L 609.5 834 Z " /><path fill="rgb(124,154,74)" stroke="rgb(124,154,74)" stroke-width="1" opacity="1" d="M 615.5 835 L 624 835.5 L 615.5 836 L 615.5 835 Z " /><path fill="rgb(124,154,74)" stroke="rgb(124,154,74)" stroke-width="1" opacity="1" d="M 299.5 840 L 300 843.5 L 299 843.5 L 299.5 840 Z " /><path fill="rgb(124,154,74)" stroke="rgb(124,154,74)" stroke-width="1" opacity="1" d="M 313.5 840 L 314 846.5 L 313 846.5 L 313.5 840 Z " /><path fill="rgb(124,154,74)" stroke="rgb(124,154,74)" stroke-width="1" opacity="1" d="M 939.5 841 L 940 844.5 L 939 844.5 L 939.5 841 Z " /><path fill="rgb(124,154,74)" stroke="rgb(124,154,74)" stroke-width="1" opacity="1" d="M 925.5 843 L 926 847.5 L 925 847.5 L 925.5 843 Z " /><path fill="rgb(124,154,74)" stroke="rgb(124,154,74)" stroke-width="1" opacity="1" d="M 300.5 849 L 301 851.5 L 300 851.5 L 300.5 849 Z " /><path fill="rgb(124,154,74)" stroke="rgb(124,154,74)" stroke-width="1" opacity="1" d="M 314.5 849 L 315 853.5 L 314 853.5 L 314.5 849 Z " /><path fill="rgb(124,154,74)" stroke="rgb(124,154,74)" stroke-width="1" opacity="1" d="M 938.5 850 L 939 852.5 L 938 852.5 L 938.5 850 Z " /><path fill="rgb(124,154,74)" stroke="rgb(124,154,74)" stroke-width="1" opacity="1" d="M 924.5 852 L 925 854.5 L 924 854.5 L 924.5 852 Z " /><path fill="rgb(124,154,74)" stroke="rgb(124,154,74)" stroke-width="1" opacity="1" d="M 315.5 856 L 316 859.5 L 315 859.5 L 315.5 856 Z " /><path fill="rgb(124,154,74)" stroke="rgb(124,154,74)" stroke-width="1" opacity="1" d="M 301.5 857 L 302 859.5 L 301 859.5 L 301.5 857 Z " /><path fill="rgb(124,154,74)" stroke="rgb(124,154,74)" stroke-width="1" opacity="1" d="M 923.5 859 L 924 861.5 L 923 861.5 L 923.5 859 Z " /><path fill="rgb(124,154,74)" stroke="rgb(124,154,74)" stroke-width="1" opacity="1" d="M 316.5 862 L 317 865.5 L 316 865.5 L 316.5 862 Z " /><path fill="rgb(124,154,74)" stroke="rgb(124,154,74)" stroke-width="1" opacity="1" d="M 303.5 868 L 304 870.5 L 303 870.5 L 303.5 868 Z " /><path fill="rgb(124,154,74)" stroke="rgb(124,154,74)" stroke-width="1" opacity="1" d="M 317.5 868 L 318 870.5 L 317 870.5 L 317.5 868 Z " /><path fill="rgb(124,154,74)" stroke="rgb(124,154,74)" stroke-width="1" opacity="1" d="M 318.5 873 L 319 875.5 L 318 875.5 L 318.5 873 Z " /><path fill="rgb(124,154,74)" stroke="rgb(124,154,74)" stroke-width="1" opacity="1" d="M 319.5 877 L 320 879.5 L 319 879.5 L 319.5 877 Z " /><path fill="rgb(124,154,74)" stroke="rgb(124,154,74)" stroke-width="1" opacity="1" d="M 919.5 879 L 920 881.5 L 919 881.5 L 919.5 879 Z " /><path fill="rgb(124,154,74)" stroke="rgb(124,154,74)" stroke-width="1" opacity="1" d="M 321.5 885 L 322 887.5 L 321 887.5 L 321.5 885 Z " /><path fill="rgb(124,154,74)" stroke="rgb(124,154,74)" stroke-width="1" opacity="1" d="M 543.5 1095 L 546 1095.5 L 543.5 1096 L 543.5 1095 Z " /><path fill="rgb(124,154,74)" stroke="rgb(124,154,74)" stroke-width="1" opacity="1" d="M 697.5 1095 L 700 1095.5 L 697.5 1096 L 697.5 1095 Z " /><path fill="rgb(124,154,74)" stroke="rgb(124,154,74)" stroke-width="1" opacity="1" d="M 693.5 1096 L 696 1096.5 L 693.5 1097 L 693.5 1096 Z " /><path fill="rgb(124,154,74)" stroke="rgb(124,154,74)" stroke-width="1" opacity="1" d="M 688.5 1097 L 691 1097.5 L 688.5 1098 L 688.5 1097 Z " /><path fill="rgb(124,154,74)" stroke="rgb(124,154,74)" stroke-width="1" opacity="1" d="M 558.5 1098 L 561 1098.5 L 558.5 1099 L 558.5 1098 Z " /><path fill="rgb(124,154,74)" stroke="rgb(124,154,74)" stroke-width="1" opacity="1" d="M 683.5 1098 L 686 1098.5 L 683.5 1099 L 683.5 1098 Z " /><path fill="rgb(124,154,74)" stroke="rgb(124,154,74)" stroke-width="1" opacity="1" d="M 563.5 1099 L 566 1099.5 L 563.5 1100 L 563.5 1099 Z " /><path fill="rgb(124,154,74)" stroke="rgb(124,154,74)" stroke-width="1" opacity="1" d="M 677.5 1099 L 681 1099.5 L 677.5 1100 L 677.5 1099 Z " /><path fill="rgb(124,154,74)" stroke="rgb(124,154,74)" stroke-width="1" opacity="1" d="M 569.5 1100 L 572 1100.5 L 569.5 1101 L 569.5 1100 Z " /><path fill="rgb(124,154,74)" stroke="rgb(124,154,74)" stroke-width="1" opacity="1" d="M 671.5 1100 L 675 1100.5 L 671.5 1101 L 671.5 1100 Z " /><path fill="rgb(124,154,74)" stroke="rgb(124,154,74)" stroke-width="1" opacity="1" d="M 575.5 1101 L 579 1101.5 L 575.5 1102 L 575.5 1101 Z " /><path fill="rgb(124,154,74)" stroke="rgb(124,154,74)" stroke-width="1" opacity="1" d="M 664.5 1101 L 668 1101.5 L 664.5 1102 L 664.5 1101 Z " /><path fill="rgb(124,154,74)" stroke="rgb(124,154,74)" stroke-width="1" opacity="1" d="M 583.5 1102 L 588 1102.5 L 583.5 1103 L 583.5 1102 Z " /><path fill="rgb(124,154,74)" stroke="rgb(124,154,74)" stroke-width="1" opacity="1" d="M 655.5 1102 L 659 1102.5 L 655.5 1103 L 655.5 1102 Z " /><path fill="rgb(124,154,74)" stroke="rgb(124,154,74)" stroke-width="1" opacity="1" d="M 594.5 1103 L 603 1103.5 L 594.5 1104 L 594.5 1103 Z " /><path fill="rgb(124,154,74)" stroke="rgb(124,154,74)" stroke-width="1" opacity="1" d="M 641.5 1103 L 649 1103.5 L 641.5 1104 L 641.5 1103 Z " /><path fill="rgb(124,154,74)" stroke="rgb(124,154,74)" stroke-width="1" opacity="1" d="M 612.5 1104 L 631 1104.5 L 612.5 1105 L 612.5 1104 Z " /><path fill="rgb(124,154,74)" stroke="rgb(124,154,74)" stroke-width="1" opacity="1" d="M 549.5 1110 L 552 1110.5 L 549.5 1111 L 549.5 1110 Z " /><path fill="rgb(124,154,74)" stroke="rgb(124,154,74)" stroke-width="1" opacity="1" d="M 675.5 1113 L 678 1113.5 L 675.5 1114 L 675.5 1113 Z " /><path fill="rgb(124,154,74)" stroke="rgb(124,154,74)" stroke-width="1" opacity="1" d="M 572.5 1114 L 575 1114.5 L 572.5 1115 L 572.5 1114 Z " /><path fill="rgb(124,154,74)" stroke="rgb(124,154,74)" stroke-width="1" opacity="1" d="M 668.5 1114 L 671 1114.5 L 668.5 1115 L 668.5 1114 Z " /><path fill="rgb(124,154,74)" stroke="rgb(124,154,74)" stroke-width="1" opacity="1" d="M 661.5 1115 L 664 1115.5 L 661.5 1116 L 661.5 1115 Z " /><path fill="rgb(124,154,74)" stroke="rgb(124,154,74)" stroke-width="1" opacity="1" d="M 589.5 1116 L 596 1116.5 L 589.5 1117 L 589.5 1116 Z " /><path fill="rgb(124,154,74)" stroke="rgb(124,154,74)" stroke-width="1" opacity="1" d="M 651.5 1116 L 655 1116.5 L 651.5 1117 L 651.5 1116 Z " /><path fill="rgb(124,154,74)" stroke="rgb(124,154,74)" stroke-width="1" opacity="1" d="M 605.5 1117 L 615 1117.5 L 605.5 1118 L 605.5 1117 Z " /><path fill="rgb(124,154,74)" stroke="rgb(124,154,74)" stroke-width="1" opacity="1" d="M 627.5 1117 L 639 1117.5 L 627.5 1118 L 627.5 1117 Z " /><path fill="rgb(223,144,130)" stroke="rgb(223,144,130)" stroke-width="1" opacity="1" d="M 773.5 123 L 792 123.5 L 773.5 124 L 773.5 123 Z " /><path fill="rgb(223,144,130)" stroke="rgb(223,144,130)" stroke-width="1" opacity="1" d="M 761.5 124 L 765 124.5 L 761.5 125 L 761.5 124 Z " /><path fill="rgb(223,144,130)" stroke="rgb(223,144,130)" stroke-width="1" opacity="1" d="M 800.5 124 L 804 124.5 L 800.5 125 L 800.5 124 Z " /><path fill="rgb(223,144,130)" stroke="rgb(223,144,130)" stroke-width="1" opacity="1" d="M 755.5 125 L 758 125.5 L 755.5 126 L 755.5 125 Z " /><path fill="rgb(223,144,130)" stroke="rgb(223,144,130)" stroke-width="1" opacity="1" d="M 813.5 126 L 816 126.5 L 813.5 127 L 813.5 126 Z " /><path fill="rgb(223,144,130)" stroke="rgb(223,144,130)" stroke-width="1" opacity="1" d="M 855.5 153 L 856 155.5 L 855 155.5 L 855.5 153 Z " /><path fill="rgb(223,144,130)" stroke="rgb(223,144,130)" stroke-width="1" opacity="1" d="M 592.5 163 L 595 163.5 L 592.5 164 L 592.5 163 Z " /><path fill="rgb(223,144,130)" stroke="rgb(223,144,130)" stroke-width="1" opacity="1" d="M 561.5 186 L 562 190.5 L 561 190.5 L 561.5 186 Z " /><path fill="rgb(223,144,130)" stroke="rgb(223,144,130)" stroke-width="1" opacity="1" d="M 583.5 273 L 584 275.5 L 583 275.5 L 583.5 273 Z " /><path fill="rgb(223,144,130)" stroke="rgb(223,144,130)" stroke-width="1" opacity="1" d="M 728.5 290 L 731 290.5 L 728.5 291 L 728.5 290 Z " /><path fill="rgb(223,144,130)" stroke="rgb(223,144,130)" stroke-width="1" opacity="1" d="M 721.5 291 L 724 291.5 L 721.5 292 L 721.5 291 Z " /><path fill="rgb(223,144,130)" stroke="rgb(223,144,130)" stroke-width="1" opacity="1" d="M 710.5 292 L 714 292.5 L 710.5 293 L 710.5 292 Z " /><path fill="rgb(223,144,130)" stroke="rgb(223,144,130)" stroke-width="1" opacity="1" d="M 433.5 450 L 434 452.5 L 433 452.5 L 433.5 450 Z " /><path fill="rgb(223,144,130)" stroke="rgb(223,144,130)" stroke-width="1" opacity="1" d="M 806.5 460 L 807 462.5 L 806 462.5 L 806.5 460 Z " /><path fill="rgb(223,144,130)" stroke="rgb(223,144,130)" stroke-width="1" opacity="1" d="M 431.5 461 L 432 463.5 L 431 463.5 L 431.5 461 Z " /><path fill="rgb(223,144,130)" stroke="rgb(223,144,130)" stroke-width="1" opacity="1" d="M 931.5 731 L 932 733.5 L 931 733.5 L 931.5 731 Z " /><path fill="rgb(223,144,130)" stroke="rgb(223,144,130)" stroke-width="1" opacity="1" d="M 933.5 739 L 934 741.5 L 933 741.5 L 933.5 739 Z " /><path fill="rgb(223,144,130)" stroke="rgb(223,144,130)" stroke-width="1" opacity="1" d="M 486.5 752 L 491 752.5 L 486.5 753 L 486.5 752 Z " /><path fill="rgb(223,144,130)" stroke="rgb(223,144,130)" stroke-width="1" opacity="1" d="M 742.5 752 L 748 752.5 L 742.5 753 L 742.5 752 Z " /><path fill="rgb(223,144,130)" stroke="rgb(223,144,130)" stroke-width="1" opacity="1" d="M 936.5 753 L 937 755.5 L 936 755.5 L 936.5 753 Z " /><path fill="rgb(223,144,130)" stroke="rgb(223,144,130)" stroke-width="1" opacity="1" d="M 302.5 757 L 303 759.5 L 302 759.5 L 302.5 757 Z " /><path fill="rgb(223,144,130)" stroke="rgb(223,144,130)" stroke-width="1" opacity="1" d="M 937.5 759 L 938 761.5 L 937 761.5 L 937.5 759 Z " /><path fill="rgb(223,144,130)" stroke="rgb(223,144,130)" stroke-width="1" opacity="1" d="M 477.5 761 L 478 764.5 L 477 764.5 L 477.5 761 Z " /><path fill="rgb(223,144,130)" stroke="rgb(223,144,130)" stroke-width="1" opacity="1" d="M 301.5 763 L 302 766.5 L 301 766.5 L 301.5 763 Z " /><path fill="rgb(223,144,130)" stroke="rgb(223,144,130)" stroke-width="1" opacity="1" d="M 755.5 763 L 756 765.5 L 755 765.5 L 755.5 763 Z " /><path fill="rgb(223,144,130)" stroke="rgb(223,144,130)" stroke-width="1" opacity="1" d="M 938.5 765 L 939 768.5 L 938 768.5 L 938.5 765 Z " /><path fill="rgb(223,144,130)" stroke="rgb(223,144,130)" stroke-width="1" opacity="1" d="M 300.5 770 L 301 772.5 L 300 772.5 L 300.5 770 Z " /><path fill="rgb(223,144,130)" stroke="rgb(223,144,130)" stroke-width="1" opacity="1" d="M 939.5 773 L 940 775.5 L 939 775.5 L 939.5 773 Z " /><path fill="rgb(223,144,130)" stroke="rgb(223,144,130)" stroke-width="1" opacity="1" d="M 299.5 778 L 300 780.5 L 299 780.5 L 299.5 778 Z " /><path fill="rgb(223,144,130)" stroke="rgb(223,144,130)" stroke-width="1" opacity="1" d="M 940.5 781 L 941 785.5 L 940 785.5 L 940.5 781 Z " /><path fill="rgb(223,144,130)" stroke="rgb(223,144,130)" stroke-width="1" opacity="1" d="M 298.5 789 L 299 793.5 L 298 793.5 L 298.5 789 Z " /><path fill="rgb(223,144,130)" stroke="rgb(223,144,130)" stroke-width="1" opacity="1" d="M 941.5 796 L 942 827.5 L 941 827.5 L 941.5 796 Z " /><path fill="rgb(223,144,130)" stroke="rgb(223,144,130)" stroke-width="1" opacity="1" d="M 441.5 800 Q 467.75 798.75 481 810.5 Q 480.25 812.75 482.5 812 L 489 822.5 L 490 830.5 L 487 840.5 L 481.5 847 L 465.5 856 L 456.5 858 L 439.5 858 Q 421.01 854.99 411 843.5 Q 405.5 838 406 826.5 Q 408.86 814.86 417.5 809 L 426.5 804 L 441.5 800 Z " /><path fill="rgb(223,144,130)" stroke="rgb(223,144,130)" stroke-width="1" opacity="1" d="M 784.5 800 L 798.5 800 L 807.5 802 Q 818.89 805.11 826 812.5 L 833 824.5 L 833 834.5 Q 829.95 844.95 821.5 850 L 805.5 857 L 784.5 858 L 774.5 856 L 763.5 851 L 754 842.5 Q 747.82 837.18 750 823.5 Q 753.82 813.82 761.5 808 L 766.5 805 L 784.5 800 Z " /><path fill="rgb(223,144,130)" stroke="rgb(223,144,130)" stroke-width="1" opacity="1" d="M 298.5 832 L 299 837.5 L 298 837.5 L 298.5 832 Z " /><path fill="rgb(223,144,130)" stroke="rgb(223,144,130)" stroke-width="1" opacity="1" d="M 940.5 835 L 941 839.5 L 940 839.5 L 940.5 835 Z " /><path fill="rgb(223,144,130)" stroke="rgb(223,144,130)" stroke-width="1" opacity="1" d="M 299.5 844 L 300 847.5 L 299 847.5 L 299.5 844 Z " /><path fill="rgb(223,144,130)" stroke="rgb(223,144,130)" stroke-width="1" opacity="1" d="M 939.5 845 L 940 848.5 L 939 848.5 L 939.5 845 Z " /><path fill="rgb(223,144,130)" stroke="rgb(223,144,130)" stroke-width="1" opacity="1" d="M 300.5 852 L 301 855.5 L 300 855.5 L 300.5 852 Z " /><path fill="rgb(223,144,130)" stroke="rgb(223,144,130)" stroke-width="1" opacity="1" d="M 938.5 853 L 939 856.5 L 938 856.5 L 938.5 853 Z " /><path fill="rgb(223,144,130)" stroke="rgb(223,144,130)" stroke-width="1" opacity="1" d="M 937.5 860 L 938 862.5 L 937 862.5 L 937.5 860 Z " /><path fill="rgb(223,144,130)" stroke="rgb(223,144,130)" stroke-width="1" opacity="1" d="M 302.5 865 L 303 867.5 L 302 867.5 L 302.5 865 Z " /><path fill="rgb(223,144,130)" stroke="rgb(223,144,130)" stroke-width="1" opacity="1" d="M 936.5 866 L 937 868.5 L 936 868.5 L 936.5 866 Z " /><path fill="rgb(223,144,130)" stroke="rgb(223,144,130)" stroke-width="1" opacity="1" d="M 935.5 872 L 936 874.5 L 935 874.5 L 935.5 872 Z " /><path fill="rgb(223,144,130)" stroke="rgb(223,144,130)" stroke-width="1" opacity="1" d="M 934.5 876 L 935 878.5 L 934 878.5 L 934.5 876 Z " /><path fill="rgb(223,144,130)" stroke="rgb(223,144,130)" stroke-width="1" opacity="1" d="M 698.5 1109 L 701 1109.5 L 698.5 1110 L 698.5 1109 Z " /><path fill="rgb(223,144,130)" stroke="rgb(223,144,130)" stroke-width="1" opacity="1" d="M 689.5 1111 L 692 1111.5 L 689.5 1112 L 689.5 1111 Z " /><path fill="rgb(223,144,130)" stroke="rgb(223,144,130)" stroke-width="1" opacity="1" d="M 558.5 1112 L 561 1112.5 L 558.5 1113 L 558.5 1112 Z " /><path fill="rgb(223,144,130)" stroke="rgb(223,144,130)" stroke-width="1" opacity="1" d="M 564.5 1113 L 567 1113.5 L 564.5 1114 L 564.5 1113 Z " /><path fill="rgb(223,144,130)" stroke="rgb(223,144,130)" stroke-width="1" opacity="1" d="M 678.5 1113 L 681 1113.5 L 678.5 1114 L 678.5 1113 Z " /><path fill="rgb(223,144,130)" stroke="rgb(223,144,130)" stroke-width="1" opacity="1" d="M 569.5 1114 L 572 1114.5 L 569.5 1115 L 569.5 1114 Z " /><path fill="rgb(223,144,130)" stroke="rgb(223,144,130)" stroke-width="1" opacity="1" d="M 671.5 1114 L 675 1114.5 L 671.5 1115 L 671.5 1114 Z " /><path fill="rgb(223,144,130)" stroke="rgb(223,144,130)" stroke-width="1" opacity="1" d="M 576.5 1115 L 580 1115.5 L 576.5 1116 L 576.5 1115 Z " /><path fill="rgb(223,144,130)" stroke="rgb(223,144,130)" stroke-width="1" opacity="1" d="M 664.5 1115 L 667 1115.5 L 664.5 1116 L 664.5 1115 Z " /><path fill="rgb(223,144,130)" stroke="rgb(223,144,130)" stroke-width="1" opacity="1" d="M 584.5 1116 L 589 1116.5 L 584.5 1117 L 584.5 1116 Z " /><path fill="rgb(223,144,130)" stroke="rgb(223,144,130)" stroke-width="1" opacity="1" d="M 655.5 1116 L 659 1116.5 L 655.5 1117 L 655.5 1116 Z " /><path fill="rgb(223,144,130)" stroke="rgb(223,144,130)" stroke-width="1" opacity="1" d="M 597.5 1117 L 605 1117.5 L 597.5 1118 L 597.5 1117 Z " /><path fill="rgb(223,144,130)" stroke="rgb(223,144,130)" stroke-width="1" opacity="1" d="M 639.5 1117 L 649 1117.5 L 639.5 1118 L 639.5 1117 Z " /><path fill="rgb(216,211,83)" stroke="rgb(216,211,83)" stroke-width="1" opacity="1" d="M 792.5 123 L 796 123.5 L 792.5 124 L 792.5 123 Z " /><path fill="rgb(216,211,83)" stroke="rgb(216,211,83)" stroke-width="1" opacity="1" d="M 635 291 L 643.5 291 L 660.5 294 Q 678.67 297.83 693.5 305 Q 723.68 319.32 744 343.5 Q 764.45 367.05 776 399.5 L 786 433.5 L 798 493.5 L 798 498.5 L 803 518.5 L 815 552.5 L 835 588.5 L 869 634.5 L 884 657.5 L 907 703.5 L 916 729.5 L 924 765.5 L 924 771.5 L 926 779.5 L 926 789.5 L 927 790.5 L 927 830.5 L 926 831.5 L 926 842.5 L 925 843.5 L 924 858.5 L 917 890.5 L 911 909.5 L 900 936.5 Q 875.2 988.7 834.5 1025 Q 792.91 1063.41 734.5 1085 L 709.5 1093 L 670.5 1101 L 655.5 1102 L 654.5 1103 L 641.5 1103 L 640.5 1104 L 603.5 1104 L 602.5 1103 L 579.5 1102 L 550.5 1097 L 523.5 1090 L 485.5 1076 Q 426.23 1049.27 385 1004.5 Q 348.28 964.72 328 908.5 L 320 881.5 L 315 855.5 L 314 840.5 L 313 839.5 L 313 828.5 L 312 827.5 L 312 799.5 L 313 798.5 L 313 784.5 L 314 783.5 L 315 768.5 L 317 762.5 L 319 747.5 Q 325.49 719.49 336 695.5 Q 346.42 671.42 360 650.5 L 394 603.5 Q 407.99 584.49 419 562.5 L 434 524.5 L 442 490.5 L 442 485.5 L 444 479.5 L 451 436.5 L 463 395.5 Q 478.02 356.02 506.5 330 Q 523.32 314.32 545.5 304 L 563.5 297 L 586 292 L 587 307.5 L 590.5 312 Q 599.32 317.68 614.5 317 L 627.5 314 L 634 308.5 L 635 306.5 L 635 291 Z M 695 358 L 692 359 Q 685 362 684 371 L 684 378 L 688 390 L 722 446 Q 728 454 739 458 Q 746 459 750 456 Q 755 452 756 445 L 756 433 L 751 415 Q 743 393 730 378 L 714 362 L 705 358 L 695 358 Z M 488 737 L 474 743 L 465 753 L 460 765 Q 461 769 459 771 Q 458 790 467 800 L 471 804 L 454 800 Q 430 799 418 809 Q 409 815 406 827 Q 406 838 411 844 Q 421 855 440 858 L 457 858 L 466 856 L 482 847 L 487 841 L 490 831 L 489 823 L 483 812 Q 480 813 481 810 L 489 812 Q 501 812 508 807 Q 520 799 523 782 L 523 768 Q 521 757 516 751 Q 508 737 488 737 Z M 746 737 L 737 739 L 732 742 L 721 754 L 716 770 L 717 785 L 724 800 Q 731 810 746 812 L 752 812 L 759 810 L 760 810 Q 753 815 750 824 Q 748 837 754 843 L 764 851 L 775 856 L 785 858 L 806 857 L 822 850 Q 830 845 833 835 L 833 825 L 826 813 L 814 804 L 799 800 L 785 800 L 773 803 L 770 805 L 767 805 L 773 799 L 778 789 L 780 780 L 779 765 L 772 750 Q 767 743 759 739 L 752 737 L 746 737 Z M 586 796 L 584 797 L 580 803 L 581 810 L 587 821 L 598 830 L 610 835 Q 614 834 616 836 L 630 835 L 645 828 Q 655 820 659 805 L 658 800 L 654 796 L 648 797 L 644 802 L 644 805 L 641 811 Q 636 818 626 821 Q 611 823 605 817 Q 596 812 594 800 Q 592 795 586 796 Z " /><path fill="rgb(216,211,83)" stroke="rgb(216,211,83)" stroke-width="1" opacity="1" d="M 297.5 813 L 298 818.5 L 297 818.5 L 297.5 813 Z " /><path fill="rgb(216,211,83)" stroke="rgb(216,211,83)" stroke-width="1" opacity="1" d="M 615.5 1118 L 626 1118.5 L 615.5 1119 L 615.5 1118 Z " /><path fill="rgb(248,247,247)" stroke="rgb(248,247,247)" stroke-width="1" opacity="1" d="M 0 0 L 1254 0 L 1254 1254 L 0 1254 L 0 0 Z M 773 123 L 772 124 L 761 124 L 751 126 L 720 136 Q 693 148 674 167 Q 646 192 632 231 L 626 200 L 617 171 Q 614 164 606 163 L 592 163 Q 580 165 573 171 Q 564 176 561 187 L 561 191 L 566 203 L 576 237 L 584 277 L 582 278 L 565 281 L 543 289 Q 517 300 499 317 Q 467 345 450 388 L 438 427 L 430 467 L 428 485 L 421 516 L 410 547 L 394 577 L 343 650 L 319 698 L 309 727 L 304 747 L 304 752 L 300 770 L 300 777 L 299 778 L 298 813 L 297 814 Q 296 818 298 820 L 298 838 L 299 839 L 299 848 L 300 849 L 302 868 L 309 898 L 316 919 Q 336 972 371 1011 Q 413 1059 476 1087 L 514 1102 L 548 1111 L 577 1116 L 584 1116 L 585 1117 L 615 1118 L 616 1119 L 650 1118 L 651 1117 L 660 1117 L 661 1116 L 687 1113 L 713 1107 L 744 1097 Q 806 1073 851 1030 L 853 1027 L 856 1025 L 885 991 Q 903 966 916 937 L 932 892 L 939 857 L 941 830 L 942 829 L 942 796 L 941 795 L 941 781 L 939 772 L 939 765 L 932 732 L 922 701 Q 911 671 895 647 L 844 575 L 827 543 L 818 517 L 809 477 L 809 472 L 802 437 L 796 413 L 789 392 L 774 360 L 757 336 Q 736 309 704 294 Q 769 290 806 257 Q 829 236 843 206 L 851 184 L 856 156 Q 858 145 853 141 L 840 133 L 816 126 L 797 124 L 796 123 L 773 123 Z " /><path fill="rgb(248,247,247)" stroke="rgb(248,247,247)" stroke-width="1" opacity="1" d="M 694.5 358 L 704.5 358 L 713.5 362 L 730 377.5 Q 743.2 393.3 751 414.5 L 756 432.5 L 756 444.5 Q 754.8 452.3 749.5 456 Q 745.86 458.86 738.5 458 Q 727.83 454.17 722 445.5 L 688 389.5 L 684 377.5 L 684 370.5 Q 685.38 362.38 691.5 359 L 694.5 358 Z " /><path fill="rgb(248,247,247)" stroke="rgb(248,247,247)" stroke-width="1" opacity="1" d="M 484.5 753 Q 494.25 751.25 497 756.5 Q 499.83 759.17 499 765.5 L 494.5 772 L 487.5 774 L 483.5 773 L 479 768.5 L 478 760.5 L 482.5 754 L 484.5 753 Z " /><path fill="rgb(248,247,247)" stroke="rgb(248,247,247)" stroke-width="1" opacity="1" d="M 741.5 753 Q 751.58 751.43 754 757.5 L 755 766.5 L 749.5 773 L 744.5 774 L 737 770.5 L 734 762.5 L 735 758.5 L 739.5 754 L 741.5 753 Z " /></svg>