<svg viewBox="0 0 1254 1254" version="1.1" xmlns="http://www.w3.org/2000/svg" desc="Created with imagetracer.js version 1.2.6" ><path fill="rgb(112,63,27)" stroke="rgb(112,63,27)" stroke-width="1" opacity="1" d="M 620.5 175 L 628.5 175 L 638.5 177 L 657.5 185 Q 686.3 200.7 708 223.5 L 720 241 L 736.5 238 L 771.5 237 L 772.5 238 L 784.5 238 L 798.5 241 L 804.5 241 L 829.5 247 L 853.5 255 L 889.5 273 L 909 290.5 L 911 295.5 L 908 301.5 Q 956.71 329.79 993 370.5 Q 1044.42 427.08 1071 508.5 L 1082 549.5 L 1088 583.5 L 1089 597.5 L 1090 598.5 L 1091 623.5 L 1092 624.5 L 1092 674.5 L 1091 675.5 L 1091 689.5 L 1090 690.5 L 1090 701.5 L 1089 702.5 L 1088 717.5 L 1082 751.5 L 1073 786.5 L 1058 827.5 Q 1031.16 888.66 986.5 932 Q 959.97 957.47 926.5 976 Q 903.07 989.07 876.5 999 L 849.5 1008 L 818.5 1016 L 779.5 1023 L 766.5 1024 L 765.5 1025 L 757.5 1025 L 747.5 1027 L 736.5 1027 L 735.5 1028 L 722.5 1028 L 721.5 1029 L 678.5 1030 L 677.5 1031 L 572.5 1031 L 569.5 1030 L 530.5 1029 L 529.5 1028 L 516.5 1028 L 515.5 1027 L 479.5 1024 L 478.5 1023 L 444.5 1018 L 398.5 1006 L 357.5 990 L 324.5 973 Q 286.11 950.39 256 919.5 Q 204.32 865.68 179 785.5 L 171 755.5 L 165 722.5 L 164 708.5 L 163 707.5 L 162 684.5 L 161 683.5 L 161 628.5 L 162 627.5 L 162 612.5 L 163 611.5 L 163 601.5 L 164 600.5 L 165 585.5 L 171 551.5 L 180 516.5 L 195 474.5 L 211 441.5 L 231 408.5 Q 256.13 372.13 288.5 343 L 325.5 314 L 350 300 L 351 285.5 L 359.5 275 L 370.5 268 L 386.5 261 L 430.5 248 L 457.5 243 L 471.5 242 L 472.5 241 L 512.5 240 L 513.5 241 L 524.5 242 Q 535.14 225.64 549.5 213 L 582.5 189 L 603.5 179 L 620.5 175 Z M 621 187 Q 606 190 595 196 Q 575 207 559 221 Q 544 231 536 249 L 545 255 Q 569 277 587 306 L 596 300 L 613 295 L 637 295 Q 638 297 643 296 L 654 299 L 662 304 Q 674 284 689 267 L 710 248 Q 706 238 699 232 Q 679 211 653 196 Q 640 188 621 187 Z M 742 249 L 724 253 L 708 264 Q 686 284 671 310 L 678 325 L 678 334 L 676 341 L 703 348 Q 723 356 740 367 L 758 372 L 779 372 Q 780 370 786 371 L 811 363 Q 829 354 846 343 L 880 315 L 897 297 L 897 295 L 878 279 L 858 269 L 830 259 L 788 250 L 780 250 L 779 249 L 742 249 Z M 488 251 L 487 252 L 475 252 L 474 253 L 454 255 L 418 263 L 393 271 L 370 282 L 362 290 L 361 293 Q 361 301 365 306 L 377 321 Q 397 340 422 355 L 452 368 L 473 372 L 490 372 L 491 371 L 502 370 L 518 364 L 548 349 L 575 342 L 572 329 L 574 321 L 578 315 L 572 304 L 548 273 L 547 273 L 532 259 L 523 254 L 508 251 L 488 251 Z M 614 306 Q 599 308 591 316 L 584 326 Q 583 335 587 339 Q 597 349 615 352 L 637 352 L 649 349 L 658 344 Q 664 340 667 332 L 667 327 L 663 319 Q 648 302 614 306 Z M 354 311 Q 322 329 296 353 Q 241 402 209 474 L 193 517 L 185 546 L 178 582 L 176 606 L 175 607 L 175 617 L 174 618 L 174 634 L 173 635 L 173 677 L 174 678 L 174 693 L 175 694 L 176 713 L 183 753 L 191 783 L 207 825 L 222 854 Q 238 881 259 905 Q 307 957 379 986 L 417 999 L 462 1009 L 487 1012 L 488 1013 L 495 1013 L 496 1014 L 514 1015 L 515 1016 L 542 1017 L 543 1018 L 561 1018 L 566 1019 L 693 1019 L 694 1018 L 711 1018 L 712 1017 L 739 1016 L 740 1015 L 749 1015 L 750 1014 L 774 1012 L 823 1003 L 870 989 L 915 969 Q 950 950 978 924 Q 1023 880 1049 818 L 1060 788 L 1069 755 L 1076 715 L 1078 688 L 1079 687 L 1079 670 L 1080 669 L 1079 614 L 1078 613 L 1078 604 L 1077 603 L 1075 580 L 1071 562 L 1071 557 L 1064 528 L 1053 494 Q 1027 426 983 378 Q 948 338 901 311 Q 871 342 833 365 L 807 377 L 780 383 L 759 383 L 750 381 L 746 382 L 750 396 L 748 412 L 740 426 L 728 438 L 698 458 L 651 483 L 636 488 L 619 488 L 611 486 L 588 476 L 544 452 L 525 439 L 519 433 Q 516 434 517 431 L 515 431 L 506 419 L 502 407 L 502 392 L 506 380 L 489 383 L 463 382 L 434 374 Q 405 361 383 342 Q 367 329 356 313 Q 357 310 354 311 Z M 582 350 L 545 362 L 526 373 Q 516 380 513 394 L 513 405 L 519 418 L 539 435 L 562 449 L 598 468 L 612 474 L 624 477 L 636 476 L 656 468 L 697 445 L 723 427 Q 733 419 738 405 Q 740 386 731 378 Q 723 369 713 364 L 672 350 L 668 350 L 654 359 L 638 363 L 615 363 Q 613 361 609 362 L 598 359 L 588 354 L 584 350 L 582 350 Z " /><path fill="rgb(112,63,27)" stroke="rgb(112,63,27)" stroke-width="1" opacity="1" d="M 747.5 306 L 750 306.5 L 747.5 307 L 747.5 306 Z " /><path fill="rgb(112,63,27)" stroke="rgb(112,63,27)" stroke-width="1" opacity="1" d="M 496.5 307 L 499 307.5 L 496.5 308 L 496.5 307 Z " /><path fill="rgb(112,63,27)" stroke="rgb(112,63,27)" stroke-width="1" opacity="1" d="M 554.5 315 L 558 316.5 L 556.5 317 L 554.5 315 Z " /><path fill="rgb(112,63,27)" stroke="rgb(112,63,27)" stroke-width="1" opacity="1" d="M 621.5 397 L 622 400.5 L 621 400.5 L 621.5 397 Z " /><path fill="rgb(112,63,27)" stroke="rgb(112,63,27)" stroke-width="1" opacity="1" d="M 464.5 615 L 469.5 615 L 482.5 618 Q 493.43 623.07 500 632.5 L 506 644.5 L 508 655.5 L 508 663.5 L 505 675.5 L 501 683.5 L 491.5 694 Q 481.72 703.22 461.5 702 Q 445.75 698.75 437 688.5 Q 426.83 677.67 426 657.5 L 427 656.5 L 428 645.5 L 433 634.5 L 443.5 623 L 454.5 617 L 464.5 615 Z M 454 629 L 452 630 L 445 638 Q 444 647 447 651 L 456 656 Q 463 657 467 653 L 471 647 Q 472 638 469 635 Q 466 627 454 629 Z " /><path fill="rgb(112,63,27)" stroke="rgb(112,63,27)" stroke-width="1" opacity="1" d="M 783.5 615 L 794.5 616 L 800.5 618 Q 810.56 622.44 817 630.5 Q 823.35 638.65 826 650.5 L 826 667.5 Q 821.94 685.94 808.5 695 L 796.5 701 L 779.5 702 Q 761.61 698.39 753 685.5 L 748 676.5 L 745 665.5 L 745 651.5 Q 748.62 633.62 760.5 624 L 770.5 618 L 783.5 615 Z M 772 629 L 768 631 L 762 639 Q 761 647 764 651 L 773 656 Q 779 657 783 654 Q 787 651 789 645 Q 790 638 787 636 Q 784 628 772 629 Z " /><path fill="rgb(112,63,27)" stroke="rgb(112,63,27)" stroke-width="1" opacity="1" d="M 581.5 680 Q 587.05 680.45 589 684.5 Q 590.75 700.75 601.5 708 L 616.5 715 L 631.5 716 L 641.5 714 L 648.5 711 L 660 700.5 Q 664.58 695.08 665 685.5 L 668.5 681 Q 677.25 679.25 679 684.5 Q 680.13 694.13 677 699.5 Q 672.52 711.02 663.5 718 Q 655.66 724.66 644.5 728 L 632.5 729 L 631.5 730 L 622.5 730 L 604.5 726 Q 594.19 721.81 587 714.5 L 578 701.5 L 575 692.5 L 575 684.5 L 581.5 680 Z " /><path fill="rgb(134,103,44)" stroke="rgb(134,103,44)" stroke-width="1" opacity="1" d="M 620.5 187 L 628 187.5 L 620.5 188 L 620.5 187 Z " /><path fill="rgb(134,103,44)" stroke="rgb(134,103,44)" stroke-width="1" opacity="1" d="M 600.5 193 L 602 193.5 L 598.5 195 L 598.5 194 L 600.5 193 Z " /><path fill="rgb(134,103,44)" stroke="rgb(134,103,44)" stroke-width="1" opacity="1" d="M 596.5 195 L 595.5 197 L 593.5 198 L 594.5 196 L 596.5 195 Z " /><path fill="rgb(134,103,44)" stroke="rgb(134,103,44)" stroke-width="1" opacity="1" d="M 745.5 237 L 749 237.5 L 745.5 238 L 745.5 237 Z " /><path fill="rgb(134,103,44)" stroke="rgb(134,103,44)" stroke-width="1" opacity="1" d="M 772.5 237 L 776 237.5 L 772.5 238 L 772.5 237 Z " /><path fill="rgb(134,103,44)" stroke="rgb(134,103,44)" stroke-width="1" opacity="1" d="M 480.5 240 L 485 240.5 L 480.5 241 L 480.5 240 Z " /><path fill="rgb(134,103,44)" stroke="rgb(134,103,44)" stroke-width="1" opacity="1" d="M 513.5 240 L 517 240.5 L 513.5 241 L 513.5 240 Z " /><path fill="rgb(134,103,44)" stroke="rgb(134,103,44)" stroke-width="1" opacity="1" d="M 798.5 240 L 801 240.5 L 798.5 241 L 798.5 240 Z " /><path fill="rgb(134,103,44)" stroke="rgb(134,103,44)" stroke-width="1" opacity="1" d="M 469.5 241 L 472 241.5 L 469.5 242 L 469.5 241 Z " /><path fill="rgb(134,103,44)" stroke="rgb(134,103,44)" stroke-width="1" opacity="1" d="M 621.5 244 Q 627.75 242.75 629 246.5 L 629 287.5 L 626.5 290 Q 620 291 619 286.5 L 619 246.5 L 621.5 244 Z " /><path fill="rgb(134,103,44)" stroke="rgb(134,103,44)" stroke-width="1" opacity="1" d="M 709.5 246 L 710 247.5 L 707 249.5 L 709.5 246 Z " /><path fill="rgb(134,103,44)" stroke="rgb(134,103,44)" stroke-width="1" opacity="1" d="M 536.5 247 L 538 249.5 L 536 248.5 L 536.5 247 Z " /><path fill="rgb(134,103,44)" stroke="rgb(134,103,44)" stroke-width="1" opacity="1" d="M 741.5 249 L 747 249.5 L 741.5 250 L 741.5 249 Z " /><path fill="rgb(134,103,44)" stroke="rgb(134,103,44)" stroke-width="1" opacity="1" d="M 769.5 249 L 779 249.5 L 769.5 250 L 769.5 249 Z " /><path fill="rgb(134,103,44)" stroke="rgb(134,103,44)" stroke-width="1" opacity="1" d="M 733.5 250 L 736 250.5 L 733.5 251 L 733.5 250 Z " /><path fill="rgb(134,103,44)" stroke="rgb(134,103,44)" stroke-width="1" opacity="1" d="M 783.5 250 L 788 250.5 L 783.5 251 L 783.5 250 Z " /><path fill="rgb(134,103,44)" stroke="rgb(134,103,44)" stroke-width="1" opacity="1" d="M 487.5 251 L 508 251.5 L 487.5 252 L 487.5 251 Z " /><path fill="rgb(134,103,44)" stroke="rgb(134,103,44)" stroke-width="1" opacity="1" d="M 791.5 251 L 795 251.5 L 791.5 252 L 791.5 251 Z " /><path fill="rgb(134,103,44)" stroke="rgb(134,103,44)" stroke-width="1" opacity="1" d="M 474.5 252 L 481 252.5 L 474.5 253 L 474.5 252 Z " /><path fill="rgb(134,103,44)" stroke="rgb(134,103,44)" stroke-width="1" opacity="1" d="M 512.5 252 L 516 252.5 L 512.5 253 L 512.5 252 Z " /><path fill="rgb(134,103,44)" stroke="rgb(134,103,44)" stroke-width="1" opacity="1" d="M 797.5 252 L 801 252.5 L 797.5 253 L 797.5 252 Z " /><path fill="rgb(134,103,44)" stroke="rgb(134,103,44)" stroke-width="1" opacity="1" d="M 466.5 253 L 471 253.5 L 466.5 254 L 466.5 253 Z " /><path fill="rgb(134,103,44)" stroke="rgb(134,103,44)" stroke-width="1" opacity="1" d="M 803.5 253 L 806 253.5 L 803.5 254 L 803.5 253 Z " /><path fill="rgb(134,103,44)" stroke="rgb(134,103,44)" stroke-width="1" opacity="1" d="M 459.5 254 L 463 254.5 L 459.5 255 L 459.5 254 Z " /><path fill="rgb(134,103,44)" stroke="rgb(134,103,44)" stroke-width="1" opacity="1" d="M 453.5 255 L 457 255.5 L 453.5 256 L 453.5 255 Z " /><path fill="rgb(134,103,44)" stroke="rgb(134,103,44)" stroke-width="1" opacity="1" d="M 448.5 256 L 451 256.5 L 448.5 257 L 448.5 256 Z " /><path fill="rgb(134,103,44)" stroke="rgb(134,103,44)" stroke-width="1" opacity="1" d="M 443.5 257 L 446 257.5 L 443.5 258 L 443.5 257 Z " /><path fill="rgb(134,103,44)" stroke="rgb(134,103,44)" stroke-width="1" opacity="1" d="M 438.5 258 L 441 258.5 L 438.5 259 L 438.5 258 Z " /><path fill="rgb(134,103,44)" stroke="rgb(134,103,44)" stroke-width="1" opacity="1" d="M 433.5 259 L 436 259.5 L 433.5 260 L 433.5 259 Z " /><path fill="rgb(134,103,44)" stroke="rgb(134,103,44)" stroke-width="1" opacity="1" d="M 417.5 263 L 420 263.5 L 417.5 264 L 417.5 263 Z " /><path fill="rgb(134,103,44)" stroke="rgb(134,103,44)" stroke-width="1" opacity="1" d="M 856.5 269 L 860 270.5 L 858.5 271 L 856.5 269 Z " /><path fill="rgb(134,103,44)" stroke="rgb(134,103,44)" stroke-width="1" opacity="1" d="M 382.5 275 L 384 275.5 L 380.5 277 L 380.5 276 L 382.5 275 Z " /><path fill="rgb(134,103,44)" stroke="rgb(134,103,44)" stroke-width="1" opacity="1" d="M 875.5 278 L 879 280.5 L 877.5 280 L 875.5 278 Z " /><path fill="rgb(134,103,44)" stroke="rgb(134,103,44)" stroke-width="1" opacity="1" d="M 364.5 287 L 363 289.5 L 362.5 291 L 362 289.5 L 364.5 287 Z " /><path fill="rgb(134,103,44)" stroke="rgb(134,103,44)" stroke-width="1" opacity="1" d="M 349.5 291 L 350 296.5 L 349 296.5 L 349.5 291 Z " /><path fill="rgb(134,103,44)" stroke="rgb(134,103,44)" stroke-width="1" opacity="1" d="M 361.5 292 L 362 295.5 L 361 295.5 L 361.5 292 Z " /><path fill="rgb(134,103,44)" stroke="rgb(134,103,44)" stroke-width="1" opacity="1" d="M 615.5 294 L 635 294.5 L 615.5 295 L 615.5 294 Z " /><path fill="rgb(134,103,44)" stroke="rgb(134,103,44)" stroke-width="1" opacity="1" d="M 764.5 294 L 780.5 294 L 783 296.5 Q 784.25 302.75 780.5 304 L 763.5 305 L 736.5 310 L 717.5 316 L 693.5 326 L 689 322.5 Q 688.37 317.37 691.5 316 L 725.5 302 L 740.5 298 L 756.5 295 L 763.5 295 L 764.5 294 Z M 748 306 L 748 307 L 750 307 L 748 306 Z " /><path fill="rgb(134,103,44)" stroke="rgb(134,103,44)" stroke-width="1" opacity="1" d="M 609.5 295 L 612 295.5 L 609.5 296 L 609.5 295 Z " /><path fill="rgb(134,103,44)" stroke="rgb(134,103,44)" stroke-width="1" opacity="1" d="M 637.5 295 L 641 295.5 L 637.5 296 L 637.5 295 Z " /><path fill="rgb(134,103,44)" stroke="rgb(134,103,44)" stroke-width="1" opacity="1" d="M 477.5 296 L 501.5 298 L 521.5 302 L 553.5 313 L 562 318.5 L 563 321.5 L 559.5 326 L 555.5 326 L 528.5 315 L 501.5 309 L 495.5 309 L 487.5 307 L 477.5 307 L 474 304.5 L 473 301.5 L 474 298 L 477.5 296 Z M 497 307 L 497 308 L 499 308 L 497 307 Z " /><path fill="rgb(134,103,44)" stroke="rgb(134,103,44)" stroke-width="1" opacity="1" d="M 643.5 296 L 646 296.5 L 643.5 297 L 643.5 296 Z " /><path fill="rgb(134,103,44)" stroke="rgb(134,103,44)" stroke-width="1" opacity="1" d="M 601.5 297 L 604 297.5 L 601.5 298 L 601.5 297 Z " /><path fill="rgb(134,103,44)" stroke="rgb(134,103,44)" stroke-width="1" opacity="1" d="M 647.5 297 L 650 297.5 L 647.5 298 L 647.5 297 Z " /><path fill="rgb(134,103,44)" stroke="rgb(134,103,44)" stroke-width="1" opacity="1" d="M 598.5 298 L 600 298.5 L 596.5 300 L 596.5 299 L 598.5 298 Z " /><path fill="rgb(134,103,44)" stroke="rgb(134,103,44)" stroke-width="1" opacity="1" d="M 663.5 301 L 661.5 304 L 660.5 302 Q 662 304.5 663.5 301 Z " /><path fill="rgb(134,103,44)" stroke="rgb(134,103,44)" stroke-width="1" opacity="1" d="M 590.5 302 L 589.5 304 L 586.5 306 L 585.5 304 Q 587 306.5 588.5 303 L 590.5 302 Z " /><path fill="rgb(134,103,44)" stroke="rgb(134,103,44)" stroke-width="1" opacity="1" d="M 613.5 306 L 620 306.5 L 613.5 307 L 613.5 306 Z " /><path fill="rgb(134,103,44)" stroke="rgb(134,103,44)" stroke-width="1" opacity="1" d="M 632.5 306 L 637 306.5 L 632.5 307 L 632.5 306 Z " /><path fill="rgb(134,103,44)" stroke="rgb(134,103,44)" stroke-width="1" opacity="1" d="M 608.5 307 L 611 307.5 L 608.5 308 L 608.5 307 Z " /><path fill="rgb(134,103,44)" stroke="rgb(134,103,44)" stroke-width="1" opacity="1" d="M 639.5 307 L 642 307.5 L 639.5 308 L 639.5 307 Z " /><path fill="rgb(134,103,44)" stroke="rgb(134,103,44)" stroke-width="1" opacity="1" d="M 650.5 310 L 655 312.5 L 653.5 312 Q 649.75 311.75 650.5 310 Z " /><path fill="rgb(134,103,44)" stroke="rgb(134,103,44)" stroke-width="1" opacity="1" d="M 572.5 324 L 573 327.5 L 572 327.5 L 572.5 324 Z " /><path fill="rgb(134,103,44)" stroke="rgb(134,103,44)" stroke-width="1" opacity="1" d="M 666.5 326 L 667 331.5 L 666 331.5 L 666.5 326 Z " /><path fill="rgb(134,103,44)" stroke="rgb(134,103,44)" stroke-width="1" opacity="1" d="M 678.5 326 L 679 331.5 L 678 331.5 L 678.5 326 Z " /><path fill="rgb(134,103,44)" stroke="rgb(134,103,44)" stroke-width="1" opacity="1" d="M 572.5 329 L 573 333.5 L 572 333.5 L 572.5 329 Z " /><path fill="rgb(134,103,44)" stroke="rgb(134,103,44)" stroke-width="1" opacity="1" d="M 585.5 334 L 587 336.5 L 585 335.5 L 585.5 334 Z " /><path fill="rgb(134,103,44)" stroke="rgb(134,103,44)" stroke-width="1" opacity="1" d="M 291.5 340 L 291.5 343 L 289 342.5 L 291.5 340 Z " /><path fill="rgb(134,103,44)" stroke="rgb(134,103,44)" stroke-width="1" opacity="1" d="M 572.5 341 L 575 341.5 L 572.5 342 L 572.5 341 Z " /><path fill="rgb(134,103,44)" stroke="rgb(134,103,44)" stroke-width="1" opacity="1" d="M 678.5 341 L 681 341.5 L 678.5 342 L 678.5 341 Z " /><path fill="rgb(134,103,44)" stroke="rgb(134,103,44)" stroke-width="1" opacity="1" d="M 963.5 341 L 966 343.5 L 965.5 346 L 963.5 341 Z " /><path fill="rgb(134,103,44)" stroke="rgb(134,103,44)" stroke-width="1" opacity="1" d="M 568.5 342 L 571 342.5 L 568.5 343 L 568.5 342 Z " /><path fill="rgb(134,103,44)" stroke="rgb(134,103,44)" stroke-width="1" opacity="1" d="M 682.5 342 L 685 342.5 L 682.5 343 L 682.5 342 Z " /><path fill="rgb(134,103,44)" stroke="rgb(134,103,44)" stroke-width="1" opacity="1" d="M 686.5 343 L 689 343.5 L 686.5 344 L 686.5 343 Z " /><path fill="rgb(134,103,44)" stroke="rgb(134,103,44)" stroke-width="1" opacity="1" d="M 690.5 344 L 693 344.5 L 690.5 345 L 690.5 344 Z " /><path fill="rgb(134,103,44)" stroke="rgb(134,103,44)" stroke-width="1" opacity="1" d="M 649.5 347 L 651 347.5 L 647.5 349 L 647.5 348 L 649.5 347 Z " /><path fill="rgb(134,103,44)" stroke="rgb(134,103,44)" stroke-width="1" opacity="1" d="M 643.5 349 L 646 349.5 L 643.5 350 L 643.5 349 Z " /><path fill="rgb(134,103,44)" stroke="rgb(134,103,44)" stroke-width="1" opacity="1" d="M 581.5 350 Q 585.5 349.5 586 352.5 L 583.5 351 Q 580.5 351.5 581.5 350 Z " /><path fill="rgb(134,103,44)" stroke="rgb(134,103,44)" stroke-width="1" opacity="1" d="M 609.5 350 L 612 350.5 L 609.5 351 L 609.5 350 Z " /><path fill="rgb(134,103,44)" stroke="rgb(134,103,44)" stroke-width="1" opacity="1" d="M 639.5 350 L 642 350.5 L 639.5 351 L 639.5 350 Z " /><path fill="rgb(134,103,44)" stroke="rgb(134,103,44)" stroke-width="1" opacity="1" d="M 669.5 350 L 672 350.5 L 669.5 351 L 669.5 350 Z " /><path fill="rgb(134,103,44)" stroke="rgb(134,103,44)" stroke-width="1" opacity="1" d="M 614.5 351 L 618 351.5 L 614.5 352 L 614.5 351 Z " /><path fill="rgb(134,103,44)" stroke="rgb(134,103,44)" stroke-width="1" opacity="1" d="M 632.5 351 L 637 351.5 L 632.5 352 L 632.5 351 Z " /><path fill="rgb(134,103,44)" stroke="rgb(134,103,44)" stroke-width="1" opacity="1" d="M 673.5 351 L 676 351.5 L 673.5 352 L 673.5 351 Z " /><path fill="rgb(134,103,44)" stroke="rgb(134,103,44)" stroke-width="1" opacity="1" d="M 538.5 352 L 540 352.5 L 536.5 354 L 536.5 353 L 538.5 352 Z " /><path fill="rgb(134,103,44)" stroke="rgb(134,103,44)" stroke-width="1" opacity="1" d="M 663.5 353 L 662.5 355 L 660.5 356 L 661.5 354 L 663.5 353 Z " /><path fill="rgb(134,103,44)" stroke="rgb(134,103,44)" stroke-width="1" opacity="1" d="M 717.5 354 L 722 356.5 L 720.5 356 Q 716.75 355.75 717.5 354 Z " /><path fill="rgb(134,103,44)" stroke="rgb(134,103,44)" stroke-width="1" opacity="1" d="M 524.5 359 L 523.5 361 L 516.5 364 L 516.5 363 L 524.5 359 Z " /><path fill="rgb(134,103,44)" stroke="rgb(134,103,44)" stroke-width="1" opacity="1" d="M 601.5 360 L 604 360.5 L 601.5 361 L 601.5 360 Z " /><path fill="rgb(134,103,44)" stroke="rgb(134,103,44)" stroke-width="1" opacity="1" d="M 605.5 361 L 608 361.5 L 605.5 362 L 605.5 361 Z " /><path fill="rgb(134,103,44)" stroke="rgb(134,103,44)" stroke-width="1" opacity="1" d="M 643.5 361 L 646 361.5 L 643.5 362 L 643.5 361 Z " /><path fill="rgb(134,103,44)" stroke="rgb(134,103,44)" stroke-width="1" opacity="1" d="M 610.5 362 L 614 362.5 L 610.5 363 L 610.5 362 Z " /><path fill="rgb(134,103,44)" stroke="rgb(134,103,44)" stroke-width="1" opacity="1" d="M 638.5 362 L 641 362.5 L 638.5 363 L 638.5 362 Z " /><path fill="rgb(134,103,44)" stroke="rgb(134,103,44)" stroke-width="1" opacity="1" d="M 616.5 363 L 636 363.5 L 616.5 364 L 616.5 363 Z " /><path fill="rgb(134,103,44)" stroke="rgb(134,103,44)" stroke-width="1" opacity="1" d="M 711.5 364 L 714 365.5 L 712.5 365 L 711.5 364 Z " /><path fill="rgb(134,103,44)" stroke="rgb(134,103,44)" stroke-width="1" opacity="1" d="M 458.5 369 L 461 369.5 L 458.5 370 L 458.5 369 Z " /><path fill="rgb(134,103,44)" stroke="rgb(134,103,44)" stroke-width="1" opacity="1" d="M 499.5 369 L 502 369.5 L 499.5 370 L 499.5 369 Z " /><path fill="rgb(134,103,44)" stroke="rgb(134,103,44)" stroke-width="1" opacity="1" d="M 464.5 370 L 468 370.5 L 464.5 371 L 464.5 370 Z " /><path fill="rgb(134,103,44)" stroke="rgb(134,103,44)" stroke-width="1" opacity="1" d="M 494.5 370 L 498 370.5 L 494.5 371 L 494.5 370 Z " /><path fill="rgb(134,103,44)" stroke="rgb(134,103,44)" stroke-width="1" opacity="1" d="M 623.5 370 Q 630 369 631 373.5 L 631 406.5 L 628.5 410 Q 622.25 411.25 621 407.5 L 620 405.5 L 620 373.5 L 623.5 370 Z M 622 397 L 621 401 L 622 401 L 622 397 Z " /><path fill="rgb(134,103,44)" stroke="rgb(134,103,44)" stroke-width="1" opacity="1" d="M 751.5 370 L 754 370.5 L 751.5 371 L 751.5 370 Z " /><path fill="rgb(134,103,44)" stroke="rgb(134,103,44)" stroke-width="1" opacity="1" d="M 783.5 370 L 786 370.5 L 783.5 371 L 783.5 370 Z " /><path fill="rgb(134,103,44)" stroke="rgb(134,103,44)" stroke-width="1" opacity="1" d="M 472.5 371 L 490 371.5 L 472.5 372 L 472.5 371 Z " /><path fill="rgb(134,103,44)" stroke="rgb(134,103,44)" stroke-width="1" opacity="1" d="M 757.5 371 L 764 371.5 L 757.5 372 L 757.5 371 Z " /><path fill="rgb(134,103,44)" stroke="rgb(134,103,44)" stroke-width="1" opacity="1" d="M 773.5 371 L 779 371.5 L 773.5 372 L 773.5 371 Z " /><path fill="rgb(134,103,44)" stroke="rgb(134,103,44)" stroke-width="1" opacity="1" d="M 518.5 381 L 518 382.5 L 516.5 385 L 517 383.5 L 518.5 381 Z " /><path fill="rgb(134,103,44)" stroke="rgb(134,103,44)" stroke-width="1" opacity="1" d="M 736.5 387 L 737 389.5 L 736 389.5 L 736.5 387 Z " /><path fill="rgb(134,103,44)" stroke="rgb(134,103,44)" stroke-width="1" opacity="1" d="M 737.5 391 L 738 395.5 L 737 395.5 L 737.5 391 Z " /><path fill="rgb(134,103,44)" stroke="rgb(134,103,44)" stroke-width="1" opacity="1" d="M 513.5 393 L 514 396.5 L 513 396.5 L 513.5 393 Z " /><path fill="rgb(134,103,44)" stroke="rgb(134,103,44)" stroke-width="1" opacity="1" d="M 513.5 402 L 514 404.5 L 513 404.5 L 513.5 402 Z " /><path fill="rgb(134,103,44)" stroke="rgb(134,103,44)" stroke-width="1" opacity="1" d="M 737.5 402 L 738 404.5 L 737 404.5 L 737.5 402 Z " /><path fill="rgb(134,103,44)" stroke="rgb(134,103,44)" stroke-width="1" opacity="1" d="M 515.5 409 L 519 415.5 L 517 414.5 L 515.5 409 Z " /><path fill="rgb(134,103,44)" stroke="rgb(134,103,44)" stroke-width="1" opacity="1" d="M 735.5 409 L 736 410.5 L 733.5 414 L 734 412.5 L 735.5 409 Z " /><path fill="rgb(134,103,44)" stroke="rgb(134,103,44)" stroke-width="1" opacity="1" d="M 560.5 447 L 564 449.5 L 562.5 449 L 560.5 447 Z " /><path fill="rgb(134,103,44)" stroke="rgb(134,103,44)" stroke-width="1" opacity="1" d="M 671.5 458 L 670.5 460 L 668.5 461 L 669.5 459 L 671.5 458 Z " /><path fill="rgb(134,103,44)" stroke="rgb(134,103,44)" stroke-width="1" opacity="1" d="M 584.5 460 L 599 467.5 L 597.5 468 L 585.5 462 L 584.5 460 Z " /><path fill="rgb(134,103,44)" stroke="rgb(134,103,44)" stroke-width="1" opacity="1" d="M 656.5 466 L 655.5 468 L 652.5 469 L 652.5 468 L 656.5 466 Z " /><path fill="rgb(134,103,44)" stroke="rgb(134,103,44)" stroke-width="1" opacity="1" d="M 623.5 476 L 631 476.5 L 623.5 477 L 623.5 476 Z " /><path fill="rgb(134,103,44)" stroke="rgb(134,103,44)" stroke-width="1" opacity="1" d="M 1088.5 588 L 1089 590.5 L 1088 590.5 L 1088.5 588 Z " /><path fill="rgb(134,103,44)" stroke="rgb(134,103,44)" stroke-width="1" opacity="1" d="M 164.5 590 L 165 592.5 L 164 592.5 L 164.5 590 Z " /><path fill="rgb(134,103,44)" stroke="rgb(134,103,44)" stroke-width="1" opacity="1" d="M 1090.5 606 L 1091 608.5 L 1090 608.5 L 1090.5 606 Z " /><path fill="rgb(134,103,44)" stroke="rgb(134,103,44)" stroke-width="1" opacity="1" d="M 1091.5 618 L 1092 623.5 L 1091 623.5 L 1091.5 618 Z " /><path fill="rgb(134,103,44)" stroke="rgb(134,103,44)" stroke-width="1" opacity="1" d="M 161.5 623 L 162 627.5 L 161 627.5 L 161.5 623 Z " /><path fill="rgb(134,103,44)" stroke="rgb(134,103,44)" stroke-width="1" opacity="1" d="M 455.5 655 L 461 655.5 L 455.5 656 L 455.5 655 Z " /><path fill="rgb(134,103,44)" stroke="rgb(134,103,44)" stroke-width="1" opacity="1" d="M 772.5 655 L 775 655.5 L 772.5 656 L 772.5 655 Z " /><path fill="rgb(134,103,44)" stroke="rgb(134,103,44)" stroke-width="1" opacity="1" d="M 1091.5 675 L 1092 678.5 L 1091 678.5 L 1091.5 675 Z " /><path fill="rgb(134,103,44)" stroke="rgb(134,103,44)" stroke-width="1" opacity="1" d="M 161.5 684 L 162 688.5 L 161 688.5 L 161.5 684 Z " /><path fill="rgb(134,103,44)" stroke="rgb(134,103,44)" stroke-width="1" opacity="1" d="M 1090.5 690 L 1091 693.5 L 1090 693.5 L 1090.5 690 Z " /><path fill="rgb(134,103,44)" stroke="rgb(134,103,44)" stroke-width="1" opacity="1" d="M 163.5 708 L 164 710.5 L 163 710.5 L 163.5 708 Z " /><path fill="rgb(134,103,44)" stroke="rgb(134,103,44)" stroke-width="1" opacity="1" d="M 688.5 1018 L 693 1018.5 L 688.5 1019 L 688.5 1018 Z " /><path fill="rgb(134,103,44)" stroke="rgb(134,103,44)" stroke-width="1" opacity="1" d="M 470.5 1022 L 473 1022.5 L 470.5 1023 L 470.5 1022 Z " /><path fill="rgb(134,103,44)" stroke="rgb(134,103,44)" stroke-width="1" opacity="1" d="M 780.5 1022 L 783 1022.5 L 780.5 1023 L 780.5 1022 Z " /><path fill="rgb(134,103,44)" stroke="rgb(134,103,44)" stroke-width="1" opacity="1" d="M 484.5 1024 L 487 1024.5 L 484.5 1025 L 484.5 1024 Z " /><path fill="rgb(134,103,44)" stroke="rgb(134,103,44)" stroke-width="1" opacity="1" d="M 493.5 1025 L 496 1025.5 L 493.5 1026 L 493.5 1025 Z " /><path fill="rgb(134,103,44)" stroke="rgb(134,103,44)" stroke-width="1" opacity="1" d="M 757.5 1025 L 760 1025.5 L 757.5 1026 L 757.5 1025 Z " /><path fill="rgb(134,103,44)" stroke="rgb(134,103,44)" stroke-width="1" opacity="1" d="M 502.5 1026 L 506 1026.5 L 502.5 1027 L 502.5 1026 Z " /><path fill="rgb(134,103,44)" stroke="rgb(134,103,44)" stroke-width="1" opacity="1" d="M 513.5 1027 L 516 1027.5 L 513.5 1028 L 513.5 1027 Z " /><path fill="rgb(134,103,44)" stroke="rgb(134,103,44)" stroke-width="1" opacity="1" d="M 736.5 1027 L 740 1027.5 L 736.5 1028 L 736.5 1027 Z " /><path fill="rgb(134,103,44)" stroke="rgb(134,103,44)" stroke-width="1" opacity="1" d="M 525.5 1028 L 530 1028.5 L 525.5 1029 L 525.5 1028 Z " /><path fill="rgb(134,103,44)" stroke="rgb(134,103,44)" stroke-width="1" opacity="1" d="M 722.5 1028 L 727 1028.5 L 722.5 1029 L 722.5 1028 Z " /><path fill="rgb(134,103,44)" stroke="rgb(134,103,44)" stroke-width="1" opacity="1" d="M 540.5 1029 L 546 1029.5 L 540.5 1030 L 540.5 1029 Z " /><path fill="rgb(134,103,44)" stroke="rgb(134,103,44)" stroke-width="1" opacity="1" d="M 704.5 1029 L 711 1029.5 L 704.5 1030 L 704.5 1029 Z " /><path fill="rgb(134,103,44)" stroke="rgb(134,103,44)" stroke-width="1" opacity="1" d="M 562.5 1030 L 570 1030.5 L 562.5 1031 L 562.5 1030 Z " /><path fill="rgb(134,103,44)" stroke="rgb(134,103,44)" stroke-width="1" opacity="1" d="M 678.5 1030 L 689 1030.5 L 678.5 1031 L 678.5 1030 Z " /><path fill="rgb(164,161,64)" stroke="rgb(164,161,64)" stroke-width="1" opacity="1" d="M 615.5 175 L 618 175.5 L 615.5 176 L 615.5 175 Z " /><path fill="rgb(164,161,64)" stroke="rgb(164,161,64)" stroke-width="1" opacity="1" d="M 631.5 175 L 634 175.5 L 631.5 176 L 631.5 175 Z " /><path fill="rgb(164,161,64)" stroke="rgb(164,161,64)" stroke-width="1" opacity="1" d="M 617.5 188 L 630.5 188 Q 643.57 190.93 653.5 197 Q 681.17 212.83 702 235.5 L 708 243.5 L 709 247.5 L 692 262.5 Q 674.72 280.72 661.5 303 Q 645.03 291.97 615.5 294 L 598.5 298 L 586.5 305 Q 569.58 277.42 546.5 256 L 537 248.5 L 538 244.5 L 543 237.5 L 560.5 220 L 588.5 200 Q 600.99 191.99 617.5 188 Z M 622 244 L 619 247 L 619 287 Q 620 291 627 290 L 629 288 L 629 247 Q 628 243 622 244 Z " /><path fill="rgb(164,161,64)" stroke="rgb(164,161,64)" stroke-width="1" opacity="1" d="M 759.5 236 L 767 236.5 L 759.5 237 L 759.5 236 Z " /><path fill="rgb(164,161,64)" stroke="rgb(164,161,64)" stroke-width="1" opacity="1" d="M 739.5 237 L 745 237.5 L 739.5 238 L 739.5 237 Z " /><path fill="rgb(164,161,64)" stroke="rgb(164,161,64)" stroke-width="1" opacity="1" d="M 776.5 237 L 782 237.5 L 776.5 238 L 776.5 237 Z " /><path fill="rgb(164,161,64)" stroke="rgb(164,161,64)" stroke-width="1" opacity="1" d="M 719.5 238 L 723 240.5 L 721.5 241 L 719.5 238 Z " /><path fill="rgb(164,161,64)" stroke="rgb(164,161,64)" stroke-width="1" opacity="1" d="M 731.5 238 L 734 238.5 L 731.5 239 L 731.5 238 Z " /><path fill="rgb(164,161,64)" stroke="rgb(164,161,64)" stroke-width="1" opacity="1" d="M 787.5 238 L 791 238.5 L 787.5 239 L 787.5 238 Z " /><path fill="rgb(164,161,64)" stroke="rgb(164,161,64)" stroke-width="1" opacity="1" d="M 487.5 239 L 509 239.5 L 487.5 240 L 487.5 239 Z " /><path fill="rgb(164,161,64)" stroke="rgb(164,161,64)" stroke-width="1" opacity="1" d="M 725.5 239 L 728 239.5 L 725.5 240 L 725.5 239 Z " /><path fill="rgb(164,161,64)" stroke="rgb(164,161,64)" stroke-width="1" opacity="1" d="M 794.5 239 L 798 239.5 L 794.5 240 L 794.5 239 Z " /><path fill="rgb(164,161,64)" stroke="rgb(164,161,64)" stroke-width="1" opacity="1" d="M 474.5 240 L 480 240.5 L 474.5 241 L 474.5 240 Z " /><path fill="rgb(164,161,64)" stroke="rgb(164,161,64)" stroke-width="1" opacity="1" d="M 517.5 240 L 520 240.5 L 517.5 241 L 517.5 240 Z " /><path fill="rgb(164,161,64)" stroke="rgb(164,161,64)" stroke-width="1" opacity="1" d="M 525.5 240 L 524.5 242 L 523 241.5 L 525.5 240 Z " /><path fill="rgb(164,161,64)" stroke="rgb(164,161,64)" stroke-width="1" opacity="1" d="M 466.5 241 L 469 241.5 L 466.5 242 L 466.5 241 Z " /><path fill="rgb(164,161,64)" stroke="rgb(164,161,64)" stroke-width="1" opacity="1" d="M 806.5 241 L 809 241.5 L 806.5 242 L 806.5 241 Z " /><path fill="rgb(164,161,64)" stroke="rgb(164,161,64)" stroke-width="1" opacity="1" d="M 458.5 242 L 462 242.5 L 458.5 243 L 458.5 242 Z " /><path fill="rgb(164,161,64)" stroke="rgb(164,161,64)" stroke-width="1" opacity="1" d="M 452.5 243 L 455 243.5 L 452.5 244 L 452.5 243 Z " /><path fill="rgb(164,161,64)" stroke="rgb(164,161,64)" stroke-width="1" opacity="1" d="M 446.5 244 L 449 244.5 L 446.5 245 L 446.5 244 Z " /><path fill="rgb(164,161,64)" stroke="rgb(164,161,64)" stroke-width="1" opacity="1" d="M 747.5 249 L 782.5 250 L 783.5 251 L 802.5 253 L 827.5 259 L 853.5 268 L 874.5 278 Q 887.75 284.75 897 295.5 L 875.5 318 Q 847.88 344.38 811.5 362 L 787.5 370 L 764.5 372 L 763.5 371 L 754.5 371 L 743.5 368 L 711.5 351 L 692.5 344 L 677.5 341 L 676 339.5 L 679 331.5 L 679 326.5 Q 677.13 316.37 671 310.5 Q 687.25 282.75 710.5 262 L 724.5 253 L 736.5 250 L 746.5 250 L 747.5 249 Z M 765 294 L 764 295 L 757 295 L 741 298 L 726 302 L 692 316 Q 688 317 689 323 L 694 326 L 718 316 L 737 310 L 764 305 L 781 304 Q 784 303 783 297 L 781 294 L 765 294 Z " /><path fill="rgb(164,161,64)" stroke="rgb(164,161,64)" stroke-width="1" opacity="1" d="M 481.5 252 L 511.5 252 L 521.5 254 Q 539.99 263.01 552 278.5 L 578 313.5 L 572 324.5 L 572 333.5 L 575 340.5 L 543.5 350 L 511.5 366 L 502.5 369 L 493.5 371 L 468.5 371 Q 442.01 366.49 422.5 355 Q 394.22 338.78 373 315.5 L 363 300.5 L 362 291.5 L 366.5 285 L 379.5 277 L 405.5 267 L 451.5 256 L 470.5 254 L 471.5 253 L 480.5 253 L 481.5 252 Z M 478 296 L 474 298 L 473 302 L 474 305 L 478 307 L 488 307 L 496 309 L 502 309 L 529 315 L 556 326 L 560 326 L 563 322 L 562 319 L 554 313 L 522 302 L 502 298 L 478 296 Z " /><path fill="rgb(164,161,64)" stroke="rgb(164,161,64)" stroke-width="1" opacity="1" d="M 349.5 297 L 350 298.5 L 347 300.5 L 349.5 297 Z " /><path fill="rgb(164,161,64)" stroke="rgb(164,161,64)" stroke-width="1" opacity="1" d="M 909.5 299 L 909 300.5 L 908.5 302 L 908 300.5 L 909.5 299 Z " /><path fill="rgb(164,161,64)" stroke="rgb(164,161,64)" stroke-width="1" opacity="1" d="M 620.5 306 L 631.5 306 L 632.5 307 L 643.5 308 Q 656.63 311.37 664 320.5 Q 667.33 324.17 666 332.5 L 659.5 342 Q 651.24 348.74 638.5 351 L 618.5 352 L 601.5 348 Q 592.46 344.54 587 337.5 L 584 327.5 Q 586.15 319.15 592.5 315 L 607.5 308 L 619.5 307 L 620.5 306 Z " /><path fill="rgb(164,161,64)" stroke="rgb(164,161,64)" stroke-width="1" opacity="1" d="M 668.5 350 L 706.5 362 Q 722.32 367.68 732 379.5 L 736 386.5 L 738 401.5 Q 733.72 419.22 720.5 428 Q 687 452.5 647.5 471 L 633.5 476 L 620.5 476 Q 564.03 455.47 522 420.5 L 514 406.5 L 513 397.5 L 516 385.5 L 527.5 372 L 548.5 361 L 569.5 354 L 583.5 351 Q 590.7 357.8 601.5 361 L 616.5 364 L 635.5 364 L 652.5 360 Q 662.08 356.58 668.5 350 Z M 624 370 L 620 374 L 620 406 L 621 408 Q 622 411 629 410 L 631 407 L 631 374 Q 630 369 624 370 Z " /><path fill="rgb(164,161,64)" stroke="rgb(164,161,64)" stroke-width="1" opacity="1" d="M 169.5 557 L 170 559.5 L 169 559.5 L 169.5 557 Z " /><path fill="rgb(164,161,64)" stroke="rgb(164,161,64)" stroke-width="1" opacity="1" d="M 1085.5 566 L 1086 568.5 L 1085 568.5 L 1085.5 566 Z " /><path fill="rgb(164,161,64)" stroke="rgb(164,161,64)" stroke-width="1" opacity="1" d="M 167.5 568 L 168 570.5 L 167 570.5 L 167.5 568 Z " /><path fill="rgb(164,161,64)" stroke="rgb(164,161,64)" stroke-width="1" opacity="1" d="M 1086.5 572 L 1087 574.5 L 1086 574.5 L 1086.5 572 Z " /><path fill="rgb(164,161,64)" stroke="rgb(164,161,64)" stroke-width="1" opacity="1" d="M 1087.5 578 L 1088 580.5 L 1087 580.5 L 1087.5 578 Z " /><path fill="rgb(164,161,64)" stroke="rgb(164,161,64)" stroke-width="1" opacity="1" d="M 165.5 580 L 166 583.5 L 165 583.5 L 165.5 580 Z " /><path fill="rgb(164,161,64)" stroke="rgb(164,161,64)" stroke-width="1" opacity="1" d="M 1088.5 585 L 1089 587.5 L 1088 587.5 L 1088.5 585 Z " /><path fill="rgb(164,161,64)" stroke="rgb(164,161,64)" stroke-width="1" opacity="1" d="M 164.5 587 L 165 589.5 L 164 589.5 L 164.5 587 Z " /><path fill="rgb(164,161,64)" stroke="rgb(164,161,64)" stroke-width="1" opacity="1" d="M 1089.5 593 L 1090 595.5 L 1089 595.5 L 1089.5 593 Z " /><path fill="rgb(164,161,64)" stroke="rgb(164,161,64)" stroke-width="1" opacity="1" d="M 163.5 595 L 164 598.5 L 163 598.5 L 163.5 595 Z " /><path fill="rgb(164,161,64)" stroke="rgb(164,161,64)" stroke-width="1" opacity="1" d="M 1090.5 601 L 1091 605.5 L 1090 605.5 L 1090.5 601 Z " /><path fill="rgb(164,161,64)" stroke="rgb(164,161,64)" stroke-width="1" opacity="1" d="M 162.5 604 L 163 609.5 L 162 609.5 L 162.5 604 Z " /><path fill="rgb(164,161,64)" stroke="rgb(164,161,64)" stroke-width="1" opacity="1" d="M 1091.5 613 L 1092 617.5 L 1091 617.5 L 1091.5 613 Z " /><path fill="rgb(164,161,64)" stroke="rgb(164,161,64)" stroke-width="1" opacity="1" d="M 161.5 616 L 162 622.5 L 161 622.5 L 161.5 616 Z " /><path fill="rgb(164,161,64)" stroke="rgb(164,161,64)" stroke-width="1" opacity="1" d="M 1092.5 632 L 1093 668.5 L 1092 668.5 L 1092.5 632 Z " /><path fill="rgb(164,161,64)" stroke="rgb(164,161,64)" stroke-width="1" opacity="1" d="M 160.5 634 L 161 659.5 L 160 659.5 L 160.5 634 Z " /><path fill="rgb(164,161,64)" stroke="rgb(164,161,64)" stroke-width="1" opacity="1" d="M 762.5 639 L 763 645.5 L 762 645.5 L 762.5 639 Z " /><path fill="rgb(164,161,64)" stroke="rgb(164,161,64)" stroke-width="1" opacity="1" d="M 470.5 643 L 471 645.5 L 470 645.5 L 470.5 643 Z " /><path fill="rgb(164,161,64)" stroke="rgb(164,161,64)" stroke-width="1" opacity="1" d="M 160.5 661 L 161 678.5 L 160 678.5 L 160.5 661 Z " /><path fill="rgb(164,161,64)" stroke="rgb(164,161,64)" stroke-width="1" opacity="1" d="M 1091.5 679 L 1092 686.5 L 1091 686.5 L 1091.5 679 Z " /><path fill="rgb(164,161,64)" stroke="rgb(164,161,64)" stroke-width="1" opacity="1" d="M 161.5 689 L 162 694.5 L 161 694.5 L 161.5 689 Z " /><path fill="rgb(164,161,64)" stroke="rgb(164,161,64)" stroke-width="1" opacity="1" d="M 1090.5 694 L 1091 698.5 L 1090 698.5 L 1090.5 694 Z " /><path fill="rgb(164,161,64)" stroke="rgb(164,161,64)" stroke-width="1" opacity="1" d="M 162.5 700 L 163 704.5 L 162 704.5 L 162.5 700 Z " /><path fill="rgb(164,161,64)" stroke="rgb(164,161,64)" stroke-width="1" opacity="1" d="M 1089.5 704 L 1090 707.5 L 1089 707.5 L 1089.5 704 Z " /><path fill="rgb(164,161,64)" stroke="rgb(164,161,64)" stroke-width="1" opacity="1" d="M 163.5 711 L 164 713.5 L 163 713.5 L 163.5 711 Z " /><path fill="rgb(164,161,64)" stroke="rgb(164,161,64)" stroke-width="1" opacity="1" d="M 1088.5 712 L 1089 714.5 L 1088 714.5 L 1088.5 712 Z " /><path fill="rgb(164,161,64)" stroke="rgb(164,161,64)" stroke-width="1" opacity="1" d="M 164.5 718 L 165 721.5 L 164 721.5 L 164.5 718 Z " /><path fill="rgb(164,161,64)" stroke="rgb(164,161,64)" stroke-width="1" opacity="1" d="M 1087.5 720 L 1088 722.5 L 1087 722.5 L 1087.5 720 Z " /><path fill="rgb(164,161,64)" stroke="rgb(164,161,64)" stroke-width="1" opacity="1" d="M 165.5 725 L 166 727.5 L 165 727.5 L 165.5 725 Z " /><path fill="rgb(164,161,64)" stroke="rgb(164,161,64)" stroke-width="1" opacity="1" d="M 166.5 731 L 167 733.5 L 166 733.5 L 166.5 731 Z " /><path fill="rgb(164,161,64)" stroke="rgb(164,161,64)" stroke-width="1" opacity="1" d="M 805.5 1018 L 808 1018.5 L 805.5 1019 L 805.5 1018 Z " /><path fill="rgb(164,161,64)" stroke="rgb(164,161,64)" stroke-width="1" opacity="1" d="M 450.5 1019 L 453 1019.5 L 450.5 1020 L 450.5 1019 Z " /><path fill="rgb(164,161,64)" stroke="rgb(164,161,64)" stroke-width="1" opacity="1" d="M 800.5 1019 L 803 1019.5 L 800.5 1020 L 800.5 1019 Z " /><path fill="rgb(164,161,64)" stroke="rgb(164,161,64)" stroke-width="1" opacity="1" d="M 456.5 1020 L 459 1020.5 L 456.5 1021 L 456.5 1020 Z " /><path fill="rgb(164,161,64)" stroke="rgb(164,161,64)" stroke-width="1" opacity="1" d="M 794.5 1020 L 797 1020.5 L 794.5 1021 L 794.5 1020 Z " /><path fill="rgb(164,161,64)" stroke="rgb(164,161,64)" stroke-width="1" opacity="1" d="M 788.5 1021 L 791 1021.5 L 788.5 1022 L 788.5 1021 Z " /><path fill="rgb(164,161,64)" stroke="rgb(164,161,64)" stroke-width="1" opacity="1" d="M 474.5 1023 L 477 1023.5 L 474.5 1024 L 474.5 1023 Z " /><path fill="rgb(164,161,64)" stroke="rgb(164,161,64)" stroke-width="1" opacity="1" d="M 775.5 1023 L 779 1023.5 L 775.5 1024 L 775.5 1023 Z " /><path fill="rgb(164,161,64)" stroke="rgb(164,161,64)" stroke-width="1" opacity="1" d="M 481.5 1024 L 484 1024.5 L 481.5 1025 L 481.5 1024 Z " /><path fill="rgb(164,161,64)" stroke="rgb(164,161,64)" stroke-width="1" opacity="1" d="M 768.5 1024 L 772 1024.5 L 768.5 1025 L 768.5 1024 Z " /><path fill="rgb(164,161,64)" stroke="rgb(164,161,64)" stroke-width="1" opacity="1" d="M 489.5 1025 L 493 1025.5 L 489.5 1026 L 489.5 1025 Z " /><path fill="rgb(164,161,64)" stroke="rgb(164,161,64)" stroke-width="1" opacity="1" d="M 760.5 1025 L 764 1025.5 L 760.5 1026 L 760.5 1025 Z " /><path fill="rgb(164,161,64)" stroke="rgb(164,161,64)" stroke-width="1" opacity="1" d="M 498.5 1026 L 502 1026.5 L 498.5 1027 L 498.5 1026 Z " /><path fill="rgb(164,161,64)" stroke="rgb(164,161,64)" stroke-width="1" opacity="1" d="M 750.5 1026 L 755 1026.5 L 750.5 1027 L 750.5 1026 Z " /><path fill="rgb(164,161,64)" stroke="rgb(164,161,64)" stroke-width="1" opacity="1" d="M 508.5 1027 L 513 1027.5 L 508.5 1028 L 508.5 1027 Z " /><path fill="rgb(164,161,64)" stroke="rgb(164,161,64)" stroke-width="1" opacity="1" d="M 740.5 1027 L 745 1027.5 L 740.5 1028 L 740.5 1027 Z " /><path fill="rgb(164,161,64)" stroke="rgb(164,161,64)" stroke-width="1" opacity="1" d="M 519.5 1028 L 525 1028.5 L 519.5 1029 L 519.5 1028 Z " /><path fill="rgb(164,161,64)" stroke="rgb(164,161,64)" stroke-width="1" opacity="1" d="M 727.5 1028 L 733 1028.5 L 727.5 1029 L 727.5 1028 Z " /><path fill="rgb(164,161,64)" stroke="rgb(164,161,64)" stroke-width="1" opacity="1" d="M 533.5 1029 L 540 1029.5 L 533.5 1030 L 533.5 1029 Z " /><path fill="rgb(164,161,64)" stroke="rgb(164,161,64)" stroke-width="1" opacity="1" d="M 711.5 1029 L 719 1029.5 L 711.5 1030 L 711.5 1029 Z " /><path fill="rgb(164,161,64)" stroke="rgb(164,161,64)" stroke-width="1" opacity="1" d="M 551.5 1030 L 562 1030.5 L 551.5 1031 L 551.5 1030 Z " /><path fill="rgb(164,161,64)" stroke="rgb(164,161,64)" stroke-width="1" opacity="1" d="M 689.5 1030 L 698 1030.5 L 689.5 1031 L 689.5 1030 Z " /><path fill="rgb(164,161,64)" stroke="rgb(164,161,64)" stroke-width="1" opacity="1" d="M 583.5 1031 L 661 1031.5 L 583.5 1032 L 583.5 1031 Z " /><path fill="rgb(248,119,37)" stroke="rgb(248,119,37)" stroke-width="1" opacity="1" d="M 352.5 312 Q 356.5 311.5 357 314.5 Q 366.54 328.96 379.5 340 Q 404.02 362.48 437.5 376 L 465.5 383 L 494.5 383 L 504.5 380 L 505 382.5 Q 499.14 390.14 501 405.5 L 507 421.5 L 522.5 438 L 547.5 455 L 592.5 479 L 615.5 488 L 633.5 489 L 658.5 480 L 698.5 458 L 725.5 440 L 740 426.5 L 749 410.5 Q 751.6 402.6 750 390.5 L 747 381.5 L 748.5 382 L 762.5 383 L 763.5 384 L 774.5 384 L 775.5 383 L 784.5 383 L 798.5 380 Q 817.81 374.31 833.5 365 L 868.5 341 L 899.5 312 L 901.5 312 Q 940.81 335.19 972 366.5 Q 1028.16 422.84 1057 506.5 L 1068 545.5 L 1076 590.5 L 1077 608.5 L 1078 609.5 L 1078 622.5 L 1079 623.5 L 1079 677.5 L 1078 678.5 L 1078 691.5 L 1077 692.5 L 1077 702.5 L 1075 710.5 L 1075 717.5 L 1069 751.5 L 1060 785.5 L 1048 818.5 Q 1020.94 882.94 973.5 927 Q 946.04 952.04 911.5 970 L 873.5 987 L 824.5 1002 L 769.5 1012 L 744.5 1014 L 743.5 1015 L 732.5 1015 L 731.5 1016 L 719.5 1016 L 718.5 1017 L 669.5 1018 L 668.5 1019 L 583.5 1019 L 582.5 1018 L 553.5 1018 L 552.5 1017 L 521.5 1016 L 520.5 1015 L 509.5 1015 L 508.5 1014 L 499.5 1014 L 483.5 1011 L 476.5 1011 L 438.5 1004 L 390.5 990 Q 309.1 960.4 257 901.5 Q 234.78 876.22 218 845.5 L 202 811.5 L 190 777.5 L 182 745.5 L 178 722.5 L 178 716.5 L 177 715.5 L 177 708.5 L 176 707.5 L 175 685.5 L 174 684.5 L 174 625.5 L 175 624.5 L 175 613.5 L 176 612.5 L 178 585.5 L 185 547.5 L 192 521.5 L 207 479.5 Q 219.78 448.78 237 422.5 L 258 393.5 L 283 366.5 L 283 365 L 284.5 365 Q 298.47 349.47 315.5 337 L 352.5 312 Z M 910 401 L 905 403 Q 899 405 898 412 Q 897 422 901 427 Q 911 439 926 447 Q 942 462 953 483 Q 958 490 969 493 L 977 492 Q 982 489 984 482 L 984 468 L 982 460 Q 975 442 964 429 Q 953 416 939 407 L 924 401 L 910 401 Z M 461 615 Q 449 617 442 624 L 430 639 L 426 653 Q 425 663 427 671 Q 430 683 438 691 L 450 699 L 464 703 Q 483 703 493 694 Q 504 685 508 668 L 508 651 L 507 646 L 500 632 Q 493 622 482 617 L 475 615 L 461 615 Z M 780 615 Q 766 617 759 625 Q 747 635 744 654 Q 744 675 753 687 L 765 697 L 774 701 L 783 703 L 796 702 L 809 696 Q 823 685 827 665 L 826 649 Q 823 636 815 628 L 800 617 L 792 615 L 780 615 Z M 580 680 L 578 681 L 574 686 Q 575 702 583 711 Q 594 726 617 730 L 639 730 L 647 728 Q 657 724 665 718 Q 676 709 680 692 L 679 684 L 675 680 L 668 681 L 664 687 L 663 694 L 657 704 L 648 711 L 634 715 Q 613 717 603 708 L 593 698 L 589 684 Q 588 679 580 680 Z " /><path fill="rgb(248,248,248)" stroke="rgb(248,248,248)" stroke-width="1" opacity="1" d="M 0 0 L 1254 0 L 1254 1254 L 0 1254 L 0 0 Z M 624 174 L 608 177 L 591 184 Q 567 197 548 214 Q 534 226 525 241 L 510 240 L 509 239 L 475 240 L 474 241 L 459 242 L 432 247 L 390 259 L 366 270 L 359 275 L 350 287 L 349 299 Q 315 318 288 343 Q 231 394 197 469 L 188 491 L 173 540 L 164 588 L 163 604 L 162 605 L 162 616 L 161 617 L 161 634 L 160 635 L 160 679 L 161 680 L 161 695 L 162 696 L 163 714 L 171 759 L 177 782 Q 200 857 246 910 Q 301 972 388 1003 L 437 1017 L 475 1024 L 498 1026 L 499 1027 L 508 1027 L 509 1028 L 519 1028 L 520 1029 L 551 1030 L 552 1031 L 583 1031 L 584 1032 L 661 1032 L 662 1031 L 719 1030 L 720 1029 L 733 1029 L 734 1028 L 745 1028 L 746 1027 L 772 1025 L 818 1017 L 846 1010 L 874 1001 L 901 990 L 925 978 Q 960 959 987 932 L 990 930 Q 1039 881 1066 810 L 1080 764 L 1086 735 L 1089 709 L 1090 708 L 1090 700 L 1091 699 L 1092 670 L 1093 669 L 1092 614 L 1091 613 L 1091 602 L 1090 601 L 1088 579 L 1077 527 L 1066 492 Q 1039 421 993 370 Q 957 329 909 302 L 912 296 L 909 290 L 890 272 Q 872 261 851 253 L 809 241 L 792 239 L 791 238 L 783 238 L 782 237 L 768 237 L 767 236 L 740 237 L 739 238 L 732 238 L 722 240 L 707 222 Q 687 202 663 187 L 638 176 L 624 174 Z " /><path fill="rgb(248,248,248)" stroke="rgb(248,248,248)" stroke-width="1" opacity="1" d="M 909.5 401 L 923.5 401 L 938.5 407 Q 953.39 415.61 964 428.5 Q 975.37 441.63 982 459.5 L 984 467.5 L 984 481.5 Q 982.18 488.68 976.5 492 L 968.5 493 Q 958.25 490.25 953 482.5 Q 941.84 462.16 925.5 447 Q 911.38 438.63 901 426.5 Q 896.8 421.7 898 411.5 Q 899.37 405.37 904.5 403 L 909.5 401 Z " /><path fill="rgb(248,248,248)" stroke="rgb(248,248,248)" stroke-width="1" opacity="1" d="M 456.5 629 Q 465.6 629.4 469 635.5 L 471 642.5 L 470 647.5 L 465.5 653 Q 462.17 656.17 454.5 655 L 447 649.5 Q 444.29 646.21 445 639.5 Q 446.37 633.37 451.5 631 L 456.5 629 Z " /><path fill="rgb(248,248,248)" stroke="rgb(248,248,248)" stroke-width="1" opacity="1" d="M 774.5 629 Q 781.42 629.58 785 633.5 Q 789 637 788 645.5 Q 786.62 651.62 781.5 654 L 771.5 655 L 765 650.5 Q 761.5 646.5 763 637.5 L 768.5 631 L 774.5 629 Z " /><path fill="rgb(190,92,30)" stroke="rgb(190,92,30)" stroke-width="1" opacity="1" d="M 353.5 311 Q 356.83 309.87 356 312.5 L 356.5 314 L 353.5 311 Z " /><path fill="rgb(190,92,30)" stroke="rgb(190,92,30)" stroke-width="1" opacity="1" d="M 899.5 311 L 901 311.5 L 882.5 329 L 899.5 311 Z " /><path fill="rgb(190,92,30)" stroke="rgb(190,92,30)" stroke-width="1" opacity="1" d="M 902.5 312 L 906 314.5 L 904.5 314 L 902.5 312 Z " /><path fill="rgb(190,92,30)" stroke="rgb(190,92,30)" stroke-width="1" opacity="1" d="M 422.5 368 L 427 370.5 L 425.5 371 L 422.5 368 Z " /><path fill="rgb(190,92,30)" stroke="rgb(190,92,30)" stroke-width="1" opacity="1" d="M 792.5 380 L 795 380.5 L 792.5 381 L 792.5 380 Z " /><path fill="rgb(190,92,30)" stroke="rgb(190,92,30)" stroke-width="1" opacity="1" d="M 459.5 381 L 462 381.5 L 459.5 382 L 459.5 381 Z " /><path fill="rgb(190,92,30)" stroke="rgb(190,92,30)" stroke-width="1" opacity="1" d="M 787.5 381 L 790 381.5 L 787.5 382 L 787.5 381 Z " /><path fill="rgb(190,92,30)" stroke="rgb(190,92,30)" stroke-width="1" opacity="1" d="M 465.5 382 L 470 382.5 L 465.5 383 L 465.5 382 Z " /><path fill="rgb(190,92,30)" stroke="rgb(190,92,30)" stroke-width="1" opacity="1" d="M 489.5 382 L 495 382.5 L 489.5 383 L 489.5 382 Z " /><path fill="rgb(190,92,30)" stroke="rgb(190,92,30)" stroke-width="1" opacity="1" d="M 753.5 382 L 758 382.5 L 753.5 383 L 753.5 382 Z " /><path fill="rgb(190,92,30)" stroke="rgb(190,92,30)" stroke-width="1" opacity="1" d="M 780.5 382 L 785 382.5 L 780.5 383 L 780.5 382 Z " /><path fill="rgb(190,92,30)" stroke="rgb(190,92,30)" stroke-width="1" opacity="1" d="M 763.5 383 L 775 383.5 L 763.5 384 L 763.5 383 Z " /><path fill="rgb(190,92,30)" stroke="rgb(190,92,30)" stroke-width="1" opacity="1" d="M 748.5 386 L 749 388.5 L 748 388.5 L 748.5 386 Z " /><path fill="rgb(190,92,30)" stroke="rgb(190,92,30)" stroke-width="1" opacity="1" d="M 749.5 390 L 750 394.5 L 749 394.5 L 749.5 390 Z " /><path fill="rgb(190,92,30)" stroke="rgb(190,92,30)" stroke-width="1" opacity="1" d="M 501.5 392 L 502 405.5 L 501 405.5 L 501.5 392 Z " /><path fill="rgb(190,92,30)" stroke="rgb(190,92,30)" stroke-width="1" opacity="1" d="M 749.5 402 L 750 406.5 L 749 406.5 L 749.5 402 Z " /><path fill="rgb(190,92,30)" stroke="rgb(190,92,30)" stroke-width="1" opacity="1" d="M 748.5 408 L 749 410.5 L 748 410.5 L 748.5 408 Z " /><path fill="rgb(190,92,30)" stroke="rgb(190,92,30)" stroke-width="1" opacity="1" d="M 746.5 414 L 747 415.5 L 743.5 421 L 744 419.5 L 746.5 414 Z " /><path fill="rgb(190,92,30)" stroke="rgb(190,92,30)" stroke-width="1" opacity="1" d="M 506.5 419 L 509 422.5 L 507 421.5 L 506.5 419 Z " /><path fill="rgb(190,92,30)" stroke="rgb(190,92,30)" stroke-width="1" opacity="1" d="M 219.5 453 L 219 454.5 L 217.5 457 L 218 455.5 L 219.5 453 Z " /><path fill="rgb(190,92,30)" stroke="rgb(190,92,30)" stroke-width="1" opacity="1" d="M 687.5 463 L 686.5 465 L 684.5 466 L 685.5 464 L 687.5 463 Z " /><path fill="rgb(190,92,30)" stroke="rgb(190,92,30)" stroke-width="1" opacity="1" d="M 573.5 468 L 579 471.5 L 577.5 471 Q 573.5 470.5 573.5 468 Z " /><path fill="rgb(190,92,30)" stroke="rgb(190,92,30)" stroke-width="1" opacity="1" d="M 665.5 475 L 664.5 477 L 657.5 480 L 657.5 479 L 665.5 475 Z " /><path fill="rgb(190,92,30)" stroke="rgb(190,92,30)" stroke-width="1" opacity="1" d="M 588.5 476 L 594 478.5 L 592.5 479 L 588.5 477 L 588.5 476 Z " /><path fill="rgb(190,92,30)" stroke="rgb(190,92,30)" stroke-width="1" opacity="1" d="M 615.5 487 L 618 487.5 L 615.5 488 L 615.5 487 Z " /><path fill="rgb(190,92,30)" stroke="rgb(190,92,30)" stroke-width="1" opacity="1" d="M 620.5 488 L 634 488.5 L 620.5 489 L 620.5 488 Z " /><path fill="rgb(190,92,30)" stroke="rgb(190,92,30)" stroke-width="1" opacity="1" d="M 1068.5 547 L 1069 549.5 L 1068 549.5 L 1068.5 547 Z " /><path fill="rgb(190,92,30)" stroke="rgb(190,92,30)" stroke-width="1" opacity="1" d="M 1069.5 552 L 1070 554.5 L 1069 554.5 L 1069.5 552 Z " /><path fill="rgb(190,92,30)" stroke="rgb(190,92,30)" stroke-width="1" opacity="1" d="M 183.5 554 L 184 556.5 L 183 556.5 L 183.5 554 Z " /><path fill="rgb(190,92,30)" stroke="rgb(190,92,30)" stroke-width="1" opacity="1" d="M 1070.5 556 L 1071 559.5 L 1070 559.5 L 1070.5 556 Z " /><path fill="rgb(190,92,30)" stroke="rgb(190,92,30)" stroke-width="1" opacity="1" d="M 182.5 559 L 183 561.5 L 182 561.5 L 182.5 559 Z " /><path fill="rgb(190,92,30)" stroke="rgb(190,92,30)" stroke-width="1" opacity="1" d="M 1071.5 562 L 1072 564.5 L 1071 564.5 L 1071.5 562 Z " /><path fill="rgb(190,92,30)" stroke="rgb(190,92,30)" stroke-width="1" opacity="1" d="M 181.5 564 L 182 566.5 L 181 566.5 L 181.5 564 Z " /><path fill="rgb(190,92,30)" stroke="rgb(190,92,30)" stroke-width="1" opacity="1" d="M 1072.5 567 L 1073 569.5 L 1072 569.5 L 1072.5 567 Z " /><path fill="rgb(190,92,30)" stroke="rgb(190,92,30)" stroke-width="1" opacity="1" d="M 180.5 570 L 181 572.5 L 180 572.5 L 180.5 570 Z " /><path fill="rgb(190,92,30)" stroke="rgb(190,92,30)" stroke-width="1" opacity="1" d="M 1073.5 573 L 1074 575.5 L 1073 575.5 L 1073.5 573 Z " /><path fill="rgb(190,92,30)" stroke="rgb(190,92,30)" stroke-width="1" opacity="1" d="M 179.5 575 L 180 578.5 L 179 578.5 L 179.5 575 Z " /><path fill="rgb(190,92,30)" stroke="rgb(190,92,30)" stroke-width="1" opacity="1" d="M 1074.5 579 L 1075 582.5 L 1074 582.5 L 1074.5 579 Z " /><path fill="rgb(190,92,30)" stroke="rgb(190,92,30)" stroke-width="1" opacity="1" d="M 178.5 581 L 179 584.5 L 178 584.5 L 178.5 581 Z " /><path fill="rgb(190,92,30)" stroke="rgb(190,92,30)" stroke-width="1" opacity="1" d="M 1075.5 586 L 1076 589.5 L 1075 589.5 L 1075.5 586 Z " /><path fill="rgb(190,92,30)" stroke="rgb(190,92,30)" stroke-width="1" opacity="1" d="M 177.5 589 L 178 592.5 L 177 592.5 L 177.5 589 Z " /><path fill="rgb(190,92,30)" stroke="rgb(190,92,30)" stroke-width="1" opacity="1" d="M 1076.5 594 L 1077 597.5 L 1076 597.5 L 1076.5 594 Z " /><path fill="rgb(190,92,30)" stroke="rgb(190,92,30)" stroke-width="1" opacity="1" d="M 176.5 597 L 177 601.5 L 176 601.5 L 176.5 597 Z " /><path fill="rgb(190,92,30)" stroke="rgb(190,92,30)" stroke-width="1" opacity="1" d="M 1077.5 603 L 1078 608.5 L 1077 608.5 L 1077.5 603 Z " /><path fill="rgb(190,92,30)" stroke="rgb(190,92,30)" stroke-width="1" opacity="1" d="M 175.5 606 L 176 612.5 L 175 612.5 L 175.5 606 Z " /><path fill="rgb(190,92,30)" stroke="rgb(190,92,30)" stroke-width="1" opacity="1" d="M 1078.5 613 L 1079 622.5 L 1078 622.5 L 1078.5 613 Z " /><path fill="rgb(190,92,30)" stroke="rgb(190,92,30)" stroke-width="1" opacity="1" d="M 460.5 615 L 463 615.5 L 460.5 616 L 460.5 615 Z " /><path fill="rgb(190,92,30)" stroke="rgb(190,92,30)" stroke-width="1" opacity="1" d="M 470.5 615 L 475 615.5 L 470.5 616 L 470.5 615 Z " /><path fill="rgb(190,92,30)" stroke="rgb(190,92,30)" stroke-width="1" opacity="1" d="M 779.5 615 L 783 615.5 L 779.5 616 L 779.5 615 Z " /><path fill="rgb(190,92,30)" stroke="rgb(190,92,30)" stroke-width="1" opacity="1" d="M 788.5 615 L 792 615.5 L 788.5 616 L 788.5 615 Z " /><path fill="rgb(190,92,30)" stroke="rgb(190,92,30)" stroke-width="1" opacity="1" d="M 174.5 618 L 175 624.5 L 174 624.5 L 174.5 618 Z " /><path fill="rgb(190,92,30)" stroke="rgb(190,92,30)" stroke-width="1" opacity="1" d="M 1079.5 633 L 1080 668.5 L 1079 668.5 L 1079.5 633 Z " /><path fill="rgb(190,92,30)" stroke="rgb(190,92,30)" stroke-width="1" opacity="1" d="M 173.5 634 L 174 675.5 L 173 675.5 L 173.5 634 Z " /><path fill="rgb(190,92,30)" stroke="rgb(190,92,30)" stroke-width="1" opacity="1" d="M 751.5 634 L 751 635.5 L 748.5 641 L 748 639.5 L 751.5 634 Z " /><path fill="rgb(190,92,30)" stroke="rgb(190,92,30)" stroke-width="1" opacity="1" d="M 820.5 636 L 822 638.5 L 821 638.5 L 820.5 636 Z " /><path fill="rgb(190,92,30)" stroke="rgb(190,92,30)" stroke-width="1" opacity="1" d="M 431.5 637 L 431 638.5 L 430.5 640 L 430 638.5 L 431.5 637 Z " /><path fill="rgb(190,92,30)" stroke="rgb(190,92,30)" stroke-width="1" opacity="1" d="M 506.5 645 L 507 648.5 L 506 648.5 L 506.5 645 Z " /><path fill="rgb(190,92,30)" stroke="rgb(190,92,30)" stroke-width="1" opacity="1" d="M 427.5 646 L 428 648.5 L 427 648.5 L 427.5 646 Z " /><path fill="rgb(190,92,30)" stroke="rgb(190,92,30)" stroke-width="1" opacity="1" d="M 745.5 648 L 746 650.5 L 745 650.5 L 745.5 648 Z " /><path fill="rgb(190,92,30)" stroke="rgb(190,92,30)" stroke-width="1" opacity="1" d="M 507.5 650 L 508 654.5 L 507 654.5 L 507.5 650 Z " /><path fill="rgb(190,92,30)" stroke="rgb(190,92,30)" stroke-width="1" opacity="1" d="M 426.5 652 L 427 656.5 L 426 656.5 L 426.5 652 Z " /><path fill="rgb(190,92,30)" stroke="rgb(190,92,30)" stroke-width="1" opacity="1" d="M 744.5 653 L 745 662.5 L 744 662.5 L 744.5 653 Z " /><path fill="rgb(190,92,30)" stroke="rgb(190,92,30)" stroke-width="1" opacity="1" d="M 826.5 653 L 827 664.5 L 826 664.5 L 826.5 653 Z " /><path fill="rgb(190,92,30)" stroke="rgb(190,92,30)" stroke-width="1" opacity="1" d="M 426.5 662 L 427 666.5 L 426 666.5 L 426.5 662 Z " /><path fill="rgb(190,92,30)" stroke="rgb(190,92,30)" stroke-width="1" opacity="1" d="M 507.5 664 L 508 667.5 L 507 667.5 L 507.5 664 Z " /><path fill="rgb(190,92,30)" stroke="rgb(190,92,30)" stroke-width="1" opacity="1" d="M 745.5 666 L 746 668.5 L 745 668.5 L 745.5 666 Z " /><path fill="rgb(190,92,30)" stroke="rgb(190,92,30)" stroke-width="1" opacity="1" d="M 427.5 668 L 428 670.5 L 427 670.5 L 427.5 668 Z " /><path fill="rgb(190,92,30)" stroke="rgb(190,92,30)" stroke-width="1" opacity="1" d="M 504.5 676 L 505 677.5 L 501.5 683 L 502 681.5 L 504.5 676 Z " /><path fill="rgb(190,92,30)" stroke="rgb(190,92,30)" stroke-width="1" opacity="1" d="M 1078.5 678 L 1079 686.5 L 1078 686.5 L 1078.5 678 Z " /><path fill="rgb(190,92,30)" stroke="rgb(190,92,30)" stroke-width="1" opacity="1" d="M 584.5 680 L 589 683.5 L 585.5 681 L 584.5 680 Z " /><path fill="rgb(190,92,30)" stroke="rgb(190,92,30)" stroke-width="1" opacity="1" d="M 669.5 680 L 675 680.5 L 669.5 681 L 669.5 680 Z " /><path fill="rgb(190,92,30)" stroke="rgb(190,92,30)" stroke-width="1" opacity="1" d="M 174.5 685 L 175 692.5 L 174 692.5 L 174.5 685 Z " /><path fill="rgb(190,92,30)" stroke="rgb(190,92,30)" stroke-width="1" opacity="1" d="M 574.5 685 L 575 691.5 L 574 691.5 L 574.5 685 Z " /><path fill="rgb(190,92,30)" stroke="rgb(190,92,30)" stroke-width="1" opacity="1" d="M 679.5 685 L 680 691.5 L 679 691.5 L 679.5 685 Z " /><path fill="rgb(190,92,30)" stroke="rgb(190,92,30)" stroke-width="1" opacity="1" d="M 664.5 686 L 665 688.5 L 664 688.5 L 664.5 686 Z " /><path fill="rgb(190,92,30)" stroke="rgb(190,92,30)" stroke-width="1" opacity="1" d="M 1077.5 692 L 1078 697.5 L 1077 697.5 L 1077.5 692 Z " /><path fill="rgb(190,92,30)" stroke="rgb(190,92,30)" stroke-width="1" opacity="1" d="M 446.5 696 L 451 698.5 L 449.5 699 L 446.5 696 Z " /><path fill="rgb(190,92,30)" stroke="rgb(190,92,30)" stroke-width="1" opacity="1" d="M 806.5 696 L 805.5 698 L 800.5 700 L 800.5 699 L 806.5 696 Z " /><path fill="rgb(190,92,30)" stroke="rgb(190,92,30)" stroke-width="1" opacity="1" d="M 175.5 698 L 176 703.5 L 175 703.5 L 175.5 698 Z " /><path fill="rgb(190,92,30)" stroke="rgb(190,92,30)" stroke-width="1" opacity="1" d="M 452.5 699 L 457 700.5 L 454.5 701 L 452.5 699 Z " /><path fill="rgb(190,92,30)" stroke="rgb(190,92,30)" stroke-width="1" opacity="1" d="M 676.5 700 L 677 701.5 L 674.5 705 L 675 703.5 L 676.5 700 Z " /><path fill="rgb(190,92,30)" stroke="rgb(190,92,30)" stroke-width="1" opacity="1" d="M 458.5 701 L 461 701.5 L 458.5 702 L 458.5 701 Z " /><path fill="rgb(190,92,30)" stroke="rgb(190,92,30)" stroke-width="1" opacity="1" d="M 792.5 701 L 796 701.5 L 792.5 702 L 792.5 701 Z " /><path fill="rgb(190,92,30)" stroke="rgb(190,92,30)" stroke-width="1" opacity="1" d="M 463.5 702 L 470 702.5 L 463.5 703 L 463.5 702 Z " /><path fill="rgb(190,92,30)" stroke="rgb(190,92,30)" stroke-width="1" opacity="1" d="M 782.5 702 L 789 702.5 L 782.5 703 L 782.5 702 Z " /><path fill="rgb(190,92,30)" stroke="rgb(190,92,30)" stroke-width="1" opacity="1" d="M 1076.5 703 L 1077 706.5 L 1076 706.5 L 1076.5 703 Z " /><path fill="rgb(190,92,30)" stroke="rgb(190,92,30)" stroke-width="1" opacity="1" d="M 176.5 708 L 177 712.5 L 176 712.5 L 176.5 708 Z " /><path fill="rgb(190,92,30)" stroke="rgb(190,92,30)" stroke-width="1" opacity="1" d="M 1075.5 710 L 1076 714.5 L 1075 714.5 L 1075.5 710 Z " /><path fill="rgb(190,92,30)" stroke="rgb(190,92,30)" stroke-width="1" opacity="1" d="M 645.5 711 L 647 711.5 L 643.5 713 L 643.5 712 L 645.5 711 Z " /><path fill="rgb(190,92,30)" stroke="rgb(190,92,30)" stroke-width="1" opacity="1" d="M 639.5 713 L 642 713.5 L 639.5 714 L 639.5 713 Z " /><path fill="rgb(190,92,30)" stroke="rgb(190,92,30)" stroke-width="1" opacity="1" d="M 616.5 714 L 620 714.5 L 616.5 715 L 616.5 714 Z " /><path fill="rgb(190,92,30)" stroke="rgb(190,92,30)" stroke-width="1" opacity="1" d="M 634.5 714 L 638 714.5 L 634.5 715 L 634.5 714 Z " /><path fill="rgb(190,92,30)" stroke="rgb(190,92,30)" stroke-width="1" opacity="1" d="M 623.5 715 L 631 715.5 L 623.5 716 L 623.5 715 Z " /><path fill="rgb(190,92,30)" stroke="rgb(190,92,30)" stroke-width="1" opacity="1" d="M 177.5 716 L 178 719.5 L 177 719.5 L 177.5 716 Z " /><path fill="rgb(190,92,30)" stroke="rgb(190,92,30)" stroke-width="1" opacity="1" d="M 1074.5 718 L 1075 721.5 L 1074 721.5 L 1074.5 718 Z " /><path fill="rgb(190,92,30)" stroke="rgb(190,92,30)" stroke-width="1" opacity="1" d="M 658.5 721 L 657.5 723 L 655.5 724 L 656.5 722 L 658.5 721 Z " /><path fill="rgb(190,92,30)" stroke="rgb(190,92,30)" stroke-width="1" opacity="1" d="M 178.5 723 L 179 725.5 L 178 725.5 L 178.5 723 Z " /><path fill="rgb(190,92,30)" stroke="rgb(190,92,30)" stroke-width="1" opacity="1" d="M 1073.5 725 L 1074 727.5 L 1073 727.5 L 1073.5 725 Z " /><path fill="rgb(190,92,30)" stroke="rgb(190,92,30)" stroke-width="1" opacity="1" d="M 612.5 728 L 615 728.5 L 612.5 729 L 612.5 728 Z " /><path fill="rgb(190,92,30)" stroke="rgb(190,92,30)" stroke-width="1" opacity="1" d="M 179.5 729 L 180 732.5 L 179 732.5 L 179.5 729 Z " /><path fill="rgb(190,92,30)" stroke="rgb(190,92,30)" stroke-width="1" opacity="1" d="M 616.5 729 L 621 729.5 L 616.5 730 L 616.5 729 Z " /><path fill="rgb(190,92,30)" stroke="rgb(190,92,30)" stroke-width="1" opacity="1" d="M 632.5 729 L 639 729.5 L 632.5 730 L 632.5 729 Z " /><path fill="rgb(190,92,30)" stroke="rgb(190,92,30)" stroke-width="1" opacity="1" d="M 1072.5 731 L 1073 734.5 L 1072 734.5 L 1072.5 731 Z " /><path fill="rgb(190,92,30)" stroke="rgb(190,92,30)" stroke-width="1" opacity="1" d="M 180.5 735 L 181 737.5 L 180 737.5 L 180.5 735 Z " /><path fill="rgb(190,92,30)" stroke="rgb(190,92,30)" stroke-width="1" opacity="1" d="M 1071.5 737 L 1072 739.5 L 1071 739.5 L 1071.5 737 Z " /><path fill="rgb(190,92,30)" stroke="rgb(190,92,30)" stroke-width="1" opacity="1" d="M 1070.5 742 L 1071 744.5 L 1070 744.5 L 1070.5 742 Z " /><path fill="rgb(190,92,30)" stroke="rgb(190,92,30)" stroke-width="1" opacity="1" d="M 1069.5 747 L 1070 749.5 L 1069 749.5 L 1069.5 747 Z " /><path fill="rgb(190,92,30)" stroke="rgb(190,92,30)" stroke-width="1" opacity="1" d="M 183.5 750 L 184 752.5 L 183 752.5 L 183.5 750 Z " /><path fill="rgb(190,92,30)" stroke="rgb(190,92,30)" stroke-width="1" opacity="1" d="M 1068.5 752 L 1069 754.5 L 1068 754.5 L 1068.5 752 Z " /><path fill="rgb(190,92,30)" stroke="rgb(190,92,30)" stroke-width="1" opacity="1" d="M 184.5 754 L 185 756.5 L 184 756.5 L 184.5 754 Z " /><path fill="rgb(190,92,30)" stroke="rgb(190,92,30)" stroke-width="1" opacity="1" d="M 1067.5 756 L 1068 758.5 L 1067 758.5 L 1067.5 756 Z " /><path fill="rgb(190,92,30)" stroke="rgb(190,92,30)" stroke-width="1" opacity="1" d="M 1065.5 764 L 1066 766.5 L 1065 766.5 L 1065.5 764 Z " /><path fill="rgb(190,92,30)" stroke="rgb(190,92,30)" stroke-width="1" opacity="1" d="M 1039.5 836 L 1040 837.5 L 1038 838.5 L 1039.5 836 Z " /><path fill="rgb(190,92,30)" stroke="rgb(190,92,30)" stroke-width="1" opacity="1" d="M 328.5 960 L 332 962.5 L 330.5 962 L 328.5 960 Z " /><path fill="rgb(190,92,30)" stroke="rgb(190,92,30)" stroke-width="1" opacity="1" d="M 335.5 964 L 339 966.5 L 337.5 966 L 335.5 964 Z " /><path fill="rgb(190,92,30)" stroke="rgb(190,92,30)" stroke-width="1" opacity="1" d="M 915.5 967 L 914.5 969 L 912.5 970 L 913.5 968 L 915.5 967 Z " /><path fill="rgb(190,92,30)" stroke="rgb(190,92,30)" stroke-width="1" opacity="1" d="M 344.5 969 L 348 971.5 L 346.5 971 L 344.5 969 Z " /><path fill="rgb(190,92,30)" stroke="rgb(190,92,30)" stroke-width="1" opacity="1" d="M 351.5 973 L 355 974.5 L 353.5 975 L 351.5 973 Z " /><path fill="rgb(190,92,30)" stroke="rgb(190,92,30)" stroke-width="1" opacity="1" d="M 899.5 975 L 901 975.5 L 897.5 977 L 897.5 976 L 899.5 975 Z " /><path fill="rgb(190,92,30)" stroke="rgb(190,92,30)" stroke-width="1" opacity="1" d="M 416.5 998 L 419 998.5 L 416.5 999 L 416.5 998 Z " /><path fill="rgb(190,92,30)" stroke="rgb(190,92,30)" stroke-width="1" opacity="1" d="M 420.5 999 L 423 999.5 L 420.5 1000 L 420.5 999 Z " /><path fill="rgb(190,92,30)" stroke="rgb(190,92,30)" stroke-width="1" opacity="1" d="M 828.5 1000 L 831 1000.5 L 828.5 1001 L 828.5 1000 Z " /><path fill="rgb(190,92,30)" stroke="rgb(190,92,30)" stroke-width="1" opacity="1" d="M 815.5 1003 L 818 1003.5 L 815.5 1004 L 815.5 1003 Z " /><path fill="rgb(190,92,30)" stroke="rgb(190,92,30)" stroke-width="1" opacity="1" d="M 440.5 1004 L 443 1004.5 L 440.5 1005 L 440.5 1004 Z " /><path fill="rgb(190,92,30)" stroke="rgb(190,92,30)" stroke-width="1" opacity="1" d="M 445.5 1005 L 448 1005.5 L 445.5 1006 L 445.5 1005 Z " /><path fill="rgb(190,92,30)" stroke="rgb(190,92,30)" stroke-width="1" opacity="1" d="M 806.5 1005 L 809 1005.5 L 806.5 1006 L 806.5 1005 Z " /><path fill="rgb(190,92,30)" stroke="rgb(190,92,30)" stroke-width="1" opacity="1" d="M 450.5 1006 L 453 1006.5 L 450.5 1007 L 450.5 1006 Z " /><path fill="rgb(190,92,30)" stroke="rgb(190,92,30)" stroke-width="1" opacity="1" d="M 801.5 1006 L 804 1006.5 L 801.5 1007 L 801.5 1006 Z " /><path fill="rgb(190,92,30)" stroke="rgb(190,92,30)" stroke-width="1" opacity="1" d="M 796.5 1007 L 799 1007.5 L 796.5 1008 L 796.5 1007 Z " /><path fill="rgb(190,92,30)" stroke="rgb(190,92,30)" stroke-width="1" opacity="1" d="M 461.5 1008 L 464 1008.5 L 461.5 1009 L 461.5 1008 Z " /><path fill="rgb(190,92,30)" stroke="rgb(190,92,30)" stroke-width="1" opacity="1" d="M 790.5 1008 L 793 1008.5 L 790.5 1009 L 790.5 1008 Z " /><path fill="rgb(190,92,30)" stroke="rgb(190,92,30)" stroke-width="1" opacity="1" d="M 467.5 1009 L 470 1009.5 L 467.5 1010 L 467.5 1009 Z " /><path fill="rgb(190,92,30)" stroke="rgb(190,92,30)" stroke-width="1" opacity="1" d="M 784.5 1009 L 787 1009.5 L 784.5 1010 L 784.5 1009 Z " /><path fill="rgb(190,92,30)" stroke="rgb(190,92,30)" stroke-width="1" opacity="1" d="M 473.5 1010 L 476 1010.5 L 473.5 1011 L 473.5 1010 Z " /><path fill="rgb(190,92,30)" stroke="rgb(190,92,30)" stroke-width="1" opacity="1" d="M 777.5 1010 L 780 1010.5 L 777.5 1011 L 777.5 1010 Z " /><path fill="rgb(190,92,30)" stroke="rgb(190,92,30)" stroke-width="1" opacity="1" d="M 480.5 1011 L 484 1011.5 L 480.5 1012 L 480.5 1011 Z " /><path fill="rgb(190,92,30)" stroke="rgb(190,92,30)" stroke-width="1" opacity="1" d="M 770.5 1011 L 774 1011.5 L 770.5 1012 L 770.5 1011 Z " /><path fill="rgb(190,92,30)" stroke="rgb(190,92,30)" stroke-width="1" opacity="1" d="M 487.5 1012 L 491 1012.5 L 487.5 1013 L 487.5 1012 Z " /><path fill="rgb(190,92,30)" stroke="rgb(190,92,30)" stroke-width="1" opacity="1" d="M 762.5 1012 L 766 1012.5 L 762.5 1013 L 762.5 1012 Z " /><path fill="rgb(190,92,30)" stroke="rgb(190,92,30)" stroke-width="1" opacity="1" d="M 495.5 1013 L 499 1013.5 L 495.5 1014 L 495.5 1013 Z " /><path fill="rgb(190,92,30)" stroke="rgb(190,92,30)" stroke-width="1" opacity="1" d="M 754.5 1013 L 759 1013.5 L 754.5 1014 L 754.5 1013 Z " /><path fill="rgb(190,92,30)" stroke="rgb(190,92,30)" stroke-width="1" opacity="1" d="M 504.5 1014 L 509 1014.5 L 504.5 1015 L 504.5 1014 Z " /><path fill="rgb(190,92,30)" stroke="rgb(190,92,30)" stroke-width="1" opacity="1" d="M 744.5 1014 L 749 1014.5 L 744.5 1015 L 744.5 1014 Z " /><path fill="rgb(190,92,30)" stroke="rgb(190,92,30)" stroke-width="1" opacity="1" d="M 514.5 1015 L 521 1015.5 L 514.5 1016 L 514.5 1015 Z " /><path fill="rgb(190,92,30)" stroke="rgb(190,92,30)" stroke-width="1" opacity="1" d="M 732.5 1015 L 739 1015.5 L 732.5 1016 L 732.5 1015 Z " /><path fill="rgb(190,92,30)" stroke="rgb(190,92,30)" stroke-width="1" opacity="1" d="M 526.5 1016 L 535 1016.5 L 526.5 1017 L 526.5 1016 Z " /><path fill="rgb(190,92,30)" stroke="rgb(190,92,30)" stroke-width="1" opacity="1" d="M 719.5 1016 L 726 1016.5 L 719.5 1017 L 719.5 1016 Z " /><path fill="rgb(190,92,30)" stroke="rgb(190,92,30)" stroke-width="1" opacity="1" d="M 542.5 1017 L 553 1017.5 L 542.5 1018 L 542.5 1017 Z " /><path fill="rgb(190,92,30)" stroke="rgb(190,92,30)" stroke-width="1" opacity="1" d="M 700.5 1017 L 711 1017.5 L 700.5 1018 L 700.5 1017 Z " /><path fill="rgb(190,92,30)" stroke="rgb(190,92,30)" stroke-width="1" opacity="1" d="M 565.5 1018 L 583 1018.5 L 565.5 1019 L 565.5 1018 Z " /><path fill="rgb(190,92,30)" stroke="rgb(190,92,30)" stroke-width="1" opacity="1" d="M 669.5 1018 L 688 1018.5 L 669.5 1019 L 669.5 1018 Z " /></svg>