<svg viewBox="0 0 1254 1254" version="1.1" xmlns="http://www.w3.org/2000/svg" desc="Created with imagetracer.js version 1.2.6" ><path fill="rgb(172,166,127)" stroke="rgb(172,166,127)" stroke-width="1" opacity="1" d="M 623.5 188 L 630 188.5 L 623.5 189 L 623.5 188 Z " /><path fill="rgb(172,166,127)" stroke="rgb(172,166,127)" stroke-width="1" opacity="1" d="M 723.5 953 L 726 953.5 L 723.5 954 L 723.5 953 Z " /><path fill="rgb(172,166,127)" stroke="rgb(172,166,127)" stroke-width="1" opacity="1" d="M 717.5 954 L 720 954.5 L 717.5 955 L 717.5 954 Z " /><path fill="rgb(172,166,127)" stroke="rgb(172,166,127)" stroke-width="1" opacity="1" d="M 710.5 955 L 713 955.5 L 710.5 956 L 710.5 955 Z " /><path fill="rgb(172,166,127)" stroke="rgb(172,166,127)" stroke-width="1" opacity="1" d="M 542.5 956 L 545 956.5 L 542.5 957 L 542.5 956 Z " /><path fill="rgb(172,166,127)" stroke="rgb(172,166,127)" stroke-width="1" opacity="1" d="M 703.5 956 L 706 956.5 L 703.5 957 L 703.5 956 Z " /><path fill="rgb(172,166,127)" stroke="rgb(172,166,127)" stroke-width="1" opacity="1" d="M 550.5 957 L 553 957.5 L 550.5 958 L 550.5 957 Z " /><path fill="rgb(172,166,127)" stroke="rgb(172,166,127)" stroke-width="1" opacity="1" d="M 696.5 957 L 699 957.5 L 696.5 958 L 696.5 957 Z " /><path fill="rgb(172,166,127)" stroke="rgb(172,166,127)" stroke-width="1" opacity="1" d="M 558.5 958 L 562 958.5 L 558.5 959 L 558.5 958 Z " /><path fill="rgb(172,166,127)" stroke="rgb(172,166,127)" stroke-width="1" opacity="1" d="M 686.5 958 L 690 958.5 L 686.5 959 L 686.5 958 Z " /><path fill="rgb(172,166,127)" stroke="rgb(172,166,127)" stroke-width="1" opacity="1" d="M 568.5 959 L 572 959.5 L 568.5 960 L 568.5 959 Z " /><path fill="rgb(172,166,127)" stroke="rgb(172,166,127)" stroke-width="1" opacity="1" d="M 676.5 959 L 680 959.5 L 676.5 960 L 676.5 959 Z " /><path fill="rgb(172,166,127)" stroke="rgb(172,166,127)" stroke-width="1" opacity="1" d="M 579.5 960 L 586 960.5 L 579.5 961 L 579.5 960 Z " /><path fill="rgb(172,166,127)" stroke="rgb(172,166,127)" stroke-width="1" opacity="1" d="M 662.5 960 L 668 960.5 L 662.5 961 L 662.5 960 Z " /><path fill="rgb(172,166,127)" stroke="rgb(172,166,127)" stroke-width="1" opacity="1" d="M 597.5 961 L 609 961.5 L 597.5 962 L 597.5 961 Z " /><path fill="rgb(172,166,127)" stroke="rgb(172,166,127)" stroke-width="1" opacity="1" d="M 639.5 961 L 651 961.5 L 639.5 962 L 639.5 961 Z " /><path fill="rgb(172,166,127)" stroke="rgb(172,166,127)" stroke-width="1" opacity="1" d="M 682.5 1044 L 685 1044.5 L 682.5 1045 L 682.5 1044 Z " /><path fill="rgb(172,166,127)" stroke="rgb(172,166,127)" stroke-width="1" opacity="1" d="M 581.5 1045 L 585 1045.5 L 581.5 1046 L 581.5 1045 Z " /><path fill="rgb(172,166,127)" stroke="rgb(172,166,127)" stroke-width="1" opacity="1" d="M 670.5 1045 L 673 1045.5 L 670.5 1046 L 670.5 1045 Z " /><path fill="rgb(172,166,127)" stroke="rgb(172,166,127)" stroke-width="1" opacity="1" d="M 596.5 1046 L 603 1046.5 L 596.5 1047 L 596.5 1046 Z " /><path fill="rgb(172,166,127)" stroke="rgb(172,166,127)" stroke-width="1" opacity="1" d="M 655.5 1046 L 659 1046.5 L 655.5 1047 L 655.5 1046 Z " /><path fill="rgb(157,139,106)" stroke="rgb(157,139,106)" stroke-width="1" opacity="1" d="M 1100.5 794 L 1101 800.5 L 1100 800.5 L 1100.5 794 Z " /><path fill="rgb(157,139,106)" stroke="rgb(157,139,106)" stroke-width="1" opacity="1" d="M 331.5 884 L 335 886.5 L 333.5 886 L 331.5 884 Z " /><path fill="rgb(157,139,106)" stroke="rgb(157,139,106)" stroke-width="1" opacity="1" d="M 908.5 889 L 907.5 891 L 905.5 892 L 906.5 890 L 908.5 889 Z " /><path fill="rgb(157,139,106)" stroke="rgb(157,139,106)" stroke-width="1" opacity="1" d="M 891.5 898 L 890.5 900 L 881.5 904 L 881.5 903 L 891.5 898 Z " /><path fill="rgb(157,139,106)" stroke="rgb(157,139,106)" stroke-width="1" opacity="1" d="M 359.5 899 L 368 903.5 L 366.5 904 L 360.5 901 L 359.5 899 Z " /><path fill="rgb(157,139,106)" stroke="rgb(157,139,106)" stroke-width="1" opacity="1" d="M 395.5 916 L 399 917.5 L 397.5 918 L 395.5 916 Z " /><path fill="rgb(157,139,106)" stroke="rgb(157,139,106)" stroke-width="1" opacity="1" d="M 478.5 944 L 481 944.5 L 478.5 945 L 478.5 944 Z " /><path fill="rgb(157,139,106)" stroke="rgb(157,139,106)" stroke-width="1" opacity="1" d="M 491.5 947 L 494 947.5 L 491.5 948 L 491.5 947 Z " /><path fill="rgb(157,139,106)" stroke="rgb(157,139,106)" stroke-width="1" opacity="1" d="M 495.5 948 L 498 948.5 L 495.5 949 L 495.5 948 Z " /><path fill="rgb(157,139,106)" stroke="rgb(157,139,106)" stroke-width="1" opacity="1" d="M 751.5 948 L 754 948.5 L 751.5 949 L 751.5 948 Z " /><path fill="rgb(157,139,106)" stroke="rgb(157,139,106)" stroke-width="1" opacity="1" d="M 500.5 949 L 503 949.5 L 500.5 950 L 500.5 949 Z " /><path fill="rgb(157,139,106)" stroke="rgb(157,139,106)" stroke-width="1" opacity="1" d="M 746.5 949 L 749 949.5 L 746.5 950 L 746.5 949 Z " /><path fill="rgb(157,139,106)" stroke="rgb(157,139,106)" stroke-width="1" opacity="1" d="M 505.5 950 L 508 950.5 L 505.5 951 L 505.5 950 Z " /><path fill="rgb(157,139,106)" stroke="rgb(157,139,106)" stroke-width="1" opacity="1" d="M 741.5 950 L 744 950.5 L 741.5 951 L 741.5 950 Z " /><path fill="rgb(157,139,106)" stroke="rgb(157,139,106)" stroke-width="1" opacity="1" d="M 510.5 951 L 513 951.5 L 510.5 952 L 510.5 951 Z " /><path fill="rgb(157,139,106)" stroke="rgb(157,139,106)" stroke-width="1" opacity="1" d="M 515.5 952 L 518 952.5 L 515.5 953 L 515.5 952 Z " /><path fill="rgb(157,139,106)" stroke="rgb(157,139,106)" stroke-width="1" opacity="1" d="M 731.5 952 L 734 952.5 L 731.5 953 L 731.5 952 Z " /><path fill="rgb(157,139,106)" stroke="rgb(157,139,106)" stroke-width="1" opacity="1" d="M 521.5 953 L 524 953.5 L 521.5 954 L 521.5 953 Z " /><path fill="rgb(157,139,106)" stroke="rgb(157,139,106)" stroke-width="1" opacity="1" d="M 726.5 953 L 729 953.5 L 726.5 954 L 726.5 953 Z " /><path fill="rgb(157,139,106)" stroke="rgb(157,139,106)" stroke-width="1" opacity="1" d="M 526.5 954 L 530 954.5 L 526.5 955 L 526.5 954 Z " /><path fill="rgb(157,139,106)" stroke="rgb(157,139,106)" stroke-width="1" opacity="1" d="M 720.5 954 L 723 954.5 L 720.5 955 L 720.5 954 Z " /><path fill="rgb(157,139,106)" stroke="rgb(157,139,106)" stroke-width="1" opacity="1" d="M 533.5 955 L 536 955.5 L 533.5 956 L 533.5 955 Z " /><path fill="rgb(157,139,106)" stroke="rgb(157,139,106)" stroke-width="1" opacity="1" d="M 713.5 955 L 717 955.5 L 713.5 956 L 713.5 955 Z " /><path fill="rgb(157,139,106)" stroke="rgb(157,139,106)" stroke-width="1" opacity="1" d="M 539.5 956 L 542 956.5 L 539.5 957 L 539.5 956 Z " /><path fill="rgb(157,139,106)" stroke="rgb(157,139,106)" stroke-width="1" opacity="1" d="M 706.5 956 L 710 956.5 L 706.5 957 L 706.5 956 Z " /><path fill="rgb(157,139,106)" stroke="rgb(157,139,106)" stroke-width="1" opacity="1" d="M 546.5 957 L 550 957.5 L 546.5 958 L 546.5 957 Z " /><path fill="rgb(157,139,106)" stroke="rgb(157,139,106)" stroke-width="1" opacity="1" d="M 699.5 957 L 703 957.5 L 699.5 958 L 699.5 957 Z " /><path fill="rgb(157,139,106)" stroke="rgb(157,139,106)" stroke-width="1" opacity="1" d="M 554.5 958 L 558 958.5 L 554.5 959 L 554.5 958 Z " /><path fill="rgb(157,139,106)" stroke="rgb(157,139,106)" stroke-width="1" opacity="1" d="M 690.5 958 L 695 958.5 L 690.5 959 L 690.5 958 Z " /><path fill="rgb(157,139,106)" stroke="rgb(157,139,106)" stroke-width="1" opacity="1" d="M 563.5 959 L 568 959.5 L 563.5 960 L 563.5 959 Z " /><path fill="rgb(157,139,106)" stroke="rgb(157,139,106)" stroke-width="1" opacity="1" d="M 680.5 959 L 686 959.5 L 680.5 960 L 680.5 959 Z " /><path fill="rgb(157,139,106)" stroke="rgb(157,139,106)" stroke-width="1" opacity="1" d="M 573.5 960 L 579 960.5 L 573.5 961 L 573.5 960 Z " /><path fill="rgb(157,139,106)" stroke="rgb(157,139,106)" stroke-width="1" opacity="1" d="M 668.5 960 L 675 960.5 L 668.5 961 L 668.5 960 Z " /><path fill="rgb(157,139,106)" stroke="rgb(157,139,106)" stroke-width="1" opacity="1" d="M 587.5 961 L 597 961.5 L 587.5 962 L 587.5 961 Z " /><path fill="rgb(157,139,106)" stroke="rgb(157,139,106)" stroke-width="1" opacity="1" d="M 651.5 961 L 662 961.5 L 651.5 962 L 651.5 961 Z " /><path fill="rgb(157,139,106)" stroke="rgb(157,139,106)" stroke-width="1" opacity="1" d="M 610.5 962 L 636 962.5 L 610.5 963 L 610.5 962 Z " /><path fill="rgb(157,139,106)" stroke="rgb(157,139,106)" stroke-width="1" opacity="1" d="M 689.5 1043 L 692 1043.5 L 689.5 1044 L 689.5 1043 Z " /><path fill="rgb(157,139,106)" stroke="rgb(157,139,106)" stroke-width="1" opacity="1" d="M 573.5 1044 L 576 1044.5 L 573.5 1045 L 573.5 1044 Z " /><path fill="rgb(157,139,106)" stroke="rgb(157,139,106)" stroke-width="1" opacity="1" d="M 679.5 1044 L 682 1044.5 L 679.5 1045 L 679.5 1044 Z " /><path fill="rgb(157,139,106)" stroke="rgb(157,139,106)" stroke-width="1" opacity="1" d="M 585.5 1045 L 589 1045.5 L 585.5 1046 L 585.5 1045 Z " /><path fill="rgb(157,139,106)" stroke="rgb(157,139,106)" stroke-width="1" opacity="1" d="M 666.5 1045 L 670 1045.5 L 666.5 1046 L 666.5 1045 Z " /><path fill="rgb(157,139,106)" stroke="rgb(157,139,106)" stroke-width="1" opacity="1" d="M 603.5 1046 L 610 1046.5 L 603.5 1047 L 603.5 1046 Z " /><path fill="rgb(157,139,106)" stroke="rgb(157,139,106)" stroke-width="1" opacity="1" d="M 646.5 1046 L 655 1046.5 L 646.5 1047 L 646.5 1046 Z " /><path fill="rgb(42,40,28)" stroke="rgb(42,40,28)" stroke-width="1" opacity="1" d="M 740.5 430 L 746.5 431 L 756 439.5 L 767 455.5 Q 770 460.5 769 469.5 Q 767.46 475.96 762.5 479 Q 758.05 483.05 748.5 482 Q 741.87 481.12 739 476.5 L 734 464.5 L 734 443.5 L 738 431 L 740.5 430 Z " /><path fill="rgb(42,40,28)" stroke="rgb(42,40,28)" stroke-width="1" opacity="1" d="M 514.5 449 Q 520.25 448.25 521 452.5 L 526 469.5 L 526 486.5 Q 524.25 495.75 517.5 500 Q 513.5 503 505.5 502 Q 497.7 500.8 494 495.5 Q 490.57 490.43 492 480.5 Q 498 461 512.5 450 L 514.5 449 Z " /><path fill="rgb(42,40,28)" stroke="rgb(42,40,28)" stroke-width="1" opacity="1" d="M 359.5 489 L 358 491.5 L 355.5 495 L 357 492.5 L 359.5 489 Z " /><path fill="rgb(42,40,28)" stroke="rgb(42,40,28)" stroke-width="1" opacity="1" d="M 629.5 559 Q 636.04 557.96 638 561.5 L 648 579.5 L 651 589.5 L 651 598.5 Q 649.45 605.45 644.5 609 L 636.5 612 L 630.5 612 Q 623.55 610.45 620 605.5 Q 615.5 599 617 586.5 Q 619.97 569.47 629.5 559 Z " /><path fill="rgb(42,40,28)" stroke="rgb(42,40,28)" stroke-width="1" opacity="1" d="M 842.5 593 L 847.5 593 L 853.5 596 L 865 606.5 L 873 618.5 L 875 629.5 Q 873.45 636.45 868.5 640 Q 863.33 644.83 851.5 643 L 845 638.5 Q 836.15 626.35 838 603.5 L 840 595.5 L 842.5 593 Z " /><path fill="rgb(42,40,28)" stroke="rgb(42,40,28)" stroke-width="1" opacity="1" d="M 403.5 595 Q 410.5 593.5 412 597.5 Q 414.37 602.62 413 611.5 L 409 629.5 Q 406.08 637.58 399.5 642 Q 395.5 645 387.5 644 Q 379.24 642.76 376 636.5 Q 372.5 632.5 374 623.5 Q 378.08 611.58 387.5 605 L 403.5 595 Z " /><path fill="rgb(42,40,28)" stroke="rgb(42,40,28)" stroke-width="1" opacity="1" d="M 546.5 709 L 553 713.5 L 560 731.5 L 561 747.5 L 557 758 L 549.5 762 L 538.5 762 L 531 757.5 Q 526.08 752.42 527 741.5 Q 531.35 721.85 543.5 710 L 546.5 709 Z " /><path fill="rgb(42,40,28)" stroke="rgb(42,40,28)" stroke-width="1" opacity="1" d="M 737.5 714 L 742.5 715 L 751 723.5 L 761 739.5 L 763 747.5 L 763 754.5 L 756.5 764 L 743.5 767 L 735.5 764 L 733 761.5 L 729 751.5 L 729 732.5 L 732 720.5 L 735.5 715 L 737.5 714 Z " /><path fill="rgb(42,40,28)" stroke="rgb(42,40,28)" stroke-width="1" opacity="1" d="M 327.5 715 Q 334.25 713.25 336 716.5 L 337 719.5 L 337 735.5 L 333 750.5 L 325.5 761 L 318.5 764 L 313.5 764 Q 305.7 762.8 302 757.5 Q 297.5 753 299 742.5 Q 303.83 729.83 314.5 723 L 327.5 715 Z " /><path fill="rgb(42,40,28)" stroke="rgb(42,40,28)" stroke-width="1" opacity="1" d="M 922.5 723 L 928.5 724 L 944 738.5 L 950 748.5 L 952 755.5 L 952 761.5 Q 950.18 768.68 944.5 772 Q 939.43 775.43 929.5 774 Q 923.37 772.62 921 767.5 L 916 751.5 L 916 737.5 Q 918.5 736 917 730.5 L 920.5 724 L 922.5 723 Z " /><path fill="rgb(42,40,28)" stroke="rgb(42,40,28)" stroke-width="1" opacity="1" d="M 1099.5 793 L 1100 796.5 L 1099 796.5 L 1099.5 793 Z " /><path fill="rgb(42,40,28)" stroke="rgb(42,40,28)" stroke-width="1" opacity="1" d="M 153.5 794 L 154 797.5 L 153 797.5 L 153.5 794 Z " /><path fill="rgb(42,40,28)" stroke="rgb(42,40,28)" stroke-width="1" opacity="1" d="M 634.5 806 L 640 808.5 Q 650 821.5 652 842.5 L 649 852.5 L 644.5 857 Q 640.46 859.96 633.5 860 L 624.5 857 L 620 852.5 Q 616.29 846.71 618 835.5 Q 621.55 817.55 632.5 807 L 634.5 806 Z " /><path fill="rgb(88,95,44)" stroke="rgb(88,95,44)" stroke-width="1" opacity="1" d="M 621.5 189 L 631.5 189 L 640.5 192 Q 654.93 201.07 666 213.5 L 684 232.5 L 685.5 236 L 693 242.5 L 702 252.5 Q 699.75 253.75 702.5 255 L 709 260.5 L 725 278.5 L 725 281 L 732 286.5 L 744 300.5 Q 741.75 301.75 744.5 303 L 750 307.5 Q 747.75 308.75 750.5 310 L 756 314.5 L 819 390.5 L 839.5 418 L 842 419.5 L 853 433.5 L 853 436 L 856 437.5 L 863 446.5 L 863 449 L 866 450.5 L 880 468.5 Q 877.75 469.75 880.5 471 L 883 472.5 L 882.5 474 L 886 476.5 L 902 497.5 L 901.5 499 L 904 500.5 L 903.5 502 L 907 504.5 L 924 527.5 L 924 530 L 927 531.5 Q 924.75 532.75 927.5 534 L 930 535.5 L 929.5 537 L 933 539.5 L 941 550.5 L 940.5 552 L 944 554.5 L 952 565.5 L 951.5 567 L 955 569.5 Q 1011.26 646.24 1064 726.5 Q 1061.75 727.75 1064.5 729 L 1066 729.5 L 1065.5 731 L 1068 732.5 L 1078 748.5 L 1077.5 750 Q 1079.75 749.25 1079 751.5 L 1088 765.5 L 1088 768 L 1090 768.5 L 1089.5 770 L 1091 770.5 L 1090.5 772 L 1092 772.5 L 1091.5 774 Q 1093.75 773.25 1093 775.5 Q 1098.39 782.11 1100 792.5 L 1099 796.5 Q 1101.75 798.25 1100 804.5 L 1094 819 L 1092 819.5 L 1092.5 821 L 1091 821.5 L 1091.5 823 L 1090 823.5 Q 1092.5 825 1089 826.5 L 1080.5 839 L 1079 839.5 L 1080 840.5 L 1076 844.5 Q 1064.58 861.08 1049.5 874 L 1046 876.5 L 1035.5 888 L 999.5 918 L 998 917.5 L 995.5 921 L 991.5 924 Q 990.25 921.75 989 924.5 L 987.5 927 L 986 926.5 L 983.5 930 L 973.5 937 L 972 936.5 L 970.5 939 L 969 938.5 Q 969.75 940.75 967.5 940 L 945.5 955 L 944 954.5 Q 944.75 956.75 942.5 956 Q 873.81 999.81 786.5 1025 L 750.5 1034 L 712.5 1041 L 698.5 1042 L 697.5 1043 L 666.5 1045 L 665.5 1046 L 646.5 1046 L 645.5 1047 L 610.5 1047 L 609.5 1046 L 589.5 1046 L 588.5 1045 L 576.5 1045 L 567.5 1043 L 549.5 1042 L 548.5 1041 L 514.5 1036 L 465.5 1024 Q 431.56 1013.94 400.5 1001 L 344 974 L 343.5 972 L 342 972.5 L 341.5 971 L 339.5 971 L 319 959.5 L 318.5 958 L 316.5 958 L 295 944.5 L 294.5 943 Q 293.25 945.25 292 942.5 L 291.5 941 Q 290 943.5 288.5 940 L 270 927.5 L 269.5 926 Q 268 928.5 266.5 925 L 251 913.5 L 249.5 911 Q 248.25 913.25 247 910.5 L 244.5 907 L 243.5 908 L 239.5 904 L 222 889.5 L 220.5 887 L 218.5 887 L 192 861.5 L 190.5 859 Q 188.25 859.75 189 857.5 L 185.5 853 L 179 847.5 L 173 840.5 L 175 839.5 L 169 835.5 L 161 824.5 L 161.5 823 L 160 822.5 L 160.5 821 L 158 819.5 L 158.5 818 L 157 817.5 L 157.5 816 Q 155.25 816.75 156 814.5 L 154 810.5 L 156 811.5 L 156.5 813 L 159 812 L 158 808 L 155.5 807 L 154.5 809 Q 151.06 805.44 152 797.5 L 154 797.5 L 153 792 L 155 791.5 L 154 789.5 L 155 786 L 157 785.5 L 156.5 784 L 158 783.5 L 157.5 782 L 159 781.5 L 158.5 780 L 160 779.5 L 159.5 778 L 161 777.5 L 161 775.5 L 167 763 L 169 762.5 Q 166.75 761.25 169.5 760 L 171 759.5 L 170.5 758 L 172 757.5 Q 169.5 756 173 754.5 L 175.5 750 L 177 749.5 L 177 747.5 L 194 720 L 196 719.5 Q 193.5 718 197 716.5 L 212.5 693 L 214 692.5 L 213 691.5 L 216 688.5 Q 255.45 627.95 298.5 571 L 300 570.5 L 299 569.5 L 302 566.5 L 322.5 538 L 324 537.5 L 323 536.5 L 326 533.5 L 333.5 523 L 336 521.5 Q 333.75 520.25 336.5 519 L 339 517.5 Q 336.75 516.25 339.5 515 L 342 513.5 Q 339.75 512.25 342.5 511 L 345 509.5 Q 342.75 508.25 345.5 507 Q 348.13 507.83 347 504.5 L 354.5 495 L 356 494.5 Q 353.75 493.25 356.5 492 L 358 492.5 L 360 489.5 Q 357.75 488.25 360.5 487 L 363 485.5 L 362 484.5 L 365 481.5 L 367.5 478 L 369 477.5 L 368 476.5 L 371 473.5 L 376.5 466 L 378 465.5 L 377 464.5 L 380 461.5 L 396.5 440 L 398 439.5 L 397 438.5 L 400 435.5 Q 455.21 362.71 515.5 295 L 517 294.5 L 516 293.5 L 523 286.5 L 540.5 266 L 544 263.5 L 543 262.5 L 552 253.5 L 556.5 248 L 560 245.5 L 559 244.5 L 566.5 237 L 569.5 235 L 569 233.5 L 581.5 221 L 585 218.5 L 584 217.5 L 595.5 206 L 604.5 198 L 607 198 L 608.5 195 L 621.5 189 Z M 635 192 L 635 195 L 638 194 L 635 192 Z M 619 201 L 619 202 L 622 202 L 619 201 Z M 623 202 L 612 209 L 584 238 L 579 241 L 579 243 L 539 287 L 467 372 L 387 473 Q 328 548 273 628 L 201 733 L 198 740 L 185 760 L 212 793 Q 288 872 398 918 L 435 932 L 496 949 L 527 955 L 554 958 L 555 959 L 573 960 L 574 961 L 587 961 L 588 962 L 610 962 L 611 963 L 662 962 L 663 961 L 686 960 L 687 959 L 695 959 L 696 958 L 717 956 L 754 949 L 786 941 L 815 932 Q 925 894 1004 823 Q 1038 792 1065 754 L 1047 724 L 958 596 L 960 595 L 961 596 L 960 592 Q 961 589 959 590 L 958 593 Q 959 595 956 594 L 915 537 L 837 435 Q 838 432 835 433 L 825 419 L 758 337 L 699 269 L 646 213 L 646 211 L 631 202 L 623 202 Z M 650 202 L 653 206 Q 655 207 654 204 L 650 202 Z M 644 208 L 644 210 L 648 212 L 649 210 Q 648 207 644 208 Z M 758 332 Q 755 336 759 335 L 758 332 Z M 785 366 L 785 368 L 788 369 L 788 368 L 785 366 Z M 977 618 L 978 620 Q 979 617 977 618 Z M 167 767 L 164 772 L 167 773 Q 166 770 169 769 L 167 767 Z M 176 772 L 174 775 L 176 774 L 176 772 Z M 166 792 L 164 795 L 163 798 L 165 803 L 166 795 L 166 792 Z M 1096 805 L 1093 808 Q 1092 813 1095 814 L 1097 809 Q 1098 804 1096 805 Z M 172 817 L 171 819 L 173 820 L 172 817 Z M 164 825 L 168 831 Q 170 830 169 827 Q 168 824 164 825 Z M 1084 828 L 1081 831 L 1082 836 L 1086 829 L 1084 828 Z M 186 836 L 187 838 Q 188 835 186 836 Z M 178 840 L 176 842 L 177 844 Q 179 848 181 845 L 183 846 L 182 842 L 178 840 Z M 1071 846 L 1069 850 L 1073 847 L 1071 846 Z M 193 857 L 192 860 L 199 866 L 200 863 L 198 858 L 193 857 Z M 1053 866 L 1051 868 Q 1050 871 1054 869 L 1055 867 L 1053 866 Z M 212 876 L 210 878 L 214 880 L 214 878 L 212 876 Z M 1036 883 L 1033 886 L 1034 887 L 1037 885 Q 1038 882 1036 883 Z M 230 892 L 228 894 L 231 895 Q 232 897 233 895 L 230 892 Z M 1006 908 L 1005 910 L 1005 911 L 1007 911 L 1006 908 Z M 260 916 L 261 918 Q 262 915 260 916 Z M 282 921 L 283 923 L 284 923 L 282 921 Z M 976 930 L 976 932 L 976 933 L 978 932 Q 979 929 976 930 Z M 962 941 L 960 942 L 958 942 L 957 944 L 957 945 L 962 943 L 962 941 Z M 302 946 L 302 948 L 307 951 L 310 950 Q 307 945 302 946 Z M 335 965 Q 333 968 336 967 L 335 965 Z M 919 966 L 919 968 L 922 967 L 919 966 Z M 354 975 Q 352 978 355 977 L 354 975 Z M 388 991 Q 386 994 389 993 L 388 991 Z M 853 998 L 852 1000 L 854 999 L 853 998 Z M 471 1012 L 471 1013 L 473 1013 L 471 1012 Z M 771 1025 L 772 1027 L 773 1027 L 771 1025 Z M 737 1033 L 737 1034 L 741 1034 L 737 1033 Z M 536 1035 L 535 1038 L 538 1039 L 539 1039 L 538 1036 Q 541 1035 540 1038 L 544 1039 L 544 1037 L 541 1035 L 536 1035 Z " /><path fill="rgb(88,95,44)" stroke="rgb(88,95,44)" stroke-width="1" opacity="1" d="M 733.5 451 L 734 458.5 L 733 458.5 L 733.5 451 Z " /><path fill="rgb(88,95,44)" stroke="rgb(88,95,44)" stroke-width="1" opacity="1" d="M 526.5 474 L 527 482.5 L 526 482.5 L 526.5 474 Z " /><path fill="rgb(88,95,44)" stroke="rgb(88,95,44)" stroke-width="1" opacity="1" d="M 491.5 484 L 492 487.5 L 491 487.5 L 491.5 484 Z " /><path fill="rgb(88,95,44)" stroke="rgb(88,95,44)" stroke-width="1" opacity="1" d="M 631.5 558 L 634 558.5 L 631.5 559 L 631.5 558 Z " /><path fill="rgb(88,95,44)" stroke="rgb(88,95,44)" stroke-width="1" opacity="1" d="M 405.5 594 L 409 594.5 L 405.5 595 L 405.5 594 Z " /><path fill="rgb(88,95,44)" stroke="rgb(88,95,44)" stroke-width="1" opacity="1" d="M 838.5 600 L 839 602.5 L 838 602.5 L 838.5 600 Z " /><path fill="rgb(88,95,44)" stroke="rgb(88,95,44)" stroke-width="1" opacity="1" d="M 412.5 612 L 413 614.5 L 412 614.5 L 412.5 612 Z " /><path fill="rgb(88,95,44)" stroke="rgb(88,95,44)" stroke-width="1" opacity="1" d="M 874.5 623 L 875 625.5 L 874 625.5 L 874.5 623 Z " /><path fill="rgb(88,95,44)" stroke="rgb(88,95,44)" stroke-width="1" opacity="1" d="M 373.5 626 L 374 629.5 L 373 629.5 L 373.5 626 Z " /><path fill="rgb(88,95,44)" stroke="rgb(88,95,44)" stroke-width="1" opacity="1" d="M 853.5 643 L 860 643.5 L 853.5 644 L 853.5 643 Z " /><path fill="rgb(88,95,44)" stroke="rgb(88,95,44)" stroke-width="1" opacity="1" d="M 329.5 714 L 333 714.5 L 329.5 715 L 329.5 714 Z " /><path fill="rgb(88,95,44)" stroke="rgb(88,95,44)" stroke-width="1" opacity="1" d="M 916.5 734 L 917 736.5 L 916 736.5 L 916.5 734 Z " /><path fill="rgb(88,95,44)" stroke="rgb(88,95,44)" stroke-width="1" opacity="1" d="M 728.5 738 L 729 747.5 L 728 747.5 L 728.5 738 Z " /><path fill="rgb(88,95,44)" stroke="rgb(88,95,44)" stroke-width="1" opacity="1" d="M 762.5 744 L 763 746.5 L 762 746.5 L 762.5 744 Z " /><path fill="rgb(88,95,44)" stroke="rgb(88,95,44)" stroke-width="1" opacity="1" d="M 298.5 745 L 299 749.5 L 298 749.5 L 298.5 745 Z " /><path fill="rgb(88,95,44)" stroke="rgb(88,95,44)" stroke-width="1" opacity="1" d="M 540.5 762 L 548 762.5 L 540.5 763 L 540.5 762 Z " /><path fill="rgb(88,95,44)" stroke="rgb(88,95,44)" stroke-width="1" opacity="1" d="M 747.5 766 L 750 766.5 L 747.5 767 L 747.5 766 Z " /><path fill="rgb(88,95,44)" stroke="rgb(88,95,44)" stroke-width="1" opacity="1" d="M 931.5 774 L 937 774.5 L 931.5 775 L 931.5 774 Z " /><path fill="rgb(88,95,44)" stroke="rgb(88,95,44)" stroke-width="1" opacity="1" d="M 651.5 837 L 652 839.5 L 651 839.5 L 651.5 837 Z " /><path fill="rgb(88,95,44)" stroke="rgb(88,95,44)" stroke-width="1" opacity="1" d="M 617.5 839 L 618 844.5 L 617 844.5 L 617.5 839 Z " /><path fill="rgb(239,78,71)" stroke="rgb(239,78,71)" stroke-width="1" opacity="1" d="M 622.5 203 L 630.5 203 L 639.5 208 L 666 233.5 Q 761.07 337.43 848 449.5 L 957 595.5 L 1031 701.5 L 1052 734.5 Q 1031.36 760.36 1006.5 782 Q 928.8 853.3 820.5 894 L 776.5 908 L 716.5 921 L 710.5 921 L 695.5 924 L 687.5 924 L 686.5 925 L 678.5 925 L 677.5 926 L 665.5 926 L 664.5 927 L 648.5 927 L 647.5 928 L 598.5 928 L 597.5 927 L 581.5 927 L 580.5 926 L 570.5 926 L 569.5 925 L 544.5 923 L 487.5 912 L 445.5 900 L 382.5 875 Q 278.75 826.75 206 747.5 L 199 739.5 L 199 737.5 Q 305.52 577.02 423 427.5 L 528 300.5 L 585 236.5 L 611.5 210 L 622.5 203 Z M 702 317 L 699 318 Q 693 321 691 328 L 691 336 L 693 341 L 707 359 L 724 374 L 733 378 Q 739 379 743 376 L 749 369 Q 750 358 746 353 L 732 336 L 717 321 L 709 317 L 702 317 Z M 741 429 L 739 430 L 735 436 L 733 444 L 733 465 L 738 477 Q 741 482 749 483 Q 758 484 763 480 Q 768 476 770 470 Q 771 461 768 456 L 758 441 L 747 430 L 741 429 Z M 515 448 L 509 452 Q 496 463 491 481 Q 489 492 494 497 Q 498 502 506 503 Q 516 504 521 499 L 527 488 L 527 469 L 524 457 L 521 450 L 518 448 L 515 448 Z M 630 558 Q 623 564 620 573 L 616 588 Q 615 599 619 606 Q 623 611 631 613 Q 641 614 646 609 L 650 604 L 652 597 L 652 591 L 649 580 L 638 561 Q 636 557 630 558 Z M 844 592 L 842 593 L 839 596 L 837 604 L 838 625 L 843 637 L 852 644 Q 863 646 869 641 Q 875 637 876 629 Q 874 613 864 605 L 852 594 Q 849 591 844 592 Z M 404 594 L 388 604 Q 377 611 373 624 Q 372 633 376 638 Q 380 643 388 645 Q 396 646 400 643 L 409 632 L 412 623 L 413 610 L 414 609 L 413 598 Q 412 593 404 594 Z M 547 708 L 544 709 Q 531 721 526 742 L 526 749 L 529 757 L 536 762 L 544 764 L 553 762 L 557 759 L 560 755 L 562 748 L 561 732 L 554 714 L 547 708 Z M 332 713 L 322 717 L 307 728 L 298 743 Q 297 752 300 757 Q 304 763 314 765 L 319 765 L 326 762 Q 331 758 334 751 L 338 736 L 338 720 L 337 717 L 332 713 Z M 738 713 L 736 714 L 731 721 L 728 733 L 728 752 L 733 763 Q 737 767 744 768 L 748 768 L 757 765 Q 762 761 764 755 L 764 747 L 762 740 L 753 725 L 743 714 L 738 713 Z M 922 722 L 917 728 L 915 737 L 915 752 L 920 768 L 930 775 Q 939 776 945 773 Q 951 769 953 762 Q 953 746 945 739 L 932 725 Q 929 721 922 722 Z M 636 805 L 630 807 Q 621 818 617 836 Q 615 848 620 854 L 625 858 L 635 861 L 645 858 Q 650 855 652 848 L 651 830 L 641 809 L 636 805 Z " /><path fill="rgb(225,227,163)" stroke="rgb(225,227,163)" stroke-width="1" opacity="1" d="M 691.5 329 L 692 332.5 L 691 332.5 L 691.5 329 Z " /><path fill="rgb(225,227,163)" stroke="rgb(225,227,163)" stroke-width="1" opacity="1" d="M 748.5 361 L 749 366.5 L 748 366.5 L 748.5 361 Z " /><path fill="rgb(225,227,163)" stroke="rgb(225,227,163)" stroke-width="1" opacity="1" d="M 1052.5 735 L 1064 753.5 Q 1037.34 792.34 1002.5 823 Q 925.42 891.92 817.5 930 L 770.5 944 L 716.5 955 L 710.5 955 L 695.5 958 L 676.5 959 L 675.5 960 L 662.5 960 L 661.5 961 L 609.5 962 L 608.5 961 L 586.5 961 L 585.5 960 L 572.5 960 L 571.5 959 L 553.5 958 L 495.5 948 L 437.5 932 L 397.5 917 Q 288.04 870.96 212 791.5 L 190 765.5 L 186 758.5 L 197.5 741 L 199 740.5 L 198.5 739 Q 215.45 761.05 236.5 779 Q 315.88 852.12 426.5 894 L 484.5 912 L 539.5 923 L 562.5 925 L 563.5 926 L 572.5 926 L 573.5 927 L 585.5 927 L 586.5 928 L 638.5 929 L 639.5 928 L 660.5 928 L 661.5 927 L 673.5 927 L 674.5 926 L 684.5 926 L 685.5 925 L 700.5 924 L 755.5 914 Q 809.91 900.91 856.5 880 Q 965.64 831.14 1041 748.5 L 1052.5 735 Z " /><path fill="rgb(225,227,163)" stroke="rgb(225,227,163)" stroke-width="1" opacity="1" d="M 151.5 798 L 152 804.5 L 151 804.5 L 151.5 798 Z " /><path fill="rgb(225,227,163)" stroke="rgb(225,227,163)" stroke-width="1" opacity="1" d="M 550.5 1042 L 554 1042.5 L 550.5 1043 L 550.5 1042 Z " /><path fill="rgb(225,227,163)" stroke="rgb(225,227,163)" stroke-width="1" opacity="1" d="M 559.5 1043 L 562 1043.5 L 559.5 1044 L 559.5 1043 Z " /><path fill="rgb(225,227,163)" stroke="rgb(225,227,163)" stroke-width="1" opacity="1" d="M 694.5 1043 L 697 1043.5 L 694.5 1044 L 694.5 1043 Z " /><path fill="rgb(225,227,163)" stroke="rgb(225,227,163)" stroke-width="1" opacity="1" d="M 568.5 1044 L 571 1044.5 L 568.5 1045 L 568.5 1044 Z " /><path fill="rgb(225,227,163)" stroke="rgb(225,227,163)" stroke-width="1" opacity="1" d="M 685.5 1044 L 689 1044.5 L 685.5 1045 L 685.5 1044 Z " /><path fill="rgb(225,227,163)" stroke="rgb(225,227,163)" stroke-width="1" opacity="1" d="M 577.5 1045 L 581 1045.5 L 577.5 1046 L 577.5 1045 Z " /><path fill="rgb(225,227,163)" stroke="rgb(225,227,163)" stroke-width="1" opacity="1" d="M 673.5 1045 L 676 1045.5 L 673.5 1046 L 673.5 1045 Z " /><path fill="rgb(225,227,163)" stroke="rgb(225,227,163)" stroke-width="1" opacity="1" d="M 590.5 1046 L 596 1046.5 L 590.5 1047 L 590.5 1046 Z " /><path fill="rgb(225,227,163)" stroke="rgb(225,227,163)" stroke-width="1" opacity="1" d="M 659.5 1046 L 664 1046.5 L 659.5 1047 L 659.5 1046 Z " /><path fill="rgb(225,227,163)" stroke="rgb(225,227,163)" stroke-width="1" opacity="1" d="M 616.5 1047 L 642 1047.5 L 616.5 1048 L 616.5 1047 Z " /><path fill="rgb(245,245,245)" stroke="rgb(245,245,245)" stroke-width="1" opacity="1" d="M 0 0 L 1254 0 L 1254 1254 L 0 1254 L 0 0 Z M 623 188 Q 613 190 608 195 L 587 214 Q 588 216 585 215 L 585 217 L 527 280 L 460 359 Q 389 445 322 537 Q 249 635 181 739 L 163 769 L 154 787 L 151 799 L 152 809 L 158 822 Q 174 844 193 864 Q 276 947 392 998 L 453 1021 L 501 1034 L 506 1034 L 521 1038 L 550 1042 L 551 1043 L 577 1045 L 578 1046 L 590 1046 L 591 1047 L 616 1047 L 617 1048 L 664 1047 L 665 1046 L 676 1046 L 677 1045 L 689 1045 L 690 1044 L 697 1044 L 704 1042 L 723 1040 L 724 1039 L 730 1039 L 783 1027 L 838 1009 L 902 981 L 948 955 Q 994 926 1035 890 Q 1060 868 1081 841 Q 1094 825 1101 804 Q 1103 791 1099 785 L 1079 749 L 1024 666 L 943 552 Q 875 458 802 369 Q 737 288 667 214 L 646 194 L 636 189 L 623 188 Z " /><path fill="rgb(245,245,245)" stroke="rgb(245,245,245)" stroke-width="1" opacity="1" d="M 701.5 318 L 711.5 319 L 731 335.5 L 745 352.5 Q 749.35 357.65 748 368.5 L 742.5 375 Q 739.17 378.17 731.5 377 L 723.5 373 L 708 358.5 L 694 340.5 Q 690.71 335.79 692 326.5 L 698.5 319 L 701.5 318 Z " /><path fill="rgb(170,71,50)" stroke="rgb(170,71,50)" stroke-width="1" opacity="1" d="M 635 192 L 638 193.5 L 635 195 L 635 192 Z " /><path fill="rgb(170,71,50)" stroke="rgb(170,71,50)" stroke-width="1" opacity="1" d="M 618.5 201 L 630.5 202 L 633 203.5 L 631.5 204 L 630.5 203 L 622.5 203 L 611.5 210 L 585 236.5 Q 501 328.5 423.5 427 L 425 424.5 L 508 322.5 L 579 242.5 L 579 241 L 584 237.5 L 611.5 209 L 622 202.5 Q 617.63 202.88 618.5 201 Z " /><path fill="rgb(170,71,50)" stroke="rgb(170,71,50)" stroke-width="1" opacity="1" d="M 650 202 L 654 203.5 Q 655.13 206.83 652.5 206 L 650 202 Z " /><path fill="rgb(170,71,50)" stroke="rgb(170,71,50)" stroke-width="1" opacity="1" d="M 634.5 204 L 643.5 210 L 644 208 Q 647.81 207 649 209.5 L 647.5 212 L 646 211.5 L 682 249.5 L 756.5 335 L 757.5 332 L 759 335 L 757 335.5 L 825 418.5 L 835 433 Q 837.67 431.88 837 434.5 L 915 536.5 L 956 594 Q 958.67 595.13 958 592.5 L 958.5 590 Q 960.75 589.25 960 591.5 L 961 595.5 L 959.5 595 L 958 595.5 L 1048.5 726 L 1049.5 724 L 1050 725.5 L 1049 727.5 L 1053 733.5 L 1050 731.5 L 1031 701.5 L 957 595.5 L 848 449.5 Q 752.23 324.77 644.5 212 L 635.5 206 L 634.5 204 Z " /><path fill="rgb(170,71,50)" stroke="rgb(170,71,50)" stroke-width="1" opacity="1" d="M 784.5 365 L 788 367.5 L 787.5 369 L 785 368 L 784.5 365 Z " /><path fill="rgb(170,71,50)" stroke="rgb(170,71,50)" stroke-width="1" opacity="1" d="M 422.5 428 L 420 431.5 L 409.5 445 L 410 443.5 L 422.5 428 Z " /><path fill="rgb(170,71,50)" stroke="rgb(170,71,50)" stroke-width="1" opacity="1" d="M 740.5 429 L 745 429.5 L 740.5 430 L 740.5 429 Z " /><path fill="rgb(170,71,50)" stroke="rgb(170,71,50)" stroke-width="1" opacity="1" d="M 734.5 438 L 735 440.5 L 734 440.5 L 734.5 438 Z " /><path fill="rgb(170,71,50)" stroke="rgb(170,71,50)" stroke-width="1" opacity="1" d="M 733.5 443 L 734 450.5 L 733 450.5 L 733.5 443 Z " /><path fill="rgb(170,71,50)" stroke="rgb(170,71,50)" stroke-width="1" opacity="1" d="M 408.5 446 L 406 449.5 Q 339.78 534.28 277.5 623 L 279 620.5 L 285 610.5 L 284.5 609 Q 286.25 611.75 288 607.5 L 290 603.5 L 289.5 602 Q 291.25 604.75 293 600.5 L 332 545.5 L 408.5 446 Z " /><path fill="rgb(170,71,50)" stroke="rgb(170,71,50)" stroke-width="1" opacity="1" d="M 514.5 448 Q 518.25 447.25 519 449.5 L 517.5 449 Q 513.5 449.75 514.5 448 Z " /><path fill="rgb(170,71,50)" stroke="rgb(170,71,50)" stroke-width="1" opacity="1" d="M 764.5 450 L 768 456.5 L 767 456.5 L 764.5 450 Z " /><path fill="rgb(170,71,50)" stroke="rgb(170,71,50)" stroke-width="1" opacity="1" d="M 522.5 454 L 524 457.5 L 523 457.5 L 522.5 454 Z " /><path fill="rgb(170,71,50)" stroke="rgb(170,71,50)" stroke-width="1" opacity="1" d="M 733.5 459 L 734 464.5 L 733 464.5 L 733.5 459 Z " /><path fill="rgb(170,71,50)" stroke="rgb(170,71,50)" stroke-width="1" opacity="1" d="M 769.5 461 L 770 469.5 L 769 469.5 L 769.5 461 Z " /><path fill="rgb(170,71,50)" stroke="rgb(170,71,50)" stroke-width="1" opacity="1" d="M 500.5 462 L 499 464.5 L 497.5 467 L 498 465.5 L 500.5 462 Z " /><path fill="rgb(170,71,50)" stroke="rgb(170,71,50)" stroke-width="1" opacity="1" d="M 525.5 464 L 526 466.5 L 525 466.5 L 525.5 464 Z " /><path fill="rgb(170,71,50)" stroke="rgb(170,71,50)" stroke-width="1" opacity="1" d="M 526.5 468 L 527 473.5 L 526 473.5 L 526.5 468 Z " /><path fill="rgb(170,71,50)" stroke="rgb(170,71,50)" stroke-width="1" opacity="1" d="M 495.5 470 L 495 471.5 L 494.5 473 L 494 471.5 L 495.5 470 Z " /><path fill="rgb(170,71,50)" stroke="rgb(170,71,50)" stroke-width="1" opacity="1" d="M 768.5 471 L 769 472.5 L 767 473.5 L 768.5 471 Z " /><path fill="rgb(170,71,50)" stroke="rgb(170,71,50)" stroke-width="1" opacity="1" d="M 736.5 472 L 738 474.5 L 736 473.5 L 736.5 472 Z " /><path fill="rgb(170,71,50)" stroke="rgb(170,71,50)" stroke-width="1" opacity="1" d="M 491.5 480 L 492 483.5 L 491 483.5 L 491.5 480 Z " /><path fill="rgb(170,71,50)" stroke="rgb(170,71,50)" stroke-width="1" opacity="1" d="M 743.5 480 L 746 481.5 L 744.5 482 L 743.5 480 Z " /><path fill="rgb(170,71,50)" stroke="rgb(170,71,50)" stroke-width="1" opacity="1" d="M 748.5 482 L 756 482.5 L 748.5 483 L 748.5 482 Z " /><path fill="rgb(170,71,50)" stroke="rgb(170,71,50)" stroke-width="1" opacity="1" d="M 526.5 483 L 527 487.5 L 526 487.5 L 526.5 483 Z " /><path fill="rgb(170,71,50)" stroke="rgb(170,71,50)" stroke-width="1" opacity="1" d="M 491.5 488 L 492 490.5 L 491 490.5 L 491.5 488 Z " /><path fill="rgb(170,71,50)" stroke="rgb(170,71,50)" stroke-width="1" opacity="1" d="M 492.5 492 L 494 494.5 L 492 493.5 L 492.5 492 Z " /><path fill="rgb(170,71,50)" stroke="rgb(170,71,50)" stroke-width="1" opacity="1" d="M 494.5 496 Q 497.58 500.42 504 501.5 L 501.5 502 Q 495.96 500.17 494.5 496 Z " /><path fill="rgb(170,71,50)" stroke="rgb(170,71,50)" stroke-width="1" opacity="1" d="M 505.5 502 L 513 502.5 L 505.5 503 L 505.5 502 Z " /><path fill="rgb(170,71,50)" stroke="rgb(170,71,50)" stroke-width="1" opacity="1" d="M 333.5 541 L 330.5 545 L 330.5 542 Q 332 544.5 333.5 541 Z " /><path fill="rgb(170,71,50)" stroke="rgb(170,71,50)" stroke-width="1" opacity="1" d="M 629.5 558 L 631 558.5 L 626.5 562 L 629.5 558 Z " /><path fill="rgb(170,71,50)" stroke="rgb(170,71,50)" stroke-width="1" opacity="1" d="M 647.5 577 L 649 580.5 L 648 580.5 L 647.5 577 Z " /><path fill="rgb(170,71,50)" stroke="rgb(170,71,50)" stroke-width="1" opacity="1" d="M 616.5 587 L 617 597.5 L 616 597.5 L 616.5 587 Z " /><path fill="rgb(170,71,50)" stroke="rgb(170,71,50)" stroke-width="1" opacity="1" d="M 651.5 590 L 652 596.5 L 651 596.5 L 651.5 590 Z " /><path fill="rgb(170,71,50)" stroke="rgb(170,71,50)" stroke-width="1" opacity="1" d="M 843.5 592 L 848 592.5 L 843.5 593 L 843.5 592 Z " /><path fill="rgb(170,71,50)" stroke="rgb(170,71,50)" stroke-width="1" opacity="1" d="M 413.5 601 L 414 608.5 L 413 608.5 L 413.5 601 Z " /><path fill="rgb(170,71,50)" stroke="rgb(170,71,50)" stroke-width="1" opacity="1" d="M 837.5 603 L 838 618.5 L 837 618.5 L 837.5 603 Z " /><path fill="rgb(170,71,50)" stroke="rgb(170,71,50)" stroke-width="1" opacity="1" d="M 630.5 612 L 637 612.5 L 630.5 613 L 630.5 612 Z " /><path fill="rgb(170,71,50)" stroke="rgb(170,71,50)" stroke-width="1" opacity="1" d="M 412.5 615 L 413 617.5 L 412 617.5 L 412.5 615 Z " /><path fill="rgb(170,71,50)" stroke="rgb(170,71,50)" stroke-width="1" opacity="1" d="M 838.5 622 L 839 624.5 L 838 624.5 L 838.5 622 Z " /><path fill="rgb(170,71,50)" stroke="rgb(170,71,50)" stroke-width="1" opacity="1" d="M 373.5 623 L 374 625.5 L 373 625.5 L 373.5 623 Z " /><path fill="rgb(170,71,50)" stroke="rgb(170,71,50)" stroke-width="1" opacity="1" d="M 276.5 624 L 275 626.5 L 272.5 630 L 273 628.5 L 276.5 624 Z " /><path fill="rgb(170,71,50)" stroke="rgb(170,71,50)" stroke-width="1" opacity="1" d="M 875.5 626 L 876 628.5 L 875 628.5 L 875.5 626 Z " /><path fill="rgb(170,71,50)" stroke="rgb(170,71,50)" stroke-width="1" opacity="1" d="M 271.5 631 L 270 633.5 L 260.5 647 L 262 644.5 L 271.5 631 Z " /><path fill="rgb(170,71,50)" stroke="rgb(170,71,50)" stroke-width="1" opacity="1" d="M 387.5 644 L 395 644.5 L 387.5 645 L 387.5 644 Z " /><path fill="rgb(170,71,50)" stroke="rgb(170,71,50)" stroke-width="1" opacity="1" d="M 259.5 648 L 258 650.5 L 233.5 686 L 235 683.5 L 259.5 648 Z " /><path fill="rgb(170,71,50)" stroke="rgb(170,71,50)" stroke-width="1" opacity="1" d="M 230.5 690 L 229 692.5 L 199.5 737 L 200 735.5 L 230.5 690 Z " /><path fill="rgb(170,71,50)" stroke="rgb(170,71,50)" stroke-width="1" opacity="1" d="M 199.5 712 Q 202.25 713.25 200 714.5 L 199.5 716 L 199 714.5 L 199.5 712 Z " /><path fill="rgb(170,71,50)" stroke="rgb(170,71,50)" stroke-width="1" opacity="1" d="M 737.5 713 Q 743.66 712.34 745 716.5 L 742.5 715 L 737.5 714 L 737.5 713 Z " /><path fill="rgb(170,71,50)" stroke="rgb(170,71,50)" stroke-width="1" opacity="1" d="M 333.5 714 L 337 716.5 L 336.5 718 L 334.5 715 L 333.5 714 Z " /><path fill="rgb(170,71,50)" stroke="rgb(170,71,50)" stroke-width="1" opacity="1" d="M 337.5 719 L 338 735.5 L 337 735.5 L 337.5 719 Z " /><path fill="rgb(170,71,50)" stroke="rgb(170,71,50)" stroke-width="1" opacity="1" d="M 534.5 721 L 534 722.5 L 532.5 725 L 533 723.5 L 534.5 721 Z " /><path fill="rgb(170,71,50)" stroke="rgb(170,71,50)" stroke-width="1" opacity="1" d="M 921.5 722 Q 928.04 720.96 930 724.5 L 928.5 724 L 921.5 723 L 918 725.5 L 921.5 722 Z " /><path fill="rgb(170,71,50)" stroke="rgb(170,71,50)" stroke-width="1" opacity="1" d="M 531.5 726 L 532 727.5 L 530.5 730 L 530 728.5 L 531.5 726 Z " /><path fill="rgb(170,71,50)" stroke="rgb(170,71,50)" stroke-width="1" opacity="1" d="M 729.5 727 L 730 730.5 L 729 730.5 L 729.5 727 Z " /><path fill="rgb(170,71,50)" stroke="rgb(170,71,50)" stroke-width="1" opacity="1" d="M 756.5 730 L 759 733.5 L 757 732.5 L 756.5 730 Z " /><path fill="rgb(170,71,50)" stroke="rgb(170,71,50)" stroke-width="1" opacity="1" d="M 916.5 730 L 917 733.5 L 916 733.5 L 916.5 730 Z " /><path fill="rgb(170,71,50)" stroke="rgb(170,71,50)" stroke-width="1" opacity="1" d="M 529.5 731 L 530 732.5 L 528.5 735 L 528 733.5 L 529.5 731 Z " /><path fill="rgb(170,71,50)" stroke="rgb(170,71,50)" stroke-width="1" opacity="1" d="M 560.5 731 L 561 734.5 L 560 734.5 L 560.5 731 Z " /><path fill="rgb(170,71,50)" stroke="rgb(170,71,50)" stroke-width="1" opacity="1" d="M 728.5 732 L 729 737.5 L 728 737.5 L 728.5 732 Z " /><path fill="rgb(170,71,50)" stroke="rgb(170,71,50)" stroke-width="1" opacity="1" d="M 301.5 736 L 301 737.5 L 300.5 739 L 300 737.5 L 301.5 736 Z " /><path fill="rgb(170,71,50)" stroke="rgb(170,71,50)" stroke-width="1" opacity="1" d="M 527.5 736 L 528 738.5 L 527 738.5 L 527.5 736 Z " /><path fill="rgb(170,71,50)" stroke="rgb(170,71,50)" stroke-width="1" opacity="1" d="M 915.5 736 L 916 751.5 L 915 751.5 L 915.5 736 Z " /><path fill="rgb(170,71,50)" stroke="rgb(170,71,50)" stroke-width="1" opacity="1" d="M 561.5 737 L 562 747.5 L 561 747.5 L 561.5 737 Z " /><path fill="rgb(170,71,50)" stroke="rgb(170,71,50)" stroke-width="1" opacity="1" d="M 336.5 738 L 337 741.5 L 336 741.5 L 336.5 738 Z " /><path fill="rgb(170,71,50)" stroke="rgb(170,71,50)" stroke-width="1" opacity="1" d="M 945.5 740 L 949 744.5 L 947 743.5 L 945.5 740 Z " /><path fill="rgb(170,71,50)" stroke="rgb(170,71,50)" stroke-width="1" opacity="1" d="M 526.5 741 L 527 748.5 L 526 748.5 L 526.5 741 Z " /><path fill="rgb(170,71,50)" stroke="rgb(170,71,50)" stroke-width="1" opacity="1" d="M 298.5 742 L 299 744.5 L 298 744.5 L 298.5 742 Z " /><path fill="rgb(170,71,50)" stroke="rgb(170,71,50)" stroke-width="1" opacity="1" d="M 763.5 746 L 764 754.5 L 763 754.5 L 763.5 746 Z " /><path fill="rgb(170,71,50)" stroke="rgb(170,71,50)" stroke-width="1" opacity="1" d="M 728.5 748 L 729 751.5 L 728 751.5 L 728.5 748 Z " /><path fill="rgb(170,71,50)" stroke="rgb(170,71,50)" stroke-width="1" opacity="1" d="M 559.5 753 L 560 754.5 L 558 755.5 L 559.5 753 Z " /><path fill="rgb(170,71,50)" stroke="rgb(170,71,50)" stroke-width="1" opacity="1" d="M 528.5 754 L 533 759.5 L 529 756.5 L 528.5 754 Z " /><path fill="rgb(170,71,50)" stroke="rgb(170,71,50)" stroke-width="1" opacity="1" d="M 916.5 754 L 917 757.5 L 916 757.5 L 916.5 754 Z " /><path fill="rgb(170,71,50)" stroke="rgb(170,71,50)" stroke-width="1" opacity="1" d="M 952.5 754 L 953 761.5 L 952 761.5 L 952.5 754 Z " /><path fill="rgb(170,71,50)" stroke="rgb(170,71,50)" stroke-width="1" opacity="1" d="M 762.5 756 L 763 757.5 L 761 758.5 L 762.5 756 Z " /><path fill="rgb(170,71,50)" stroke="rgb(170,71,50)" stroke-width="1" opacity="1" d="M 534.5 760 L 537 761.5 L 535.5 762 L 534.5 760 Z " /><path fill="rgb(170,71,50)" stroke="rgb(170,71,50)" stroke-width="1" opacity="1" d="M 553.5 760 L 552.5 762 L 551 761.5 L 553.5 760 Z " /><path fill="rgb(170,71,50)" stroke="rgb(170,71,50)" stroke-width="1" opacity="1" d="M 309.5 763 L 312 763.5 L 309.5 764 L 309.5 763 Z " /><path fill="rgb(170,71,50)" stroke="rgb(170,71,50)" stroke-width="1" opacity="1" d="M 313.5 764 L 319 764.5 L 313.5 765 L 313.5 764 Z " /><path fill="rgb(170,71,50)" stroke="rgb(170,71,50)" stroke-width="1" opacity="1" d="M 1074.5 766 L 1077 769.5 L 1075 768.5 L 1074.5 766 Z " /><path fill="rgb(170,71,50)" stroke="rgb(170,71,50)" stroke-width="1" opacity="1" d="M 166.5 767 L 169 768.5 Q 166.25 769.58 167 773 L 164 771.5 L 166.5 767 Z " /><path fill="rgb(170,71,50)" stroke="rgb(170,71,50)" stroke-width="1" opacity="1" d="M 743.5 767 L 748 767.5 L 743.5 768 L 743.5 767 Z " /><path fill="rgb(170,71,50)" stroke="rgb(170,71,50)" stroke-width="1" opacity="1" d="M 175.5 772 L 176 773.5 L 173 775.5 L 175.5 772 Z " /><path fill="rgb(170,71,50)" stroke="rgb(170,71,50)" stroke-width="1" opacity="1" d="M 937.5 774 L 940 774.5 L 937.5 775 L 937.5 774 Z " /><path fill="rgb(170,71,50)" stroke="rgb(170,71,50)" stroke-width="1" opacity="1" d="M 172.5 777 L 173 778.5 L 171 779.5 L 172.5 777 Z " /><path fill="rgb(170,71,50)" stroke="rgb(170,71,50)" stroke-width="1" opacity="1" d="M 165.5 792 L 166 794.5 L 164.5 803 L 163 797.5 L 164 794.5 L 165.5 792 Z " /><path fill="rgb(170,71,50)" stroke="rgb(170,71,50)" stroke-width="1" opacity="1" d="M 1095.5 805 Q 1098.5 804.12 1097 808.5 L 1094.5 814 Q 1091.75 812.75 1093 807.5 L 1095.5 805 Z " /><path fill="rgb(170,71,50)" stroke="rgb(170,71,50)" stroke-width="1" opacity="1" d="M 155.5 807 L 158 808 L 159 812 L 157 812.5 L 157.5 814 Q 153.79 811.96 155.5 807 Z " /><path fill="rgb(170,71,50)" stroke="rgb(170,71,50)" stroke-width="1" opacity="1" d="M 170.5 816 L 174 820.5 L 171 818.5 L 170.5 816 Z " /><path fill="rgb(170,71,50)" stroke="rgb(170,71,50)" stroke-width="1" opacity="1" d="M 164 825 Q 167.81 824 169 826.5 L 168 830.5 L 168.5 832 L 166 831.5 L 166 829.5 L 164 825 Z " /><path fill="rgb(170,71,50)" stroke="rgb(170,71,50)" stroke-width="1" opacity="1" d="M 1083.5 828 L 1086 829 L 1081.5 836 L 1081 830.5 L 1083.5 828 Z " /><path fill="rgb(170,71,50)" stroke="rgb(170,71,50)" stroke-width="1" opacity="1" d="M 650.5 829 L 651 831.5 L 650 831.5 L 650.5 829 Z " /><path fill="rgb(170,71,50)" stroke="rgb(170,71,50)" stroke-width="1" opacity="1" d="M 651.5 834 L 652 836.5 L 651 836.5 L 651.5 834 Z " /><path fill="rgb(170,71,50)" stroke="rgb(170,71,50)" stroke-width="1" opacity="1" d="M 617.5 835 L 618 838.5 L 617 838.5 L 617.5 835 Z " /><path fill="rgb(170,71,50)" stroke="rgb(170,71,50)" stroke-width="1" opacity="1" d="M 185.5 836 Q 187.75 835.25 187 837.5 L 187.5 839 L 185.5 836 Z " /><path fill="rgb(170,71,50)" stroke="rgb(170,71,50)" stroke-width="1" opacity="1" d="M 174.5 839 Q 176 842.5 177.5 840 L 182 842 L 183 846 L 180.5 847 L 174.5 839 Z " /><path fill="rgb(170,71,50)" stroke="rgb(170,71,50)" stroke-width="1" opacity="1" d="M 617.5 845 L 618 847.5 L 617 847.5 L 617.5 845 Z " /><path fill="rgb(170,71,50)" stroke="rgb(170,71,50)" stroke-width="1" opacity="1" d="M 651.5 845 L 652 847.5 L 651 847.5 L 651.5 845 Z " /><path fill="rgb(170,71,50)" stroke="rgb(170,71,50)" stroke-width="1" opacity="1" d="M 1070.5 846 L 1073 846.5 L 1069 849.5 L 1070.5 846 Z " /><path fill="rgb(170,71,50)" stroke="rgb(170,71,50)" stroke-width="1" opacity="1" d="M 190.5 857 L 192.5 857 L 198 858 L 200 862.5 L 198.5 866 L 192.5 860 Q 191.25 862.25 190 859.5 L 190.5 857 Z " /><path fill="rgb(170,71,50)" stroke="rgb(170,71,50)" stroke-width="1" opacity="1" d="M 628.5 859 L 631 859.5 L 628.5 860 L 628.5 859 Z " /><path fill="rgb(170,71,50)" stroke="rgb(170,71,50)" stroke-width="1" opacity="1" d="M 1052.5 866 L 1055 866.5 L 1054 869 Q 1050.25 870.5 1051 867.5 L 1052.5 866 Z " /><path fill="rgb(170,71,50)" stroke="rgb(170,71,50)" stroke-width="1" opacity="1" d="M 211.5 876 L 214 877.5 L 213.5 880 L 210 877.5 L 211.5 876 Z " /><path fill="rgb(170,71,50)" stroke="rgb(170,71,50)" stroke-width="1" opacity="1" d="M 1035.5 883 Q 1038.13 882.33 1037 885 L 1033.5 887 L 1033 885.5 L 1035.5 883 Z " /><path fill="rgb(170,71,50)" stroke="rgb(170,71,50)" stroke-width="1" opacity="1" d="M 227.5 892 L 229.5 892 L 233 894.5 L 232.5 897 L 227.5 892 Z " /><path fill="rgb(170,71,50)" stroke="rgb(170,71,50)" stroke-width="1" opacity="1" d="M 1005.5 908 L 1007 910.5 L 1004.5 911 L 1005 909.5 L 1005.5 908 Z " /><path fill="rgb(170,71,50)" stroke="rgb(170,71,50)" stroke-width="1" opacity="1" d="M 259.5 916 Q 261.75 915.25 261 917.5 L 258 917.5 L 259.5 916 Z " /><path fill="rgb(170,71,50)" stroke="rgb(170,71,50)" stroke-width="1" opacity="1" d="M 278.5 919 L 286 923.5 L 284.5 924 L 278.5 920 L 278.5 919 Z " /><path fill="rgb(170,71,50)" stroke="rgb(170,71,50)" stroke-width="1" opacity="1" d="M 976 930 Q 978.67 928.88 978 931.5 L 975.5 933 L 976 931.5 L 976 930 Z " /><path fill="rgb(170,71,50)" stroke="rgb(170,71,50)" stroke-width="1" opacity="1" d="M 307.5 938 L 311 940.5 L 309.5 940 L 307.5 938 Z " /><path fill="rgb(170,71,50)" stroke="rgb(170,71,50)" stroke-width="1" opacity="1" d="M 961.5 941 L 962 942.5 L 961.5 945 L 958.5 944 L 956.5 945 L 957 943.5 L 957.5 942 L 959.5 942 L 961.5 941 Z " /><path fill="rgb(170,71,50)" stroke="rgb(170,71,50)" stroke-width="1" opacity="1" d="M 302 946 Q 307.33 945.42 310 949.5 L 306.5 951 L 302 948 L 302 946 Z " /><path fill="rgb(170,71,50)" stroke="rgb(170,71,50)" stroke-width="1" opacity="1" d="M 938.5 956 L 937.5 958 L 935.5 959 L 936.5 957 L 938.5 956 Z " /><path fill="rgb(170,71,50)" stroke="rgb(170,71,50)" stroke-width="1" opacity="1" d="M 919 966 L 922 966.5 L 919 968 L 919 966 Z " /><path fill="rgb(170,71,50)" stroke="rgb(170,71,50)" stroke-width="1" opacity="1" d="M 852.5 998 L 854 998.5 L 851.5 1000 L 852.5 998 Z " /><path fill="rgb(170,71,50)" stroke="rgb(170,71,50)" stroke-width="1" opacity="1" d="M 470.5 1012 L 473 1012.5 L 470.5 1013 L 470.5 1012 Z " /><path fill="rgb(170,71,50)" stroke="rgb(170,71,50)" stroke-width="1" opacity="1" d="M 770.5 1025 L 773 1026.5 L 771.5 1027 L 770.5 1025 Z " /><path fill="rgb(170,71,50)" stroke="rgb(170,71,50)" stroke-width="1" opacity="1" d="M 736.5 1033 L 741 1033.5 L 736.5 1034 L 736.5 1033 Z " /><path fill="rgb(170,71,50)" stroke="rgb(170,71,50)" stroke-width="1" opacity="1" d="M 536 1035 L 540.5 1035 L 544 1037 L 543.5 1039 L 540 1038 Q 541 1035 538 1036 L 539 1038.5 L 537.5 1039 L 535 1037.5 L 536 1035 Z " /><path fill="rgb(230,156,116)" stroke="rgb(230,156,116)" stroke-width="1" opacity="1" d="M 701.5 317 L 709 317.5 L 701.5 318 L 701.5 317 Z " /><path fill="rgb(230,156,116)" stroke="rgb(230,156,116)" stroke-width="1" opacity="1" d="M 698.5 318 L 700 318.5 L 697.5 320 L 698.5 318 Z " /><path fill="rgb(230,156,116)" stroke="rgb(230,156,116)" stroke-width="1" opacity="1" d="M 710.5 318 L 713 319.5 L 711.5 319 L 710.5 318 Z " /><path fill="rgb(230,156,116)" stroke="rgb(230,156,116)" stroke-width="1" opacity="1" d="M 691.5 333 L 692 335.5 L 691 335.5 L 691.5 333 Z " /><path fill="rgb(230,156,116)" stroke="rgb(230,156,116)" stroke-width="1" opacity="1" d="M 693.5 339 L 695 341.5 L 693 340.5 L 693.5 339 Z " /><path fill="rgb(230,156,116)" stroke="rgb(230,156,116)" stroke-width="1" opacity="1" d="M 732.5 377 L 738 377.5 L 732.5 378 L 732.5 377 Z " /><path fill="rgb(230,156,116)" stroke="rgb(230,156,116)" stroke-width="1" opacity="1" d="M 306.5 832 L 310 834.5 L 308.5 834 L 306.5 832 Z " /><path fill="rgb(230,156,116)" stroke="rgb(230,156,116)" stroke-width="1" opacity="1" d="M 905.5 854 L 904.5 856 L 902.5 857 L 903.5 855 L 905.5 854 Z " /><path fill="rgb(230,156,116)" stroke="rgb(230,156,116)" stroke-width="1" opacity="1" d="M 346.5 856 L 350 858.5 L 348.5 858 L 346.5 856 Z " /><path fill="rgb(230,156,116)" stroke="rgb(230,156,116)" stroke-width="1" opacity="1" d="M 365.5 866 L 368 867.5 L 366.5 868 L 365.5 866 Z " /><path fill="rgb(230,156,116)" stroke="rgb(230,156,116)" stroke-width="1" opacity="1" d="M 870.5 872 L 872 872.5 L 866.5 875 L 866.5 874 L 870.5 872 Z " /><path fill="rgb(230,156,116)" stroke="rgb(230,156,116)" stroke-width="1" opacity="1" d="M 383.5 875 L 387 876.5 L 385.5 877 L 383.5 875 Z " /><path fill="rgb(230,156,116)" stroke="rgb(230,156,116)" stroke-width="1" opacity="1" d="M 394.5 880 L 398 881.5 L 396.5 882 L 394.5 880 Z " /><path fill="rgb(230,156,116)" stroke="rgb(230,156,116)" stroke-width="1" opacity="1" d="M 406.5 885 L 410 886.5 L 408.5 887 L 406.5 885 Z " /><path fill="rgb(230,156,116)" stroke="rgb(230,156,116)" stroke-width="1" opacity="1" d="M 411.5 887 L 415 888.5 L 413.5 889 L 411.5 887 Z " /><path fill="rgb(230,156,116)" stroke="rgb(230,156,116)" stroke-width="1" opacity="1" d="M 416.5 889 L 420 890.5 L 418.5 891 L 416.5 889 Z " /><path fill="rgb(230,156,116)" stroke="rgb(230,156,116)" stroke-width="1" opacity="1" d="M 424.5 892 L 428 893.5 L 426.5 894 L 424.5 892 Z " /><path fill="rgb(230,156,116)" stroke="rgb(230,156,116)" stroke-width="1" opacity="1" d="M 438.5 897 L 445 899.5 L 443.5 900 L 438.5 898 L 438.5 897 Z " /><path fill="rgb(230,156,116)" stroke="rgb(230,156,116)" stroke-width="1" opacity="1" d="M 446.5 900 L 449 900.5 L 446.5 901 L 446.5 900 Z " /><path fill="rgb(230,156,116)" stroke="rgb(230,156,116)" stroke-width="1" opacity="1" d="M 790.5 903 L 793 903.5 L 790.5 904 L 790.5 903 Z " /><path fill="rgb(230,156,116)" stroke="rgb(230,156,116)" stroke-width="1" opacity="1" d="M 459.5 904 L 462 904.5 L 459.5 905 L 459.5 904 Z " /><path fill="rgb(230,156,116)" stroke="rgb(230,156,116)" stroke-width="1" opacity="1" d="M 466.5 906 L 472 907.5 L 469.5 908 L 466.5 907 L 466.5 906 Z " /><path fill="rgb(230,156,116)" stroke="rgb(230,156,116)" stroke-width="1" opacity="1" d="M 473.5 908 L 476 908.5 L 473.5 909 L 473.5 908 Z " /><path fill="rgb(230,156,116)" stroke="rgb(230,156,116)" stroke-width="1" opacity="1" d="M 769.5 909 L 772 909.5 L 769.5 910 L 769.5 909 Z " /><path fill="rgb(230,156,116)" stroke="rgb(230,156,116)" stroke-width="1" opacity="1" d="M 765.5 910 L 768 910.5 L 765.5 911 L 765.5 910 Z " /><path fill="rgb(230,156,116)" stroke="rgb(230,156,116)" stroke-width="1" opacity="1" d="M 484.5 911 L 487 911.5 L 484.5 912 L 484.5 911 Z " /><path fill="rgb(230,156,116)" stroke="rgb(230,156,116)" stroke-width="1" opacity="1" d="M 761.5 911 L 764 911.5 L 761.5 912 L 761.5 911 Z " /><path fill="rgb(230,156,116)" stroke="rgb(230,156,116)" stroke-width="1" opacity="1" d="M 489.5 912 L 492 912.5 L 489.5 913 L 489.5 912 Z " /><path fill="rgb(230,156,116)" stroke="rgb(230,156,116)" stroke-width="1" opacity="1" d="M 757.5 912 L 760 912.5 L 757.5 913 L 757.5 912 Z " /><path fill="rgb(230,156,116)" stroke="rgb(230,156,116)" stroke-width="1" opacity="1" d="M 493.5 913 L 496 913.5 L 493.5 914 L 493.5 913 Z " /><path fill="rgb(230,156,116)" stroke="rgb(230,156,116)" stroke-width="1" opacity="1" d="M 752.5 913 L 756 913.5 L 752.5 914 L 752.5 913 Z " /><path fill="rgb(230,156,116)" stroke="rgb(230,156,116)" stroke-width="1" opacity="1" d="M 497.5 914 L 500 914.5 L 497.5 915 L 497.5 914 Z " /><path fill="rgb(230,156,116)" stroke="rgb(230,156,116)" stroke-width="1" opacity="1" d="M 748.5 914 L 751 914.5 L 748.5 915 L 748.5 914 Z " /><path fill="rgb(230,156,116)" stroke="rgb(230,156,116)" stroke-width="1" opacity="1" d="M 502.5 915 L 505 915.5 L 502.5 916 L 502.5 915 Z " /><path fill="rgb(230,156,116)" stroke="rgb(230,156,116)" stroke-width="1" opacity="1" d="M 743.5 915 L 747 915.5 L 743.5 916 L 743.5 915 Z " /><path fill="rgb(230,156,116)" stroke="rgb(230,156,116)" stroke-width="1" opacity="1" d="M 506.5 916 L 510 916.5 L 506.5 917 L 506.5 916 Z " /><path fill="rgb(230,156,116)" stroke="rgb(230,156,116)" stroke-width="1" opacity="1" d="M 738.5 916 L 742 916.5 L 738.5 917 L 738.5 916 Z " /><path fill="rgb(230,156,116)" stroke="rgb(230,156,116)" stroke-width="1" opacity="1" d="M 511.5 917 L 515 917.5 L 511.5 918 L 511.5 917 Z " /><path fill="rgb(230,156,116)" stroke="rgb(230,156,116)" stroke-width="1" opacity="1" d="M 733.5 917 L 737 917.5 L 733.5 918 L 733.5 917 Z " /><path fill="rgb(230,156,116)" stroke="rgb(230,156,116)" stroke-width="1" opacity="1" d="M 516.5 918 L 520 918.5 L 516.5 919 L 516.5 918 Z " /><path fill="rgb(230,156,116)" stroke="rgb(230,156,116)" stroke-width="1" opacity="1" d="M 728.5 918 L 732 918.5 L 728.5 919 L 728.5 918 Z " /><path fill="rgb(230,156,116)" stroke="rgb(230,156,116)" stroke-width="1" opacity="1" d="M 521.5 919 L 526 919.5 L 521.5 920 L 521.5 919 Z " /><path fill="rgb(230,156,116)" stroke="rgb(230,156,116)" stroke-width="1" opacity="1" d="M 723.5 919 L 726 919.5 L 723.5 920 L 723.5 919 Z " /><path fill="rgb(230,156,116)" stroke="rgb(230,156,116)" stroke-width="1" opacity="1" d="M 527.5 920 L 532 920.5 L 527.5 921 L 527.5 920 Z " /><path fill="rgb(230,156,116)" stroke="rgb(230,156,116)" stroke-width="1" opacity="1" d="M 717.5 920 L 721 920.5 L 717.5 921 L 717.5 920 Z " /><path fill="rgb(230,156,116)" stroke="rgb(230,156,116)" stroke-width="1" opacity="1" d="M 533.5 921 L 538 921.5 L 533.5 922 L 533.5 921 Z " /><path fill="rgb(230,156,116)" stroke="rgb(230,156,116)" stroke-width="1" opacity="1" d="M 710.5 921 L 715 921.5 L 710.5 922 L 710.5 921 Z " /><path fill="rgb(230,156,116)" stroke="rgb(230,156,116)" stroke-width="1" opacity="1" d="M 539.5 922 L 544 922.5 L 539.5 923 L 539.5 922 Z " /><path fill="rgb(230,156,116)" stroke="rgb(230,156,116)" stroke-width="1" opacity="1" d="M 703.5 922 L 708 922.5 L 703.5 923 L 703.5 922 Z " /><path fill="rgb(230,156,116)" stroke="rgb(230,156,116)" stroke-width="1" opacity="1" d="M 546.5 923 L 551 923.5 L 546.5 924 L 546.5 923 Z " /><path fill="rgb(230,156,116)" stroke="rgb(230,156,116)" stroke-width="1" opacity="1" d="M 696.5 923 L 701 923.5 L 696.5 924 L 696.5 923 Z " /><path fill="rgb(230,156,116)" stroke="rgb(230,156,116)" stroke-width="1" opacity="1" d="M 554.5 924 L 560 924.5 L 554.5 925 L 554.5 924 Z " /><path fill="rgb(230,156,116)" stroke="rgb(230,156,116)" stroke-width="1" opacity="1" d="M 687.5 924 L 693 924.5 L 687.5 925 L 687.5 924 Z " /><path fill="rgb(230,156,116)" stroke="rgb(230,156,116)" stroke-width="1" opacity="1" d="M 563.5 925 L 570 925.5 L 563.5 926 L 563.5 925 Z " /><path fill="rgb(230,156,116)" stroke="rgb(230,156,116)" stroke-width="1" opacity="1" d="M 678.5 925 L 685 925.5 L 678.5 926 L 678.5 925 Z " /><path fill="rgb(230,156,116)" stroke="rgb(230,156,116)" stroke-width="1" opacity="1" d="M 573.5 926 L 581 926.5 L 573.5 927 L 573.5 926 Z " /><path fill="rgb(230,156,116)" stroke="rgb(230,156,116)" stroke-width="1" opacity="1" d="M 665.5 926 L 674 926.5 L 665.5 927 L 665.5 926 Z " /><path fill="rgb(230,156,116)" stroke="rgb(230,156,116)" stroke-width="1" opacity="1" d="M 586.5 927 L 598 927.5 L 586.5 928 L 586.5 927 Z " /><path fill="rgb(230,156,116)" stroke="rgb(230,156,116)" stroke-width="1" opacity="1" d="M 648.5 927 L 661 927.5 L 648.5 928 L 648.5 927 Z " /><path fill="rgb(230,156,116)" stroke="rgb(230,156,116)" stroke-width="1" opacity="1" d="M 608.5 928 L 639 928.5 L 608.5 929 L 608.5 928 Z " /></svg>